<svg width="148" height="220" viewBox="0 0 148 220" fill="none" xmlns="http://www.w3.org/2000/svg">
<mask id="mask0" mask-type="alpha" maskUnits="userSpaceOnUse" x="0" y="0" width="148" height="220">
<rect width="147.391" height="219.97" fill="white"/>
</mask>
<g mask="url(#mask0)">
<path d="M94.3625 85.0255C97.6423 84.8824 100.928 84.9735 104.195 85.2981C104.195 85.2981 104.605 82.163 102.146 82.7083C99.6884 83.2535 94.3625 85.0255 94.3625 85.0255Z" fill="#6F85E9"/>
<path d="M101.6 78.3465C90.1192 76.7836 74.2884 70.7133 65.5486 67.9871C56.8088 65.261 52.9851 66.0788 52.9851 66.0788C57.6282 64.9884 62.8174 58.9909 72.6497 45.9054C83.4316 31.556 76.2002 10.4655 63.0905 10.4655C51.8793 10.4655 27.5851 20.5522 14.7485 41.5435C-1.41637 67.9773 1.22906 88.0243 8.05704 107.107C8.05704 107.107 26.0829 92.6588 58.0378 87.4791C58.5841 86.6612 56.0916 83.2735 55.8529 82.8446C72.24 83.9351 81.5261 82.8446 86.9885 83.1172C89.1297 83.2241 94.4992 86.2523 96.9573 84.6166C99.2411 83.0968 103.512 82.1631 103.785 83.5262C104.437 86.7782 104.878 87.6154 106.516 87.6154C107.336 85.7071 107.609 79.1643 101.6 78.3465Z" fill="#6F85E9"/>
<path d="M104.441 79.3854C108.155 80.5271 110.067 81.6175 110.886 82.9806C111.466 83.9443 113.274 88.2745 111.979 88.7055C111.159 88.9781 110.067 87.8877 110.067 87.8877" fill="#6F85E9"/>
<path d="M111.7 89.1581C110.79 89.1581 109.891 88.2901 109.777 88.1767C109.674 88.0733 109.633 87.9227 109.671 87.7816C109.709 87.6405 109.82 87.5303 109.961 87.4925C110.102 87.4547 110.253 87.4951 110.357 87.5985C110.656 87.8953 111.415 88.4648 111.849 88.3176C111.873 88.3097 111.924 88.2928 111.968 88.1737C112.312 87.2449 111.14 84.1976 110.535 83.1908C109.768 81.9147 107.851 80.8613 104.321 79.7761C104.106 79.7082 103.987 79.4805 104.053 79.2659C104.119 79.0513 104.347 78.9302 104.562 78.9945C108.35 80.1591 110.347 81.2885 111.238 82.7702C111.632 83.4245 113.278 86.9957 112.736 88.4572C112.639 88.7563 112.406 88.9921 112.108 89.0935C111.977 89.1368 111.839 89.1586 111.7 89.1581Z" fill="#1A1A1A"/>
<path d="M104.062 79.1588C108.701 81.3452 110.34 85.707 110.067 87.6153C109.794 89.5236 107.09 86.2133 106.954 84.8892" fill="#6F85E9"/>
<path d="M109.603 88.603H109.586C108.439 88.5804 106.662 86.0677 106.545 84.9312C106.522 84.7065 106.685 84.5056 106.911 84.4826C107.136 84.4596 107.337 84.6231 107.36 84.8478C107.429 85.5187 108.365 86.9289 109.147 87.5423C109.273 87.6653 109.431 87.7497 109.603 87.7852C109.63 87.7117 109.65 87.6355 109.661 87.5578C109.901 85.8783 108.414 81.6625 103.886 79.5288C103.682 79.4324 103.594 79.1886 103.691 78.9844C103.787 78.7801 104.031 78.6928 104.236 78.7892C109.207 81.1315 110.75 85.7313 110.472 87.6734C110.353 88.5054 109.838 88.603 109.603 88.603Z" fill="#1A1A1A"/>
<path d="M36.8812 54.879C35.6421 63.489 32.8358 79.0343 42.4326 81.7571C42.4326 81.7571 30.2706 81.1525 31.5898 73.6837C32.909 66.2148 32.1117 67.5329 36.8812 54.879Z" fill="white"/>
<path d="M60.9689 71.2955C60.9689 71.2955 77.0196 76.7108 83.5745 76.9834C90.1293 77.256 89.9578 76.2075 95.7791 77.277C84.4796 74.2362 64.1134 67.2243 60.4609 66.6516C60.804 68.5048 61.3054 69.1517 60.9689 71.2955Z" fill="white"/>
<path d="M8.19189 107.095C17.6161 98.9289 49.101 87.2792 64.1829 87.0701C83.8475 86.7975 104.878 89.5237 110.886 93.6129C125.415 103.5 95.3185 153.588 79.2045 166.674C74.8346 163.947 62.5442 154.951 62.5442 154.951C62.5442 154.951 83.3013 128.508 87.3981 114.604C87.3981 114.604 83.0282 114.243 73.8098 117.354C64.5915 120.465 53.1342 123.522 30.7259 123.192C12.1538 122.919 14.6118 119.102 8.19189 107.095Z" fill="white"/>
<path d="M106.974 14.819C106.974 9.09413 103.629 -0.68347 88.8148 0.508947C74.0005 1.70136 71.133 8.85641 71.3884 13.6054L77.5609 34.8723C77.5609 34.8723 85.0028 38.9934 93.1716 34.9849C95.6168 35.833 96.9387 36.2831 98.1336 35.3289C99.3285 34.3748 98.1336 33.4206 98.7189 31.0347L98.7142 31.0377C104.304 25.6939 106.974 18.2984 106.974 14.819Z" fill="#6F85E9"/>
<path d="M41.2739 17.5534C41.2739 17.5534 57.0818 13.1915 65.0022 16.4629C72.9227 19.7343 75.6539 23.2783 77.2926 25.7318C75.3808 19.7343 75.2491 13.8627 65.3412 10.6797C58.3108 8.42079 41.2739 17.5534 41.2739 17.5534Z" fill="white"/>
<path d="M48.4375 89.8331C53.9411 92.6587 56.9454 95.1123 64.3196 92.6587C71.6939 90.2052 76.8831 88.5695 83.1649 90.4778C89.4466 92.3861 89.4466 93.4766 93.2703 92.6587C97.0939 91.8409 114.185 92.3504 113.97 109.27C113.97 109.27 117.173 98.0063 111.367 93.9695C105.561 89.9326 88.4249 88.18 79.2396 87.4207C70.0543 86.6615 57.956 86.4622 48.4375 89.8331Z" fill="#6F85E9"/>
<path d="M79.4776 193.662C78.2562 192.443 74.0152 187.12 72.6496 178.941C72.3044 176.874 71.9942 175.261 71.7232 174.002C71.1097 171.169 72.0417 168.223 74.1742 166.256L76.0158 164.56L66.7975 158.038L62.8174 163.402C62.8174 163.402 56.2625 165.856 52.7119 170.763C50.734 173.496 50.527 177.578 52.7119 179.759C54.8969 181.94 60.6324 183.576 63.6367 186.302C66.641 189.028 74.0152 200.478 78.112 199.387C82.2088 198.297 80.8432 195.025 79.4776 193.662Z" fill="#6F85E9"/>
<path d="M36.8938 123.512C35.287 123.512 33.8048 123.493 32.4925 123.464C31.2454 123.437 30.089 123.429 28.9693 123.422C18.0636 123.349 13.5495 123.319 7.26175 105.746C0.115315 85.7728 -1.40569 67.1753 14.3989 41.3306C21.6912 29.4078 31.979 21.9414 39.3267 17.7767C47.7298 13.0147 56.8361 10.0565 63.0906 10.0565C68.3071 10.0565 72.9188 13.2859 75.7395 18.9165C79.2628 25.9524 79.7768 37.1023 72.9775 46.1507C64.6599 57.2205 59.6468 63.2613 55.4009 65.5663C57.4493 65.6459 60.804 66.0788 65.6702 67.5967C67.7552 68.2472 70.2886 69.1029 72.9715 70.0091C81.8705 73.0147 92.9455 76.7558 101.655 77.9422C103.824 78.2374 105.416 79.2551 106.387 80.9682C107.718 83.3157 107.476 86.4205 106.893 87.7781C106.828 87.9285 106.68 88.026 106.516 88.0259C104.472 88.0259 104.012 86.7471 103.383 83.6079C103.372 83.5534 103.29 83.4896 103.162 83.437C101.931 82.9275 97.7772 83.6551 95.8184 84.9585C94.0347 86.1454 91.7279 85.2428 89.6935 84.4465C88.7102 84.061 87.7794 83.6974 87.104 83.6636C85.2659 83.5717 82.55 83.6047 79.1112 83.6458C72.307 83.7276 62.9876 83.8397 52.1379 83.1181C35.7655 82.0276 32.4734 80.1302 31.2897 76.2874C30.7098 74.4064 31.7357 66.1001 35.8437 56.2456C39.4311 47.6394 46.32 35.6321 58.7652 27.3021C58.953 27.1794 59.2049 27.2304 59.3299 27.4166C59.4549 27.6028 59.4065 27.8547 59.2213 27.9815C46.9459 36.1981 40.1442 48.0579 36.6002 56.5597C32.6241 66.0979 31.5393 74.3161 32.073 76.0467C33.1209 79.4476 36.3992 81.2509 52.1926 82.3018C63.0103 83.0218 72.3108 82.9098 79.1013 82.828C82.5544 82.7866 85.2812 82.7536 87.145 82.8468C87.9542 82.8869 88.9443 83.2745 89.9928 83.6851C91.841 84.4081 93.9355 85.2275 95.364 84.278C97.4225 82.9084 101.895 82.0292 103.476 82.6813C103.831 82.7947 104.1 83.0856 104.186 83.4476C104.798 86.5056 105.191 87.1211 106.234 87.1988C106.626 85.9971 106.82 83.3945 105.673 81.3714C104.834 79.893 103.445 79.0119 101.543 78.7543C92.7562 77.5583 81.6397 73.8034 72.7076 70.7866C70.0297 69.8818 67.5003 69.0277 65.4249 68.3802C56.9287 65.7304 53.1072 66.4738 53.0685 66.4817C52.8476 66.5311 52.6286 66.3923 52.5792 66.1719C52.5298 65.9515 52.6687 65.7328 52.8896 65.6835C57.4198 64.6203 62.7647 58.3799 72.3204 45.6627C78.9096 36.8935 78.4166 26.0958 75.0048 19.2848C72.3283 13.9415 67.9857 10.8771 63.0889 10.8771C56.9675 10.8771 48.0166 13.7941 39.7299 18.4912C32.4649 22.6077 22.2964 29.986 15.0964 41.7591C-0.537167 67.3247 0.965808 85.7185 8.03331 105.47C14.1282 122.505 18.1707 122.532 28.9744 122.604C30.0967 122.611 31.2572 122.619 32.51 122.646C41.1353 122.833 57.1259 122.625 67.3275 119.124L68.7835 118.623C76.9467 115.808 85.3872 112.898 93.743 114.2C93.9666 114.235 94.1196 114.444 94.0848 114.667C94.05 114.89 93.8404 115.043 93.6168 115.008C85.462 113.736 77.1204 116.614 69.0508 119.397L67.5935 119.899C58.8329 122.904 45.9092 123.512 36.8938 123.512Z" fill="#1A1A1A"/>
<path d="M79.2046 167.082C79.1273 167.083 79.0516 167.061 78.9861 167.02C74.6534 164.317 62.4236 155.371 62.3007 155.281C62.2112 155.216 62.1522 155.117 62.1371 155.007C62.1219 154.897 62.152 154.786 62.2204 154.699C62.4274 154.435 82.9758 128.158 87.0038 114.488C87.0436 114.346 87.1568 114.237 87.3001 114.202C87.4434 114.166 87.5946 114.211 87.696 114.318C87.7974 114.425 87.8332 114.578 87.7898 114.719C83.9662 127.692 65.5391 151.752 63.125 154.869C65.0969 156.308 75.0961 163.585 79.1718 166.17C92.724 154.972 115.048 119.285 114.312 101.91C114.153 98.1718 112.923 95.4939 110.656 93.9495C104.909 90.0389 84.4998 87.1931 64.1888 87.4779C48.9979 87.6884 19.3082 98.3048 8.45557 107.406C8.2821 107.551 8.02348 107.529 7.87792 107.356C7.73236 107.182 7.75498 106.924 7.92845 106.779C13.2592 102.308 22.9773 97.3771 34.5942 93.2506C45.9321 89.2221 56.9913 86.7577 64.1773 86.6582C84.6358 86.3728 105.251 89.2796 111.117 93.2721C113.61 94.9686 114.96 97.8621 115.13 101.872C115.879 119.552 93.1064 155.909 79.463 166.988C79.3905 167.048 79.2992 167.082 79.2046 167.082Z" fill="#1A1A1A"/>
<path d="M77.5441 199.869C74.4032 199.869 70.1857 194.702 66.751 190.494C65.3766 188.81 64.1896 187.356 63.3613 186.604C61.8564 185.239 59.6403 184.151 57.4971 183.1C55.4569 182.099 53.5298 181.154 52.4223 180.047C50.2024 177.831 50.1827 173.558 52.38 170.522C55.7456 165.87 61.6352 163.425 62.5591 163.062L66.4683 157.793C66.5538 157.672 66.6987 157.606 66.8467 157.622C66.9947 157.637 67.1225 157.732 67.1806 157.869C67.2388 158.005 67.218 158.163 67.1265 158.28L63.1466 163.644C63.0998 163.708 63.0354 163.756 62.9614 163.784C62.897 163.808 56.4784 166.255 53.0442 171.001C51.0728 173.726 51.0537 177.524 53.0019 179.468C54.0124 180.477 55.8811 181.395 57.8587 182.364C60.053 183.441 62.3221 184.555 63.9124 185.998C64.7864 186.791 65.9911 188.267 67.3862 189.976C70.5479 193.85 75.3277 199.704 78.0065 198.991C79.3417 198.637 80.1349 198.024 80.364 197.173C80.6625 196.063 79.9636 194.724 79.188 193.95C79.1347 193.897 73.8329 188.513 72.2458 179.007C71.932 177.129 71.6215 175.473 71.323 174.086C70.6869 171.112 71.6641 168.024 73.896 165.954L75.7382 164.258C75.9046 164.105 76.1639 164.115 76.3174 164.281C76.4708 164.447 76.4604 164.706 76.294 164.859L74.4524 166.557C72.4327 168.43 71.5484 171.225 72.1243 173.916C72.4247 175.315 72.7383 176.983 73.0529 178.874C74.5977 188.125 79.7151 193.322 79.7667 193.373C80.7347 194.34 81.5395 195.955 81.1544 197.386C80.9409 198.179 80.2581 199.24 78.217 199.782C77.9974 199.84 77.7712 199.869 77.5441 199.869Z" fill="#1A1A1A"/>
<path d="M85.6523 37.1301C82.7804 37.1355 79.9452 36.4854 77.3634 35.2297C77.1674 35.1194 77.0973 34.8719 77.2064 34.6754C77.3154 34.4789 77.5629 34.407 77.7606 34.5144C77.84 34.5583 85.8129 38.849 94.104 34.0237C102.401 29.193 106.565 19.1081 106.565 14.8199C106.565 12.8942 106.151 8.03425 102.32 4.50607C99.2242 1.6537 94.692 0.446294 88.8476 0.916827C72.9132 2.19948 71.6157 10.2024 71.7976 13.5836C71.8054 13.7297 71.7346 13.8689 71.6118 13.9487C71.4889 14.0285 71.3328 14.0369 71.2021 13.9706C71.0714 13.9044 70.9861 13.7736 70.9782 13.6275C70.8101 10.5671 71.9692 7.58243 74.1598 5.4346C77.1657 2.43584 82.0849 0.640396 88.7806 0.101437C94.8589 -0.387361 99.6027 0.892019 102.874 3.90414C106.943 7.6515 107.383 12.7857 107.383 14.8191C107.383 19.0138 103.497 29.4997 94.5151 34.7295C91.8298 36.3081 88.7687 37.1373 85.6523 37.1301Z" fill="#1A1A1A"/>
<path d="M82.1238 22.1445C82.0403 22.1446 81.9588 22.119 81.8903 22.0712C80.233 20.9202 79.648 19.2191 80.3256 17.5202C81.0423 15.7247 82.9631 14.4691 84.5999 14.7123C85.5774 14.86 87.2606 15.6544 87.5496 19.3194C87.5673 19.5445 87.399 19.7413 87.1735 19.7592C86.9488 19.7743 86.7531 19.6076 86.7327 19.3838C86.5508 17.0856 85.7495 15.7144 84.4767 15.5222C83.2108 15.3275 81.6598 16.385 81.0862 17.8236C80.7716 18.6117 80.5187 20.1242 82.3573 21.4006C82.5045 21.5026 82.5682 21.6883 82.5145 21.859C82.4608 22.0296 82.3022 22.1456 82.123 22.1454L82.1238 22.1445Z" fill="#1A1A1A"/>
<path d="M103.552 22.275C102.218 22.275 101.64 21.1998 101.078 20.1486C100.445 18.9698 99.7919 17.7496 98.0445 17.3633C93.9119 16.4476 87.2642 18.9298 87.1978 18.9549C86.9908 19.0199 86.7688 18.9125 86.6918 18.7099C86.6148 18.5074 86.7094 18.28 86.9075 18.1915C87.1891 18.0849 93.8538 15.5965 98.2223 16.5665C100.337 17.0354 101.148 18.5481 101.8 19.7637C102.586 21.2293 103.019 22.0354 105.149 20.9809C105.28 20.916 105.436 20.9258 105.558 21.0066C105.68 21.0875 105.749 21.2272 105.74 21.373C105.731 21.5189 105.645 21.6488 105.513 21.7137C104.911 22.0477 104.24 22.2397 103.552 22.275Z" fill="#1A1A1A"/>
<path d="M96.4607 25.5517C94.6647 23.759 93.593 23.6434 93.1155 24.1207C92.6381 24.5981 93.1155 26.5056 94.3104 27.9373C95.5053 29.3691 96.2223 30.0839 97.4166 29.8456C98.611 29.6074 97.4166 26.5056 96.4607 25.5517Z" fill="white"/>
<path d="M80.691 20.9521C80.6804 20.9526 80.6697 20.9526 80.6591 20.9521C77.4316 20.7043 75.2745 18.4468 75.1844 18.3508C75.0294 18.1862 75.0375 17.9273 75.2024 17.7726C75.3674 17.6179 75.6267 17.6259 75.7817 17.7906C75.8017 17.8118 77.8195 19.9137 80.7222 20.137C80.9408 20.1548 81.1065 20.3413 81.0982 20.5601C81.0899 20.7789 80.9104 20.9523 80.691 20.9534V20.9521Z" fill="#1A1A1A"/>
<path fill-rule="evenodd" clip-rule="evenodd" d="M93.9956 28.1985C95.0627 29.476 95.8416 30.3001 96.9745 30.3001C97.15 30.2991 97.325 30.2809 97.497 30.2458C97.8678 30.1726 98.1634 29.8931 98.2568 29.5275C98.6053 28.3781 97.5798 26.0901 96.7506 25.2624C94.4192 22.9357 93.2904 23.368 92.8261 23.8315C92.0655 24.5907 92.8302 26.8024 93.9956 28.1985ZM93.4054 24.41C93.498 24.3258 93.6207 24.2825 93.7457 24.29C94.2261 24.29 95.0627 24.7341 96.1716 25.8409C96.8666 26.535 97.7002 28.5414 97.473 29.2908C97.4317 29.425 97.3787 29.4356 97.3364 29.4441C96.4277 29.6248 95.8651 29.1605 94.6252 27.6753C93.4136 26.2242 93.203 24.6171 93.4054 24.41Z" fill="#1A1A1A"/>
<path d="M95.425 29.1607C95.425 29.1607 95.6078 26.7925 97.707 27.8416C97.8432 29.2243 97.9735 30.6233 95.425 29.1607Z" fill="#1A1A1A"/>
<path d="M90.8883 36.3208C90.8372 36.321 90.7866 36.3118 90.7389 36.2935C90.1654 36.1083 89.7073 35.6728 89.494 35.1101C89.1627 34.1524 89.7507 33.1391 89.7761 33.0965C89.8925 32.9058 90.1407 32.8435 90.3336 32.9567C90.5265 33.0699 90.5928 33.3166 90.4824 33.5109C90.4726 33.5281 90.0618 34.2522 90.2697 34.8467C90.4086 35.1795 90.691 35.4316 91.0377 35.5326C91.2224 35.6035 91.3299 35.796 91.2932 35.9901C91.2565 36.1842 91.0861 36.3243 90.8883 36.3232V36.3208Z" fill="#1A1A1A"/>
<path d="M96.6023 36.2752C95.6407 36.2752 94.5132 35.884 93.0373 35.372C92.8235 35.2978 92.7105 35.0648 92.7848 34.8514C92.8591 34.6381 93.0926 34.5253 93.3063 34.5994C95.8288 35.4745 96.8921 35.7989 97.8778 35.0108C98.3325 34.6477 98.3219 34.3565 98.2241 33.5695C98.0824 32.6947 98.1153 31.8007 98.321 30.9387C98.3541 30.7951 98.4622 30.6803 98.6037 30.6384C98.7453 30.5964 98.8986 30.6338 99.0048 30.7362C99.1111 30.8386 99.1539 30.9901 99.1169 31.1328C98.9353 31.8985 98.9082 32.6926 99.0372 33.4689C99.1338 34.2472 99.2253 34.9824 98.3899 35.6498C97.8881 36.0648 97.2539 36.2867 96.6023 36.2752Z" fill="#1A1A1A"/>
<path d="M101.001 24.1206C100.523 23.6435 99.6865 23.0473 98.7308 23.5241C97.7752 24.0009 99.9254 25.6707 100.403 25.6707C100.881 25.6707 102.076 25.1939 101.001 24.1206Z" fill="#1A1A1A"/>
<path d="M104.113 85.8433C104.099 85.8433 104.086 85.8433 104.07 85.8411C101.472 85.574 93.7568 85.5707 93.6792 85.5707C93.453 85.5707 93.2695 85.3876 93.2695 85.1618C93.2695 84.9359 93.453 84.7529 93.6792 84.7529C93.9979 84.7529 101.514 84.7561 104.154 85.0277C104.371 85.0501 104.532 85.2379 104.521 85.4552C104.51 85.6724 104.331 85.8429 104.113 85.8433Z" fill="#1A1A1A"/>
<path d="M118.807 92.795L83.5176 86.9883C82.6671 86.8481 82.0683 86.0779 82.1433 85.2207C82.1837 84.7599 82.4163 84.3373 82.7844 84.0563C83.1525 83.7754 83.622 83.6619 84.0781 83.7437L119.353 90.0689" fill="#6F85E9"/>
<path d="M118.807 93.2039C118.784 93.2039 118.762 93.202 118.74 93.1985L83.4504 87.3918C82.7187 87.2743 82.1066 86.7733 81.8479 86.08C81.5891 85.3868 81.7235 84.6082 82.1999 84.0414C82.6762 83.4746 83.4209 83.207 84.1499 83.3407L119.425 89.6654C119.569 89.6913 119.688 89.792 119.738 89.9295C119.788 90.0669 119.76 90.2204 119.665 90.332C119.571 90.4436 119.424 90.4963 119.28 90.4704L84.0049 84.1458C83.662 84.0845 83.3092 84.1699 83.0326 84.3812C82.756 84.5925 82.5811 84.9101 82.5508 85.2564C82.4975 85.8997 82.9462 86.4767 83.5837 86.5849L118.873 92.3915C119.084 92.4254 119.234 92.6156 119.216 92.8284C119.199 93.0411 119.021 93.2048 118.807 93.2042V93.2039Z" fill="#1A1A1A"/>
<path d="M121.292 89.6458L144.058 62.0779C144.604 61.4128 145.572 61.2802 146.279 61.7736C146.658 62.0389 146.908 62.4513 146.968 62.91C147.028 63.3687 146.892 63.8313 146.593 64.1846L123.45 91.4319" fill="#6F85E9"/>
<path d="M123.45 91.8409C123.29 91.8408 123.145 91.7483 123.078 91.6038C123.011 91.4593 123.034 91.289 123.137 91.1675L146.28 63.9202C146.504 63.6547 146.607 63.307 146.562 62.9623C146.517 62.6176 146.329 62.3077 146.043 62.1084C145.512 61.7404 144.786 61.8397 144.374 62.3371L121.608 89.9058C121.463 90.0786 121.206 90.1025 121.032 89.9595C120.859 89.8164 120.833 89.5601 120.975 89.3857L143.741 61.8178C144.212 61.2537 144.948 60.9831 145.673 61.108C146.398 61.2329 147.001 61.7342 147.255 62.4232C147.509 63.1122 147.375 63.8842 146.905 64.4483L123.763 91.6964C123.685 91.7881 123.57 91.8409 123.45 91.8409Z" fill="#1A1A1A"/>
<ellipse cx="120.992" cy="91.9771" rx="2.45807" ry="2.45353" fill="#6F85E9"/>
<path fill-rule="evenodd" clip-rule="evenodd" d="M118.124 91.9772C118.124 93.5581 119.408 94.8397 120.992 94.8397C122.575 94.8379 123.858 93.5573 123.86 91.9772C123.86 90.3963 122.576 89.1147 120.992 89.1147C119.408 89.1147 118.124 90.3963 118.124 91.9772ZM118.943 91.9772C118.943 90.848 119.86 89.9326 120.992 89.9326C122.123 89.9338 123.039 90.8485 123.04 91.9772C123.04 93.1064 122.123 94.0218 120.992 94.0218C119.86 94.0218 118.943 93.1064 118.943 91.9772Z" fill="#1A1A1A"/>
<path d="M82.5757 19.5434C82.3732 19.5433 82.2012 19.3954 82.1709 19.1956C82.0457 18.4794 82.4006 17.7649 83.0477 17.4309C83.8446 17.0092 84.8199 17.1252 85.4953 17.7218C85.6059 17.8176 85.6569 17.965 85.629 18.1085C85.6012 18.2519 85.4988 18.3697 85.3604 18.4173C85.222 18.465 85.0687 18.4354 84.9581 18.3396C84.5425 17.9663 83.9383 17.8902 83.4429 18.1487C83.0989 18.3195 82.9104 18.6974 82.9813 19.0743C82.9976 19.1815 82.9705 19.2909 82.906 19.3782C82.8415 19.4655 82.7449 19.5237 82.6374 19.5399C82.617 19.5425 82.5963 19.5437 82.5757 19.5434Z" fill="#1A1A1A"/>
<path d="M48.4377 82.8353C48.2371 82.8355 48.0658 82.6906 48.0331 82.493C48.0004 82.2953 48.116 82.1032 48.3061 82.039C48.9288 81.8283 63.5221 76.7636 60.2329 66.8135C60.1621 66.5989 60.279 66.3677 60.4939 66.297C60.7089 66.2263 60.9405 66.343 61.0113 66.5575C63.8384 75.1105 54.5207 80.8 48.5691 82.8138C48.5268 82.828 48.4824 82.8352 48.4377 82.8353Z" fill="#1A1A1A"/>
<path d="M55.7163 75.7566C55.5371 75.7567 55.3786 75.6405 55.3251 75.4698C55.2716 75.299 55.3355 75.1134 55.4828 75.0115C58.7875 72.7279 57.9431 66.3912 57.9343 66.3274C57.9065 66.1055 58.0624 65.9025 58.2843 65.8716C58.5062 65.8408 58.7117 65.9935 58.7458 66.2145C58.7848 66.4951 59.6645 73.1163 55.9493 75.6838C55.8809 75.7313 55.7996 75.7567 55.7163 75.7566Z" fill="#1A1A1A"/>
<path d="M39.3291 134.232V158.768H45.0646V134.232" fill="#6F85E9"/>
<path d="M45.0646 159.177H39.3291C39.1029 159.177 38.9194 158.994 38.9194 158.768V134.232C38.9194 134.007 39.1029 133.823 39.3291 133.823C39.5554 133.823 39.7388 134.007 39.7388 134.232V158.359H44.6549V134.232C44.6549 134.007 44.8384 133.823 45.0646 133.823C45.2909 133.823 45.4743 134.007 45.4743 134.232V158.768C45.4743 158.876 45.4311 158.98 45.3543 159.057C45.2775 159.134 45.1733 159.177 45.0646 159.177Z" fill="#1A1A1A"/>
<path d="M43.4259 82.2994C43.2153 82.2991 43.0392 82.1396 43.0186 81.9304C42.998 81.7213 43.1396 81.5306 43.3461 81.4894C43.4008 81.4788 48.7572 80.3872 51.9204 78.0193C52.1014 77.8838 52.3582 77.9204 52.494 78.1011C52.6297 78.2818 52.5931 78.5381 52.4121 78.6736C49.0986 81.1544 43.7334 82.2462 43.5067 82.2915C43.4801 82.2966 43.453 82.2993 43.4259 82.2994Z" fill="#1A1A1A"/>
<path d="M25.6731 130.143C32.228 131.506 33.0099 135.323 42.0602 135.323C51.1106 135.323 51.8925 131.506 58.4474 130.143" fill="#6F85E9"/>
<path d="M42.0604 135.732C36.5448 135.732 33.9783 134.307 31.4964 132.929C29.8577 132.019 28.1657 131.079 25.5897 130.544C25.4463 130.514 25.3298 130.41 25.284 130.271C25.2382 130.132 25.2701 129.98 25.3676 129.871C25.4651 129.762 25.6135 129.713 25.7568 129.743C28.455 130.304 30.2038 131.275 31.8946 132.214C34.3956 133.602 36.7562 134.913 42.0604 134.913C47.3646 134.913 49.7252 133.601 52.2262 132.214C53.917 131.275 55.6658 130.304 58.364 129.743C58.5856 129.697 58.8026 129.839 58.8488 130.06C58.8949 130.281 58.7527 130.498 58.5311 130.544C55.9551 131.079 54.262 132.019 52.6244 132.929C50.1425 134.307 47.5774 135.732 42.0604 135.732Z" fill="#1A1A1A"/>
<path d="M72.1565 176.564C72.1229 176.564 72.0895 176.56 72.057 176.552C67.1682 175.335 65.8141 171.189 64.726 167.858C64.1161 165.99 63.589 164.377 62.5973 163.747C62.4063 163.626 62.3501 163.373 62.4716 163.183C62.5932 162.992 62.8466 162.936 63.0376 163.057C64.2772 163.845 64.8461 165.587 65.5052 167.605C66.5837 170.908 67.8068 174.651 72.2556 175.758C72.4562 175.809 72.5878 176 72.5626 176.205C72.5374 176.41 72.3632 176.564 72.1565 176.564Z" fill="#1A1A1A"/>
<rect x="7.64722" y="123.055" width="68.826" height="7.08798" rx="3.54399" fill="#1A1A1A"/>
<path fill-rule="evenodd" clip-rule="evenodd" d="M11.1978 130.552H72.9227C75.1099 130.552 76.8829 128.782 76.8829 126.599C76.8829 124.416 75.1099 122.646 72.9227 122.646H11.1978C9.0106 122.646 7.23755 124.416 7.23755 126.599C7.23755 128.782 9.0106 130.552 11.1978 130.552ZM8.05691 126.599C8.05691 124.868 9.46312 123.464 11.1978 123.464H72.9227C74.6573 123.464 76.0636 124.868 76.0636 126.599C76.0636 128.331 74.6573 129.734 72.9227 129.734H11.1978C9.46312 129.734 8.05691 128.331 8.05691 126.599Z" fill="#1A1A1A"/>
<path d="M105.331 21.3473C100.821 23.5828 102.434 17.9195 98.1336 16.9656C93.8328 16.0117 87.0526 18.574 87.0526 18.574C87.0526 18.574 86.0325 13.2935 82.2856 15.7257C78.5387 18.158 81.4075 20.7816 81.4075 20.7816C81.4075 20.7816 76.3635 20.4545 74.431 17.2783C72.4984 14.102 71.372 13.3881 71.372 13.3881C71.372 13.3881 70.8878 4.52509 81.5239 1.80195C92.1599 -0.921201 99.1193 0.665689 102.808 4.40378C106.496 8.14187 108.467 13.8043 105.331 21.3473Z" fill="#1A1A1A"/>
<path d="M57.9542 88.0074C57.934 88.0074 57.9139 88.0059 57.8939 88.003C57.6705 87.9699 57.5161 87.7626 57.5486 87.5395C57.839 85.5767 55.4549 83.2347 55.4306 83.2112C55.2683 83.0538 55.2646 82.7949 55.4223 82.6329C55.58 82.4709 55.8394 82.4672 56.0017 82.6246C56.1123 82.732 58.711 85.2818 58.359 87.6592C58.3289 87.8592 58.1568 88.0072 57.9542 88.0074Z" fill="#1A1A1A"/>
<path d="M93.8165 114.195C97.6033 114.711 94.2974 118.474 88.6272 120.738C85.896 121.828 82.2152 126.584 81.5261 127.826C81.5261 127.826 87.2616 116.376 87.5347 114.195H93.8165Z" fill="#1A1A1A"/>
<path d="M59.1302 23.9599C55.3066 22.5968 51.2098 26.4134 50.9367 28.8669C50.6635 31.3205 48.342 32.2746 46.1571 34.1829C43.9721 36.0912 45.6108 37.9995 43.9721 39.6352C36.7022 46.8917 35.642 53.1296 33.457 63.489C34.5495 58.8546 41.1044 46.3143 41.1044 46.3143L49.5711 35.1371L59.1302 28.0491C60.2227 27.2313 62.9539 25.323 59.1302 23.9599Z" fill="#1A1A1A"/>
<path d="M80.1716 35.9118C80.1716 35.9118 80.4387 33.9763 77.1711 23.2644C78.431 27.066 78.5538 31.1516 77.5243 35.0217C79.317 35.6384 80.1716 35.9118 80.1716 35.9118Z" fill="#1A1A1A"/>
<path d="M63.6094 56.9116C58.1501 62.3985 46.7034 63.08 46.7034 66.3514C46.7034 69.6228 52.3023 65.6699 57.7647 66.4877" fill="#1A1A1A"/>
<path d="M79.4776 193.662C78.2562 192.443 74.0152 187.12 72.6496 178.941C72.3044 176.874 72.5109 177.61 72.24 176.351C66.2313 175.534 65.1389 165.719 62.8174 163.402C59.6765 164.356 56.2625 165.856 52.7119 170.763C50.734 173.496 50.527 177.578 52.7119 179.759C54.8969 181.94 60.6324 183.576 63.6367 186.302C66.641 189.028 74.0152 200.478 78.112 199.387C82.2088 198.297 80.8432 195.026 79.4776 193.662Z" fill="#1A1A1A"/>
<path d="M77.7494 184.325C76.635 184.325 75.7526 182.938 74.8256 181.48C73.9328 180.076 72.9212 178.485 71.75 178.252L71.9106 177.45C73.4253 177.752 74.5367 179.5 75.5172 181.041C76.398 182.426 77.2269 183.735 77.9717 183.464C79.6839 182.841 79.4951 181.531 79.2308 180.806C78.3786 178.47 74.736 176.104 70.7414 177.554L70.4612 176.785C74.9349 175.163 79.0317 177.87 80.0007 180.526C80.6106 182.197 79.9406 183.617 78.2527 184.233C78.0917 184.293 77.9213 184.324 77.7494 184.325Z" fill="#1A1A1A"/>
<path d="M77.7204 187.536C76.4452 187.536 75.5141 185.708 74.4429 183.604C73.4824 181.718 72.3945 179.58 71.204 179.342L71.3646 178.54C72.9435 178.855 74.0772 181.081 75.1735 183.234C76.0278 184.911 77.0034 186.809 77.7881 186.714C77.8288 186.709 77.8973 186.7 77.9541 186.534C78.3035 185.527 77.1722 182.3 75.1181 180.226C74.024 179.121 72.2793 177.949 70.185 178.648L69.9255 177.872C71.9013 177.214 73.8975 177.83 75.7009 179.651C77.9604 181.933 79.2048 185.429 78.7284 186.802C78.6193 187.189 78.2895 187.473 77.8902 187.525C77.8339 187.532 77.7772 187.536 77.7204 187.536Z" fill="#1A1A1A"/>
<path d="M76.883 154.679C76.7214 154.679 76.575 154.584 76.509 154.437C76.4431 154.289 76.4699 154.117 76.5777 153.997C76.8751 153.664 106.293 120.587 103.775 108.495C103.505 106.947 102.468 105.64 101.019 105.025C93.7814 101.689 81.5116 103.73 69.6475 105.703C58.41 107.573 47.7964 109.338 41.8842 106.521C41.7494 106.46 41.6582 106.331 41.6457 106.183C41.6333 106.036 41.7014 105.894 41.824 105.811C41.9466 105.728 42.1045 105.717 42.237 105.783C47.9152 108.488 58.4057 106.744 69.5129 104.896C81.4995 102.902 93.8948 100.841 101.363 104.282C103.045 105.009 104.251 106.528 104.577 108.329C107.178 120.822 78.4144 153.171 77.1886 154.542C77.1109 154.629 76.9997 154.679 76.883 154.679Z" fill="#1A1A1A"/>
<path d="M64.7461 160.803C64.7461 160.803 73.469 163.675 75.927 164.765C72.3765 161.767 66.641 158.223 66.641 158.223L64.7461 160.803Z" fill="#1A1A1A"/>
<path d="M57.2185 88.0243C47.9723 88.8588 16.6603 104.245 10.3786 112.151L8.1936 106.971C8.1936 106.971 27.1355 93.1873 57.2185 88.0243Z" fill="#1A1A1A"/>
<path d="M82.6186 219.561H79.068C78.4647 219.561 77.9755 219.073 77.9755 218.47V211.214C77.9819 208.748 76.8532 206.415 74.9139 204.887L48.5033 183.966C45.4092 181.514 43.5132 177.858 43.293 173.92L49.0192 173.603C49.1484 175.907 50.258 178.046 52.0686 179.482L78.4792 200.403C81.7932 203.014 83.722 207 83.711 211.214V218.47C83.711 218.76 83.5959 219.037 83.3911 219.241C83.1862 219.446 82.9083 219.561 82.6186 219.561Z" fill="#6F85E9"/>
<path d="M1.50219 219.561H5.05274C5.6561 219.561 6.14522 219.073 6.14522 218.47V211.214C6.13882 208.748 7.26756 206.415 9.20688 204.887L35.6175 183.966C38.7115 181.514 40.6076 177.858 40.8278 173.92L35.1016 173.603C34.9724 175.907 33.8627 178.046 32.0522 179.482L5.64158 200.403C2.32757 203.014 0.398721 207 0.409715 211.214V218.47C0.409715 219.073 0.898833 219.561 1.50219 219.561Z" fill="#6F85E9"/>
<path d="M0.409668 216.426H6.14517V218.607C6.14517 219.209 5.65605 219.697 5.05269 219.697H1.50214C0.898786 219.697 0.409668 219.209 0.409668 218.607V216.426Z" fill="#1A1A1A"/>
<path fill-rule="evenodd" clip-rule="evenodd" d="M79.068 219.97H82.6185C83.4477 219.969 84.1196 219.298 84.1207 218.47V211.214C84.1319 206.876 82.1465 202.773 78.7351 200.084L52.3245 179.163C50.6057 177.8 49.5522 175.769 49.4294 173.582C49.4243 173.473 49.3757 173.371 49.2945 173.298C49.2133 173.226 49.1063 173.189 48.9976 173.196L43.2714 173.513C43.1629 173.519 43.0612 173.568 42.9887 173.649C42.9162 173.73 42.8789 173.836 42.8849 173.944C43.1119 177.998 45.0641 181.762 48.2495 184.287L74.659 205.208C76.5002 206.658 77.5719 208.873 77.5658 211.214V218.47C77.5669 219.298 78.2388 219.969 79.068 219.97ZM48.7589 183.647C45.8683 181.356 44.0502 177.978 43.7319 174.307L48.6428 174.033C48.8804 176.303 50.0234 178.382 51.814 179.802L78.2246 200.723C81.4403 203.257 83.312 207.125 83.3013 211.214V218.47C83.3013 218.847 82.9956 219.152 82.6185 219.152H79.068C78.6909 219.152 78.3852 218.847 78.3852 218.47V211.214C78.3917 208.624 77.2062 206.174 75.1695 204.568L48.7589 183.647Z" fill="#1A1A1A"/>
<path fill-rule="evenodd" clip-rule="evenodd" d="M1.50225 219.97H5.0528C5.88198 219.969 6.5539 219.298 6.55495 218.47V211.214C6.54908 208.873 7.62027 206.66 9.46067 205.209L35.8713 184.287C39.0575 181.762 41.0101 177.998 41.237 173.943C41.243 173.835 41.2057 173.728 41.1332 173.647C41.0607 173.567 40.959 173.518 40.8505 173.512L35.1243 173.194C35.0156 173.188 34.9088 173.225 34.8277 173.297C34.7465 173.37 34.6978 173.472 34.6925 173.58C34.5696 175.768 33.5162 177.799 31.7974 179.161L5.38682 200.083C1.97465 202.771 -0.0112985 206.875 9.71365e-05 211.214V218.47C0.00115045 219.298 0.673072 219.969 1.50225 219.97ZM32.3071 179.803C34.0977 178.383 35.2407 176.304 35.4783 174.034L40.3898 174.305C40.0714 177.976 38.2533 181.354 35.3627 183.646L8.95212 204.567C6.91474 206.173 5.72893 208.623 5.7356 211.214V218.47C5.7356 218.847 5.4299 219.152 5.0528 219.152H1.50225C1.12515 219.152 0.819454 218.847 0.819454 218.47V211.214C0.809158 207.125 2.68087 203.258 5.89646 200.724L32.3071 179.803Z" fill="#1A1A1A"/>
<path d="M39.3291 168.037V218.47C39.3291 219.073 39.8182 219.561 40.4216 219.561H43.9721C44.5755 219.561 45.0646 219.073 45.0646 218.47V168.037" fill="#6F85E9"/>
<path d="M53.3857 80.1487C53.3857 80.1487 75.7905 83.3898 85.8959 82.8446C68.6894 83.3898 52.9058 83.0986 47.2769 82.4264C49.9534 82.1723 53.3857 80.1487 53.3857 80.1487Z" fill="#1A1A1A"/>
<path d="M39.3291 216.426H45.0646V218.607C45.0646 219.209 44.5755 219.697 43.9721 219.697H40.4216C39.8182 219.697 39.3291 219.209 39.3291 218.607V216.426Z" fill="#1A1A1A"/>
<path d="M43.9721 219.97H40.4216C39.5923 219.969 38.9203 219.298 38.9194 218.47V168.037C38.9194 167.811 39.1029 167.628 39.3291 167.628C39.5554 167.628 39.7388 167.811 39.7388 168.037V218.47C39.7388 218.847 40.0445 219.152 40.4216 219.152H43.9721C44.3492 219.152 44.6549 218.847 44.6549 218.47V168.037C44.6549 167.811 44.8384 167.628 45.0646 167.628C45.2909 167.628 45.4743 167.811 45.4743 168.037V218.47C45.4734 219.298 44.8014 219.969 43.9721 219.97Z" fill="#1A1A1A"/>
<path d="M73.3325 162.175C77.1562 162.448 76.2453 164 81.7992 158.086C85.896 153.724 88.3541 154.542 92.4509 149.363C96.5476 144.183 102.041 137.231 102.041 137.231C102.041 137.231 86.4422 161.63 79.068 166.537C77.0535 165.223 75.1366 163.765 73.3325 162.175Z" fill="#1A1A1A"/>
<rect x="34.9592" y="158.768" width="14.2022" height="17.9926" rx="3" fill="#6F85E9"/>
<path fill-rule="evenodd" clip-rule="evenodd" d="M35.7786 177.169H48.3421C49.0205 177.168 49.5704 176.62 49.5711 175.942V159.586C49.5711 158.908 49.0209 158.359 48.3421 158.359H35.7786C35.0998 158.359 34.5496 158.908 34.5496 159.586V175.942C34.5503 176.62 35.1001 177.168 35.7786 177.169ZM35.3689 159.586C35.3689 159.36 35.5523 159.177 35.7786 159.177H48.3421C48.5683 159.177 48.7518 159.36 48.7518 159.586V175.942C48.7518 176.168 48.5683 176.351 48.3421 176.351H35.7786C35.5523 176.351 35.3689 176.168 35.3689 175.942V159.586Z" fill="#1A1A1A"/>
<path fill-rule="evenodd" clip-rule="evenodd" d="M96.7608 34.1682C96.9391 34.3622 97.1957 34.4654 97.4589 34.4487C97.8203 34.4324 98.1744 34.3423 98.4995 34.184C100.064 33.4165 101.402 32.257 102.383 30.8189C102.977 29.8617 102.836 29.3552 102.612 29.0984C102.389 28.8416 101.906 28.6303 100.873 29.0829C99.3092 29.8506 97.9712 31.01 96.99 32.448C96.3957 33.4049 96.5374 33.9117 96.7608 34.1682ZM100.123 32.1351C98.6912 33.3755 97.6179 33.6958 97.3846 33.6279C97.3497 33.3872 97.8186 32.3725 99.2503 31.1318C100.682 29.8912 101.754 29.5673 101.988 29.639C102.024 29.8797 101.555 30.8947 100.123 32.1351Z" fill="#1A1A1A"/>
<path d="M101.737 31.4448C101.615 31.4448 101.5 31.3908 101.422 31.2973C101.34 31.2002 93.2705 21.5682 86.9884 19.0136C86.7842 18.925 86.6883 18.6898 86.7724 18.484C86.8565 18.2783 87.0899 18.1772 87.2979 18.2565C93.7708 20.8883 101.717 30.372 102.052 30.7744C102.153 30.8963 102.175 31.0658 102.107 31.2093C102.04 31.3529 101.896 31.4446 101.737 31.4448Z" fill="#1A1A1A"/>
<path d="M39.3291 139.051C39.3291 139.051 42.8796 136.718 45.0646 138.474V135.16C45.0646 135.16 40.9678 135.602 39.3291 135.19V139.051Z" fill="#1A1A1A"/>
<path fill-rule="evenodd" clip-rule="evenodd" d="M38.9194 139.051C38.9194 139.277 39.1029 139.46 39.3291 139.46C39.4094 139.46 39.4877 139.436 39.5544 139.391C39.5548 139.391 39.5556 139.391 39.5568 139.39C39.6614 139.323 42.8992 137.258 44.8082 138.792C44.931 138.89 45.0996 138.91 45.2418 138.842C45.3839 138.774 45.4745 138.631 45.4746 138.473V135.159C45.4745 135.043 45.4251 134.932 45.3386 134.855C45.252 134.777 45.1365 134.74 45.0209 134.753C44.9802 134.757 40.9779 135.183 39.4291 134.793C39.3066 134.762 39.1768 134.79 39.0772 134.867C38.9776 134.945 38.9194 135.064 38.9194 135.19V139.051ZM39.7388 138.344V135.682C41.2303 135.886 43.6507 135.703 44.6549 135.611V137.739C42.9135 136.923 40.7832 137.799 39.7388 138.344Z" fill="#1A1A1A"/>
<path d="M34.9592 161.758C34.9592 161.758 42.7431 160.011 49.1614 161.502C49.1614 159.85 49.8764 158.904 47.6754 158.768C45.4743 158.631 36.2044 158.768 36.2044 158.768C36.2044 158.768 34.5496 158.631 34.8227 160.267C35.0958 161.903 34.9592 161.758 34.9592 161.758Z" fill="white"/>
<path fill-rule="evenodd" clip-rule="evenodd" d="M35.7786 177.169H48.3421C49.0205 177.168 49.5704 176.62 49.5711 175.942V159.586C49.5711 158.908 49.0209 158.359 48.3421 158.359H35.7786C35.0998 158.359 34.5496 158.908 34.5496 159.586V175.942C34.5503 176.62 35.1001 177.168 35.7786 177.169ZM35.3689 159.586C35.3689 159.36 35.5523 159.177 35.7786 159.177H48.3421C48.5683 159.177 48.7518 159.36 48.7518 159.586V175.942C48.7518 176.168 48.5683 176.351 48.3421 176.351H35.7786C35.5523 176.351 35.3689 176.168 35.3689 175.942V159.586Z" fill="#1A1A1A"/>
<path d="M12.7016 90.4786C11.5162 90.4791 10.4414 89.7838 9.9576 88.7036C4.86229 77.3356 9.68967 64.5813 9.89752 64.0437C10.494 62.4982 12.2328 61.728 13.7811 62.3234C15.3295 62.9187 16.1011 64.6543 15.5047 66.1998C15.4629 66.3088 11.3838 77.1993 15.4424 86.2544C15.8582 87.1822 15.7751 88.257 15.2217 89.1102C14.6683 89.9633 13.7199 90.4789 12.7016 90.4799V90.4786Z" fill="white"/>
<path d="M16.7969 57.7649C15.7877 57.763 14.8468 57.2559 14.2917 56.4146C13.7366 55.5733 13.6415 54.5102 14.0384 53.584C14.7302 51.9723 16.4864 48.2991 18.1786 45.9342C19.1516 44.6116 21.0089 44.3151 22.3466 45.2689C23.6842 46.2228 24.0055 48.0726 23.0675 49.4201C21.9231 51.0198 20.4065 53.9763 19.5603 55.9465C19.0869 57.0501 17.9997 57.7655 16.7969 57.7649Z" fill="white"/>
<path d="M77.9756 216.426H83.7111V218.607C83.7111 219.209 83.222 219.697 82.6186 219.697H79.0681C78.4647 219.697 77.9756 219.209 77.9756 218.607V216.426Z" fill="#1A1A1A"/>
</g>
</svg>
