<svg width="114" height="115" viewBox="0 0 114 115" fill="none" xmlns="http://www.w3.org/2000/svg">
<path d="M66.1121 92.915C67.015 94.6685 68.5885 100.311 68.3289 102.265C68.1212 103.833 67.6652 105.77 68.9214 106.727C69.341 107.012 69.8233 107.189 70.3267 107.244C74.0219 107.809 77.7355 106.344 80.0528 103.406C80.8372 102.388 81.4242 100.939 80.7436 99.8455C80.3002 99.2971 79.7547 98.8402 79.1374 98.5001C77.4026 97.2508 71.5852 91.6566 71.7556 89.5232" fill="#E9856F"/>
<path d="M71.9329 109.071C71.3022 109.072 70.6725 109.02 70.0502 108.917C69.2732 108.82 68.5326 108.531 67.8943 108.076C65.9834 106.617 66.3424 104.168 66.5794 102.548L66.6516 102.041C66.8367 100.648 65.4687 95.3706 64.6064 93.6894C64.3302 93.1504 64.362 92.5047 64.69 91.9955C65.0179 91.4864 65.5921 91.1912 66.1962 91.2211C66.8004 91.251 67.3427 91.6015 67.6189 92.1405C68.6032 94.0625 70.3278 100.064 70.0073 102.488L69.9294 103.039C69.8165 103.822 69.6235 105.131 69.9475 105.379C70.1508 105.488 70.3745 105.553 70.6044 105.571C73.684 106.036 76.777 104.816 78.7119 102.371C79.2424 101.679 79.4478 100.969 79.3068 100.742C79.1012 100.523 78.8642 100.337 78.6036 100.188C78.4501 100.085 78.2966 99.9823 78.1521 99.876C78.0686 99.815 69.7725 93.1264 70.0716 89.3875C70.1464 88.4537 70.9628 87.7574 71.8951 87.8324C72.8273 87.9073 73.5224 88.725 73.4476 89.6588C73.6135 90.933 78.0415 95.6205 80.1285 97.1208C80.2413 97.2022 80.3632 97.2813 80.4818 97.3605C81.1593 97.7551 81.7407 98.2957 82.1838 98.9433C83.1455 100.49 82.852 102.543 81.3937 104.436C79.1186 107.355 75.63 109.064 71.9329 109.071Z" fill="#1A1A1A"/>
<path d="M34.5082 31.8628C33.6052 31.0826 29.6908 26.5116 28.649 25.9226C27.714 25.4877 26.8553 24.9044 26.106 24.1951C24.782 22.5482 24.8677 20.177 26.307 18.6303C27.8087 17.1719 30.0513 16.7891 31.9505 17.667C33.8087 18.591 35.0931 20.3727 35.3841 22.4302C35.4721 23.0057 38.4451 28.5354 39.0219 28.4664" fill="#E9856F"/>
<path d="M34.5081 33.5586C34.1038 33.559 33.7128 33.4137 33.4065 33.1494C33.0046 32.8102 32.3568 32.1069 31.2461 30.9029C30.1625 29.6674 29.011 28.4936 27.7968 27.3867L27.3848 27.1606C26.4395 26.7033 25.5805 26.0851 24.8463 25.3335C22.9464 23.0232 23.0462 19.6611 25.08 17.468C27.0745 15.4713 30.1028 14.9373 32.6581 16.1316C34.9983 17.2704 36.6343 19.4838 37.0387 22.0582C37.8307 23.7789 38.7691 25.4281 39.8435 26.9876C40.4846 27.3448 40.8231 28.0749 40.682 28.796C40.5408 29.517 39.9521 30.065 39.2239 30.1533C36.6775 30.4563 33.7236 22.7694 33.7112 22.6913C33.5051 21.1984 32.585 19.9 31.2461 19.2125C30.0035 18.6369 28.5368 18.8705 27.5338 19.8038C26.6988 20.7082 26.628 22.081 27.3656 23.0667C27.8525 23.5232 28.4078 23.9005 29.0113 24.1849L29.4819 24.4449C30.2359 24.8723 31.3533 26.0198 33.7327 28.601C34.4867 29.4173 35.34 30.3421 35.6108 30.5761C36.1481 31.0383 36.3415 31.7865 36.0955 32.4517C35.8496 33.1169 35.2163 33.5585 34.5081 33.5586Z" fill="#1A1A1A"/>
<path d="M95.4586 58.4318C95.4586 79.3478 75.7061 96.3068 54.8249 96.3068C33.9438 96.3068 19.8348 79.3478 19.8348 58.4318C19.8348 37.5158 40.716 20.5568 61.5972 20.5568C82.4784 20.5568 95.4586 37.5146 95.4586 58.4318Z" fill="#E9856F"/>
<path fill-rule="evenodd" clip-rule="evenodd" d="M18.1418 58.4318C18.1418 80.9906 33.9133 98.0026 54.825 98.0026C77.3733 98.0026 97.1517 79.5117 97.1517 58.4318C97.1517 35.5033 82.1997 18.8609 61.5973 18.8609C41.0852 18.8609 18.1418 35.7837 18.1418 58.4318ZM21.528 58.4318C21.528 37.7249 42.6834 22.2527 61.5973 22.2527C80.5382 22.2527 93.7656 37.1302 93.7656 58.4318C93.7656 77.705 75.5696 94.6108 54.825 94.6108C35.5319 94.6108 21.528 79.3953 21.528 58.4318Z" fill="#1A1A1A"/>
<path d="M50.6409 33.0306C49.5624 27.189 47.7155 21.5164 45.1485 16.161C44.901 15.4809 44.4421 14.8983 43.8392 14.499C42.9758 14.0525 41.9204 14.4063 40.961 14.2729C39.2139 13.8641 38.0225 12.2441 38.1505 10.4515C38.3384 8.70612 39.1866 7.09913 40.5208 5.96078C44.661 2.18814 50.7569 1.51832 55.6151 4.3022C56.992 4.97225 57.9726 6.25367 58.2608 7.75956C58.4572 10.2243 55.7291 11.8602 54.8284 14.1621C54.0868 16.0581 54.6636 18.1871 55.246 20.1385L58.0791 29.6355" fill="#E9856F"/>
<path d="M50.6397 34.7277C49.8235 34.7271 49.1239 34.1433 48.9759 33.3393C47.9249 27.6448 46.1235 22.1154 43.6191 16.8959C43.4861 16.568 43.2949 16.2669 43.0547 16.0073C42.7571 15.9503 42.4523 15.9408 42.1517 15.979C41.6742 16.0171 41.1941 16.0084 40.7183 15.953C38.1071 15.4232 36.2876 13.0435 36.4574 10.3803C36.6465 8.18953 37.685 6.16018 39.3503 4.72733C44.0504 0.44121 50.9746 -0.317499 56.4886 2.84941C58.3573 3.77235 59.6518 5.55838 59.9493 7.62391C60.1208 9.78109 58.8826 11.3323 57.7901 12.7014C57.233 13.3262 56.7668 14.0265 56.4051 14.7817C55.8848 16.109 56.3069 17.7733 56.869 19.6535L59.701 29.1505C59.9517 30.0419 59.4421 30.97 58.5562 31.2353C57.6703 31.5005 56.7358 31.0047 56.457 30.1216L53.624 20.6246C53.0506 18.7026 52.2695 16.0683 53.2526 13.5426C53.7306 12.4668 54.3684 11.4696 55.1443 10.5849C56.0744 9.4193 56.6343 8.66293 56.5733 7.89413C56.4954 6.9139 55.2674 6.07161 54.7425 5.75617C50.5403 3.34181 45.2627 3.92113 41.6822 7.18976C40.6875 8.04183 40.0344 9.22577 39.8435 10.5228C39.7696 11.4418 40.3272 12.294 41.198 12.5929C41.4639 12.615 41.7312 12.615 41.9971 12.5929C42.8925 12.4796 43.8016 12.6186 44.6225 12.9942C45.5626 13.5506 46.2879 14.4082 46.6813 15.4284C49.3151 20.9195 51.2102 26.7363 52.3169 32.7265C52.4064 33.2221 52.2723 33.732 51.9506 34.119C51.6288 34.506 51.1526 34.7306 50.6498 34.7322L50.6397 34.7277Z" fill="#1A1A1A"/>
<path d="M71.0728 32.9312L75.6079 22.2154C76.4556 20.2143 77.3202 18.0707 76.9443 15.9304C76.7524 14.8326 76.2389 13.8027 76.1316 12.6935C75.8788 10.0694 78.1385 7.63864 80.7244 7.15362C83.3754 6.80936 86.0371 7.70628 87.9414 9.58553C89.8039 11.4562 91.3088 13.6526 92.3817 16.0661C93.2949 17.8898 94.1075 20.2165 92.8659 21.8321C91.6244 23.4478 89.236 23.2646 87.2946 23.8163C84.6987 24.7179 82.6296 26.7168 81.6364 29.2828C80.6733 31.8214 80.0877 34.4879 79.8982 37.1969" fill="#E9856F"/>
<path d="M79.9005 38.8928C79.8329 38.8926 79.7655 38.8884 79.6984 38.8804C78.7708 38.7684 78.1091 37.925 78.2198 36.9957C78.4278 34.1221 79.0565 31.2948 80.0856 28.6044C81.2689 25.5665 83.7418 23.2146 86.8319 22.1883C87.4717 22.0186 88.1207 21.8854 88.7755 21.7892C89.7759 21.7761 90.7432 21.4287 91.524 20.8022C92.191 19.9327 91.5352 18.1611 90.8682 16.8281C89.8924 14.5978 88.515 12.5666 86.8048 10.836C85.2961 9.31095 83.1702 8.56695 81.0416 8.81898C79.2145 9.11242 77.8593 10.6742 77.8236 12.5273C77.8956 13.0257 78.0166 13.5158 78.1848 13.9903C78.3652 14.5282 78.5099 15.0773 78.6182 15.6342C79.0923 18.3375 77.9828 20.9604 77.1724 22.87L72.6372 33.5847C72.4113 34.1576 71.893 34.5628 71.2833 34.6432C70.6736 34.7236 70.0683 34.4664 69.7022 33.9715C69.336 33.4766 69.2666 32.8217 69.5208 32.2608L74.0549 21.5461C74.9217 19.4986 75.5617 17.8061 75.2829 16.2153C75.1981 15.8039 75.0884 15.398 74.9544 14.9999C74.7118 14.3037 74.5435 13.5836 74.4522 12.8518C74.3054 9.24103 76.8621 6.08426 80.4197 5.48372C83.5934 5.03462 86.7955 6.08582 89.0882 8.32943C91.1041 10.3397 92.7353 12.7028 93.901 15.3018C94.4981 16.4957 96.3165 20.1261 94.2137 22.8632C92.9326 24.5331 90.9404 24.8633 89.3331 25.1244C88.8044 25.2009 88.2803 25.3062 87.7631 25.4399C85.6523 26.2065 83.9808 27.8577 83.1861 29.9611C82.2957 32.3493 81.7544 34.8538 81.5789 37.3971C81.4778 38.2492 80.7572 38.8914 79.9005 38.8928Z" fill="#1A1A1A"/>
<path d="M45.679 85.3604C43.6924 89.8827 41.277 96.3068 38.6651 98.6347C38.2994 98.9603 37.7306 98.9049 37.2497 98.9987C34.2022 99.5912 33.0317 101.136 33.3794 104.221C33.8004 107.952 36.6357 108.576 40.1516 109.874C43.3177 111.043 47.2174 113.486 50.3101 112.135C53.4027 110.784 54.913 108.651 53.6025 105.541C53.2425 104.687 52.66 103.944 52.2481 103.111C51.2548 101.094 50.2164 99.8591 50.4353 97.6205C50.7766 94.1241 51.3753 90.6576 52.2266 87.2496" fill="#E9856F"/>
<path d="M48.3021 114.232C45.9725 114.046 43.7034 113.396 41.6281 112.319C40.917 112.011 40.2251 111.708 39.5659 111.465L38.5715 111.105C35.4371 109.986 32.1954 108.828 31.6976 104.411C31.2541 100.478 33.0137 98.0965 36.927 97.3344C37.1121 97.2983 37.3051 97.2757 37.4981 97.2564C37.5591 97.2497 37.6189 97.2463 37.6787 97.2395C39.5411 95.443 41.5163 90.7951 43.1089 87.0517C43.46 86.2263 43.7997 85.4259 44.1248 84.6774C44.3675 84.1222 44.8875 83.7389 45.4889 83.6719C46.0903 83.6049 46.6817 83.8644 47.0404 84.3525C47.399 84.8407 47.4704 85.4835 47.2276 86.0387C46.9048 86.7758 46.5696 87.5627 46.2242 88.3756C44.3663 92.7454 42.2601 97.6996 39.7905 99.8975C39.2382 100.346 38.5544 100.602 37.8435 100.626C37.7521 100.635 37.6595 100.641 37.5737 100.658C35.3806 101.086 34.8174 101.841 35.0635 104.025C35.314 106.251 36.5906 106.792 39.7093 107.907C40.0479 108.026 40.3865 108.149 40.7386 108.279C41.4542 108.542 42.206 108.868 42.9769 109.203C45.3912 110.253 47.8879 111.34 49.6363 110.576C52.7967 109.198 52.6601 107.657 52.045 106.196C51.8624 105.801 51.652 105.419 51.4151 105.054C51.1747 104.662 50.9366 104.263 50.7379 103.857C50.5392 103.451 50.3462 103.097 50.1589 102.749C49.1241 101.185 48.6323 99.3229 48.7593 97.4509C49.1095 93.8711 49.7225 90.3219 50.5934 86.8323C50.8259 85.93 51.7417 85.3847 52.6442 85.6111C53.5466 85.8376 54.0976 86.751 53.878 87.6565C53.047 90.9837 52.4622 94.3677 52.1285 97.781C52.081 98.9802 52.4359 100.161 53.1364 101.134C53.3441 101.518 53.5608 101.92 53.7753 102.357C53.9333 102.677 54.1207 102.978 54.3069 103.283C54.6347 103.791 54.923 104.325 55.1692 104.878C56.7494 108.628 55.2257 111.838 50.993 113.685C50.1439 114.053 49.2274 114.24 48.3021 114.232Z" fill="#1A1A1A"/>
<path d="M76.4917 79.5231C79.7823 80.6342 82.9303 82.1309 85.8702 83.9821C86.681 84.4193 87.3772 85.0422 87.9019 85.8001C88.1896 86.3682 88.4166 86.965 88.5791 87.5808C89.0834 89.2421 90.1535 90.6736 91.6029 91.6261C93.0852 92.5658 94.9592 92.6281 96.5004 91.7889C97.1291 91.3747 97.6839 90.8576 98.1415 90.2592C99.6314 88.4502 100.85 86.1043 100.265 83.8352C99.6755 81.5378 97.4429 80.0646 95.2306 79.2076C93.0183 78.3506 90.6243 77.8509 88.7055 76.4659C86.7867 75.081 85.448 72.8661 83.2448 72.0125" fill="#E9856F"/>
<path d="M94.2723 94.0795C93.0207 94.0749 91.7941 93.7282 90.7248 93.0766C88.9311 91.9179 87.6027 90.1629 86.973 88.1201L86.824 87.6566C86.7334 87.3143 86.6067 86.9826 86.4459 86.6673C86.0485 86.1514 85.545 85.7273 84.9695 85.4236C82.1424 83.6435 79.1153 82.2041 75.9511 81.1353C75.3779 80.9418 74.9512 80.4567 74.8319 79.8627C74.7126 79.2687 74.9187 78.6561 75.3726 78.2556C75.8264 77.8551 76.4592 77.7275 77.0324 77.921C80.4494 79.0767 83.7183 80.6326 86.7709 82.5565C87.8123 83.1317 88.6994 83.9505 89.3568 84.9431C89.6576 85.4836 89.8925 86.0583 90.0566 86.6549L90.1819 87.0494C90.5589 88.3312 91.3714 89.4407 92.4788 90.1857C93.4239 90.7939 94.6197 90.8559 95.6223 90.3485C96.0854 90.0294 96.4947 89.6382 96.8345 89.1897C97.7048 88.1348 99.0919 86.0941 98.6235 84.267C98.1495 82.4185 95.9146 81.3015 94.6177 80.7995C94.0094 80.5632 93.3852 80.3563 92.761 80.1483C90.9695 79.6498 89.2666 78.8747 87.7134 77.8509C86.9063 77.2359 86.1513 76.5552 85.456 75.8158C84.6732 74.8952 83.7136 74.1416 82.6342 73.5999C82.0696 73.3815 81.6642 72.8781 81.5707 72.2792C81.4772 71.6803 81.7098 71.077 82.1808 70.6964C82.6518 70.3158 83.2898 70.2159 83.8543 70.4342C85.3866 71.1324 86.7521 72.1508 87.859 73.4212C88.4263 74.0272 89.0407 74.5871 89.6965 75.0956C90.9751 75.908 92.368 76.5239 93.8288 76.9227C94.506 77.1488 95.1832 77.3749 95.8413 77.6304C99.1676 78.9216 101.259 80.9216 101.902 83.4168C102.537 85.8838 101.687 88.6255 99.4452 91.3423C98.8677 92.0885 98.1672 92.7305 97.374 93.2406C96.4357 93.798 95.3632 94.0881 94.2723 94.0795Z" fill="#1A1A1A"/>
<path d="M32.2507 71.4337C27.3611 73.0018 15.4667 77.2178 15.32 77.0866C14.2144 76.4654 12.969 76.1366 11.7013 76.1313C11.181 76.1991 10.9891 76.899 10.8119 77.3942C10.1223 79.5451 10.3788 81.8884 11.5174 83.8386C12.6625 85.7644 14.29 87.3572 16.2388 88.4593C17.2481 89.152 18.4327 89.544 19.6554 89.5899C20.907 89.6086 22.026 88.8117 22.4196 87.6215C22.7255 86.3315 21.8699 84.8018 22.6521 83.7334C23.0192 83.3206 23.4912 83.0155 24.0179 82.8504C26.7753 81.7108 31.7518 79.3535 34.5081 78.215" fill="#E9856F"/>
<path d="M19.5527 91.2914C18.0603 91.2183 16.6151 90.7442 15.3686 89.9189C13.1607 88.6694 11.3217 86.8577 10.0377 84.6673C8.66443 82.2866 8.36689 79.4333 9.21937 76.8198L9.26451 76.6898C9.50068 75.5706 10.37 74.694 11.4858 74.4501C12.8787 74.3855 14.2653 74.6736 15.5176 75.2879C16.7896 74.8933 20.1261 73.7502 22.887 72.8005C26.1828 71.6699 29.5915 70.502 31.7349 69.8146C32.6257 69.529 33.5791 70.0207 33.8642 70.913C34.1494 71.8053 33.6585 72.7602 32.7677 73.0459C30.6559 73.7242 27.2641 74.8854 23.9829 76.0092C15.5063 78.9148 15.0379 79.0753 14.3189 78.4592C13.7247 78.1737 13.0966 77.9651 12.4497 77.8385L12.4046 77.964C11.8798 79.6555 12.0947 81.4904 12.996 83.0143C13.9943 84.6833 15.4131 86.0601 17.1102 87.0065C17.8432 87.5332 18.7099 87.8417 19.6103 87.8963C20.1385 87.8816 20.6927 87.565 20.7729 87.2303C20.8063 86.8697 20.7885 86.5062 20.7198 86.1506C20.4386 84.9811 20.6422 83.7473 21.2842 82.7306C21.8302 82.0633 22.5532 81.564 23.37 81.2902C24.7245 80.7249 26.6828 79.8442 28.5745 78.9894C30.4854 78.1245 32.4607 77.2291 33.8614 76.6547C34.4236 76.4065 35.0759 76.4827 35.5659 76.854C36.0559 77.2253 36.3066 77.8333 36.221 78.4427C36.1355 79.0521 35.727 79.5673 35.1538 79.7888C33.7993 80.3541 31.8523 81.2303 29.9617 82.0827C28.0429 82.9499 26.0643 83.8465 24.6568 84.4276C24.4267 84.51 24.2073 84.6197 24.0032 84.7543C23.9913 85.0796 24.014 85.4051 24.071 85.7255C24.2084 86.4851 24.2046 87.2636 24.0597 88.0218C23.4916 89.963 21.7133 91.2962 19.6938 91.2948L19.5527 91.2914Z" fill="#1A1A1A"/>
<path d="M17.8597 58.4521C15.8201 57.8473 13.6033 58.3809 11.5174 57.9682C9.48668 57.5529 7.73365 56.2799 6.70799 54.4758C6.51611 54.1367 6.31971 53.7477 5.95175 53.6177C5.52325 53.5356 5.08122 53.6614 4.75983 53.9569C2.95782 55.15 1.82168 57.1233 1.69312 59.2831C1.82488 61.0763 2.42511 62.8031 3.43359 64.2905C4.0475 65.5206 4.88503 66.6252 5.90321 67.5478C6.951 68.4745 8.40377 68.7904 9.74084 68.3822C10.235 68.1571 10.7103 67.8925 11.1619 67.5907C13.4712 66.2465 16.2941 66.2578 18.9647 66.3075" fill="#E9856F"/>
<path d="M8.62788 70.2748C7.24273 70.2496 5.90733 69.7532 4.84105 68.8672C3.65564 67.8162 2.67912 66.5504 1.96283 65.1362C0.795412 63.3923 0.117481 61.366 0 59.2696C0.12213 56.5614 1.52627 54.0739 3.78006 52.5731C4.53806 51.935 5.56736 51.7256 6.5138 52.0168C7.23884 52.3154 7.82431 52.8776 8.15269 53.5906C8.93213 54.9916 10.2828 55.9825 11.8515 56.304C12.6951 56.4345 13.5495 56.4815 14.4024 56.4442C15.7287 56.3692 17.0587 56.498 18.3461 56.8264C19.233 57.1001 19.7345 58.038 19.4706 58.9293C19.2068 59.8205 18.2758 60.3328 17.3833 60.078C16.4148 59.8568 15.4199 59.775 14.4283 59.8349C13.3463 59.8797 12.2625 59.8115 11.1946 59.6314C8.79321 59.1419 6.69967 57.6821 5.40766 55.5963C4.22773 56.4763 3.48955 57.8279 3.38614 59.2978C3.53213 60.7882 4.05416 62.2168 4.90313 63.4494C5.41854 64.4918 6.1175 65.4324 6.96642 66.2261C7.55042 66.7639 8.36304 66.9757 9.13467 66.7914C9.38798 66.6785 9.63084 66.5435 9.86044 66.3878C10.0083 66.2962 10.1573 66.2035 10.3119 66.1165C13.0976 64.4963 16.3686 64.554 19.003 64.6037C19.9364 64.626 20.6756 65.4008 20.6554 66.3358C20.6539 66.7876 20.4697 67.2195 20.145 67.533C19.8203 67.8465 19.3827 68.015 18.9319 68C16.609 67.9605 13.978 67.9096 12.0095 69.0538C11.8899 69.1238 11.7713 69.1973 11.654 69.272C11.2403 69.5464 10.8006 69.7793 10.3413 69.9673C9.79365 70.1736 9.21296 70.2778 8.62788 70.2748Z" fill="#1A1A1A"/>
<path d="M31.9425 53.2288L23.9738 47.8799C21.4545 46.1897 18.7084 44.4316 15.6789 44.5458C13.4779 44.6295 11.1031 45.6764 9.19783 44.5695C7.3569 43.5011 7.01829 40.9516 7.3806 38.8532C7.81824 35.7595 9.61216 33.0231 12.2724 31.3913C15.0239 29.8174 18.4853 30.2727 20.7378 32.505C22.0076 33.934 22.5087 35.8877 23.5912 37.4637C26.3396 41.4717 32.0475 42.167 35.577 45.5045" fill="#E9856F"/>
<path d="M31.9425 54.9236C31.6072 54.9237 31.2795 54.8237 31.0012 54.6364L23.0336 49.2943C20.468 47.5724 18.1384 46.1524 15.7455 46.2417C15.1206 46.2825 14.499 46.363 13.8843 46.4825C12.1539 46.7742 10.1956 47.1066 8.35357 46.0382C5.72142 44.5096 5.26542 41.1766 5.71577 38.5661C6.23879 34.9638 8.34575 31.7859 11.4575 29.9057C14.8984 27.9397 19.2298 28.5433 22.0042 31.3755C22.8012 32.342 23.455 33.4185 23.9456 34.5717C24.244 35.2405 24.5927 35.8856 24.9885 36.5016C26.2798 38.3841 28.5045 39.4672 30.8579 40.6125C32.9942 41.522 34.978 42.7556 36.7396 44.2699C37.4194 44.9131 37.4499 45.9865 36.8079 46.6674C36.1658 47.3483 35.0942 47.3789 34.4144 46.7358C32.8983 45.4653 31.2007 44.4295 29.3781 43.6628C26.7313 42.3751 23.993 41.0444 22.195 38.4225C21.6996 37.6638 21.2637 36.8677 20.8913 36.0415C20.5291 35.1778 20.0523 34.367 19.4737 33.631C17.7512 31.9842 15.1497 31.6755 13.0908 32.8735C10.8781 34.2552 9.39639 36.554 9.04999 39.1427C8.78587 40.6713 8.99243 42.4893 10.0489 43.0998C11.1083 43.4609 12.2553 43.4731 13.3222 43.1348C14.0815 42.9896 14.8496 42.894 15.6214 42.8488C19.3337 42.7097 22.5584 44.8839 24.922 46.4667L32.8918 51.8144C33.511 52.2302 33.7859 53.0027 33.5688 53.7171C33.3517 54.4314 32.6937 54.9195 31.9482 54.919L31.9425 54.9236Z" fill="#1A1A1A"/>
<path fill-rule="evenodd" clip-rule="evenodd" d="M50.6566 58.2441C51.0095 58.2735 51.3523 58.2882 51.6849 58.2882C53.1734 58.3351 54.6443 57.955 55.9243 57.1926C57.6233 56.01 58.8169 54.2314 59.2687 52.209C60.0741 49.8278 59.7463 47.2083 58.3793 45.0998C56.7765 42.8861 53.8283 42.6023 51.4388 42.6023C49.7085 42.6023 45.9973 44.4112 44.4171 46.3333C42.6202 48.4627 42.2084 51.4385 43.3595 53.9772C44.5435 56.3662 47.2705 57.9614 50.6566 58.2441ZM47.0335 48.4825C48.2604 47.2783 49.7833 46.4203 51.4479 45.9952C52.3 45.9952 54.8464 45.9986 55.6399 47.0896C56.3435 48.3841 56.4752 49.9141 56.0033 51.3101C55.7516 52.5063 55.083 53.5735 54.1173 54.3209C53.1424 54.8372 52.0278 55.0263 50.9377 54.8602C49.2435 54.7178 47.1599 54.0145 46.3935 52.4656C45.8363 51.1237 46.0841 49.5816 47.0335 48.4825Z" fill="#1A1A1A"/>
<path fill-rule="evenodd" clip-rule="evenodd" d="M50.8959 78.8775C52.3811 79.8372 54.1153 80.3381 55.8826 80.3179C57.1288 80.3146 58.3648 80.0934 59.5351 79.6644C60.9953 79.2002 62.2637 78.2703 63.147 77.0165C63.7469 76.0128 64.1209 74.89 64.243 73.7265C64.4614 70.8847 63.6339 68.0612 61.9167 65.7886C60.6802 64.3233 58.8531 63.4906 56.9379 63.5195C50.3127 63.5195 48.523 68.5183 47.8421 70.4203L47.8371 70.4342C46.8621 73.617 48.1101 77.0617 50.8959 78.8775ZM51.0269 71.5716C51.8655 69.2143 53.0134 66.9113 56.9379 66.9113C57.8691 66.8777 58.7623 67.2822 59.3523 68.0045C60.4305 69.5261 60.9725 71.3637 60.893 73.2279C60.8336 73.9036 60.6369 74.5599 60.315 75.1567C59.8165 75.7831 59.14 76.2432 58.3748 76.4761C56.539 77.2091 54.468 77.0513 52.764 76.0487C51.2706 75.0968 50.5671 73.2838 51.0269 71.5716Z" fill="#1A1A1A"/>
<path fill-rule="evenodd" clip-rule="evenodd" d="M69.3944 60.6624C70.6677 61.655 72.2493 62.167 73.8618 62.1085C74.9285 62.0941 75.9894 61.9495 77.0211 61.6777C78.5602 61.3717 79.9919 60.6655 81.1725 59.6302C83.0315 57.8382 83.4265 55.3 83.5755 52.824C83.7241 51.5817 83.5905 50.3217 83.185 49.1383C82.1764 46.9548 80.0518 45.5029 77.6543 45.3587C75.0904 45.1993 72.5597 46.0058 70.5592 47.6199C69.7917 48.3887 66.9236 52.019 66.8841 54.3311C66.6964 56.7171 67.6235 59.0555 69.3944 60.6624ZM72.9532 50.0247C74.144 49.204 75.5499 48.7533 76.9951 48.729C77.1102 48.729 77.2209 48.729 77.3281 48.7448C78.4584 48.7855 79.4854 49.4144 80.037 50.4034C80.2399 51.1267 80.2933 51.8838 80.1939 52.6284C80.0855 54.4193 79.844 56.2113 78.8225 57.1972C78.0606 57.8074 77.1599 58.2195 76.2005 58.3967C74.7253 58.7653 72.7173 59.0016 71.5299 58.0338C70.6199 57.0539 70.1624 55.7363 70.2691 54.4023C70.8543 52.774 71.768 51.2838 72.9532 50.0247Z" fill="#1A1A1A"/>
<path d="M89.8286 50.5504C93.1865 48.833 97.7194 49.3452 100.241 46.5379C101.063 45.4255 101.775 44.2358 102.367 42.9856C102.98 41.7199 104.15 40.8159 105.528 40.5446C106.673 40.5081 107.767 41.0178 108.477 41.9183C109.169 42.813 109.681 43.833 109.986 44.9223C111.364 49.0897 111.888 53.4927 111.526 57.8676C111.536 58.7969 111.235 59.7028 110.669 60.4397C109.514 61.6562 107.416 61.1452 106.123 60.0791C104.829 59.0129 103.914 57.5092 102.505 56.6002C100.003 54.9869 94.9597 56.001 92.0748 56.7359" fill="#E9856F"/>
<path d="M108.908 62.8513C107.493 62.8148 106.132 62.3004 105.045 61.3917C104.435 60.8675 103.865 60.298 103.34 59.6879C102.827 59.0618 102.237 58.5033 101.584 58.0259C100.928 57.6019 98.7262 56.789 92.4889 58.3798C91.5825 58.6111 90.6605 58.0627 90.4296 57.1548C90.1986 56.2469 90.7462 55.3233 91.6526 55.092C97.2645 53.6618 101.113 53.6878 103.417 55.1745C104.325 55.8073 105.143 56.5595 105.851 57.4108C106.265 57.8947 106.714 58.3481 107.194 58.7676C107.964 59.4018 109.074 59.6517 109.437 59.2695C109.698 58.7965 109.835 58.2646 109.834 57.724C110.173 53.5773 109.677 49.4048 108.376 45.4537C108.133 44.575 107.73 43.7492 107.186 43.0183C106.827 42.5389 106.271 42.2479 105.673 42.2269C105.076 42.2801 104.401 42.8702 103.819 43.8471C103.604 44.2089 103.411 44.5854 103.217 44.9618C102.763 45.9336 102.186 46.8423 101.498 47.6651C99.6145 49.7624 96.9259 50.3446 94.5533 50.8602C93.1894 51.09 91.8598 51.4911 90.5961 52.0541C89.7751 52.4176 88.8136 52.0761 88.4046 51.2758C87.9955 50.4756 88.281 49.4946 89.0554 49.0399C90.5772 48.3372 92.1842 47.8366 93.8355 47.5509C95.98 47.0874 97.8277 46.686 98.979 45.4028C99.4694 44.7934 99.8829 44.1258 100.21 43.4152C100.436 42.9776 100.662 42.5401 100.913 42.1195C101.786 40.3725 103.449 39.157 105.377 38.8578C107.067 38.7689 108.697 39.4966 109.762 40.8148C110.599 41.8738 111.221 43.0873 111.591 44.3864C113.036 48.7729 113.586 53.4053 113.21 58.0089C113.191 59.3234 112.727 60.5925 111.893 61.6076C111.116 62.4233 110.033 62.8745 108.908 62.8513Z" fill="#1A1A1A"/>
</svg>
