<svg width="280" height="353" viewBox="0 0 280 353" fill="none" xmlns="http://www.w3.org/2000/svg">
<path fill-rule="evenodd" clip-rule="evenodd" d="M21.9067 106.376C21.9067 106.376 15.8439 106.978 15.2731 107.404C14.7024 107.83 8.46236 111.367 8.46236 111.367C8.46236 111.367 12.8393 111.435 14.8436 110.775C14.8436 110.775 10.8943 110.387 1.93402 116.231C1.93402 116.231 9.92815 114.229 11.5537 113.954C13.1792 113.678 1.93791 118.693 0.498426 120.112C-0.940089 121.532 11.6871 116.953 13.5639 116.388C15.4407 115.822 4.21889 122.128 4.12539 123.418C4.03092 124.728 13.9116 119.623 15.2332 118.805C16.5549 117.987 7.69879 124.417 7.4553 125.431C7.21182 126.444 19.0102 119.917 25.9593 113.244L21.9067 106.376" fill="#ED9A60"/>
<path d="M179.529 144.013L133.065 141.195C133.065 141.195 133.139 141.788 133.325 142.901L123.275 142.493C123.275 142.493 103.992 187.993 102.064 227.894C105.735 277.844 116.193 337.546 116.193 337.546H127.28C127.28 337.546 133.325 252.59 127.243 228.042C127.243 228.042 134.103 213.728 141.668 196.67C143.337 207.239 145.043 218.067 146.674 227.894C154.165 282.071 166.736 337.546 166.736 337.546H177.824C177.824 337.546 179.01 252.59 172.892 228.042C172.892 228.079 182.422 154.322 179.529 144.013Z" fill="#82836C"/>
<path d="M117.713 337.583L114.821 345.593C114.821 345.593 100.878 349.969 100.729 352.75H124.87C124.87 352.75 126.39 352.416 126.539 350.748C126.687 349.079 126.539 337.621 126.539 337.621H117.713V337.583Z" fill="#5F5B58"/>
<path d="M168.034 337.583L165.141 345.593C165.141 345.593 155.314 349.969 155.166 352.75H175.191C175.191 352.75 176.711 352.416 176.859 350.748C177.008 349.079 176.859 337.621 176.859 337.621H168.034V337.583Z" fill="#5F5B58"/>
<path d="M141.668 196.707L137.7 171.306C137.7 171.306 136.44 197.597 139.666 201.157L141.668 196.707Z" fill="#39332E"/>
<path fill-rule="evenodd" clip-rule="evenodd" d="M124.801 3.87842L109.7 7.95242L114.332 24.4364L129.919 22.8654L124.801 3.87842" fill="#ED9A60"/>
<path fill-rule="evenodd" clip-rule="evenodd" d="M150.125 36.9792C135.48 32.9052 115.825 40.0033 115.825 40.0033C115.825 40.0033 112.459 40.5715 109.201 43.6898C108.823 43.9672 42.1523 92.8533 21.7983 106.194L26.0691 113.431C26.0691 113.431 54.4245 100.85 75.1617 90.5431C75.1617 90.5431 91.6501 83.1667 104.371 78.0637C106.175 100.926 110.069 139.377 116.318 147.631C116.318 147.631 122.858 154.672 145.705 153.778C168.553 152.884 181.673 148.234 184.565 142.592C187.328 131.505 179.112 95.2735 168.965 68.2877C181.838 72.4017 200.151 75.7713 200.151 75.7713C214.939 80.4427 232.63 84.9132 244.034 87.795C250.721 89.4846 255.246 90.6281 255.759 90.9461L255.735 91.0301C255.824 91.0186 255.83 90.9903 255.759 90.9461L258.263 82.2646C232.642 68.2336 159.713 40.5948 150.983 37.3022C150.694 37.1658 150.408 37.0578 150.125 36.9792Z" fill="#BA562D"/>
<path fill-rule="evenodd" clip-rule="evenodd" d="M115.471 40.9597C122.058 42.1606 135.841 35.0479 135.841 35.0479C130.622 23.9868 128.801 20.1524 128.801 20.1524L111.722 17.8071C116.405 30.7771 115.471 40.9597 115.471 40.9597" fill="#ED9A60"/>
<path fill-rule="evenodd" clip-rule="evenodd" d="M122.723 4.43652L109.7 7.95246C109.7 7.95246 109.43 16.1949 112.29 21.614C113.842 24.5504 116.06 26.6619 119.902 26.0961C124.823 24.976 126.958 20.4384 126.94 17.6003C126.903 11.4723 122.723 4.43652 122.723 4.43652" fill="#ED9A60"/>
<path fill-rule="evenodd" clip-rule="evenodd" d="M113.505 23.5698C113.505 23.5698 117.745 27.5181 122.826 23.5435C122.826 23.5435 123.992 32.3391 115.164 32.492C115.164 32.492 114.666 28.1054 113.505 23.5698" fill="#BD745D"/>
<path fill-rule="evenodd" clip-rule="evenodd" d="M115.471 40.9597C115.471 40.9597 112.515 49.0843 118.316 51.4228C124.118 53.7622 134.224 44.7639 135.841 35.0479C135.841 35.0479 121.078 36.5429 115.471 40.9597" fill="#ED9A60"/>
<path fill-rule="evenodd" clip-rule="evenodd" d="M104.29 51.7964C104.29 51.7964 101.844 59.2675 103.498 77.4725C103.498 77.4725 100.351 61.7267 104.29 51.7964" fill="#282622"/>
<path fill-rule="evenodd" clip-rule="evenodd" d="M122.519 9.841C122.519 9.841 112.828 10.4302 109.7 7.95253L109.695 8.81544C109.695 8.81544 105.416 6.9669 106.911 1.79915C106.911 1.79915 109.142 3.46654 112.592 3.0945C112.592 3.0945 110.627 2.89581 109.687 1.805C109.687 1.805 111.626 2.90361 116.12 1.5693C120.615 0.235975 122.291 -0.33573 123.727 0.198965C123.727 0.198965 125.822 -0.605512 127.532 1.73293C129.192 4.00416 127.577 14.176 127.886 15.3253C128.197 16.4736 124.088 12.2233 122.519 9.841" fill="#5F5B58"/>
<path fill-rule="evenodd" clip-rule="evenodd" d="M122.366 8.06439C122.366 8.06439 123.335 5.4591 125.661 6.34246C127.584 7.06902 128.532 11.069 124.344 13.0257C124.344 13.0257 122.21 11.2696 122.366 8.06439" fill="#ED9A60"/>
<path fill-rule="evenodd" clip-rule="evenodd" d="M258.263 82.2646C258.263 82.2646 270.51 86.4847 273.919 89.8935C277.328 93.3023 279.519 99.633 279.519 101.094C279.519 101.094 273.31 93.6676 272.701 92.6936C272.701 92.6936 273.554 98.1721 273.554 99.8765C273.554 99.8765 266.736 98.2938 264.423 95.0067C264.423 95.0067 257.76 94.4789 255.734 91.0301L258.263 82.2646" fill="#ED9A60"/>
<path fill-rule="evenodd" clip-rule="evenodd" d="M168.964 68.2874C168.964 68.2874 163.314 66.3434 161.901 65.6685C161.901 65.6685 167.688 79.6182 173.871 82.504C173.871 82.504 169.926 69.9334 168.964 68.2874" fill="#282622"/>
</svg>
