<svg width="278" height="362" viewBox="0 0 278 362" fill="none" xmlns="http://www.w3.org/2000/svg">
<path fill-rule="evenodd" clip-rule="evenodd" d="M173.427 157.362C181.083 141.148 174.166 80.7459 171.979 63.426C187.783 59.0322 212.092 48.2779 212.092 48.2779C238.875 37.6336 258.517 21.8363 258.517 21.8363L255.195 13.6152C213.234 34.7355 155.864 42.3348 152.748 42.7358C147.45 42.4661 135.552 42.6375 124.482 48.235C122.745 49.1127 121.041 50.1725 119.474 51.6465C118.338 52.5541 36.0293 118.324 21.199 130.576L24.8922 138.368C24.8922 138.368 59.1019 122.663 81.2591 105.497C81.2591 105.497 97.1561 97.1003 108.53 90.3278C104.526 114.974 100.675 146.362 105.097 158.371C108.79 163.785 119.023 165.489 144.596 164.698C170.168 163.907 173.427 157.362 173.427 157.362Z" fill="#6F85E9"/>
<path fill-rule="evenodd" clip-rule="evenodd" d="M174.728 153.699C174.728 153.699 238.719 169.9 242.447 199.482C246.18 229.107 211.151 273.381 195.993 293.311H182.537C182.537 293.311 202.611 228.895 214.831 212.032C214.831 212.032 141.569 197.933 113.289 162.673L174.728 153.699" fill="#F4B35F"/>
<path fill-rule="evenodd" clip-rule="evenodd" d="M105.097 158.372C105.097 158.372 95.8683 189.013 109.804 240.381C109.804 240.381 87.2966 251.835 73.0498 345.821H85.9068C85.9068 345.821 125.234 271.36 134.724 246.475C144.215 221.59 156.072 175.765 157.057 158.964L105.097 158.372" fill="#F4B35F"/>
<path fill-rule="evenodd" clip-rule="evenodd" d="M151.301 190.709C151.301 190.709 155.342 174.425 155.636 170.04C155.636 170.04 157.834 187.426 156.578 193.253C156.578 193.253 152.886 191.722 151.301 190.709" fill="#282622"/>
<path fill-rule="evenodd" clip-rule="evenodd" d="M195.721 293.302L196.267 299.304C196.267 299.304 215.893 304.775 218.373 309.18H191.578L187.153 306.902V309.18H180.147C180.147 309.18 180.516 301.862 181.13 300.142L182.864 293.302H195.721" fill="#5F5B58"/>
<path fill-rule="evenodd" clip-rule="evenodd" d="M85.9068 345.82L86.4532 351.822C86.4532 351.822 106.079 357.292 108.559 361.698H81.7637L77.3391 359.419V361.698H70.3335C70.3335 361.698 70.7016 354.379 71.3162 352.658L73.0498 345.82H85.9068" fill="#5F5B58"/>
<path fill-rule="evenodd" clip-rule="evenodd" d="M138.575 10.6152L154.205 11.183L153.404 28.2865L137.863 30.2665L138.575 10.6152" fill="#EA8D6F"/>
<path fill-rule="evenodd" clip-rule="evenodd" d="M156.553 45.1263C150.549 48.093 135.341 45.0426 135.341 45.0426C137.319 32.9735 138.017 28.7845 138.017 28.7845L153.793 21.8364C152.854 35.5934 156.553 45.1263 156.553 45.1263" fill="#EA8D6F"/>
<path fill-rule="evenodd" clip-rule="evenodd" d="M140.723 10.6914L154.205 11.1832C154.205 11.1832 156.323 19.1521 154.757 25.0765C153.907 28.2876 152.222 30.8442 148.35 31.1579C143.303 31.1754 140.202 27.2358 139.58 24.4659C138.236 18.4868 140.723 10.6914 140.723 10.6914" fill="#EA8D6F"/>
<path fill-rule="evenodd" clip-rule="evenodd" d="M153.663 27.8657C153.663 27.8657 150.67 32.828 144.693 30.4038C144.693 30.4038 145.989 39.181 154.521 36.901C154.521 36.901 153.794 32.5465 153.663 27.8657" fill="#BD745D"/>
<path fill-rule="evenodd" clip-rule="evenodd" d="M135.341 45.0422C135.341 45.0422 140.213 59.5578 151.334 58.7563C161.066 58.056 156.553 45.1259 156.553 45.1259C156.553 45.1259 147.374 43.74 135.341 45.0422" fill="#EA8D6F"/>
<path fill-rule="evenodd" clip-rule="evenodd" d="M142.195 16.9615C142.195 16.9615 152.716 16.6362 154.205 11.1831C154.205 11.1831 154.402 11.9759 154.504 12.4823C154.504 12.4823 157.175 9.28582 155.335 6.97466C150.867 1.36961 141.967 7.33112 139.977 8.48816C139.977 8.48816 137.9 8.1317 136.387 9.55561C134.875 10.9795 135.605 16.6371 138.168 21.8361C138.168 21.8361 141.329 19.9193 142.195 16.9615" fill="#5F5B58"/>
<path fill-rule="evenodd" clip-rule="evenodd" d="M141.848 16.0939C141.848 16.0939 139.93 14.0808 138.14 15.8105C136.659 17.2363 137.366 21.286 141.986 21.4331C141.986 21.4331 143.255 18.9787 141.848 16.0939" fill="#EA8D6F"/>
<path fill-rule="evenodd" clip-rule="evenodd" d="M268.427 16.8099C271.678 13.6962 277.399 6.53478 277.059 6.32636C276.651 6.07508 266.918 13.8871 266.918 13.8871C268.099 11.7425 272.327 -0.164001 271.579 0.243107C271.015 0.550873 266.344 8.43008 264.792 11.086C266.421 8.05803 268.569 1.8842 268.154 2.11016C267.798 2.30397 264.209 7.0276 263.088 8.59175C263.843 7.23115 265.47 3.57497 265.47 3.57497L264.447 4.13401C263.521 4.63949 255.295 13.8647 255.295 13.8647L258.427 21.628C262.034 22.1013 269.81 18.7753 269.81 18.7753C271.505 18.3302 273.764 17.702 273.764 17.702C273.764 17.702 269.708 16.7904 268.428 16.8089L268.427 16.8099" fill="#EA8D6F"/>
<path fill-rule="evenodd" clip-rule="evenodd" d="M21.1991 130.576C21.1991 130.576 10.0065 135.202 7.57164 137.15C5.13678 139.098 1.017 145.283 0.0235742 147.377C-0.498459 148.476 7.81512 142.02 8.54558 141.29C8.54558 141.29 4.89329 147.011 4.89329 149.203C4.89329 149.933 10.5198 143.177 16.0391 140.66C16.0391 140.66 10.9395 146.077 10.8587 147.011C10.7818 147.895 24.3157 140.559 24.8922 138.368L21.1991 130.576" fill="#EA8D6F"/>
<path fill-rule="evenodd" clip-rule="evenodd" d="M108.531 90.3259L116.473 85.3081C116.473 85.3081 109.955 101.525 106.365 104.607C106.365 104.607 108.118 92.9292 108.531 90.3259" fill="#445BC4"/>
</svg>
