<svg width="45" height="45" viewBox="0 0 45 45" fill="none" xmlns="http://www.w3.org/2000/svg">
<circle cx="22.5" cy="22.5" r="22.5" fill="#1B1919"/>
<path fill-rule="evenodd" clip-rule="evenodd" d="M29.4762 32.3827L27.8427 32.4109L27.7586 10.242L29.3897 10.2053L29.4762 32.3827ZM21.301 33.1679L22.8936 33.5091L24.1081 28.0069L25.7359 27.5401C25.9211 27.5262 26.0891 27.4441 26.2132 27.3171C26.4193 27.1259 26.5126 26.8296 26.4357 26.5449C26.4059 26.3229 26.2769 26.1256 26.0897 26.0085C25.9427 25.911 25.7637 25.864 25.5825 25.8821L24.5978 25.7882L27.6802 11.8235L26.0851 11.4738L22.9628 25.6321L11.8008 24.567L10.0446 18.4423L22.7571 14.7971L22.2058 12.8745L9.18079 16.6094C9.03287 16.5568 8.86816 16.5483 8.70765 16.5943L8.62291 16.6186C8.46054 16.6652 8.32598 16.7599 8.2293 16.8822L2.01929 18.6629L2.57056 20.5854L8.46842 18.8943L10.0471 24.3996L6.03986 24.0172C5.6257 23.9801 5.26394 24.2856 5.22679 24.6997L5.2124 24.8414C5.17526 25.2556 5.4747 25.6282 5.88886 25.6654L10.5366 26.107L11.6168 29.8738L5.71891 31.565L6.17329 33.1496L12.0711 31.4585L13.4246 36.1784C13.5436 36.5937 13.9774 36.8269 14.3841 36.7103L14.4689 36.686C14.8841 36.567 15.1174 36.1332 15.0007 35.7265L13.6473 31.0065L22.3265 28.5178L21.301 33.1679ZM12.2902 26.2736L13.1929 29.4219L21.2151 27.1215L12.2902 26.2736ZM29.6055 29.6036C29.4836 30.0421 29.7347 30.502 30.1647 30.6263C30.5971 30.7591 31.0546 30.4995 31.1789 30.0695L36.9736 10.3325C37.0955 9.89404 36.8444 9.43414 36.4144 9.30983C35.9735 9.17947 35.5221 9.42813 35.4002 9.86659L29.6055 29.6036ZM37.1386 29.7454L38.7721 29.7172L38.6856 7.53976L37.0545 7.57643L37.1386 29.7454Z" fill="white"/>
</svg>
