<svg width="153" height="154" viewBox="0 0 153 154" fill="none" xmlns="http://www.w3.org/2000/svg">
<g clip-path="url(#clip0)">
<circle cx="76.6602" cy="77.0918" r="76" fill="#6F85E9"/>
<mask id="mask0" mask-type="alpha" maskUnits="userSpaceOnUse" x="0" y="1" width="153" height="153">
<circle cx="76.6602" cy="77.0918" r="76" fill="white"/>
</mask>
<g mask="url(#mask0)">
<path d="M39.3132 83.8216C37.0532 83.8216 35.1732 83.0716 33.6732 81.5716C32.1732 80.0516 31.4232 78.1716 31.4232 75.9316C31.4232 73.6916 32.1732 71.8216 33.6732 70.3216C35.1732 68.8016 37.0532 68.0416 39.3132 68.0416C40.7932 68.0416 42.1232 68.4016 43.3032 69.1216C44.4832 69.8216 45.3632 70.7716 45.9432 71.9716L43.7532 73.2316C43.3732 72.4316 42.7832 71.7916 41.9832 71.3116C41.2032 70.8316 40.3132 70.5916 39.3132 70.5916C37.8132 70.5916 36.5532 71.1016 35.5332 72.1216C34.5332 73.1416 34.0332 74.4116 34.0332 75.9316C34.0332 77.4316 34.5332 78.6916 35.5332 79.7116C36.5532 80.7316 37.8132 81.2416 39.3132 81.2416C40.3132 81.2416 41.2132 81.0116 42.0132 80.5516C42.8132 80.0716 43.4232 79.4316 43.8432 78.6316L46.0632 79.9216C45.4232 81.1016 44.5032 82.0516 43.3032 82.7716C42.1032 83.4716 40.7732 83.8216 39.3132 83.8216ZM59.5658 68.4316V70.9516H54.4658V83.4316H51.8558V70.9516H46.7258V68.4316H59.5658ZM73.6871 68.4316H76.2971V83.4316H73.6871V80.8516C72.3871 82.8316 70.4971 83.8216 68.0171 83.8216C65.9171 83.8216 64.1271 83.0616 62.6471 81.5416C61.1671 80.0016 60.4271 78.1316 60.4271 75.9316C60.4271 73.7316 61.1671 71.8716 62.6471 70.3516C64.1271 68.8116 65.9171 68.0416 68.0171 68.0416C70.4971 68.0416 72.3871 69.0316 73.6871 71.0116V68.4316ZM68.3471 81.3016C69.8671 81.3016 71.1371 80.7916 72.1571 79.7716C73.1771 78.7316 73.6871 77.4516 73.6871 75.9316C73.6871 74.4116 73.1771 73.1416 72.1571 72.1216C71.1371 71.0816 69.8671 70.5616 68.3471 70.5616C66.8471 70.5616 65.5871 71.0816 64.5671 72.1216C63.5471 73.1416 63.0371 74.4116 63.0371 75.9316C63.0371 77.4516 63.5471 78.7316 64.5671 79.7716C65.5871 80.7916 66.8471 81.3016 68.3471 81.3016ZM91.4115 68.4316V70.9516H86.3115V83.4316H83.7015V70.9516H78.5715V68.4316H91.4115ZM100.029 73.8316C101.529 73.8316 102.769 74.2816 103.749 75.1816C104.749 76.0616 105.249 77.2116 105.249 78.6316C105.249 80.0516 104.749 81.2116 103.749 82.1116C102.769 82.9916 101.529 83.4316 100.029 83.4316H93.6987V68.4316H96.3088V73.8316H100.029ZM100.029 81.0016C100.769 81.0016 101.389 80.7916 101.889 80.3716C102.409 79.9316 102.669 79.3516 102.669 78.6316C102.669 77.9116 102.409 77.3316 101.889 76.8916C101.389 76.4516 100.769 76.2316 100.029 76.2316H96.3088V81.0016H100.029ZM118.944 68.4316H121.044V83.4316H118.464V72.9016L110.154 83.4316H108.054V68.4316H110.634V78.9616L118.944 68.4316Z" fill="#FFF5ED"/>
<path d="M-17.1868 48.8216C-19.4468 48.8216 -21.3268 48.0716 -22.8268 46.5716C-24.3268 45.0516 -25.0768 43.1716 -25.0768 40.9316C-25.0768 38.6916 -24.3268 36.8216 -22.8268 35.3216C-21.3268 33.8016 -19.4468 33.0416 -17.1868 33.0416C-15.7068 33.0416 -14.3768 33.4016 -13.1968 34.1216C-12.0168 34.8216 -11.1368 35.7716 -10.5568 36.9716L-12.7468 38.2316C-13.1268 37.4316 -13.7168 36.7916 -14.5168 36.3116C-15.2968 35.8316 -16.1868 35.5916 -17.1868 35.5916C-18.6868 35.5916 -19.9468 36.1016 -20.9668 37.1216C-21.9668 38.1416 -22.4668 39.4116 -22.4668 40.9316C-22.4668 42.4316 -21.9668 43.6916 -20.9668 44.7116C-19.9468 45.7316 -18.6868 46.2416 -17.1868 46.2416C-16.1868 46.2416 -15.2868 46.0116 -14.4868 45.5516C-13.6868 45.0716 -13.0768 44.4316 -12.6568 43.6316L-10.4368 44.9216C-11.0768 46.1016 -11.9968 47.0516 -13.1968 47.7716C-14.3968 48.4716 -15.7268 48.8216 -17.1868 48.8216ZM3.06578 33.4316V35.9516H-2.03422V48.4316H-4.64422V35.9516H-9.77422V33.4316H3.06578ZM17.1871 33.4316H19.7971V48.4316H17.1871V45.8516C15.8871 47.8316 13.9971 48.8216 11.5171 48.8216C9.41711 48.8216 7.62711 48.0616 6.14711 46.5416C4.66711 45.0016 3.92711 43.1316 3.92711 40.9316C3.92711 38.7316 4.66711 36.8716 6.14711 35.3516C7.62711 33.8116 9.41711 33.0416 11.5171 33.0416C13.9971 33.0416 15.8871 34.0316 17.1871 36.0116V33.4316ZM11.8471 46.3016C13.3671 46.3016 14.6371 45.7916 15.6571 44.7716C16.6771 43.7316 17.1871 42.4516 17.1871 40.9316C17.1871 39.4116 16.6771 38.1416 15.6571 37.1216C14.6371 36.0816 13.3671 35.5616 11.8471 35.5616C10.3471 35.5616 9.08711 36.0816 8.06711 37.1216C7.04711 38.1416 6.53711 39.4116 6.53711 40.9316C6.53711 42.4516 7.04711 43.7316 8.06711 44.7716C9.08711 45.7916 10.3471 46.3016 11.8471 46.3016ZM34.9115 33.4316V35.9516H29.8115V48.4316H27.2015V35.9516H22.0715V33.4316H34.9115ZM43.5288 38.8316C45.0288 38.8316 46.2688 39.2816 47.2488 40.1816C48.2488 41.0616 48.7488 42.2116 48.7488 43.6316C48.7488 45.0516 48.2488 46.2116 47.2488 47.1116C46.2688 47.9916 45.0288 48.4316 43.5288 48.4316H37.1987V33.4316H39.8088V38.8316H43.5288ZM43.5288 46.0016C44.2688 46.0016 44.8888 45.7916 45.3888 45.3716C45.9088 44.9316 46.1688 44.3516 46.1688 43.6316C46.1688 42.9116 45.9088 42.3316 45.3888 41.8916C44.8888 41.4516 44.2688 41.2316 43.5288 41.2316H39.8088V46.0016H43.5288ZM62.4442 33.4316H64.5442V48.4316H61.9642V37.9016L53.6542 48.4316H51.5542V33.4316H54.1342V43.9616L62.4442 33.4316Z" fill="#FFF5ED"/>
<path d="M69.153 118.822C66.893 118.822 65.013 118.072 63.513 116.572C62.013 115.052 61.263 113.172 61.263 110.932C61.263 108.692 62.013 106.822 63.513 105.322C65.013 103.802 66.893 103.042 69.153 103.042C70.633 103.042 71.963 103.402 73.143 104.122C74.323 104.822 75.203 105.772 75.783 106.972L73.593 108.232C73.213 107.432 72.623 106.792 71.823 106.312C71.043 105.832 70.153 105.592 69.153 105.592C67.653 105.592 66.393 106.102 65.373 107.122C64.373 108.142 63.873 109.412 63.873 110.932C63.873 112.432 64.373 113.692 65.373 114.712C66.393 115.732 67.653 116.242 69.153 116.242C70.153 116.242 71.053 116.012 71.853 115.552C72.653 115.072 73.263 114.432 73.683 113.632L75.903 114.922C75.263 116.102 74.343 117.052 73.143 117.772C71.943 118.472 70.613 118.822 69.153 118.822ZM89.4056 103.432V105.952H84.3056V118.432H81.6956V105.952H76.5656V103.432H89.4056ZM103.527 103.432H106.137V118.432H103.527V115.852C102.227 117.832 100.337 118.822 97.857 118.822C95.757 118.822 93.967 118.062 92.487 116.542C91.007 115.002 90.267 113.132 90.267 110.932C90.267 108.732 91.007 106.872 92.487 105.352C93.967 103.812 95.757 103.042 97.857 103.042C100.337 103.042 102.227 104.032 103.527 106.012V103.432ZM98.187 116.302C99.707 116.302 100.977 115.792 101.997 114.772C103.017 113.732 103.527 112.452 103.527 110.932C103.527 109.412 103.017 108.142 101.997 107.122C100.977 106.082 99.707 105.562 98.187 105.562C96.687 105.562 95.427 106.082 94.407 107.122C93.387 108.142 92.877 109.412 92.877 110.932C92.877 112.452 93.387 113.732 94.407 114.772C95.427 115.792 96.687 116.302 98.187 116.302ZM121.251 103.432V105.952H116.151V118.432H113.541V105.952H108.411V103.432H121.251ZM129.869 108.832C131.369 108.832 132.609 109.282 133.589 110.182C134.589 111.062 135.089 112.212 135.089 113.632C135.089 115.052 134.589 116.212 133.589 117.112C132.609 117.992 131.369 118.432 129.869 118.432H123.539V103.432H126.149V108.832H129.869ZM129.869 116.002C130.609 116.002 131.229 115.792 131.729 115.372C132.249 114.932 132.509 114.352 132.509 113.632C132.509 112.912 132.249 112.332 131.729 111.892C131.229 111.452 130.609 111.232 129.869 111.232H126.149V116.002H129.869ZM148.784 103.432H150.884V118.432H148.304V107.902L139.994 118.432H137.894V103.432H140.474V113.962L148.784 103.432Z" fill="#FFF5ED"/>
<path d="M45.153 153.822C42.893 153.822 41.013 153.072 39.513 151.572C38.013 150.052 37.263 148.172 37.263 145.932C37.263 143.692 38.013 141.822 39.513 140.322C41.013 138.802 42.893 138.042 45.153 138.042C46.633 138.042 47.963 138.402 49.143 139.122C50.323 139.822 51.203 140.772 51.783 141.972L49.593 143.232C49.213 142.432 48.623 141.792 47.823 141.312C47.043 140.832 46.153 140.592 45.153 140.592C43.653 140.592 42.393 141.102 41.373 142.122C40.373 143.142 39.873 144.412 39.873 145.932C39.873 147.432 40.373 148.692 41.373 149.712C42.393 150.732 43.653 151.242 45.153 151.242C46.153 151.242 47.053 151.012 47.853 150.552C48.653 150.072 49.263 149.432 49.683 148.632L51.903 149.922C51.263 151.102 50.343 152.052 49.143 152.772C47.943 153.472 46.613 153.822 45.153 153.822ZM65.4056 138.432V140.952H60.3056V153.432H57.6956V140.952H52.5656V138.432H65.4056ZM79.527 138.432H82.137V153.432H79.527V150.852C78.227 152.832 76.337 153.822 73.857 153.822C71.757 153.822 69.967 153.062 68.487 151.542C67.007 150.002 66.267 148.132 66.267 145.932C66.267 143.732 67.007 141.872 68.487 140.352C69.967 138.812 71.757 138.042 73.857 138.042C76.337 138.042 78.227 139.032 79.527 141.012V138.432ZM74.187 151.302C75.707 151.302 76.977 150.792 77.997 149.772C79.017 148.732 79.527 147.452 79.527 145.932C79.527 144.412 79.017 143.142 77.997 142.122C76.977 141.082 75.707 140.562 74.187 140.562C72.687 140.562 71.427 141.082 70.407 142.122C69.387 143.142 68.877 144.412 68.877 145.932C68.877 147.452 69.387 148.732 70.407 149.772C71.427 150.792 72.687 151.302 74.187 151.302ZM97.2513 138.432V140.952H92.1513V153.432H89.5413V140.952H84.4113V138.432H97.2513ZM105.869 143.832C107.369 143.832 108.609 144.282 109.589 145.182C110.589 146.062 111.089 147.212 111.089 148.632C111.089 150.052 110.589 151.212 109.589 152.112C108.609 152.992 107.369 153.432 105.869 153.432H99.5386V138.432H102.149V143.832H105.869ZM105.869 151.002C106.609 151.002 107.229 150.792 107.729 150.372C108.249 149.932 108.509 149.352 108.509 148.632C108.509 147.912 108.249 147.332 107.729 146.892C107.229 146.452 106.609 146.232 105.869 146.232H102.149V151.002H105.869ZM124.784 138.432H126.884V153.432H124.304V142.902L115.994 153.432H113.894V138.432H116.474V148.962L124.784 138.432Z" fill="#FFF5ED"/>
<path d="M45.153 13.8216C42.893 13.8216 41.013 13.0716 39.513 11.5716C38.013 10.0516 37.263 8.17164 37.263 5.93164C37.263 3.69164 38.013 1.82164 39.513 0.32164C41.013 -1.19836 42.893 -1.95836 45.153 -1.95836C46.633 -1.95836 47.963 -1.59836 49.143 -0.87836C50.323 -0.17836 51.203 0.77164 51.783 1.97164L49.593 3.23164C49.213 2.43164 48.623 1.79164 47.823 1.31164C47.043 0.83164 46.153 0.59164 45.153 0.59164C43.653 0.59164 42.393 1.10164 41.373 2.12164C40.373 3.14164 39.873 4.41164 39.873 5.93164C39.873 7.43164 40.373 8.69164 41.373 9.71164C42.393 10.7316 43.653 11.2416 45.153 11.2416C46.153 11.2416 47.053 11.0116 47.853 10.5516C48.653 10.0716 49.263 9.43164 49.683 8.63164L51.903 9.92164C51.263 11.1016 50.343 12.0516 49.143 12.7716C47.943 13.4716 46.613 13.8216 45.153 13.8216ZM65.4056 -1.56836V0.95164H60.3056V13.4316H57.6956V0.95164H52.5656V-1.56836H65.4056ZM79.527 -1.56836H82.137V13.4316H79.527V10.8516C78.227 12.8316 76.337 13.8216 73.857 13.8216C71.757 13.8216 69.967 13.0616 68.487 11.5416C67.007 10.0016 66.267 8.13164 66.267 5.93164C66.267 3.73164 67.007 1.87164 68.487 0.35164C69.967 -1.18836 71.757 -1.95836 73.857 -1.95836C76.337 -1.95836 78.227 -0.96836 79.527 1.01164V-1.56836ZM74.187 11.3016C75.707 11.3016 76.977 10.7916 77.997 9.77164C79.017 8.73164 79.527 7.45164 79.527 5.93164C79.527 4.41164 79.017 3.14164 77.997 2.12164C76.977 1.08164 75.707 0.56164 74.187 0.56164C72.687 0.56164 71.427 1.08164 70.407 2.12164C69.387 3.14164 68.877 4.41164 68.877 5.93164C68.877 7.45164 69.387 8.73164 70.407 9.77164C71.427 10.7916 72.687 11.3016 74.187 11.3016ZM97.2513 -1.56836V0.95164H92.1513V13.4316H89.5413V0.95164H84.4113V-1.56836H97.2513ZM105.869 3.83164C107.369 3.83164 108.609 4.28164 109.589 5.18164C110.589 6.06164 111.089 7.21164 111.089 8.63164C111.089 10.0516 110.589 11.2116 109.589 12.1116C108.609 12.9916 107.369 13.4316 105.869 13.4316H99.5386V-1.56836H102.149V3.83164H105.869ZM105.869 11.0016C106.609 11.0016 107.229 10.7916 107.729 10.3716C108.249 9.93164 108.509 9.35164 108.509 8.63164C108.509 7.91164 108.249 7.33164 107.729 6.89164C107.229 6.45164 106.609 6.23164 105.869 6.23164H102.149V11.0016H105.869ZM124.784 -1.56836H126.884V13.4316H124.304V2.90164L115.994 13.4316H113.894V-1.56836H116.474V8.96164L124.784 -1.56836Z" fill="#FFF5ED"/>
<path d="M142.313 83.8216C140.053 83.8216 138.173 83.0716 136.673 81.5716C135.173 80.0516 134.423 78.1716 134.423 75.9316C134.423 73.6916 135.173 71.8216 136.673 70.3216C138.173 68.8016 140.053 68.0416 142.313 68.0416C143.793 68.0416 145.123 68.4016 146.303 69.1216C147.483 69.8216 148.363 70.7716 148.943 71.9716L146.753 73.2316C146.373 72.4316 145.783 71.7916 144.983 71.3116C144.203 70.8316 143.313 70.5916 142.313 70.5916C140.813 70.5916 139.553 71.1016 138.533 72.1216C137.533 73.1416 137.033 74.4116 137.033 75.9316C137.033 77.4316 137.533 78.6916 138.533 79.7116C139.553 80.7316 140.813 81.2416 142.313 81.2416C143.313 81.2416 144.213 81.0116 145.013 80.5516C145.813 80.0716 146.423 79.4316 146.843 78.6316L149.063 79.9216C148.423 81.1016 147.503 82.0516 146.303 82.7716C145.103 83.4716 143.773 83.8216 142.313 83.8216ZM162.566 68.4316V70.9516H157.466V83.4316H154.856V70.9516H149.726V68.4316H162.566ZM176.687 68.4316H179.297V83.4316H176.687V80.8516C175.387 82.8316 173.497 83.8216 171.017 83.8216C168.917 83.8216 167.127 83.0616 165.647 81.5416C164.167 80.0016 163.427 78.1316 163.427 75.9316C163.427 73.7316 164.167 71.8716 165.647 70.3516C167.127 68.8116 168.917 68.0416 171.017 68.0416C173.497 68.0416 175.387 69.0316 176.687 71.0116V68.4316ZM171.347 81.3016C172.867 81.3016 174.137 80.7916 175.157 79.7716C176.177 78.7316 176.687 77.4516 176.687 75.9316C176.687 74.4116 176.177 73.1416 175.157 72.1216C174.137 71.0816 172.867 70.5616 171.347 70.5616C169.847 70.5616 168.587 71.0816 167.567 72.1216C166.547 73.1416 166.037 74.4116 166.037 75.9316C166.037 77.4516 166.547 78.7316 167.567 79.7716C168.587 80.7916 169.847 81.3016 171.347 81.3016ZM194.411 68.4316V70.9516H189.311V83.4316H186.701V70.9516H181.571V68.4316H194.411ZM203.029 73.8316C204.529 73.8316 205.769 74.2816 206.749 75.1816C207.749 76.0616 208.249 77.2116 208.249 78.6316C208.249 80.0516 207.749 81.2116 206.749 82.1116C205.769 82.9916 204.529 83.4316 203.029 83.4316H196.699V68.4316H199.309V73.8316H203.029ZM203.029 81.0016C203.769 81.0016 204.389 80.7916 204.889 80.3716C205.409 79.9316 205.669 79.3516 205.669 78.6316C205.669 77.9116 205.409 77.3316 204.889 76.8916C204.389 76.4516 203.769 76.2316 203.029 76.2316H199.309V81.0016H203.029ZM221.944 68.4316H224.044V83.4316H221.464V72.9016L213.154 83.4316H211.054V68.4316H213.634V78.9616L221.944 68.4316Z" fill="#FFF5ED"/>
<path d="M85.8132 48.8216C83.5532 48.8216 81.6732 48.0716 80.1732 46.5716C78.6732 45.0516 77.9232 43.1716 77.9232 40.9316C77.9232 38.6916 78.6732 36.8216 80.1732 35.3216C81.6732 33.8016 83.5532 33.0416 85.8132 33.0416C87.2932 33.0416 88.6232 33.4016 89.8032 34.1216C90.9832 34.8216 91.8632 35.7716 92.4432 36.9716L90.2532 38.2316C89.8732 37.4316 89.2832 36.7916 88.4832 36.3116C87.7032 35.8316 86.8132 35.5916 85.8132 35.5916C84.3132 35.5916 83.0532 36.1016 82.0332 37.1216C81.0332 38.1416 80.5332 39.4116 80.5332 40.9316C80.5332 42.4316 81.0332 43.6916 82.0332 44.7116C83.0532 45.7316 84.3132 46.2416 85.8132 46.2416C86.8132 46.2416 87.7132 46.0116 88.5132 45.5516C89.3132 45.0716 89.9232 44.4316 90.3432 43.6316L92.5632 44.9216C91.9232 46.1016 91.0032 47.0516 89.8032 47.7716C88.6032 48.4716 87.2732 48.8216 85.8132 48.8216ZM106.066 33.4316V35.9516H100.966V48.4316H98.3558V35.9516H93.2258V33.4316H106.066ZM120.187 33.4316H122.797V48.4316H120.187V45.8516C118.887 47.8316 116.997 48.8216 114.517 48.8216C112.417 48.8216 110.627 48.0616 109.147 46.5416C107.667 45.0016 106.927 43.1316 106.927 40.9316C106.927 38.7316 107.667 36.8716 109.147 35.3516C110.627 33.8116 112.417 33.0416 114.517 33.0416C116.997 33.0416 118.887 34.0316 120.187 36.0116V33.4316ZM114.847 46.3016C116.367 46.3016 117.637 45.7916 118.657 44.7716C119.677 43.7316 120.187 42.4516 120.187 40.9316C120.187 39.4116 119.677 38.1416 118.657 37.1216C117.637 36.0816 116.367 35.5616 114.847 35.5616C113.347 35.5616 112.087 36.0816 111.067 37.1216C110.047 38.1416 109.537 39.4116 109.537 40.9316C109.537 42.4516 110.047 43.7316 111.067 44.7716C112.087 45.7916 113.347 46.3016 114.847 46.3016ZM137.911 33.4316V35.9516H132.811V48.4316H130.201V35.9516H125.071V33.4316H137.911ZM146.529 38.8316C148.029 38.8316 149.269 39.2816 150.249 40.1816C151.249 41.0616 151.749 42.2116 151.749 43.6316C151.749 45.0516 151.249 46.2116 150.249 47.1116C149.269 47.9916 148.029 48.4316 146.529 48.4316H140.199V33.4316H142.809V38.8316H146.529ZM146.529 46.0016C147.269 46.0016 147.889 45.7916 148.389 45.3716C148.909 44.9316 149.169 44.3516 149.169 43.6316C149.169 42.9116 148.909 42.3316 148.389 41.8916C147.889 41.4516 147.269 41.2316 146.529 41.2316H142.809V46.0016H146.529ZM165.444 33.4316H167.544V48.4316H164.964V37.9016L156.654 48.4316H154.554V33.4316H157.134V43.9616L165.444 33.4316Z" fill="#FFF5ED"/>
<path d="M148.153 153.822C145.893 153.822 144.013 153.072 142.513 151.572C141.013 150.052 140.263 148.172 140.263 145.932C140.263 143.692 141.013 141.822 142.513 140.322C144.013 138.802 145.893 138.042 148.153 138.042C149.633 138.042 150.963 138.402 152.143 139.122C153.323 139.822 154.203 140.772 154.783 141.972L152.593 143.232C152.213 142.432 151.623 141.792 150.823 141.312C150.043 140.832 149.153 140.592 148.153 140.592C146.653 140.592 145.393 141.102 144.373 142.122C143.373 143.142 142.873 144.412 142.873 145.932C142.873 147.432 143.373 148.692 144.373 149.712C145.393 150.732 146.653 151.242 148.153 151.242C149.153 151.242 150.053 151.012 150.853 150.552C151.653 150.072 152.263 149.432 152.683 148.632L154.903 149.922C154.263 151.102 153.343 152.052 152.143 152.772C150.943 153.472 149.613 153.822 148.153 153.822ZM168.406 138.432V140.952H163.306V153.432H160.696V140.952H155.566V138.432H168.406ZM182.527 138.432H185.137V153.432H182.527V150.852C181.227 152.832 179.337 153.822 176.857 153.822C174.757 153.822 172.967 153.062 171.487 151.542C170.007 150.002 169.267 148.132 169.267 145.932C169.267 143.732 170.007 141.872 171.487 140.352C172.967 138.812 174.757 138.042 176.857 138.042C179.337 138.042 181.227 139.032 182.527 141.012V138.432ZM177.187 151.302C178.707 151.302 179.977 150.792 180.997 149.772C182.017 148.732 182.527 147.452 182.527 145.932C182.527 144.412 182.017 143.142 180.997 142.122C179.977 141.082 178.707 140.562 177.187 140.562C175.687 140.562 174.427 141.082 173.407 142.122C172.387 143.142 171.877 144.412 171.877 145.932C171.877 147.452 172.387 148.732 173.407 149.772C174.427 150.792 175.687 151.302 177.187 151.302ZM200.251 138.432V140.952H195.151V153.432H192.541V140.952H187.411V138.432H200.251ZM208.869 143.832C210.369 143.832 211.609 144.282 212.589 145.182C213.589 146.062 214.089 147.212 214.089 148.632C214.089 150.052 213.589 151.212 212.589 152.112C211.609 152.992 210.369 153.432 208.869 153.432H202.539V138.432H205.149V143.832H208.869ZM208.869 151.002C209.609 151.002 210.229 150.792 210.729 150.372C211.249 149.932 211.509 149.352 211.509 148.632C211.509 147.912 211.249 147.332 210.729 146.892C210.229 146.452 209.609 146.232 208.869 146.232H205.149V151.002H208.869ZM227.784 138.432H229.884V153.432H227.304V142.902L218.994 153.432H216.894V138.432H219.474V148.962L227.784 138.432Z" fill="#FFF5ED"/>
<path d="M148.153 13.8216C145.893 13.8216 144.013 13.0716 142.513 11.5716C141.013 10.0516 140.263 8.17164 140.263 5.93164C140.263 3.69164 141.013 1.82164 142.513 0.32164C144.013 -1.19836 145.893 -1.95836 148.153 -1.95836C149.633 -1.95836 150.963 -1.59836 152.143 -0.87836C153.323 -0.17836 154.203 0.77164 154.783 1.97164L152.593 3.23164C152.213 2.43164 151.623 1.79164 150.823 1.31164C150.043 0.83164 149.153 0.59164 148.153 0.59164C146.653 0.59164 145.393 1.10164 144.373 2.12164C143.373 3.14164 142.873 4.41164 142.873 5.93164C142.873 7.43164 143.373 8.69164 144.373 9.71164C145.393 10.7316 146.653 11.2416 148.153 11.2416C149.153 11.2416 150.053 11.0116 150.853 10.5516C151.653 10.0716 152.263 9.43164 152.683 8.63164L154.903 9.92164C154.263 11.1016 153.343 12.0516 152.143 12.7716C150.943 13.4716 149.613 13.8216 148.153 13.8216ZM168.406 -1.56836V0.95164H163.306V13.4316H160.696V0.95164H155.566V-1.56836H168.406ZM182.527 -1.56836H185.137V13.4316H182.527V10.8516C181.227 12.8316 179.337 13.8216 176.857 13.8216C174.757 13.8216 172.967 13.0616 171.487 11.5416C170.007 10.0016 169.267 8.13164 169.267 5.93164C169.267 3.73164 170.007 1.87164 171.487 0.35164C172.967 -1.18836 174.757 -1.95836 176.857 -1.95836C179.337 -1.95836 181.227 -0.96836 182.527 1.01164V-1.56836ZM177.187 11.3016C178.707 11.3016 179.977 10.7916 180.997 9.77164C182.017 8.73164 182.527 7.45164 182.527 5.93164C182.527 4.41164 182.017 3.14164 180.997 2.12164C179.977 1.08164 178.707 0.56164 177.187 0.56164C175.687 0.56164 174.427 1.08164 173.407 2.12164C172.387 3.14164 171.877 4.41164 171.877 5.93164C171.877 7.45164 172.387 8.73164 173.407 9.77164C174.427 10.7916 175.687 11.3016 177.187 11.3016ZM200.251 -1.56836V0.95164H195.151V13.4316H192.541V0.95164H187.411V-1.56836H200.251ZM208.869 3.83164C210.369 3.83164 211.609 4.28164 212.589 5.18164C213.589 6.06164 214.089 7.21164 214.089 8.63164C214.089 10.0516 213.589 11.2116 212.589 12.1116C211.609 12.9916 210.369 13.4316 208.869 13.4316H202.539V-1.56836H205.149V3.83164H208.869ZM208.869 11.0016C209.609 11.0016 210.229 10.7916 210.729 10.3716C211.249 9.93164 211.509 9.35164 211.509 8.63164C211.509 7.91164 211.249 7.33164 210.729 6.89164C210.229 6.45164 209.609 6.23164 208.869 6.23164H205.149V11.0016H208.869ZM227.784 -1.56836H229.884V13.4316H227.304V2.90164L218.994 13.4316H216.894V-1.56836H219.474V8.96164L227.784 -1.56836Z" fill="#FFF5ED"/>
<path d="M-63.6868 83.8216C-65.9468 83.8216 -67.8268 83.0716 -69.3268 81.5716C-70.8268 80.0516 -71.5768 78.1716 -71.5768 75.9316C-71.5768 73.6916 -70.8268 71.8216 -69.3268 70.3216C-67.8268 68.8016 -65.9468 68.0416 -63.6868 68.0416C-62.2068 68.0416 -60.8768 68.4016 -59.6968 69.1216C-58.5168 69.8216 -57.6368 70.7716 -57.0568 71.9716L-59.2468 73.2316C-59.6268 72.4316 -60.2168 71.7916 -61.0168 71.3116C-61.7968 70.8316 -62.6868 70.5916 -63.6868 70.5916C-65.1868 70.5916 -66.4468 71.1016 -67.4668 72.1216C-68.4668 73.1416 -68.9668 74.4116 -68.9668 75.9316C-68.9668 77.4316 -68.4668 78.6916 -67.4668 79.7116C-66.4468 80.7316 -65.1868 81.2416 -63.6868 81.2416C-62.6868 81.2416 -61.7868 81.0116 -60.9868 80.5516C-60.1868 80.0716 -59.5768 79.4316 -59.1568 78.6316L-56.9368 79.9216C-57.5768 81.1016 -58.4968 82.0516 -59.6968 82.7716C-60.8968 83.4716 -62.2268 83.8216 -63.6868 83.8216ZM-43.4342 68.4316V70.9516H-48.5342V83.4316H-51.1442V70.9516H-56.2742V68.4316H-43.4342ZM-29.3129 68.4316H-26.7029V83.4316H-29.3129V80.8516C-30.6129 82.8316 -32.5029 83.8216 -34.9829 83.8216C-37.0829 83.8216 -38.8729 83.0616 -40.3529 81.5416C-41.8329 80.0016 -42.5729 78.1316 -42.5729 75.9316C-42.5729 73.7316 -41.8329 71.8716 -40.3529 70.3516C-38.8729 68.8116 -37.0829 68.0416 -34.9829 68.0416C-32.5029 68.0416 -30.6129 69.0316 -29.3129 71.0116V68.4316ZM-34.6529 81.3016C-33.1329 81.3016 -31.8629 80.7916 -30.8429 79.7716C-29.8229 78.7316 -29.3129 77.4516 -29.3129 75.9316C-29.3129 74.4116 -29.8229 73.1416 -30.8429 72.1216C-31.8629 71.0816 -33.1329 70.5616 -34.6529 70.5616C-36.1529 70.5616 -37.4129 71.0816 -38.4329 72.1216C-39.4529 73.1416 -39.9629 74.4116 -39.9629 75.9316C-39.9629 77.4516 -39.4529 78.7316 -38.4329 79.7716C-37.4129 80.7916 -36.1529 81.3016 -34.6529 81.3016ZM-11.5885 68.4316V70.9516H-16.6885V83.4316H-19.2985V70.9516H-24.4285V68.4316H-11.5885ZM-2.97125 73.8316C-1.47125 73.8316 -0.231249 74.2816 0.748751 75.1816C1.74875 76.0616 2.24875 77.2116 2.24875 78.6316C2.24875 80.0516 1.74875 81.2116 0.748751 82.1116C-0.231249 82.9916 -1.47125 83.4316 -2.97125 83.4316H-9.30125V68.4316H-6.69125V73.8316H-2.97125ZM-2.97125 81.0016C-2.23125 81.0016 -1.61125 80.7916 -1.11125 80.3716C-0.59125 79.9316 -0.33125 79.3516 -0.33125 78.6316C-0.33125 77.9116 -0.59125 77.3316 -1.11125 76.8916C-1.61125 76.4516 -2.23125 76.2316 -2.97125 76.2316H-6.69125V81.0016H-2.97125ZM15.9442 68.4316H18.0442V83.4316H15.4642V72.9016L7.15422 83.4316H5.05422V68.4316H7.63422V78.9616L15.9442 68.4316Z" fill="#FFF5ED"/>
<path d="M-33.847 118.822C-36.107 118.822 -37.987 118.072 -39.487 116.572C-40.987 115.052 -41.737 113.172 -41.737 110.932C-41.737 108.692 -40.987 106.822 -39.487 105.322C-37.987 103.802 -36.107 103.042 -33.847 103.042C-32.367 103.042 -31.037 103.402 -29.857 104.122C-28.677 104.822 -27.797 105.772 -27.217 106.972L-29.407 108.232C-29.787 107.432 -30.377 106.792 -31.177 106.312C-31.957 105.832 -32.847 105.592 -33.847 105.592C-35.347 105.592 -36.607 106.102 -37.627 107.122C-38.627 108.142 -39.127 109.412 -39.127 110.932C-39.127 112.432 -38.627 113.692 -37.627 114.712C-36.607 115.732 -35.347 116.242 -33.847 116.242C-32.847 116.242 -31.947 116.012 -31.147 115.552C-30.347 115.072 -29.737 114.432 -29.317 113.632L-27.097 114.922C-27.737 116.102 -28.657 117.052 -29.857 117.772C-31.057 118.472 -32.387 118.822 -33.847 118.822ZM-13.5944 103.432V105.952H-18.6944V118.432H-21.3044V105.952H-26.4344V103.432H-13.5944ZM0.526954 103.432H3.13695V118.432H0.526954V115.852C-0.773046 117.832 -2.66305 118.822 -5.14305 118.822C-7.24305 118.822 -9.03305 118.062 -10.513 116.542C-11.993 115.002 -12.733 113.132 -12.733 110.932C-12.733 108.732 -11.993 106.872 -10.513 105.352C-9.03305 103.812 -7.24305 103.042 -5.14305 103.042C-2.66305 103.042 -0.773046 104.032 0.526954 106.012V103.432ZM-4.81305 116.302C-3.29305 116.302 -2.02305 115.792 -1.00305 114.772C0.0169537 113.732 0.526954 112.452 0.526954 110.932C0.526954 109.412 0.0169537 108.142 -1.00305 107.122C-2.02305 106.082 -3.29305 105.562 -4.81305 105.562C-6.31305 105.562 -7.57305 106.082 -8.59305 107.122C-9.61305 108.142 -10.123 109.412 -10.123 110.932C-10.123 112.452 -9.61305 113.732 -8.59305 114.772C-7.57305 115.792 -6.31305 116.302 -4.81305 116.302ZM18.2513 103.432V105.952H13.1513V118.432H10.5413V105.952H5.41133V103.432H18.2513ZM26.8686 108.832C28.3686 108.832 29.6086 109.282 30.5886 110.182C31.5886 111.062 32.0886 112.212 32.0886 113.632C32.0886 115.052 31.5886 116.212 30.5886 117.112C29.6086 117.992 28.3686 118.432 26.8686 118.432H20.5386V103.432H23.1486V108.832H26.8686ZM26.8686 116.002C27.6086 116.002 28.2286 115.792 28.7286 115.372C29.2486 114.932 29.5086 114.352 29.5086 113.632C29.5086 112.912 29.2486 112.332 28.7286 111.892C28.2286 111.452 27.6086 111.232 26.8686 111.232H23.1486V116.002H26.8686ZM45.7841 103.432H47.8841V118.432H45.3041V107.902L36.9941 118.432H34.8941V103.432H37.4741V113.962L45.7841 103.432Z" fill="#FFF5ED"/>
<path d="M-57.847 153.822C-60.107 153.822 -61.987 153.072 -63.487 151.572C-64.987 150.052 -65.737 148.172 -65.737 145.932C-65.737 143.692 -64.987 141.822 -63.487 140.322C-61.987 138.802 -60.107 138.042 -57.847 138.042C-56.367 138.042 -55.037 138.402 -53.857 139.122C-52.677 139.822 -51.797 140.772 -51.217 141.972L-53.407 143.232C-53.787 142.432 -54.377 141.792 -55.177 141.312C-55.957 140.832 -56.847 140.592 -57.847 140.592C-59.347 140.592 -60.607 141.102 -61.627 142.122C-62.627 143.142 -63.127 144.412 -63.127 145.932C-63.127 147.432 -62.627 148.692 -61.627 149.712C-60.607 150.732 -59.347 151.242 -57.847 151.242C-56.847 151.242 -55.947 151.012 -55.147 150.552C-54.347 150.072 -53.737 149.432 -53.317 148.632L-51.097 149.922C-51.737 151.102 -52.657 152.052 -53.857 152.772C-55.057 153.472 -56.387 153.822 -57.847 153.822ZM-37.5944 138.432V140.952H-42.6944V153.432H-45.3044V140.952H-50.4344V138.432H-37.5944ZM-23.473 138.432H-20.863V153.432H-23.473V150.852C-24.773 152.832 -26.663 153.822 -29.143 153.822C-31.243 153.822 -33.033 153.062 -34.513 151.542C-35.993 150.002 -36.733 148.132 -36.733 145.932C-36.733 143.732 -35.993 141.872 -34.513 140.352C-33.033 138.812 -31.243 138.042 -29.143 138.042C-26.663 138.042 -24.773 139.032 -23.473 141.012V138.432ZM-28.813 151.302C-27.293 151.302 -26.023 150.792 -25.003 149.772C-23.983 148.732 -23.473 147.452 -23.473 145.932C-23.473 144.412 -23.983 143.142 -25.003 142.122C-26.023 141.082 -27.293 140.562 -28.813 140.562C-30.313 140.562 -31.573 141.082 -32.593 142.122C-33.613 143.142 -34.123 144.412 -34.123 145.932C-34.123 147.452 -33.613 148.732 -32.593 149.772C-31.573 150.792 -30.313 151.302 -28.813 151.302ZM-5.74867 138.432V140.952H-10.8487V153.432H-13.4587V140.952H-18.5887V138.432H-5.74867ZM2.86859 143.832C4.36859 143.832 5.60859 144.282 6.58859 145.182C7.58859 146.062 8.08859 147.212 8.08859 148.632C8.08859 150.052 7.58859 151.212 6.58859 152.112C5.60859 152.992 4.36859 153.432 2.86859 153.432H-3.46141V138.432H-0.851406V143.832H2.86859ZM2.86859 151.002C3.60859 151.002 4.22859 150.792 4.72859 150.372C5.24859 149.932 5.50859 149.352 5.50859 148.632C5.50859 147.912 5.24859 147.332 4.72859 146.892C4.22859 146.452 3.60859 146.232 2.86859 146.232H-0.851406V151.002H2.86859ZM21.7841 138.432H23.8841V153.432H21.3041V142.902L12.9941 153.432H10.8941V138.432H13.4741V148.962L21.7841 138.432Z" fill="#FFF5ED"/>
<path d="M-57.847 13.8216C-60.107 13.8216 -61.987 13.0716 -63.487 11.5716C-64.987 10.0516 -65.737 8.17164 -65.737 5.93164C-65.737 3.69164 -64.987 1.82164 -63.487 0.32164C-61.987 -1.19836 -60.107 -1.95836 -57.847 -1.95836C-56.367 -1.95836 -55.037 -1.59836 -53.857 -0.87836C-52.677 -0.17836 -51.797 0.77164 -51.217 1.97164L-53.407 3.23164C-53.787 2.43164 -54.377 1.79164 -55.177 1.31164C-55.957 0.83164 -56.847 0.59164 -57.847 0.59164C-59.347 0.59164 -60.607 1.10164 -61.627 2.12164C-62.627 3.14164 -63.127 4.41164 -63.127 5.93164C-63.127 7.43164 -62.627 8.69164 -61.627 9.71164C-60.607 10.7316 -59.347 11.2416 -57.847 11.2416C-56.847 11.2416 -55.947 11.0116 -55.147 10.5516C-54.347 10.0716 -53.737 9.43164 -53.317 8.63164L-51.097 9.92164C-51.737 11.1016 -52.657 12.0516 -53.857 12.7716C-55.057 13.4716 -56.387 13.8216 -57.847 13.8216ZM-37.5944 -1.56836V0.95164H-42.6944V13.4316H-45.3044V0.95164H-50.4344V-1.56836H-37.5944ZM-23.473 -1.56836H-20.863V13.4316H-23.473V10.8516C-24.773 12.8316 -26.663 13.8216 -29.143 13.8216C-31.243 13.8216 -33.033 13.0616 -34.513 11.5416C-35.993 10.0016 -36.733 8.13164 -36.733 5.93164C-36.733 3.73164 -35.993 1.87164 -34.513 0.35164C-33.033 -1.18836 -31.243 -1.95836 -29.143 -1.95836C-26.663 -1.95836 -24.773 -0.96836 -23.473 1.01164V-1.56836ZM-28.813 11.3016C-27.293 11.3016 -26.023 10.7916 -25.003 9.77164C-23.983 8.73164 -23.473 7.45164 -23.473 5.93164C-23.473 4.41164 -23.983 3.14164 -25.003 2.12164C-26.023 1.08164 -27.293 0.56164 -28.813 0.56164C-30.313 0.56164 -31.573 1.08164 -32.593 2.12164C-33.613 3.14164 -34.123 4.41164 -34.123 5.93164C-34.123 7.45164 -33.613 8.73164 -32.593 9.77164C-31.573 10.7916 -30.313 11.3016 -28.813 11.3016ZM-5.74867 -1.56836V0.95164H-10.8487V13.4316H-13.4587V0.95164H-18.5887V-1.56836H-5.74867ZM2.86859 3.83164C4.36859 3.83164 5.60859 4.28164 6.58859 5.18164C7.58859 6.06164 8.08859 7.21164 8.08859 8.63164C8.08859 10.0516 7.58859 11.2116 6.58859 12.1116C5.60859 12.9916 4.36859 13.4316 2.86859 13.4316H-3.46141V-1.56836H-0.851406V3.83164H2.86859ZM2.86859 11.0016C3.60859 11.0016 4.22859 10.7916 4.72859 10.3716C5.24859 9.93164 5.50859 9.35164 5.50859 8.63164C5.50859 7.91164 5.24859 7.33164 4.72859 6.89164C4.22859 6.45164 3.60859 6.23164 2.86859 6.23164H-0.851406V11.0016H2.86859ZM21.7841 -1.56836H23.8841V13.4316H21.3041V2.90164L12.9941 13.4316H10.8941V-1.56836H13.4741V8.96164L21.7841 -1.56836Z" fill="#FFF5ED"/>
</g>
</g>
<defs>
<clipPath id="clip0">
<rect width="153" height="153" fill="white" transform="translate(0 0.431641)"/>
</clipPath>
</defs>
</svg>
