<svg width="195" height="195" viewBox="0 0 195 195" fill="none" xmlns="http://www.w3.org/2000/svg">
<g clip-path="url(#clip0)">
<circle cx="97.6602" cy="97.7168" r="97" fill="#6B845F"/>
<mask id="mask0" mask-type="alpha" maskUnits="userSpaceOnUse" x="0" y="0" width="195" height="195">
<circle cx="97.6602" cy="97.7168" r="97" fill="white"/>
</mask>
<g mask="url(#mask0)">
<path d="M25.52 105.697C23.4667 107.723 20.9733 108.737 18.04 108.737C15.1067 108.737 12.6133 107.723 10.56 105.697C8.53333 103.67 7.52 101.177 7.52 98.2168C7.52 95.2568 8.53333 92.7635 10.56 90.7368C12.6133 88.7101 15.1067 87.6968 18.04 87.6968C20.9733 87.6968 23.4667 88.7101 25.52 90.7368C27.5733 92.7635 28.6 95.2568 28.6 98.2168C28.6 101.177 27.5733 103.67 25.52 105.697ZM18.04 105.337C20.04 105.337 21.72 104.657 23.08 103.297C24.44 101.937 25.12 100.243 25.12 98.2168C25.12 96.1901 24.44 94.4968 23.08 93.1368C21.72 91.7768 20.04 91.0968 18.04 91.0968C16.0667 91.0968 14.4 91.7768 13.04 93.1368C11.68 94.4968 11 96.1901 11 98.2168C11 100.243 11.68 101.937 13.04 103.297C14.4 104.657 16.0667 105.337 18.04 105.337ZM41.7825 108.737C38.8225 108.737 36.3825 107.763 34.4625 105.817C32.5425 103.87 31.5825 101.363 31.5825 98.2968C31.5825 94.8835 32.0758 92.2568 33.0625 90.4168C34.0758 88.5768 36.1292 86.9101 39.2225 85.4168C39.7825 85.1501 40.5425 84.8035 41.5025 84.3768C42.4892 83.9501 43.2092 83.6301 43.6625 83.4168C44.1158 83.1768 44.6225 82.8701 45.1825 82.4968C45.7425 82.0968 46.1558 81.6701 46.4225 81.2168C46.7158 80.7368 46.9292 80.1901 47.0625 79.5768L49.8625 81.1768C49.7825 81.6035 49.6758 82.0035 49.5425 82.3768C49.4092 82.7235 49.2092 83.0701 48.9425 83.4168C48.7025 83.7368 48.4892 84.0168 48.3025 84.2568C48.1158 84.4968 47.7958 84.7635 47.3425 85.0568C46.9158 85.3235 46.5958 85.5235 46.3825 85.6568C46.1958 85.7901 45.8092 85.9901 45.2225 86.2568C44.6625 86.5235 44.2758 86.7101 44.0625 86.8168C43.8758 86.8968 43.4358 87.0835 42.7425 87.3768C42.0492 87.6435 41.6225 87.8168 41.4625 87.8968C39.6492 88.6701 38.3158 89.4568 37.4625 90.2568C36.6358 91.0568 36.0358 92.0701 35.6625 93.2968C36.5158 92.2301 37.5825 91.4435 38.8625 90.9368C40.1425 90.4301 41.4225 90.1768 42.7025 90.1768C45.2092 90.1768 47.3292 91.0301 49.0625 92.7368C50.8225 94.4435 51.7025 96.6435 51.7025 99.3368C51.7025 102.057 50.7692 104.31 48.9025 106.097C47.0358 107.857 44.6625 108.737 41.7825 108.737ZM37.1025 103.617C38.3558 104.79 39.9158 105.377 41.7825 105.377C43.6492 105.377 45.1825 104.803 46.3825 103.657C47.6092 102.51 48.2225 101.07 48.2225 99.3368C48.2225 97.5501 47.6358 96.0968 46.4625 94.9768C45.3158 93.8301 43.7958 93.2568 41.9025 93.2568C40.1958 93.2568 38.6492 93.8035 37.2625 94.8968C35.9025 95.9635 35.2225 97.3768 35.2225 99.1368C35.2225 100.95 35.8492 102.443 37.1025 103.617ZM68.5766 88.2168H72.2966L64.1366 109.457C63.2832 111.723 62.0832 113.443 60.5366 114.617C58.9899 115.817 57.2299 116.35 55.2566 116.217V112.977C57.7099 113.163 59.5099 111.83 60.6566 108.977L60.9766 108.257L52.2966 88.2168H55.9766L62.8166 103.897L68.5766 88.2168ZM87.8025 88.2168H91.2825V108.217H87.8025V101.017C86.2025 101.71 84.4025 102.057 82.4025 102.057C79.8425 102.057 77.8558 101.457 76.4425 100.257C75.0558 99.0301 74.3625 97.2301 74.3625 94.8568V88.2168H77.8425V94.6568C77.8425 96.1501 78.2425 97.2168 79.0425 97.8568C79.8692 98.4968 81.0692 98.8168 82.6425 98.8168C84.5358 98.8168 86.2558 98.4701 87.8025 97.7768V88.2168ZM99.0097 99.8168C99.3564 101.603 100.17 102.99 101.45 103.977C102.756 104.963 104.356 105.457 106.25 105.457C108.89 105.457 110.81 104.483 112.01 102.537L114.97 104.217C113.023 107.23 110.09 108.737 106.17 108.737C102.996 108.737 100.41 107.75 98.4097 105.777C96.4364 103.777 95.4497 101.257 95.4497 98.2168C95.4497 95.2035 96.423 92.6968 98.3697 90.6968C100.316 88.6968 102.836 87.6968 105.93 87.6968C108.863 87.6968 111.25 88.7368 113.09 90.8168C114.956 92.8701 115.89 95.3501 115.89 98.2568C115.89 98.7635 115.85 99.2835 115.77 99.8168H99.0097ZM105.93 90.9768C104.063 90.9768 102.516 91.5101 101.29 92.5768C100.063 93.6168 99.303 95.0168 99.0097 96.7768H112.37C112.076 94.8835 111.33 93.4435 110.13 92.4568C108.93 91.4701 107.53 90.9768 105.93 90.9768ZM133.73 88.2168H137.21V108.217H133.73V99.8568H123.37V108.217H119.89V88.2168H123.37V96.5368H133.73V88.2168ZM157.027 88.2168H159.827V108.217H156.387V94.1768L145.307 108.217H142.507V88.2168H145.947V102.257L157.027 88.2168ZM167.564 99.8168C167.911 101.603 168.724 102.99 170.004 103.977C171.311 104.963 172.911 105.457 174.804 105.457C177.444 105.457 179.364 104.483 180.564 102.537L183.524 104.217C181.578 107.23 178.644 108.737 174.724 108.737C171.551 108.737 168.964 107.75 166.964 105.777C164.991 103.777 164.004 101.257 164.004 98.2168C164.004 95.2035 164.978 92.6968 166.924 90.6968C168.871 88.6968 171.391 87.6968 174.484 87.6968C177.418 87.6968 179.804 88.7368 181.644 90.8168C183.511 92.8701 184.444 95.3501 184.444 98.2568C184.444 98.7635 184.404 99.2835 184.324 99.8168H167.564ZM174.484 90.9768C172.618 90.9768 171.071 91.5101 169.844 92.5768C168.618 93.6168 167.858 95.0168 167.564 96.7768H180.924C180.631 94.8835 179.884 93.4435 178.684 92.4568C177.484 91.4701 176.084 90.9768 174.484 90.9768Z" fill="#FFF5ED"/>
<path d="M-100.48 58.6968C-102.533 60.7235 -105.027 61.7368 -107.96 61.7368C-110.893 61.7368 -113.387 60.7235 -115.44 58.6968C-117.467 56.6701 -118.48 54.1768 -118.48 51.2168C-118.48 48.2568 -117.467 45.7635 -115.44 43.7368C-113.387 41.7101 -110.893 40.6968 -107.96 40.6968C-105.027 40.6968 -102.533 41.7101 -100.48 43.7368C-98.4267 45.7635 -97.4 48.2568 -97.4 51.2168C-97.4 54.1768 -98.4267 56.6701 -100.48 58.6968ZM-107.96 58.3368C-105.96 58.3368 -104.28 57.6568 -102.92 56.2968C-101.56 54.9368 -100.88 53.2435 -100.88 51.2168C-100.88 49.1901 -101.56 47.4968 -102.92 46.1368C-104.28 44.7768 -105.96 44.0968 -107.96 44.0968C-109.933 44.0968 -111.6 44.7768 -112.96 46.1368C-114.32 47.4968 -115 49.1901 -115 51.2168C-115 53.2435 -114.32 54.9368 -112.96 56.2968C-111.6 57.6568 -109.933 58.3368 -107.96 58.3368ZM-84.2175 61.7368C-87.1775 61.7368 -89.6175 60.7635 -91.5375 58.8168C-93.4575 56.8701 -94.4175 54.3635 -94.4175 51.2968C-94.4175 47.8835 -93.9242 45.2568 -92.9375 43.4168C-91.9242 41.5768 -89.8708 39.9101 -86.7775 38.4168C-86.2175 38.1501 -85.4575 37.8035 -84.4975 37.3768C-83.5108 36.9501 -82.7908 36.6301 -82.3375 36.4168C-81.8842 36.1768 -81.3775 35.8701 -80.8175 35.4968C-80.2575 35.0968 -79.8442 34.6701 -79.5775 34.2168C-79.2842 33.7368 -79.0708 33.1901 -78.9375 32.5768L-76.1375 34.1768C-76.2175 34.6035 -76.3242 35.0035 -76.4575 35.3768C-76.5908 35.7235 -76.7908 36.0701 -77.0575 36.4168C-77.2975 36.7368 -77.5108 37.0168 -77.6975 37.2568C-77.8842 37.4968 -78.2042 37.7635 -78.6575 38.0568C-79.0842 38.3235 -79.4042 38.5235 -79.6175 38.6568C-79.8042 38.7901 -80.1908 38.9901 -80.7775 39.2568C-81.3375 39.5235 -81.7242 39.7101 -81.9375 39.8168C-82.1242 39.8968 -82.5642 40.0835 -83.2575 40.3768C-83.9508 40.6435 -84.3775 40.8168 -84.5375 40.8968C-86.3508 41.6701 -87.6842 42.4568 -88.5375 43.2568C-89.3642 44.0568 -89.9642 45.0701 -90.3375 46.2968C-89.4842 45.2301 -88.4175 44.4435 -87.1375 43.9368C-85.8575 43.4301 -84.5775 43.1768 -83.2975 43.1768C-80.7908 43.1768 -78.6708 44.0301 -76.9375 45.7368C-75.1775 47.4435 -74.2975 49.6435 -74.2975 52.3368C-74.2975 55.0568 -75.2308 57.3101 -77.0975 59.0968C-78.9642 60.8568 -81.3375 61.7368 -84.2175 61.7368ZM-88.8975 56.6168C-87.6442 57.7901 -86.0842 58.3768 -84.2175 58.3768C-82.3508 58.3768 -80.8175 57.8035 -79.6175 56.6568C-78.3908 55.5101 -77.7775 54.0701 -77.7775 52.3368C-77.7775 50.5501 -78.3642 49.0968 -79.5375 47.9768C-80.6842 46.8301 -82.2042 46.2568 -84.0975 46.2568C-85.8042 46.2568 -87.3508 46.8035 -88.7375 47.8968C-90.0975 48.9635 -90.7775 50.3768 -90.7775 52.1368C-90.7775 53.9501 -90.1508 55.4435 -88.8975 56.6168ZM-57.4234 41.2168H-53.7034L-61.8634 62.4568C-62.7168 64.7235 -63.9168 66.4435 -65.4634 67.6168C-67.0101 68.8168 -68.7701 69.3501 -70.7434 69.2168V65.9768C-68.2901 66.1635 -66.4901 64.8301 -65.3434 61.9768L-65.0234 61.2568L-73.7034 41.2168H-70.0234L-63.1834 56.8968L-57.4234 41.2168ZM-38.1975 41.2168H-34.7175V61.2168H-38.1975V54.0168C-39.7975 54.7101 -41.5975 55.0568 -43.5975 55.0568C-46.1575 55.0568 -48.1442 54.4568 -49.5575 53.2568C-50.9442 52.0301 -51.6375 50.2301 -51.6375 47.8568V41.2168H-48.1575V47.6568C-48.1575 49.1501 -47.7575 50.2168 -46.9575 50.8568C-46.1308 51.4968 -44.9308 51.8168 -43.3575 51.8168C-41.4642 51.8168 -39.7442 51.4701 -38.1975 50.7768V41.2168ZM-26.9903 52.8168C-26.6436 54.6035 -25.8303 55.9901 -24.5503 56.9768C-23.2436 57.9635 -21.6436 58.4568 -19.7503 58.4568C-17.1103 58.4568 -15.1903 57.4835 -13.9903 55.5368L-11.0303 57.2168C-12.977 60.2301 -15.9103 61.7368 -19.8303 61.7368C-23.0036 61.7368 -25.5903 60.7501 -27.5903 58.7768C-29.5636 56.7768 -30.5503 54.2568 -30.5503 51.2168C-30.5503 48.2035 -29.577 45.6968 -27.6303 43.6968C-25.6836 41.6968 -23.1636 40.6968 -20.0703 40.6968C-17.137 40.6968 -14.7503 41.7368 -12.9103 43.8168C-11.0436 45.8701 -10.1103 48.3501 -10.1103 51.2568C-10.1103 51.7635 -10.1503 52.2835 -10.2303 52.8168H-26.9903ZM-20.0703 43.9768C-21.937 43.9768 -23.4836 44.5101 -24.7103 45.5768C-25.937 46.6168 -26.697 48.0168 -26.9903 49.7768H-13.6303C-13.9236 47.8835 -14.6703 46.4435 -15.8703 45.4568C-17.0703 44.4701 -18.4703 43.9768 -20.0703 43.9768ZM7.73 41.2168H11.21V61.2168H7.73V52.8568H-2.63V61.2168H-6.11V41.2168H-2.63V49.5368H7.73V41.2168ZM31.0272 41.2168H33.8272V61.2168H30.3872V47.1768L19.3072 61.2168H16.5072V41.2168H19.9472V55.2568L31.0272 41.2168ZM41.5644 52.8168C41.911 54.6035 42.7244 55.9901 44.0044 56.9768C45.311 57.9635 46.911 58.4568 48.8044 58.4568C51.4444 58.4568 53.3644 57.4835 54.5644 55.5368L57.5244 57.2168C55.5777 60.2301 52.6444 61.7368 48.7244 61.7368C45.551 61.7368 42.9644 60.7501 40.9644 58.7768C38.991 56.7768 38.0044 54.2568 38.0044 51.2168C38.0044 48.2035 38.9777 45.6968 40.9244 43.6968C42.871 41.6968 45.391 40.6968 48.4844 40.6968C51.4177 40.6968 53.8044 41.7368 55.6444 43.8168C57.511 45.8701 58.4444 48.3501 58.4444 51.2568C58.4444 51.7635 58.4044 52.2835 58.3244 52.8168H41.5644ZM48.4844 43.9768C46.6177 43.9768 45.071 44.5101 43.8444 45.5768C42.6177 46.6168 41.8577 48.0168 41.5644 49.7768H54.9244C54.631 47.8835 53.8844 46.4435 52.6844 45.4568C51.4844 44.4701 50.0844 43.9768 48.4844 43.9768Z" fill="#FFF5ED"/>
<path d="M10.52 11.6968C8.46667 13.7235 5.97333 14.7368 3.04 14.7368C0.106667 14.7368 -2.38667 13.7235 -4.44 11.6968C-6.46667 9.67013 -7.48 7.1768 -7.48 4.2168C-7.48 1.2568 -6.46667 -1.23654 -4.44 -3.2632C-2.38667 -5.28987 0.106667 -6.3032 3.04 -6.3032C5.97333 -6.3032 8.46667 -5.28987 10.52 -3.2632C12.5733 -1.23654 13.6 1.2568 13.6 4.2168C13.6 7.1768 12.5733 9.67013 10.52 11.6968ZM3.04 11.3368C5.04 11.3368 6.72 10.6568 8.08 9.2968C9.44 7.9368 10.12 6.24346 10.12 4.2168C10.12 2.19013 9.44 0.496797 8.08 -0.863203C6.72 -2.2232 5.04 -2.9032 3.04 -2.9032C1.06667 -2.9032 -0.599999 -2.2232 -1.96 -0.863203C-3.32 0.496797 -4 2.19013 -4 4.2168C-4 6.24346 -3.32 7.9368 -1.96 9.2968C-0.599999 10.6568 1.06667 11.3368 3.04 11.3368ZM26.7825 14.7368C23.8225 14.7368 21.3825 13.7635 19.4625 11.8168C17.5425 9.87013 16.5825 7.36346 16.5825 4.2968C16.5825 0.883463 17.0758 -1.7432 18.0625 -3.5832C19.0758 -5.4232 21.1292 -7.08987 24.2225 -8.58321C24.7825 -8.84987 25.5425 -9.19654 26.5025 -9.6232C27.4892 -10.0499 28.2092 -10.3699 28.6625 -10.5832C29.1158 -10.8232 29.6225 -11.1299 30.1825 -11.5032C30.7425 -11.9032 31.1558 -12.3299 31.4225 -12.7832C31.7158 -13.2632 31.9292 -13.8099 32.0625 -14.4232L34.8625 -12.8232C34.7825 -12.3965 34.6758 -11.9965 34.5425 -11.6232C34.4092 -11.2765 34.2092 -10.9299 33.9425 -10.5832C33.7025 -10.2632 33.4892 -9.9832 33.3025 -9.7432C33.1158 -9.5032 32.7958 -9.23654 32.3425 -8.94321C31.9158 -8.67654 31.5958 -8.47654 31.3825 -8.3432C31.1958 -8.20987 30.8092 -8.00987 30.2225 -7.7432C29.6625 -7.47654 29.2758 -7.28987 29.0625 -7.1832C28.8758 -7.1032 28.4358 -6.91654 27.7425 -6.6232C27.0492 -6.35654 26.6225 -6.1832 26.4625 -6.1032C24.6492 -5.32987 23.3158 -4.5432 22.4625 -3.7432C21.6358 -2.9432 21.0358 -1.92987 20.6625 -0.703204C21.5158 -1.76987 22.5825 -2.55654 23.8625 -3.0632C25.1425 -3.56987 26.4225 -3.8232 27.7025 -3.8232C30.2092 -3.8232 32.3292 -2.96987 34.0625 -1.2632C35.8225 0.443463 36.7025 2.64346 36.7025 5.3368C36.7025 8.0568 35.7692 10.3101 33.9025 12.0968C32.0358 13.8568 29.6625 14.7368 26.7825 14.7368ZM22.1025 9.6168C23.3558 10.7901 24.9158 11.3768 26.7825 11.3768C28.6492 11.3768 30.1825 10.8035 31.3825 9.6568C32.6092 8.51013 33.2225 7.07013 33.2225 5.3368C33.2225 3.55013 32.6358 2.0968 31.4625 0.976796C30.3158 -0.169871 28.7958 -0.743204 26.9025 -0.743204C25.1958 -0.743204 23.6492 -0.196537 22.2625 0.896797C20.9025 1.96346 20.2225 3.3768 20.2225 5.1368C20.2225 6.95013 20.8492 8.44346 22.1025 9.6168ZM53.5766 -5.7832H57.2966L49.1366 15.4568C48.2832 17.7235 47.0832 19.4435 45.5366 20.6168C43.9899 21.8168 42.2299 22.3501 40.2566 22.2168V18.9768C42.7099 19.1635 44.5099 17.8301 45.6566 14.9768L45.9766 14.2568L37.2966 -5.7832H40.9766L47.8166 9.8968L53.5766 -5.7832ZM72.8025 -5.7832H76.2825V14.2168H72.8025V7.0168C71.2025 7.71013 69.4025 8.0568 67.4025 8.0568C64.8425 8.0568 62.8558 7.4568 61.4425 6.2568C60.0558 5.03013 59.3625 3.23013 59.3625 0.856796V-5.7832H62.8425V0.656796C62.8425 2.15013 63.2425 3.2168 64.0425 3.8568C64.8692 4.4968 66.0692 4.8168 67.6425 4.8168C69.5358 4.8168 71.2558 4.47013 72.8025 3.7768V-5.7832ZM84.0097 5.8168C84.3564 7.60346 85.1697 8.99013 86.4497 9.9768C87.7564 10.9635 89.3564 11.4568 91.2497 11.4568C93.8897 11.4568 95.8097 10.4835 97.0097 8.5368L99.9697 10.2168C98.023 13.2301 95.0897 14.7368 91.1697 14.7368C87.9964 14.7368 85.4097 13.7501 83.4097 11.7768C81.4364 9.7768 80.4497 7.2568 80.4497 4.2168C80.4497 1.20346 81.423 -1.3032 83.3697 -3.3032C85.3164 -5.3032 87.8364 -6.3032 90.9297 -6.3032C93.863 -6.3032 96.2497 -5.2632 98.0897 -3.1832C99.9564 -1.12987 100.89 1.35013 100.89 4.2568C100.89 4.76346 100.85 5.28346 100.77 5.8168H84.0097ZM90.9297 -3.0232C89.063 -3.0232 87.5164 -2.48987 86.2897 -1.4232C85.063 -0.383204 84.303 1.0168 84.0097 2.7768H97.3697C97.0764 0.883463 96.3297 -0.556537 95.1297 -1.5432C93.9297 -2.52987 92.5297 -3.0232 90.9297 -3.0232ZM118.73 -5.7832H122.21V14.2168H118.73V5.8568H108.37V14.2168H104.89V-5.7832H108.37V2.5368H118.73V-5.7832ZM142.027 -5.7832H144.827V14.2168H141.387V0.176796L130.307 14.2168H127.507V-5.7832H130.947V8.2568L142.027 -5.7832ZM152.564 5.8168C152.911 7.60346 153.724 8.99013 155.004 9.9768C156.311 10.9635 157.911 11.4568 159.804 11.4568C162.444 11.4568 164.364 10.4835 165.564 8.5368L168.524 10.2168C166.578 13.2301 163.644 14.7368 159.724 14.7368C156.551 14.7368 153.964 13.7501 151.964 11.7768C149.991 9.7768 149.004 7.2568 149.004 4.2168C149.004 1.20346 149.978 -1.3032 151.924 -3.3032C153.871 -5.3032 156.391 -6.3032 159.484 -6.3032C162.418 -6.3032 164.804 -5.2632 166.644 -3.1832C168.511 -1.12987 169.444 1.35013 169.444 4.2568C169.444 4.76346 169.404 5.28346 169.324 5.8168H152.564ZM159.484 -3.0232C157.618 -3.0232 156.071 -2.48987 154.844 -1.4232C153.618 -0.383204 152.858 1.0168 152.564 2.7768H165.924C165.631 0.883463 164.884 -0.556537 163.684 -1.5432C162.484 -2.52987 161.084 -3.0232 159.484 -3.0232Z" fill="#FFF5ED"/>
<path d="M-55.48 152.697C-57.5333 154.723 -60.0267 155.737 -62.96 155.737C-65.8933 155.737 -68.3867 154.723 -70.44 152.697C-72.4667 150.67 -73.48 148.177 -73.48 145.217C-73.48 142.257 -72.4667 139.763 -70.44 137.737C-68.3867 135.71 -65.8933 134.697 -62.96 134.697C-60.0267 134.697 -57.5333 135.71 -55.48 137.737C-53.4267 139.763 -52.4 142.257 -52.4 145.217C-52.4 148.177 -53.4267 150.67 -55.48 152.697ZM-62.96 152.337C-60.96 152.337 -59.28 151.657 -57.92 150.297C-56.56 148.937 -55.88 147.243 -55.88 145.217C-55.88 143.19 -56.56 141.497 -57.92 140.137C-59.28 138.777 -60.96 138.097 -62.96 138.097C-64.9333 138.097 -66.6 138.777 -67.96 140.137C-69.32 141.497 -70 143.19 -70 145.217C-70 147.243 -69.32 148.937 -67.96 150.297C-66.6 151.657 -64.9333 152.337 -62.96 152.337ZM-39.2175 155.737C-42.1775 155.737 -44.6175 154.763 -46.5375 152.817C-48.4575 150.87 -49.4175 148.363 -49.4175 145.297C-49.4175 141.883 -48.9242 139.257 -47.9375 137.417C-46.9242 135.577 -44.8708 133.91 -41.7775 132.417C-41.2175 132.15 -40.4575 131.803 -39.4975 131.377C-38.5108 130.95 -37.7908 130.63 -37.3375 130.417C-36.8842 130.177 -36.3775 129.87 -35.8175 129.497C-35.2575 129.097 -34.8442 128.67 -34.5775 128.217C-34.2842 127.737 -34.0708 127.19 -33.9375 126.577L-31.1375 128.177C-31.2175 128.603 -31.3242 129.003 -31.4575 129.377C-31.5908 129.723 -31.7908 130.07 -32.0575 130.417C-32.2975 130.737 -32.5108 131.017 -32.6975 131.257C-32.8842 131.497 -33.2042 131.763 -33.6575 132.057C-34.0842 132.323 -34.4042 132.523 -34.6175 132.657C-34.8042 132.79 -35.1908 132.99 -35.7775 133.257C-36.3375 133.523 -36.7242 133.71 -36.9375 133.817C-37.1242 133.897 -37.5642 134.083 -38.2575 134.377C-38.9508 134.643 -39.3775 134.817 -39.5375 134.897C-41.3508 135.67 -42.6842 136.457 -43.5375 137.257C-44.3642 138.057 -44.9642 139.07 -45.3375 140.297C-44.4842 139.23 -43.4175 138.443 -42.1375 137.937C-40.8575 137.43 -39.5775 137.177 -38.2975 137.177C-35.7908 137.177 -33.6708 138.03 -31.9375 139.737C-30.1775 141.443 -29.2975 143.643 -29.2975 146.337C-29.2975 149.057 -30.2308 151.31 -32.0975 153.097C-33.9642 154.857 -36.3375 155.737 -39.2175 155.737ZM-43.8975 150.617C-42.6442 151.79 -41.0842 152.377 -39.2175 152.377C-37.3508 152.377 -35.8175 151.803 -34.6175 150.657C-33.3908 149.51 -32.7775 148.07 -32.7775 146.337C-32.7775 144.55 -33.3642 143.097 -34.5375 141.977C-35.6842 140.83 -37.2042 140.257 -39.0975 140.257C-40.8042 140.257 -42.3508 140.803 -43.7375 141.897C-45.0975 142.963 -45.7775 144.377 -45.7775 146.137C-45.7775 147.95 -45.1508 149.443 -43.8975 150.617ZM-12.4234 135.217H-8.70344L-16.8634 156.457C-17.7168 158.723 -18.9168 160.443 -20.4634 161.617C-22.0101 162.817 -23.7701 163.35 -25.7434 163.217V159.977C-23.2901 160.163 -21.4901 158.83 -20.3434 155.977L-20.0234 155.257L-28.7034 135.217H-25.0234L-18.1834 150.897L-12.4234 135.217ZM6.8025 135.217H10.2825V155.217H6.8025V148.017C5.2025 148.71 3.4025 149.057 1.4025 149.057C-1.1575 149.057 -3.14417 148.457 -4.5575 147.257C-5.94417 146.03 -6.6375 144.23 -6.6375 141.857V135.217H-3.1575V141.657C-3.1575 143.15 -2.7575 144.217 -1.9575 144.857C-1.13083 145.497 0.0691668 145.817 1.6425 145.817C3.53583 145.817 5.25583 145.47 6.8025 144.777V135.217ZM18.0097 146.817C18.3564 148.603 19.1697 149.99 20.4497 150.977C21.7564 151.963 23.3564 152.457 25.2497 152.457C27.8897 152.457 29.8097 151.483 31.0097 149.537L33.9697 151.217C32.023 154.23 29.0897 155.737 25.1697 155.737C21.9964 155.737 19.4097 154.75 17.4097 152.777C15.4364 150.777 14.4497 148.257 14.4497 145.217C14.4497 142.203 15.423 139.697 17.3697 137.697C19.3164 135.697 21.8364 134.697 24.9297 134.697C27.863 134.697 30.2497 135.737 32.0897 137.817C33.9564 139.87 34.8897 142.35 34.8897 145.257C34.8897 145.763 34.8497 146.283 34.7697 146.817H18.0097ZM24.9297 137.977C23.063 137.977 21.5164 138.51 20.2897 139.577C19.063 140.617 18.303 142.017 18.0097 143.777H31.3697C31.0764 141.883 30.3297 140.443 29.1297 139.457C27.9297 138.47 26.5297 137.977 24.9297 137.977ZM52.73 135.217H56.21V155.217H52.73V146.857H42.37V155.217H38.89V135.217H42.37V143.537H52.73V135.217ZM76.0272 135.217H78.8272V155.217H75.3872V141.177L64.3072 155.217H61.5072V135.217H64.9472V149.257L76.0272 135.217ZM86.5644 146.817C86.911 148.603 87.7244 149.99 89.0044 150.977C90.311 151.963 91.911 152.457 93.8044 152.457C96.4444 152.457 98.3644 151.483 99.5644 149.537L102.524 151.217C100.578 154.23 97.6444 155.737 93.7244 155.737C90.551 155.737 87.9644 154.75 85.9644 152.777C83.991 150.777 83.0044 148.257 83.0044 145.217C83.0044 142.203 83.9777 139.697 85.9244 137.697C87.871 135.697 90.391 134.697 93.4844 134.697C96.4177 134.697 98.8044 135.737 100.644 137.817C102.511 139.87 103.444 142.35 103.444 145.257C103.444 145.763 103.404 146.283 103.324 146.817H86.5644ZM93.4844 137.977C91.6177 137.977 90.071 138.51 88.8444 139.577C87.6177 140.617 86.8577 142.017 86.5644 143.777H99.9244C99.631 141.883 98.8844 140.443 97.6844 139.457C96.4844 138.47 95.0844 137.977 93.4844 137.977Z" fill="#FFF5ED"/>
<path d="M-105.48 199.697C-107.533 201.723 -110.027 202.737 -112.96 202.737C-115.893 202.737 -118.387 201.723 -120.44 199.697C-122.467 197.67 -123.48 195.177 -123.48 192.217C-123.48 189.257 -122.467 186.763 -120.44 184.737C-118.387 182.71 -115.893 181.697 -112.96 181.697C-110.027 181.697 -107.533 182.71 -105.48 184.737C-103.427 186.763 -102.4 189.257 -102.4 192.217C-102.4 195.177 -103.427 197.67 -105.48 199.697ZM-112.96 199.337C-110.96 199.337 -109.28 198.657 -107.92 197.297C-106.56 195.937 -105.88 194.243 -105.88 192.217C-105.88 190.19 -106.56 188.497 -107.92 187.137C-109.28 185.777 -110.96 185.097 -112.96 185.097C-114.933 185.097 -116.6 185.777 -117.96 187.137C-119.32 188.497 -120 190.19 -120 192.217C-120 194.243 -119.32 195.937 -117.96 197.297C-116.6 198.657 -114.933 199.337 -112.96 199.337ZM-89.2175 202.737C-92.1775 202.737 -94.6175 201.763 -96.5375 199.817C-98.4575 197.87 -99.4175 195.363 -99.4175 192.297C-99.4175 188.883 -98.9242 186.257 -97.9375 184.417C-96.9242 182.577 -94.8708 180.91 -91.7775 179.417C-91.2175 179.15 -90.4575 178.803 -89.4975 178.377C-88.5108 177.95 -87.7908 177.63 -87.3375 177.417C-86.8842 177.177 -86.3775 176.87 -85.8175 176.497C-85.2575 176.097 -84.8442 175.67 -84.5775 175.217C-84.2842 174.737 -84.0708 174.19 -83.9375 173.577L-81.1375 175.177C-81.2175 175.603 -81.3242 176.003 -81.4575 176.377C-81.5908 176.723 -81.7908 177.07 -82.0575 177.417C-82.2975 177.737 -82.5108 178.017 -82.6975 178.257C-82.8842 178.497 -83.2042 178.763 -83.6575 179.057C-84.0842 179.323 -84.4042 179.523 -84.6175 179.657C-84.8042 179.79 -85.1908 179.99 -85.7775 180.257C-86.3375 180.523 -86.7242 180.71 -86.9375 180.817C-87.1242 180.897 -87.5642 181.083 -88.2575 181.377C-88.9508 181.643 -89.3775 181.817 -89.5375 181.897C-91.3508 182.67 -92.6842 183.457 -93.5375 184.257C-94.3642 185.057 -94.9642 186.07 -95.3375 187.297C-94.4842 186.23 -93.4175 185.443 -92.1375 184.937C-90.8575 184.43 -89.5775 184.177 -88.2975 184.177C-85.7908 184.177 -83.6708 185.03 -81.9375 186.737C-80.1775 188.443 -79.2975 190.643 -79.2975 193.337C-79.2975 196.057 -80.2308 198.31 -82.0975 200.097C-83.9642 201.857 -86.3375 202.737 -89.2175 202.737ZM-93.8975 197.617C-92.6442 198.79 -91.0842 199.377 -89.2175 199.377C-87.3508 199.377 -85.8175 198.803 -84.6175 197.657C-83.3908 196.51 -82.7775 195.07 -82.7775 193.337C-82.7775 191.55 -83.3642 190.097 -84.5375 188.977C-85.6842 187.83 -87.2042 187.257 -89.0975 187.257C-90.8042 187.257 -92.3508 187.803 -93.7375 188.897C-95.0975 189.963 -95.7775 191.377 -95.7775 193.137C-95.7775 194.95 -95.1508 196.443 -93.8975 197.617ZM-62.4234 182.217H-58.7034L-66.8634 203.457C-67.7168 205.723 -68.9168 207.443 -70.4634 208.617C-72.0101 209.817 -73.7701 210.35 -75.7434 210.217V206.977C-73.2901 207.163 -71.4901 205.83 -70.3434 202.977L-70.0234 202.257L-78.7034 182.217H-75.0234L-68.1834 197.897L-62.4234 182.217ZM-43.1975 182.217H-39.7175V202.217H-43.1975V195.017C-44.7975 195.71 -46.5975 196.057 -48.5975 196.057C-51.1575 196.057 -53.1442 195.457 -54.5575 194.257C-55.9442 193.03 -56.6375 191.23 -56.6375 188.857V182.217H-53.1575V188.657C-53.1575 190.15 -52.7575 191.217 -51.9575 191.857C-51.1308 192.497 -49.9308 192.817 -48.3575 192.817C-46.4642 192.817 -44.7442 192.47 -43.1975 191.777V182.217ZM-31.9903 193.817C-31.6436 195.603 -30.8303 196.99 -29.5503 197.977C-28.2436 198.963 -26.6436 199.457 -24.7503 199.457C-22.1103 199.457 -20.1903 198.483 -18.9903 196.537L-16.0303 198.217C-17.977 201.23 -20.9103 202.737 -24.8303 202.737C-28.0036 202.737 -30.5903 201.75 -32.5903 199.777C-34.5636 197.777 -35.5503 195.257 -35.5503 192.217C-35.5503 189.203 -34.577 186.697 -32.6303 184.697C-30.6836 182.697 -28.1636 181.697 -25.0703 181.697C-22.137 181.697 -19.7503 182.737 -17.9103 184.817C-16.0436 186.87 -15.1103 189.35 -15.1103 192.257C-15.1103 192.763 -15.1503 193.283 -15.2303 193.817H-31.9903ZM-25.0703 184.977C-26.937 184.977 -28.4836 185.51 -29.7103 186.577C-30.937 187.617 -31.697 189.017 -31.9903 190.777H-18.6303C-18.9236 188.883 -19.6703 187.443 -20.8703 186.457C-22.0703 185.47 -23.4703 184.977 -25.0703 184.977ZM2.73 182.217H6.21V202.217H2.73V193.857H-7.63V202.217H-11.11V182.217H-7.63V190.537H2.73V182.217ZM26.0272 182.217H28.8272V202.217H25.3872V188.177L14.3072 202.217H11.5072V182.217H14.9472V196.257L26.0272 182.217ZM36.5644 193.817C36.911 195.603 37.7244 196.99 39.0044 197.977C40.311 198.963 41.911 199.457 43.8044 199.457C46.4444 199.457 48.3644 198.483 49.5644 196.537L52.5244 198.217C50.5777 201.23 47.6444 202.737 43.7244 202.737C40.551 202.737 37.9644 201.75 35.9644 199.777C33.991 197.777 33.0044 195.257 33.0044 192.217C33.0044 189.203 33.9777 186.697 35.9244 184.697C37.871 182.697 40.391 181.697 43.4844 181.697C46.4177 181.697 48.8044 182.737 50.6444 184.817C52.511 186.87 53.4444 189.35 53.4444 192.257C53.4444 192.763 53.4044 193.283 53.3244 193.817H36.5644ZM43.4844 184.977C41.6177 184.977 40.071 185.51 38.8444 186.577C37.6177 187.617 36.8577 189.017 36.5644 190.777H49.9244C49.631 188.883 48.8844 187.443 47.6844 186.457C46.4844 185.47 45.0844 184.977 43.4844 184.977Z" fill="#FFF5ED"/>
<path d="M89.52 58.6968C87.4667 60.7235 84.9733 61.7368 82.04 61.7368C79.1067 61.7368 76.6133 60.7235 74.56 58.6968C72.5333 56.6701 71.52 54.1768 71.52 51.2168C71.52 48.2568 72.5333 45.7635 74.56 43.7368C76.6133 41.7101 79.1067 40.6968 82.04 40.6968C84.9733 40.6968 87.4667 41.7101 89.52 43.7368C91.5733 45.7635 92.6 48.2568 92.6 51.2168C92.6 54.1768 91.5733 56.6701 89.52 58.6968ZM82.04 58.3368C84.04 58.3368 85.72 57.6568 87.08 56.2968C88.44 54.9368 89.12 53.2435 89.12 51.2168C89.12 49.1901 88.44 47.4968 87.08 46.1368C85.72 44.7768 84.04 44.0968 82.04 44.0968C80.0667 44.0968 78.4 44.7768 77.04 46.1368C75.68 47.4968 75 49.1901 75 51.2168C75 53.2435 75.68 54.9368 77.04 56.2968C78.4 57.6568 80.0667 58.3368 82.04 58.3368ZM105.783 61.7368C102.823 61.7368 100.383 60.7635 98.4625 58.8168C96.5425 56.8701 95.5825 54.3635 95.5825 51.2968C95.5825 47.8835 96.0758 45.2568 97.0625 43.4168C98.0758 41.5768 100.129 39.9101 103.223 38.4168C103.783 38.1501 104.543 37.8035 105.503 37.3768C106.489 36.9501 107.209 36.6301 107.663 36.4168C108.116 36.1768 108.623 35.8701 109.183 35.4968C109.743 35.0968 110.156 34.6701 110.423 34.2168C110.716 33.7368 110.929 33.1901 111.063 32.5768L113.863 34.1768C113.783 34.6035 113.676 35.0035 113.543 35.3768C113.409 35.7235 113.209 36.0701 112.943 36.4168C112.703 36.7368 112.489 37.0168 112.303 37.2568C112.116 37.4968 111.796 37.7635 111.343 38.0568C110.916 38.3235 110.596 38.5235 110.383 38.6568C110.196 38.7901 109.809 38.9901 109.223 39.2568C108.663 39.5235 108.276 39.7101 108.063 39.8168C107.876 39.8968 107.436 40.0835 106.743 40.3768C106.049 40.6435 105.623 40.8168 105.463 40.8968C103.649 41.6701 102.316 42.4568 101.463 43.2568C100.636 44.0568 100.036 45.0701 99.6625 46.2968C100.516 45.2301 101.583 44.4435 102.863 43.9368C104.143 43.4301 105.423 43.1768 106.703 43.1768C109.209 43.1768 111.329 44.0301 113.063 45.7368C114.823 47.4435 115.703 49.6435 115.703 52.3368C115.703 55.0568 114.769 57.3101 112.903 59.0968C111.036 60.8568 108.663 61.7368 105.783 61.7368ZM101.103 56.6168C102.356 57.7901 103.916 58.3768 105.783 58.3768C107.649 58.3768 109.183 57.8035 110.383 56.6568C111.609 55.5101 112.223 54.0701 112.223 52.3368C112.223 50.5501 111.636 49.0968 110.463 47.9768C109.316 46.8301 107.796 46.2568 105.903 46.2568C104.196 46.2568 102.649 46.8035 101.263 47.8968C99.9025 48.9635 99.2225 50.3768 99.2225 52.1368C99.2225 53.9501 99.8492 55.4435 101.103 56.6168ZM132.577 41.2168H136.297L128.137 62.4568C127.283 64.7235 126.083 66.4435 124.537 67.6168C122.99 68.8168 121.23 69.3501 119.257 69.2168V65.9768C121.71 66.1635 123.51 64.8301 124.657 61.9768L124.977 61.2568L116.297 41.2168H119.977L126.817 56.8968L132.577 41.2168ZM151.803 41.2168H155.283V61.2168H151.803V54.0168C150.203 54.7101 148.403 55.0568 146.403 55.0568C143.843 55.0568 141.856 54.4568 140.443 53.2568C139.056 52.0301 138.363 50.2301 138.363 47.8568V41.2168H141.842V47.6568C141.842 49.1501 142.242 50.2168 143.043 50.8568C143.869 51.4968 145.069 51.8168 146.643 51.8168C148.536 51.8168 150.256 51.4701 151.803 50.7768V41.2168ZM163.01 52.8168C163.356 54.6035 164.17 55.9901 165.45 56.9768C166.756 57.9635 168.356 58.4568 170.25 58.4568C172.89 58.4568 174.81 57.4835 176.01 55.5368L178.97 57.2168C177.023 60.2301 174.09 61.7368 170.17 61.7368C166.996 61.7368 164.41 60.7501 162.41 58.7768C160.436 56.7768 159.45 54.2568 159.45 51.2168C159.45 48.2035 160.423 45.6968 162.37 43.6968C164.316 41.6968 166.836 40.6968 169.93 40.6968C172.863 40.6968 175.25 41.7368 177.09 43.8168C178.956 45.8701 179.89 48.3501 179.89 51.2568C179.89 51.7635 179.85 52.2835 179.77 52.8168H163.01ZM169.93 43.9768C168.063 43.9768 166.516 44.5101 165.29 45.5768C164.063 46.6168 163.303 48.0168 163.01 49.7768H176.37C176.076 47.8835 175.33 46.4435 174.13 45.4568C172.93 44.4701 171.53 43.9768 169.93 43.9768ZM197.73 41.2168H201.21V61.2168H197.73V52.8568H187.37V61.2168H183.89V41.2168H187.37V49.5368H197.73V41.2168ZM221.027 41.2168H223.827V61.2168H220.387V47.1768L209.307 61.2168H206.507V41.2168H209.947V55.2568L221.027 41.2168ZM231.564 52.8168C231.911 54.6035 232.724 55.9901 234.004 56.9768C235.311 57.9635 236.911 58.4568 238.804 58.4568C241.444 58.4568 243.364 57.4835 244.564 55.5368L247.524 57.2168C245.578 60.2301 242.644 61.7368 238.724 61.7368C235.551 61.7368 232.964 60.7501 230.964 58.7768C228.991 56.7768 228.004 54.2568 228.004 51.2168C228.004 48.2035 228.978 45.6968 230.924 43.6968C232.871 41.6968 235.391 40.6968 238.484 40.6968C241.418 40.6968 243.804 41.7368 245.644 43.8168C247.511 45.8701 248.444 48.3501 248.444 51.2568C248.444 51.7635 248.404 52.2835 248.324 52.8168H231.564ZM238.484 43.9768C236.618 43.9768 235.071 44.5101 233.844 45.5768C232.618 46.6168 231.858 48.0168 231.564 49.7768H244.924C244.631 47.8835 243.884 46.4435 242.684 45.4568C241.484 44.4701 240.084 43.9768 238.484 43.9768Z" fill="#FFF5ED"/>
<path d="M200.52 11.6968C198.467 13.7235 195.973 14.7368 193.04 14.7368C190.107 14.7368 187.613 13.7235 185.56 11.6968C183.533 9.67013 182.52 7.1768 182.52 4.2168C182.52 1.2568 183.533 -1.23654 185.56 -3.2632C187.613 -5.28987 190.107 -6.3032 193.04 -6.3032C195.973 -6.3032 198.467 -5.28987 200.52 -3.2632C202.573 -1.23654 203.6 1.2568 203.6 4.2168C203.6 7.1768 202.573 9.67013 200.52 11.6968ZM193.04 11.3368C195.04 11.3368 196.72 10.6568 198.08 9.2968C199.44 7.9368 200.12 6.24346 200.12 4.2168C200.12 2.19013 199.44 0.496797 198.08 -0.863203C196.72 -2.2232 195.04 -2.9032 193.04 -2.9032C191.067 -2.9032 189.4 -2.2232 188.04 -0.863203C186.68 0.496797 186 2.19013 186 4.2168C186 6.24346 186.68 7.9368 188.04 9.2968C189.4 10.6568 191.067 11.3368 193.04 11.3368ZM216.783 14.7368C213.823 14.7368 211.383 13.7635 209.463 11.8168C207.543 9.87013 206.583 7.36346 206.583 4.2968C206.583 0.883463 207.076 -1.7432 208.063 -3.5832C209.076 -5.4232 211.129 -7.08987 214.223 -8.58321C214.783 -8.84987 215.543 -9.19654 216.503 -9.6232C217.489 -10.0499 218.209 -10.3699 218.663 -10.5832C219.116 -10.8232 219.623 -11.1299 220.183 -11.5032C220.743 -11.9032 221.156 -12.3299 221.423 -12.7832C221.716 -13.2632 221.929 -13.8099 222.063 -14.4232L224.863 -12.8232C224.783 -12.3965 224.676 -11.9965 224.543 -11.6232C224.409 -11.2765 224.209 -10.9299 223.943 -10.5832C223.703 -10.2632 223.489 -9.9832 223.303 -9.7432C223.116 -9.5032 222.796 -9.23654 222.343 -8.94321C221.916 -8.67654 221.596 -8.47654 221.383 -8.3432C221.196 -8.20987 220.809 -8.00987 220.223 -7.7432C219.663 -7.47654 219.276 -7.28987 219.063 -7.1832C218.876 -7.1032 218.436 -6.91654 217.743 -6.6232C217.049 -6.35654 216.623 -6.1832 216.463 -6.1032C214.649 -5.32987 213.316 -4.5432 212.463 -3.7432C211.636 -2.9432 211.036 -1.92987 210.663 -0.703204C211.516 -1.76987 212.583 -2.55654 213.863 -3.0632C215.143 -3.56987 216.423 -3.8232 217.703 -3.8232C220.209 -3.8232 222.329 -2.96987 224.063 -1.2632C225.823 0.443463 226.703 2.64346 226.703 5.3368C226.703 8.0568 225.769 10.3101 223.903 12.0968C222.036 13.8568 219.663 14.7368 216.783 14.7368ZM212.103 9.6168C213.356 10.7901 214.916 11.3768 216.783 11.3768C218.649 11.3768 220.183 10.8035 221.383 9.6568C222.609 8.51013 223.223 7.07013 223.223 5.3368C223.223 3.55013 222.636 2.0968 221.463 0.976796C220.316 -0.169871 218.796 -0.743204 216.903 -0.743204C215.196 -0.743204 213.649 -0.196537 212.263 0.896797C210.903 1.96346 210.223 3.3768 210.223 5.1368C210.223 6.95013 210.849 8.44346 212.103 9.6168ZM243.577 -5.7832H247.297L239.137 15.4568C238.283 17.7235 237.083 19.4435 235.537 20.6168C233.99 21.8168 232.23 22.3501 230.257 22.2168V18.9768C232.71 19.1635 234.51 17.8301 235.657 14.9768L235.977 14.2568L227.297 -5.7832H230.977L237.817 9.8968L243.577 -5.7832ZM262.803 -5.7832H266.283V14.2168H262.803V7.0168C261.203 7.71013 259.403 8.0568 257.403 8.0568C254.843 8.0568 252.856 7.4568 251.443 6.2568C250.056 5.03013 249.363 3.23013 249.363 0.856796V-5.7832H252.842V0.656796C252.842 2.15013 253.242 3.2168 254.043 3.8568C254.869 4.4968 256.069 4.8168 257.643 4.8168C259.536 4.8168 261.256 4.47013 262.803 3.7768V-5.7832ZM274.01 5.8168C274.356 7.60346 275.17 8.99013 276.45 9.9768C277.756 10.9635 279.356 11.4568 281.25 11.4568C283.89 11.4568 285.81 10.4835 287.01 8.5368L289.97 10.2168C288.023 13.2301 285.09 14.7368 281.17 14.7368C277.996 14.7368 275.41 13.7501 273.41 11.7768C271.436 9.7768 270.45 7.2568 270.45 4.2168C270.45 1.20346 271.423 -1.3032 273.37 -3.3032C275.316 -5.3032 277.836 -6.3032 280.93 -6.3032C283.863 -6.3032 286.25 -5.2632 288.09 -3.1832C289.956 -1.12987 290.89 1.35013 290.89 4.2568C290.89 4.76346 290.85 5.28346 290.77 5.8168H274.01ZM280.93 -3.0232C279.063 -3.0232 277.516 -2.48987 276.29 -1.4232C275.063 -0.383204 274.303 1.0168 274.01 2.7768H287.37C287.076 0.883463 286.33 -0.556537 285.13 -1.5432C283.93 -2.52987 282.53 -3.0232 280.93 -3.0232ZM308.73 -5.7832H312.21V14.2168H308.73V5.8568H298.37V14.2168H294.89V-5.7832H298.37V2.5368H308.73V-5.7832ZM332.027 -5.7832H334.827V14.2168H331.387V0.176796L320.307 14.2168H317.507V-5.7832H320.947V8.2568L332.027 -5.7832ZM342.564 5.8168C342.911 7.60346 343.724 8.99013 345.004 9.9768C346.311 10.9635 347.911 11.4568 349.804 11.4568C352.444 11.4568 354.364 10.4835 355.564 8.5368L358.524 10.2168C356.578 13.2301 353.644 14.7368 349.724 14.7368C346.551 14.7368 343.964 13.7501 341.964 11.7768C339.991 9.7768 339.004 7.2568 339.004 4.2168C339.004 1.20346 339.978 -1.3032 341.924 -3.3032C343.871 -5.3032 346.391 -6.3032 349.484 -6.3032C352.418 -6.3032 354.804 -5.2632 356.644 -3.1832C358.511 -1.12987 359.444 1.35013 359.444 4.2568C359.444 4.76346 359.404 5.28346 359.324 5.8168H342.564ZM349.484 -3.0232C347.618 -3.0232 346.071 -2.48987 344.844 -1.4232C343.618 -0.383204 342.858 1.0168 342.564 2.7768H355.924C355.631 0.883463 354.884 -0.556537 353.684 -1.5432C352.484 -2.52987 351.084 -3.0232 349.484 -3.0232Z" fill="#FFF5ED"/>
<path d="M134.52 152.697C132.467 154.723 129.973 155.737 127.04 155.737C124.107 155.737 121.613 154.723 119.56 152.697C117.533 150.67 116.52 148.177 116.52 145.217C116.52 142.257 117.533 139.763 119.56 137.737C121.613 135.71 124.107 134.697 127.04 134.697C129.973 134.697 132.467 135.71 134.52 137.737C136.573 139.763 137.6 142.257 137.6 145.217C137.6 148.177 136.573 150.67 134.52 152.697ZM127.04 152.337C129.04 152.337 130.72 151.657 132.08 150.297C133.44 148.937 134.12 147.243 134.12 145.217C134.12 143.19 133.44 141.497 132.08 140.137C130.72 138.777 129.04 138.097 127.04 138.097C125.067 138.097 123.4 138.777 122.04 140.137C120.68 141.497 120 143.19 120 145.217C120 147.243 120.68 148.937 122.04 150.297C123.4 151.657 125.067 152.337 127.04 152.337ZM150.783 155.737C147.823 155.737 145.383 154.763 143.463 152.817C141.543 150.87 140.583 148.363 140.583 145.297C140.583 141.883 141.076 139.257 142.063 137.417C143.076 135.577 145.129 133.91 148.223 132.417C148.783 132.15 149.543 131.803 150.503 131.377C151.489 130.95 152.209 130.63 152.663 130.417C153.116 130.177 153.623 129.87 154.183 129.497C154.743 129.097 155.156 128.67 155.423 128.217C155.716 127.737 155.929 127.19 156.063 126.577L158.863 128.177C158.783 128.603 158.676 129.003 158.543 129.377C158.409 129.723 158.209 130.07 157.943 130.417C157.703 130.737 157.489 131.017 157.303 131.257C157.116 131.497 156.796 131.763 156.343 132.057C155.916 132.323 155.596 132.523 155.383 132.657C155.196 132.79 154.809 132.99 154.223 133.257C153.663 133.523 153.276 133.71 153.063 133.817C152.876 133.897 152.436 134.083 151.743 134.377C151.049 134.643 150.623 134.817 150.463 134.897C148.649 135.67 147.316 136.457 146.463 137.257C145.636 138.057 145.036 139.07 144.663 140.297C145.516 139.23 146.583 138.443 147.863 137.937C149.143 137.43 150.423 137.177 151.703 137.177C154.209 137.177 156.329 138.03 158.063 139.737C159.823 141.443 160.703 143.643 160.703 146.337C160.703 149.057 159.769 151.31 157.903 153.097C156.036 154.857 153.663 155.737 150.783 155.737ZM146.103 150.617C147.356 151.79 148.916 152.377 150.783 152.377C152.649 152.377 154.183 151.803 155.383 150.657C156.609 149.51 157.223 148.07 157.223 146.337C157.223 144.55 156.636 143.097 155.463 141.977C154.316 140.83 152.796 140.257 150.903 140.257C149.196 140.257 147.649 140.803 146.263 141.897C144.903 142.963 144.223 144.377 144.223 146.137C144.223 147.95 144.849 149.443 146.103 150.617ZM177.577 135.217H181.297L173.137 156.457C172.283 158.723 171.083 160.443 169.537 161.617C167.99 162.817 166.23 163.35 164.257 163.217V159.977C166.71 160.163 168.51 158.83 169.657 155.977L169.977 155.257L161.297 135.217H164.977L171.817 150.897L177.577 135.217ZM196.803 135.217H200.283V155.217H196.803V148.017C195.203 148.71 193.403 149.057 191.403 149.057C188.843 149.057 186.856 148.457 185.443 147.257C184.056 146.03 183.363 144.23 183.363 141.857V135.217H186.842V141.657C186.842 143.15 187.242 144.217 188.043 144.857C188.869 145.497 190.069 145.817 191.643 145.817C193.536 145.817 195.256 145.47 196.803 144.777V135.217ZM208.01 146.817C208.356 148.603 209.17 149.99 210.45 150.977C211.756 151.963 213.356 152.457 215.25 152.457C217.89 152.457 219.81 151.483 221.01 149.537L223.97 151.217C222.023 154.23 219.09 155.737 215.17 155.737C211.996 155.737 209.41 154.75 207.41 152.777C205.436 150.777 204.45 148.257 204.45 145.217C204.45 142.203 205.423 139.697 207.37 137.697C209.316 135.697 211.836 134.697 214.93 134.697C217.863 134.697 220.25 135.737 222.09 137.817C223.956 139.87 224.89 142.35 224.89 145.257C224.89 145.763 224.85 146.283 224.77 146.817H208.01ZM214.93 137.977C213.063 137.977 211.516 138.51 210.29 139.577C209.063 140.617 208.303 142.017 208.01 143.777H221.37C221.076 141.883 220.33 140.443 219.13 139.457C217.93 138.47 216.53 137.977 214.93 137.977ZM242.73 135.217H246.21V155.217H242.73V146.857H232.37V155.217H228.89V135.217H232.37V143.537H242.73V135.217ZM266.027 135.217H268.827V155.217H265.387V141.177L254.307 155.217H251.507V135.217H254.947V149.257L266.027 135.217ZM276.564 146.817C276.911 148.603 277.724 149.99 279.004 150.977C280.311 151.963 281.911 152.457 283.804 152.457C286.444 152.457 288.364 151.483 289.564 149.537L292.524 151.217C290.578 154.23 287.644 155.737 283.724 155.737C280.551 155.737 277.964 154.75 275.964 152.777C273.991 150.777 273.004 148.257 273.004 145.217C273.004 142.203 273.978 139.697 275.924 137.697C277.871 135.697 280.391 134.697 283.484 134.697C286.418 134.697 288.804 135.737 290.644 137.817C292.511 139.87 293.444 142.35 293.444 145.257C293.444 145.763 293.404 146.283 293.324 146.817H276.564ZM283.484 137.977C281.618 137.977 280.071 138.51 278.844 139.577C277.618 140.617 276.858 142.017 276.564 143.777H289.924C289.631 141.883 288.884 140.443 287.684 139.457C286.484 138.47 285.084 137.977 283.484 137.977Z" fill="#FFF5ED"/>
<path d="M84.52 199.697C82.4667 201.723 79.9733 202.737 77.04 202.737C74.1067 202.737 71.6133 201.723 69.56 199.697C67.5333 197.67 66.52 195.177 66.52 192.217C66.52 189.257 67.5333 186.763 69.56 184.737C71.6133 182.71 74.1067 181.697 77.04 181.697C79.9733 181.697 82.4667 182.71 84.52 184.737C86.5733 186.763 87.6 189.257 87.6 192.217C87.6 195.177 86.5733 197.67 84.52 199.697ZM77.04 199.337C79.04 199.337 80.72 198.657 82.08 197.297C83.44 195.937 84.12 194.243 84.12 192.217C84.12 190.19 83.44 188.497 82.08 187.137C80.72 185.777 79.04 185.097 77.04 185.097C75.0667 185.097 73.4 185.777 72.04 187.137C70.68 188.497 70 190.19 70 192.217C70 194.243 70.68 195.937 72.04 197.297C73.4 198.657 75.0667 199.337 77.04 199.337ZM100.783 202.737C97.8225 202.737 95.3825 201.763 93.4625 199.817C91.5425 197.87 90.5825 195.363 90.5825 192.297C90.5825 188.883 91.0758 186.257 92.0625 184.417C93.0758 182.577 95.1292 180.91 98.2225 179.417C98.7825 179.15 99.5425 178.803 100.503 178.377C101.489 177.95 102.209 177.63 102.663 177.417C103.116 177.177 103.623 176.87 104.183 176.497C104.743 176.097 105.156 175.67 105.423 175.217C105.716 174.737 105.929 174.19 106.063 173.577L108.863 175.177C108.783 175.603 108.676 176.003 108.543 176.377C108.409 176.723 108.209 177.07 107.943 177.417C107.703 177.737 107.489 178.017 107.303 178.257C107.116 178.497 106.796 178.763 106.343 179.057C105.916 179.323 105.596 179.523 105.383 179.657C105.196 179.79 104.809 179.99 104.223 180.257C103.663 180.523 103.276 180.71 103.063 180.817C102.876 180.897 102.436 181.083 101.743 181.377C101.049 181.643 100.623 181.817 100.463 181.897C98.6492 182.67 97.3158 183.457 96.4625 184.257C95.6358 185.057 95.0358 186.07 94.6625 187.297C95.5158 186.23 96.5825 185.443 97.8625 184.937C99.1425 184.43 100.423 184.177 101.703 184.177C104.209 184.177 106.329 185.03 108.063 186.737C109.823 188.443 110.703 190.643 110.703 193.337C110.703 196.057 109.769 198.31 107.903 200.097C106.036 201.857 103.663 202.737 100.783 202.737ZM96.1025 197.617C97.3558 198.79 98.9158 199.377 100.783 199.377C102.649 199.377 104.183 198.803 105.383 197.657C106.609 196.51 107.223 195.07 107.223 193.337C107.223 191.55 106.636 190.097 105.463 188.977C104.316 187.83 102.796 187.257 100.903 187.257C99.1958 187.257 97.6492 187.803 96.2625 188.897C94.9025 189.963 94.2225 191.377 94.2225 193.137C94.2225 194.95 94.8492 196.443 96.1025 197.617ZM127.577 182.217H131.297L123.137 203.457C122.283 205.723 121.083 207.443 119.537 208.617C117.99 209.817 116.23 210.35 114.257 210.217V206.977C116.71 207.163 118.51 205.83 119.657 202.977L119.977 202.257L111.297 182.217H114.977L121.817 197.897L127.577 182.217ZM146.803 182.217H150.283V202.217H146.803V195.017C145.203 195.71 143.403 196.057 141.403 196.057C138.843 196.057 136.856 195.457 135.443 194.257C134.056 193.03 133.363 191.23 133.363 188.857V182.217H136.842V188.657C136.842 190.15 137.242 191.217 138.043 191.857C138.869 192.497 140.069 192.817 141.643 192.817C143.536 192.817 145.256 192.47 146.803 191.777V182.217ZM158.01 193.817C158.356 195.603 159.17 196.99 160.45 197.977C161.756 198.963 163.356 199.457 165.25 199.457C167.89 199.457 169.81 198.483 171.01 196.537L173.97 198.217C172.023 201.23 169.09 202.737 165.17 202.737C161.996 202.737 159.41 201.75 157.41 199.777C155.436 197.777 154.45 195.257 154.45 192.217C154.45 189.203 155.423 186.697 157.37 184.697C159.316 182.697 161.836 181.697 164.93 181.697C167.863 181.697 170.25 182.737 172.09 184.817C173.956 186.87 174.89 189.35 174.89 192.257C174.89 192.763 174.85 193.283 174.77 193.817H158.01ZM164.93 184.977C163.063 184.977 161.516 185.51 160.29 186.577C159.063 187.617 158.303 189.017 158.01 190.777H171.37C171.076 188.883 170.33 187.443 169.13 186.457C167.93 185.47 166.53 184.977 164.93 184.977ZM192.73 182.217H196.21V202.217H192.73V193.857H182.37V202.217H178.89V182.217H182.37V190.537H192.73V182.217ZM216.027 182.217H218.827V202.217H215.387V188.177L204.307 202.217H201.507V182.217H204.947V196.257L216.027 182.217ZM226.564 193.817C226.911 195.603 227.724 196.99 229.004 197.977C230.311 198.963 231.911 199.457 233.804 199.457C236.444 199.457 238.364 198.483 239.564 196.537L242.524 198.217C240.578 201.23 237.644 202.737 233.724 202.737C230.551 202.737 227.964 201.75 225.964 199.777C223.991 197.777 223.004 195.257 223.004 192.217C223.004 189.203 223.978 186.697 225.924 184.697C227.871 182.697 230.391 181.697 233.484 181.697C236.418 181.697 238.804 182.737 240.644 184.817C242.511 186.87 243.444 189.35 243.444 192.257C243.444 192.763 243.404 193.283 243.324 193.817H226.564ZM233.484 184.977C231.618 184.977 230.071 185.51 228.844 186.577C227.618 187.617 226.858 189.017 226.564 190.777H239.924C239.631 188.883 238.884 187.443 237.684 186.457C236.484 185.47 235.084 184.977 233.484 184.977Z" fill="#FFF5ED"/>
</g>
</g>
<defs>
<clipPath id="clip0">
<rect width="194" height="194" fill="white" transform="translate(0.660156 0.716797)"/>
</clipPath>
</defs>
</svg>
