<svg width="117" height="117" viewBox="0 0 117 117" fill="none" xmlns="http://www.w3.org/2000/svg">
<g clip-path="url(#clip0)">
<circle cx="58.6602" cy="58.3379" r="58" fill="#E9832D"/>
<mask id="mask0" mask-type="alpha" maskUnits="userSpaceOnUse" x="0" y="0" width="117" height="117">
<circle cx="58.6602" cy="58.3379" r="58" fill="white"/>
</mask>
<g mask="url(#mask0)">
<path d="M36.781 62.6369C35.395 64.0049 33.712 64.6889 31.732 64.6889C29.752 64.6889 28.069 64.0049 26.683 62.6369C25.315 61.2689 24.631 59.5859 24.631 57.5879C24.631 55.5899 25.315 53.9069 26.683 52.5389C28.069 51.1709 29.752 50.4869 31.732 50.4869C33.712 50.4869 35.395 51.1709 36.781 52.5389C38.167 53.9069 38.86 55.5899 38.86 57.5879C38.86 59.5859 38.167 61.2689 36.781 62.6369ZM31.732 62.3939C33.082 62.3939 34.216 61.9349 35.134 61.0169C36.052 60.0989 36.511 58.9559 36.511 57.5879C36.511 56.2199 36.052 55.0769 35.134 54.1589C34.216 53.2409 33.082 52.7819 31.732 52.7819C30.4 52.7819 29.275 53.2409 28.357 54.1589C27.439 55.0769 26.98 56.2199 26.98 57.5879C26.98 58.9559 27.439 60.0989 28.357 61.0169C29.275 61.9349 30.4 62.3939 31.732 62.3939ZM57.7212 50.8379H60.0702V64.3379H57.7212V58.6949H50.7282V64.3379H48.3792V50.8379H50.7282V56.4539H57.7212V50.8379ZM74.8238 50.8379H77.1728V64.3379H74.8238V62.0159C73.6538 63.7979 71.9528 64.6889 69.7208 64.6889C67.8308 64.6889 66.2198 64.0049 64.8878 62.6369C63.5558 61.2509 62.8898 59.5679 62.8898 57.5879C62.8898 55.6079 63.5558 53.9339 64.8878 52.5659C66.2198 51.1799 67.8308 50.4869 69.7208 50.4869C71.9528 50.4869 73.6538 51.3779 74.8238 53.1599V50.8379ZM70.0178 62.4209C71.3858 62.4209 72.5288 61.9619 73.4468 61.0439C74.3648 60.1079 74.8238 58.9559 74.8238 57.5879C74.8238 56.2199 74.3648 55.0769 73.4468 54.1589C72.5288 53.2229 71.3858 52.7549 70.0178 52.7549C68.6678 52.7549 67.5338 53.2229 66.6158 54.1589C65.6978 55.0769 65.2388 56.2199 65.2388 57.5879C65.2388 58.9559 65.6978 60.1079 66.6158 61.0439C67.5338 61.9619 68.6678 62.4209 70.0178 62.4209ZM87.0767 64.6889C85.0427 64.6889 83.3507 64.0139 82.0007 62.6639C80.6507 61.2959 79.9757 59.6039 79.9757 57.5879C79.9757 55.5719 80.6507 53.8889 82.0007 52.5389C83.3507 51.1709 85.0427 50.4869 87.0767 50.4869C88.4087 50.4869 89.6057 50.8109 90.6677 51.4589C91.7297 52.0889 92.5217 52.9439 93.0437 54.0239L91.0727 55.1579C90.7307 54.4379 90.1997 53.8619 89.4797 53.4299C88.7777 52.9979 87.9767 52.7819 87.0767 52.7819C85.7267 52.7819 84.5927 53.2409 83.6747 54.1589C82.7747 55.0769 82.3247 56.2199 82.3247 57.5879C82.3247 58.9379 82.7747 60.0719 83.6747 60.9899C84.5927 61.9079 85.7267 62.3669 87.0767 62.3669C87.9767 62.3669 88.7867 62.1599 89.5067 61.7459C90.2267 61.3139 90.7757 60.7379 91.1537 60.0179L93.1517 61.1789C92.5757 62.2409 91.7477 63.0959 90.6677 63.7439C89.5877 64.3739 88.3907 64.6889 87.0767 64.6889Z" fill="#FFF5ED"/>
<path d="M-8.71902 30.6369C-10.105 32.0049 -11.788 32.6889 -13.768 32.6889C-15.748 32.6889 -17.431 32.0049 -18.817 30.6369C-20.185 29.2689 -20.869 27.5859 -20.869 25.5879C-20.869 23.5899 -20.185 21.9069 -18.817 20.5389C-17.431 19.1709 -15.748 18.4869 -13.768 18.4869C-11.788 18.4869 -10.105 19.1709 -8.71902 20.5389C-7.33302 21.9069 -6.64002 23.5899 -6.64002 25.5879C-6.64002 27.5859 -7.33302 29.2689 -8.71902 30.6369ZM-13.768 30.3939C-12.418 30.3939 -11.284 29.9349 -10.366 29.0169C-9.44802 28.0989 -8.98902 26.9559 -8.98902 25.5879C-8.98902 24.2199 -9.44802 23.0769 -10.366 22.1589C-11.284 21.2409 -12.418 20.7819 -13.768 20.7819C-15.1 20.7819 -16.225 21.2409 -17.143 22.1589C-18.061 23.0769 -18.52 24.2199 -18.52 25.5879C-18.52 26.9559 -18.061 28.0989 -17.143 29.0169C-16.225 29.9349 -15.1 30.3939 -13.768 30.3939ZM12.2212 18.8379H14.5702V32.3379H12.2212V26.6949H5.22817V32.3379H2.87917V18.8379H5.22817V24.4539H12.2212V18.8379ZM29.3238 18.8379H31.6728V32.3379H29.3238V30.0159C28.1538 31.7979 26.4528 32.6889 24.2208 32.6889C22.3308 32.6889 20.7198 32.0049 19.3878 30.6369C18.0558 29.2509 17.3898 27.5679 17.3898 25.5879C17.3898 23.6079 18.0558 21.9339 19.3878 20.5659C20.7198 19.1799 22.3308 18.4869 24.2208 18.4869C26.4528 18.4869 28.1538 19.3779 29.3238 21.1599V18.8379ZM24.5178 30.4209C25.8858 30.4209 27.0288 29.9619 27.9468 29.0439C28.8648 28.1079 29.3238 26.9559 29.3238 25.5879C29.3238 24.2199 28.8648 23.0769 27.9468 22.1589C27.0288 21.2229 25.8858 20.7549 24.5178 20.7549C23.1678 20.7549 22.0338 21.2229 21.1158 22.1589C20.1978 23.0769 19.7388 24.2199 19.7388 25.5879C19.7388 26.9559 20.1978 28.1079 21.1158 29.0439C22.0338 29.9619 23.1678 30.4209 24.5178 30.4209ZM41.5767 32.6889C39.5427 32.6889 37.8507 32.0139 36.5007 30.6639C35.1507 29.2959 34.4757 27.6039 34.4757 25.5879C34.4757 23.5719 35.1507 21.8889 36.5007 20.5389C37.8507 19.1709 39.5427 18.4869 41.5767 18.4869C42.9087 18.4869 44.1057 18.8109 45.1677 19.4589C46.2297 20.0889 47.0217 20.9439 47.5437 22.0239L45.5727 23.1579C45.2307 22.4379 44.6997 21.8619 43.9797 21.4299C43.2777 20.9979 42.4767 20.7819 41.5767 20.7819C40.2267 20.7819 39.0927 21.2409 38.1747 22.1589C37.2747 23.0769 36.8247 24.2199 36.8247 25.5879C36.8247 26.9379 37.2747 28.0719 38.1747 28.9899C39.0927 29.9079 40.2267 30.3669 41.5767 30.3669C42.4767 30.3669 43.2867 30.1599 44.0067 29.7459C44.7267 29.3139 45.2757 28.7379 45.6537 28.0179L47.6517 29.1789C47.0757 30.2409 46.2477 31.0959 45.1677 31.7439C44.0877 32.3739 42.8907 32.6889 41.5767 32.6889Z" fill="#FFF5ED"/>
<path d="M26.781 -1.36311C25.395 0.00489062 23.712 0.688891 21.732 0.688891C19.752 0.688891 18.069 0.00489062 16.683 -1.36311C15.315 -2.73111 14.631 -4.41411 14.631 -6.41211C14.631 -8.41011 15.315 -10.0931 16.683 -11.4611C18.069 -12.8291 19.752 -13.5131 21.732 -13.5131C23.712 -13.5131 25.395 -12.8291 26.781 -11.4611C28.167 -10.0931 28.86 -8.41011 28.86 -6.41211C28.86 -4.41411 28.167 -2.73111 26.781 -1.36311ZM21.732 -1.60611C23.082 -1.60611 24.216 -2.06511 25.134 -2.98311C26.052 -3.90111 26.511 -5.04411 26.511 -6.41211C26.511 -7.78011 26.052 -8.92311 25.134 -9.84111C24.216 -10.7591 23.082 -11.2181 21.732 -11.2181C20.4 -11.2181 19.275 -10.7591 18.357 -9.84111C17.439 -8.92311 16.98 -7.78011 16.98 -6.41211C16.98 -5.04411 17.439 -3.90111 18.357 -2.98311C19.275 -2.06511 20.4 -1.60611 21.732 -1.60611ZM47.7212 -13.1621H50.0702V0.337891H47.7212V-5.30511H40.7282V0.337891H38.3792V-13.1621H40.7282V-7.54611H47.7212V-13.1621ZM64.8238 -13.1621H67.1728V0.337891H64.8238V-1.98411C63.6538 -0.202109 61.9528 0.688891 59.7208 0.688891C57.8308 0.688891 56.2198 0.00489062 54.8878 -1.36311C53.5558 -2.74911 52.8898 -4.43211 52.8898 -6.41211C52.8898 -8.39211 53.5558 -10.0661 54.8878 -11.4341C56.2198 -12.8201 57.8308 -13.5131 59.7208 -13.5131C61.9528 -13.5131 63.6538 -12.6221 64.8238 -10.8401V-13.1621ZM60.0178 -1.57911C61.3858 -1.57911 62.5288 -2.03811 63.4468 -2.95611C64.3648 -3.89211 64.8238 -5.04411 64.8238 -6.41211C64.8238 -7.78011 64.3648 -8.92311 63.4468 -9.84111C62.5288 -10.7771 61.3858 -11.2451 60.0178 -11.2451C58.6678 -11.2451 57.5338 -10.7771 56.6158 -9.84111C55.6978 -8.92311 55.2388 -7.78011 55.2388 -6.41211C55.2388 -5.04411 55.6978 -3.89211 56.6158 -2.95611C57.5338 -2.03811 58.6678 -1.57911 60.0178 -1.57911ZM77.0767 0.688891C75.0427 0.688891 73.3507 0.0138906 72.0007 -1.33611C70.6507 -2.70411 69.9757 -4.39611 69.9757 -6.41211C69.9757 -8.42811 70.6507 -10.1111 72.0007 -11.4611C73.3507 -12.8291 75.0427 -13.5131 77.0767 -13.5131C78.4087 -13.5131 79.6057 -13.1891 80.6677 -12.5411C81.7297 -11.9111 82.5217 -11.0561 83.0437 -9.97611L81.0727 -8.84211C80.7307 -9.56211 80.1997 -10.1381 79.4797 -10.5701C78.7777 -11.0021 77.9767 -11.2181 77.0767 -11.2181C75.7267 -11.2181 74.5927 -10.7591 73.6747 -9.84111C72.7747 -8.92311 72.3247 -7.78011 72.3247 -6.41211C72.3247 -5.06211 72.7747 -3.92811 73.6747 -3.01011C74.5927 -2.09211 75.7267 -1.63311 77.0767 -1.63311C77.9767 -1.63311 78.7867 -1.84011 79.5067 -2.25411C80.2267 -2.68611 80.7757 -3.26211 81.1537 -3.98211L83.1517 -2.82111C82.5757 -1.75911 81.7477 -0.904109 80.6677 -0.256109C79.5877 0.373891 78.3907 0.688891 77.0767 0.688891Z" fill="#FFF5ED"/>
<path d="M56.1208 94.6369C54.7348 96.0049 53.0518 96.6889 51.0718 96.6889C49.0918 96.6889 47.4088 96.0049 46.0228 94.6369C44.6548 93.2689 43.9708 91.5859 43.9708 89.5879C43.9708 87.5899 44.6548 85.9069 46.0228 84.5389C47.4088 83.1709 49.0918 82.4869 51.0718 82.4869C53.0518 82.4869 54.7348 83.1709 56.1208 84.5389C57.5068 85.9069 58.1998 87.5899 58.1998 89.5879C58.1998 91.5859 57.5068 93.2689 56.1208 94.6369ZM51.0718 94.3939C52.4218 94.3939 53.5558 93.9349 54.4738 93.0169C55.3918 92.0989 55.8508 90.9559 55.8508 89.5879C55.8508 88.2199 55.3918 87.0769 54.4738 86.1589C53.5558 85.2409 52.4218 84.7819 51.0718 84.7819C49.7398 84.7819 48.6148 85.2409 47.6968 86.1589C46.7788 87.0769 46.3198 88.2199 46.3198 89.5879C46.3198 90.9559 46.7788 92.0989 47.6968 93.0169C48.6148 93.9349 49.7398 94.3939 51.0718 94.3939ZM77.061 82.8379H79.41V96.3379H77.061V90.6949H70.068V96.3379H67.719V82.8379H70.068V88.4539H77.061V82.8379ZM94.1636 82.8379H96.5126V96.3379H94.1636V94.0159C92.9936 95.7979 91.2926 96.6889 89.0606 96.6889C87.1706 96.6889 85.5596 96.0049 84.2276 94.6369C82.8956 93.2509 82.2296 91.5679 82.2296 89.5879C82.2296 87.6079 82.8956 85.9339 84.2276 84.5659C85.5596 83.1799 87.1706 82.4869 89.0606 82.4869C91.2926 82.4869 92.9936 83.3779 94.1636 85.1599V82.8379ZM89.3576 94.4209C90.7256 94.4209 91.8686 93.9619 92.7866 93.0439C93.7046 92.1079 94.1636 90.9559 94.1636 89.5879C94.1636 88.2199 93.7046 87.0769 92.7866 86.1589C91.8686 85.2229 90.7256 84.7549 89.3576 84.7549C88.0076 84.7549 86.8736 85.2229 85.9556 86.1589C85.0376 87.0769 84.5786 88.2199 84.5786 89.5879C84.5786 90.9559 85.0376 92.1079 85.9556 93.0439C86.8736 93.9619 88.0076 94.4209 89.3576 94.4209ZM106.417 96.6889C104.383 96.6889 102.691 96.0139 101.341 94.6639C99.9906 93.2959 99.3156 91.6039 99.3156 89.5879C99.3156 87.5719 99.9906 85.8889 101.341 84.5389C102.691 83.1709 104.383 82.4869 106.417 82.4869C107.749 82.4869 108.946 82.8109 110.008 83.4589C111.07 84.0889 111.862 84.9439 112.384 86.0239L110.413 87.1579C110.071 86.4379 109.54 85.8619 108.82 85.4299C108.118 84.9979 107.317 84.7819 106.417 84.7819C105.067 84.7819 103.933 85.2409 103.015 86.1589C102.115 87.0769 101.665 88.2199 101.665 89.5879C101.665 90.9379 102.115 92.0719 103.015 92.9899C103.933 93.9079 105.067 94.3669 106.417 94.3669C107.317 94.3669 108.127 94.1599 108.847 93.7459C109.567 93.3139 110.116 92.7379 110.494 92.0179L112.492 93.1789C111.916 94.2409 111.088 95.0959 110.008 95.7439C108.928 96.3739 107.731 96.6889 106.417 96.6889Z" fill="#FFF5ED"/>
<path d="M56.1208 126.637C54.7348 128.005 53.0518 128.689 51.0718 128.689C49.0918 128.689 47.4088 128.005 46.0228 126.637C44.6548 125.269 43.9708 123.586 43.9708 121.588C43.9708 119.59 44.6548 117.907 46.0228 116.539C47.4088 115.171 49.0918 114.487 51.0718 114.487C53.0518 114.487 54.7348 115.171 56.1208 116.539C57.5068 117.907 58.1998 119.59 58.1998 121.588C58.1998 123.586 57.5068 125.269 56.1208 126.637ZM51.0718 126.394C52.4218 126.394 53.5558 125.935 54.4738 125.017C55.3918 124.099 55.8508 122.956 55.8508 121.588C55.8508 120.22 55.3918 119.077 54.4738 118.159C53.5558 117.241 52.4218 116.782 51.0718 116.782C49.7398 116.782 48.6148 117.241 47.6968 118.159C46.7788 119.077 46.3198 120.22 46.3198 121.588C46.3198 122.956 46.7788 124.099 47.6968 125.017C48.6148 125.935 49.7398 126.394 51.0718 126.394ZM77.061 114.838H79.41V128.338H77.061V122.695H70.068V128.338H67.719V114.838H70.068V120.454H77.061V114.838ZM94.1636 114.838H96.5126V128.338H94.1636V126.016C92.9936 127.798 91.2926 128.689 89.0606 128.689C87.1706 128.689 85.5596 128.005 84.2276 126.637C82.8956 125.251 82.2296 123.568 82.2296 121.588C82.2296 119.608 82.8956 117.934 84.2276 116.566C85.5596 115.18 87.1706 114.487 89.0606 114.487C91.2926 114.487 92.9936 115.378 94.1636 117.16V114.838ZM89.3576 126.421C90.7256 126.421 91.8686 125.962 92.7866 125.044C93.7046 124.108 94.1636 122.956 94.1636 121.588C94.1636 120.22 93.7046 119.077 92.7866 118.159C91.8686 117.223 90.7256 116.755 89.3576 116.755C88.0076 116.755 86.8736 117.223 85.9556 118.159C85.0376 119.077 84.5786 120.22 84.5786 121.588C84.5786 122.956 85.0376 124.108 85.9556 125.044C86.8736 125.962 88.0076 126.421 89.3576 126.421ZM106.417 128.689C104.383 128.689 102.691 128.014 101.341 126.664C99.9906 125.296 99.3156 123.604 99.3156 121.588C99.3156 119.572 99.9906 117.889 101.341 116.539C102.691 115.171 104.383 114.487 106.417 114.487C107.749 114.487 108.946 114.811 110.008 115.459C111.07 116.089 111.862 116.944 112.384 118.024L110.413 119.158C110.071 118.438 109.54 117.862 108.82 117.43C108.118 116.998 107.317 116.782 106.417 116.782C105.067 116.782 103.933 117.241 103.015 118.159C102.115 119.077 101.665 120.22 101.665 121.588C101.665 122.938 102.115 124.072 103.015 124.99C103.933 125.908 105.067 126.367 106.417 126.367C107.317 126.367 108.127 126.16 108.847 125.746C109.567 125.314 110.116 124.738 110.494 124.018L112.492 125.179C111.916 126.241 111.088 127.096 110.008 127.744C108.928 128.374 107.731 128.689 106.417 128.689Z" fill="#FFF5ED"/>
<path d="M117.781 62.6369C116.395 64.0049 114.712 64.6889 112.732 64.6889C110.752 64.6889 109.069 64.0049 107.683 62.6369C106.315 61.2689 105.631 59.5859 105.631 57.5879C105.631 55.5899 106.315 53.9069 107.683 52.5389C109.069 51.1709 110.752 50.4869 112.732 50.4869C114.712 50.4869 116.395 51.1709 117.781 52.5389C119.167 53.9069 119.86 55.5899 119.86 57.5879C119.86 59.5859 119.167 61.2689 117.781 62.6369ZM112.732 62.3939C114.082 62.3939 115.216 61.9349 116.134 61.0169C117.052 60.0989 117.511 58.9559 117.511 57.5879C117.511 56.2199 117.052 55.0769 116.134 54.1589C115.216 53.2409 114.082 52.7819 112.732 52.7819C111.4 52.7819 110.275 53.2409 109.357 54.1589C108.439 55.0769 107.98 56.2199 107.98 57.5879C107.98 58.9559 108.439 60.0989 109.357 61.0169C110.275 61.9349 111.4 62.3939 112.732 62.3939ZM138.721 50.8379H141.07V64.3379H138.721V58.6949H131.728V64.3379H129.379V50.8379H131.728V56.4539H138.721V50.8379ZM155.824 50.8379H158.173V64.3379H155.824V62.0159C154.654 63.7979 152.953 64.6889 150.721 64.6889C148.831 64.6889 147.22 64.0049 145.888 62.6369C144.556 61.2509 143.89 59.5679 143.89 57.5879C143.89 55.6079 144.556 53.9339 145.888 52.5659C147.22 51.1799 148.831 50.4869 150.721 50.4869C152.953 50.4869 154.654 51.3779 155.824 53.1599V50.8379ZM151.018 62.4209C152.386 62.4209 153.529 61.9619 154.447 61.0439C155.365 60.1079 155.824 58.9559 155.824 57.5879C155.824 56.2199 155.365 55.0769 154.447 54.1589C153.529 53.2229 152.386 52.7549 151.018 52.7549C149.668 52.7549 148.534 53.2229 147.616 54.1589C146.698 55.0769 146.239 56.2199 146.239 57.5879C146.239 58.9559 146.698 60.1079 147.616 61.0439C148.534 61.9619 149.668 62.4209 151.018 62.4209ZM168.077 64.6889C166.043 64.6889 164.351 64.0139 163.001 62.6639C161.651 61.2959 160.976 59.6039 160.976 57.5879C160.976 55.5719 161.651 53.8889 163.001 52.5389C164.351 51.1709 166.043 50.4869 168.077 50.4869C169.409 50.4869 170.606 50.8109 171.668 51.4589C172.73 52.0889 173.522 52.9439 174.044 54.0239L172.073 55.1579C171.731 54.4379 171.2 53.8619 170.48 53.4299C169.778 52.9979 168.977 52.7819 168.077 52.7819C166.727 52.7819 165.593 53.2409 164.675 54.1589C163.775 55.0769 163.325 56.2199 163.325 57.5879C163.325 58.9379 163.775 60.0719 164.675 60.9899C165.593 61.9079 166.727 62.3669 168.077 62.3669C168.977 62.3669 169.787 62.1599 170.507 61.7459C171.227 61.3139 171.776 60.7379 172.154 60.0179L174.152 61.1789C173.576 62.2409 172.748 63.0959 171.668 63.7439C170.588 64.3739 169.391 64.6889 168.077 64.6889Z" fill="#FFF5ED"/>
<path d="M72.281 30.6369C70.895 32.0049 69.212 32.6889 67.232 32.6889C65.252 32.6889 63.569 32.0049 62.183 30.6369C60.815 29.2689 60.131 27.5859 60.131 25.5879C60.131 23.5899 60.815 21.9069 62.183 20.5389C63.569 19.1709 65.252 18.4869 67.232 18.4869C69.212 18.4869 70.895 19.1709 72.281 20.5389C73.667 21.9069 74.36 23.5899 74.36 25.5879C74.36 27.5859 73.667 29.2689 72.281 30.6369ZM67.232 30.3939C68.582 30.3939 69.716 29.9349 70.634 29.0169C71.552 28.0989 72.011 26.9559 72.011 25.5879C72.011 24.2199 71.552 23.0769 70.634 22.1589C69.716 21.2409 68.582 20.7819 67.232 20.7819C65.9 20.7819 64.775 21.2409 63.857 22.1589C62.939 23.0769 62.48 24.2199 62.48 25.5879C62.48 26.9559 62.939 28.0989 63.857 29.0169C64.775 29.9349 65.9 30.3939 67.232 30.3939ZM93.2212 18.8379H95.5702V32.3379H93.2212V26.6949H86.2282V32.3379H83.8792V18.8379H86.2282V24.4539H93.2212V18.8379ZM110.324 18.8379H112.673V32.3379H110.324V30.0159C109.154 31.7979 107.453 32.6889 105.221 32.6889C103.331 32.6889 101.72 32.0049 100.388 30.6369C99.0558 29.2509 98.3898 27.5679 98.3898 25.5879C98.3898 23.6079 99.0558 21.9339 100.388 20.5659C101.72 19.1799 103.331 18.4869 105.221 18.4869C107.453 18.4869 109.154 19.3779 110.324 21.1599V18.8379ZM105.518 30.4209C106.886 30.4209 108.029 29.9619 108.947 29.0439C109.865 28.1079 110.324 26.9559 110.324 25.5879C110.324 24.2199 109.865 23.0769 108.947 22.1589C108.029 21.2229 106.886 20.7549 105.518 20.7549C104.168 20.7549 103.034 21.2229 102.116 22.1589C101.198 23.0769 100.739 24.2199 100.739 25.5879C100.739 26.9559 101.198 28.1079 102.116 29.0439C103.034 29.9619 104.168 30.4209 105.518 30.4209ZM122.577 32.6889C120.543 32.6889 118.851 32.0139 117.501 30.6639C116.151 29.2959 115.476 27.6039 115.476 25.5879C115.476 23.5719 116.151 21.8889 117.501 20.5389C118.851 19.1709 120.543 18.4869 122.577 18.4869C123.909 18.4869 125.106 18.8109 126.168 19.4589C127.23 20.0889 128.022 20.9439 128.544 22.0239L126.573 23.1579C126.231 22.4379 125.7 21.8619 124.98 21.4299C124.278 20.9979 123.477 20.7819 122.577 20.7819C121.227 20.7819 120.093 21.2409 119.175 22.1589C118.275 23.0769 117.825 24.2199 117.825 25.5879C117.825 26.9379 118.275 28.0719 119.175 28.9899C120.093 29.9079 121.227 30.3669 122.577 30.3669C123.477 30.3669 124.287 30.1599 125.007 29.7459C125.727 29.3139 126.276 28.7379 126.654 28.0179L128.652 29.1789C128.076 30.2409 127.248 31.0959 126.168 31.7439C125.088 32.3739 123.891 32.6889 122.577 32.6889Z" fill="#FFF5ED"/>
<path d="M107.781 -1.36311C106.395 0.00489062 104.712 0.688891 102.732 0.688891C100.752 0.688891 99.069 0.00489062 97.683 -1.36311C96.315 -2.73111 95.631 -4.41411 95.631 -6.41211C95.631 -8.41011 96.315 -10.0931 97.683 -11.4611C99.069 -12.8291 100.752 -13.5131 102.732 -13.5131C104.712 -13.5131 106.395 -12.8291 107.781 -11.4611C109.167 -10.0931 109.86 -8.41011 109.86 -6.41211C109.86 -4.41411 109.167 -2.73111 107.781 -1.36311ZM102.732 -1.60611C104.082 -1.60611 105.216 -2.06511 106.134 -2.98311C107.052 -3.90111 107.511 -5.04411 107.511 -6.41211C107.511 -7.78011 107.052 -8.92311 106.134 -9.84111C105.216 -10.7591 104.082 -11.2181 102.732 -11.2181C101.4 -11.2181 100.275 -10.7591 99.357 -9.84111C98.439 -8.92311 97.98 -7.78011 97.98 -6.41211C97.98 -5.04411 98.439 -3.90111 99.357 -2.98311C100.275 -2.06511 101.4 -1.60611 102.732 -1.60611ZM128.721 -13.1621H131.07V0.337891H128.721V-5.30511H121.728V0.337891H119.379V-13.1621H121.728V-7.54611H128.721V-13.1621ZM145.824 -13.1621H148.173V0.337891H145.824V-1.98411C144.654 -0.202109 142.953 0.688891 140.721 0.688891C138.831 0.688891 137.22 0.00489062 135.888 -1.36311C134.556 -2.74911 133.89 -4.43211 133.89 -6.41211C133.89 -8.39211 134.556 -10.0661 135.888 -11.4341C137.22 -12.8201 138.831 -13.5131 140.721 -13.5131C142.953 -13.5131 144.654 -12.6221 145.824 -10.8401V-13.1621ZM141.018 -1.57911C142.386 -1.57911 143.529 -2.03811 144.447 -2.95611C145.365 -3.89211 145.824 -5.04411 145.824 -6.41211C145.824 -7.78011 145.365 -8.92311 144.447 -9.84111C143.529 -10.7771 142.386 -11.2451 141.018 -11.2451C139.668 -11.2451 138.534 -10.7771 137.616 -9.84111C136.698 -8.92311 136.239 -7.78011 136.239 -6.41211C136.239 -5.04411 136.698 -3.89211 137.616 -2.95611C138.534 -2.03811 139.668 -1.57911 141.018 -1.57911ZM158.077 0.688891C156.043 0.688891 154.351 0.0138906 153.001 -1.33611C151.651 -2.70411 150.976 -4.39611 150.976 -6.41211C150.976 -8.42811 151.651 -10.1111 153.001 -11.4611C154.351 -12.8291 156.043 -13.5131 158.077 -13.5131C159.409 -13.5131 160.606 -13.1891 161.668 -12.5411C162.73 -11.9111 163.522 -11.0561 164.044 -9.97611L162.073 -8.84211C161.731 -9.56211 161.2 -10.1381 160.48 -10.5701C159.778 -11.0021 158.977 -11.2181 158.077 -11.2181C156.727 -11.2181 155.593 -10.7591 154.675 -9.84111C153.775 -8.92311 153.325 -7.78011 153.325 -6.41211C153.325 -5.06211 153.775 -3.92811 154.675 -3.01011C155.593 -2.09211 156.727 -1.63311 158.077 -1.63311C158.977 -1.63311 159.787 -1.84011 160.507 -2.25411C161.227 -2.68611 161.776 -3.26211 162.154 -3.98211L164.152 -2.82111C163.576 -1.75911 162.748 -0.904109 161.668 -0.256109C160.588 0.373891 159.391 0.688891 158.077 0.688891Z" fill="#FFF5ED"/>
<path d="M-44.219 62.6369C-45.605 64.0049 -47.288 64.6889 -49.268 64.6889C-51.248 64.6889 -52.931 64.0049 -54.317 62.6369C-55.685 61.2689 -56.369 59.5859 -56.369 57.5879C-56.369 55.5899 -55.685 53.9069 -54.317 52.5389C-52.931 51.1709 -51.248 50.4869 -49.268 50.4869C-47.288 50.4869 -45.605 51.1709 -44.219 52.5389C-42.833 53.9069 -42.14 55.5899 -42.14 57.5879C-42.14 59.5859 -42.833 61.2689 -44.219 62.6369ZM-49.268 62.3939C-47.918 62.3939 -46.784 61.9349 -45.866 61.0169C-44.948 60.0989 -44.489 58.9559 -44.489 57.5879C-44.489 56.2199 -44.948 55.0769 -45.866 54.1589C-46.784 53.2409 -47.918 52.7819 -49.268 52.7819C-50.6 52.7819 -51.725 53.2409 -52.643 54.1589C-53.561 55.0769 -54.02 56.2199 -54.02 57.5879C-54.02 58.9559 -53.561 60.0989 -52.643 61.0169C-51.725 61.9349 -50.6 62.3939 -49.268 62.3939ZM-23.2788 50.8379H-20.9298V64.3379H-23.2788V58.6949H-30.2718V64.3379H-32.6208V50.8379H-30.2718V56.4539H-23.2788V50.8379ZM-6.17623 50.8379H-3.82723V64.3379H-6.17623V62.0159C-7.34623 63.7979 -9.04723 64.6889 -11.2792 64.6889C-13.1692 64.6889 -14.7802 64.0049 -16.1122 62.6369C-17.4442 61.2509 -18.1102 59.5679 -18.1102 57.5879C-18.1102 55.6079 -17.4442 53.9339 -16.1122 52.5659C-14.7802 51.1799 -13.1692 50.4869 -11.2792 50.4869C-9.04723 50.4869 -7.34623 51.3779 -6.17623 53.1599V50.8379ZM-10.9822 62.4209C-9.61423 62.4209 -8.47123 61.9619 -7.55323 61.0439C-6.63523 60.1079 -6.17623 58.9559 -6.17623 57.5879C-6.17623 56.2199 -6.63523 55.0769 -7.55323 54.1589C-8.47123 53.2229 -9.61423 52.7549 -10.9822 52.7549C-12.3322 52.7549 -13.4662 53.2229 -14.3842 54.1589C-15.3022 55.0769 -15.7612 56.2199 -15.7612 57.5879C-15.7612 58.9559 -15.3022 60.1079 -14.3842 61.0439C-13.4662 61.9619 -12.3322 62.4209 -10.9822 62.4209ZM6.07671 64.6889C4.04271 64.6889 2.35071 64.0139 1.00071 62.6639C-0.349293 61.2959 -1.02429 59.6039 -1.02429 57.5879C-1.02429 55.5719 -0.349293 53.8889 1.00071 52.5389C2.35071 51.1709 4.04271 50.4869 6.07671 50.4869C7.40871 50.4869 8.60571 50.8109 9.66771 51.4589C10.7297 52.0889 11.5217 52.9439 12.0437 54.0239L10.0727 55.1579C9.73071 54.4379 9.19971 53.8619 8.47971 53.4299C7.77771 52.9979 6.97671 52.7819 6.07671 52.7819C4.72671 52.7819 3.59271 53.2409 2.67471 54.1589C1.77471 55.0769 1.32471 56.2199 1.32471 57.5879C1.32471 58.9379 1.77471 60.0719 2.67471 60.9899C3.59271 61.9079 4.72671 62.3669 6.07671 62.3669C6.97671 62.3669 7.78671 62.1599 8.50671 61.7459C9.22671 61.3139 9.77571 60.7379 10.1537 60.0179L12.1517 61.1789C11.5757 62.2409 10.7477 63.0959 9.66771 63.7439C8.58771 64.3739 7.39071 64.6889 6.07671 64.6889Z" fill="#FFF5ED"/>
<path d="M-54.219 -1.36311C-55.605 0.00489062 -57.288 0.688891 -59.268 0.688891C-61.248 0.688891 -62.931 0.00489062 -64.317 -1.36311C-65.685 -2.73111 -66.369 -4.41411 -66.369 -6.41211C-66.369 -8.41011 -65.685 -10.0931 -64.317 -11.4611C-62.931 -12.8291 -61.248 -13.5131 -59.268 -13.5131C-57.288 -13.5131 -55.605 -12.8291 -54.219 -11.4611C-52.833 -10.0931 -52.14 -8.41011 -52.14 -6.41211C-52.14 -4.41411 -52.833 -2.73111 -54.219 -1.36311ZM-59.268 -1.60611C-57.918 -1.60611 -56.784 -2.06511 -55.866 -2.98311C-54.948 -3.90111 -54.489 -5.04411 -54.489 -6.41211C-54.489 -7.78011 -54.948 -8.92311 -55.866 -9.84111C-56.784 -10.7591 -57.918 -11.2181 -59.268 -11.2181C-60.6 -11.2181 -61.725 -10.7591 -62.643 -9.84111C-63.561 -8.92311 -64.02 -7.78011 -64.02 -6.41211C-64.02 -5.04411 -63.561 -3.90111 -62.643 -2.98311C-61.725 -2.06511 -60.6 -1.60611 -59.268 -1.60611ZM-33.2788 -13.1621H-30.9298V0.337891H-33.2788V-5.30511H-40.2718V0.337891H-42.6208V-13.1621H-40.2718V-7.54611H-33.2788V-13.1621ZM-16.1762 -13.1621H-13.8272V0.337891H-16.1762V-1.98411C-17.3462 -0.202109 -19.0472 0.688891 -21.2792 0.688891C-23.1692 0.688891 -24.7802 0.00489062 -26.1122 -1.36311C-27.4442 -2.74911 -28.1102 -4.43211 -28.1102 -6.41211C-28.1102 -8.39211 -27.4442 -10.0661 -26.1122 -11.4341C-24.7802 -12.8201 -23.1692 -13.5131 -21.2792 -13.5131C-19.0472 -13.5131 -17.3462 -12.6221 -16.1762 -10.8401V-13.1621ZM-20.9822 -1.57911C-19.6142 -1.57911 -18.4712 -2.03811 -17.5532 -2.95611C-16.6352 -3.89211 -16.1762 -5.04411 -16.1762 -6.41211C-16.1762 -7.78011 -16.6352 -8.92311 -17.5532 -9.84111C-18.4712 -10.7771 -19.6142 -11.2451 -20.9822 -11.2451C-22.3322 -11.2451 -23.4662 -10.7771 -24.3842 -9.84111C-25.3022 -8.92311 -25.7612 -7.78011 -25.7612 -6.41211C-25.7612 -5.04411 -25.3022 -3.89211 -24.3842 -2.95611C-23.4662 -2.03811 -22.3322 -1.57911 -20.9822 -1.57911ZM-3.92329 0.688891C-5.95729 0.688891 -7.64929 0.0138906 -8.99929 -1.33611C-10.3493 -2.70411 -11.0243 -4.39611 -11.0243 -6.41211C-11.0243 -8.42811 -10.3493 -10.1111 -8.99929 -11.4611C-7.64929 -12.8291 -5.95729 -13.5131 -3.92329 -13.5131C-2.59129 -13.5131 -1.39429 -13.1891 -0.332293 -12.5411C0.729708 -11.9111 1.52171 -11.0561 2.04371 -9.97611L0.0727079 -8.84211C-0.269293 -9.56211 -0.800293 -10.1381 -1.52029 -10.5701C-2.22229 -11.0021 -3.02329 -11.2181 -3.92329 -11.2181C-5.27329 -11.2181 -6.40729 -10.7591 -7.32529 -9.84111C-8.22529 -8.92311 -8.67529 -7.78011 -8.67529 -6.41211C-8.67529 -5.06211 -8.22529 -3.92811 -7.32529 -3.01011C-6.40729 -2.09211 -5.27329 -1.63311 -3.92329 -1.63311C-3.02329 -1.63311 -2.21329 -1.84011 -1.49329 -2.25411C-0.773292 -2.68611 -0.224292 -3.26211 0.153708 -3.98211L2.15171 -2.82111C1.57571 -1.75911 0.747707 -0.904109 -0.332293 -0.256109C-1.41229 0.373891 -2.60929 0.688891 -3.92329 0.688891Z" fill="#FFF5ED"/>
<path d="M-24.8792 94.6369C-26.2652 96.0049 -27.9482 96.6889 -29.9282 96.6889C-31.9082 96.6889 -33.5912 96.0049 -34.9772 94.6369C-36.3452 93.2689 -37.0292 91.5859 -37.0292 89.5879C-37.0292 87.5899 -36.3452 85.9069 -34.9772 84.5389C-33.5912 83.1709 -31.9082 82.4869 -29.9282 82.4869C-27.9482 82.4869 -26.2652 83.1709 -24.8792 84.5389C-23.4932 85.9069 -22.8002 87.5899 -22.8002 89.5879C-22.8002 91.5859 -23.4932 93.2689 -24.8792 94.6369ZM-29.9282 94.3939C-28.5782 94.3939 -27.4442 93.9349 -26.5262 93.0169C-25.6082 92.0989 -25.1492 90.9559 -25.1492 89.5879C-25.1492 88.2199 -25.6082 87.0769 -26.5262 86.1589C-27.4442 85.2409 -28.5782 84.7819 -29.9282 84.7819C-31.2602 84.7819 -32.3852 85.2409 -33.3032 86.1589C-34.2212 87.0769 -34.6802 88.2199 -34.6802 89.5879C-34.6802 90.9559 -34.2212 92.0989 -33.3032 93.0169C-32.3852 93.9349 -31.2602 94.3939 -29.9282 94.3939ZM-3.93899 82.8379H-1.58999V96.3379H-3.93899V90.6949H-10.932V96.3379H-13.281V82.8379H-10.932V88.4539H-3.93899V82.8379ZM13.1636 82.8379H15.5126V96.3379H13.1636V94.0159C11.9936 95.7979 10.2926 96.6889 8.06061 96.6889C6.17061 96.6889 4.55961 96.0049 3.22761 94.6369C1.89561 93.2509 1.22961 91.5679 1.22961 89.5879C1.22961 87.6079 1.89561 85.9339 3.22761 84.5659C4.55961 83.1799 6.17061 82.4869 8.06061 82.4869C10.2926 82.4869 11.9936 83.3779 13.1636 85.1599V82.8379ZM8.35761 94.4209C9.72561 94.4209 10.8686 93.9619 11.7866 93.0439C12.7046 92.1079 13.1636 90.9559 13.1636 89.5879C13.1636 88.2199 12.7046 87.0769 11.7866 86.1589C10.8686 85.2229 9.72561 84.7549 8.35761 84.7549C7.00761 84.7549 5.87361 85.2229 4.95561 86.1589C4.03761 87.0769 3.57861 88.2199 3.57861 89.5879C3.57861 90.9559 4.03761 92.1079 4.95561 93.0439C5.87361 93.9619 7.00761 94.4209 8.35761 94.4209ZM25.4166 96.6889C23.3826 96.6889 21.6906 96.0139 20.3406 94.6639C18.9906 93.2959 18.3156 91.6039 18.3156 89.5879C18.3156 87.5719 18.9906 85.8889 20.3406 84.5389C21.6906 83.1709 23.3826 82.4869 25.4166 82.4869C26.7486 82.4869 27.9456 82.8109 29.0076 83.4589C30.0696 84.0889 30.8616 84.9439 31.3836 86.0239L29.4126 87.1579C29.0706 86.4379 28.5396 85.8619 27.8196 85.4299C27.1176 84.9979 26.3166 84.7819 25.4166 84.7819C24.0666 84.7819 22.9326 85.2409 22.0146 86.1589C21.1146 87.0769 20.6646 88.2199 20.6646 89.5879C20.6646 90.9379 21.1146 92.0719 22.0146 92.9899C22.9326 93.9079 24.0666 94.3669 25.4166 94.3669C26.3166 94.3669 27.1266 94.1599 27.8466 93.7459C28.5666 93.3139 29.1156 92.7379 29.4936 92.0179L31.4916 93.1789C30.9156 94.2409 30.0876 95.0959 29.0076 95.7439C27.9276 96.3739 26.7306 96.6889 25.4166 96.6889Z" fill="#FFF5ED"/>
<path d="M-24.8792 126.637C-26.2652 128.005 -27.9482 128.689 -29.9282 128.689C-31.9082 128.689 -33.5912 128.005 -34.9772 126.637C-36.3452 125.269 -37.0292 123.586 -37.0292 121.588C-37.0292 119.59 -36.3452 117.907 -34.9772 116.539C-33.5912 115.171 -31.9082 114.487 -29.9282 114.487C-27.9482 114.487 -26.2652 115.171 -24.8792 116.539C-23.4932 117.907 -22.8002 119.59 -22.8002 121.588C-22.8002 123.586 -23.4932 125.269 -24.8792 126.637ZM-29.9282 126.394C-28.5782 126.394 -27.4442 125.935 -26.5262 125.017C-25.6082 124.099 -25.1492 122.956 -25.1492 121.588C-25.1492 120.22 -25.6082 119.077 -26.5262 118.159C-27.4442 117.241 -28.5782 116.782 -29.9282 116.782C-31.2602 116.782 -32.3852 117.241 -33.3032 118.159C-34.2212 119.077 -34.6802 120.22 -34.6802 121.588C-34.6802 122.956 -34.2212 124.099 -33.3032 125.017C-32.3852 125.935 -31.2602 126.394 -29.9282 126.394ZM-3.93899 114.838H-1.58999V128.338H-3.93899V122.695H-10.932V128.338H-13.281V114.838H-10.932V120.454H-3.93899V114.838ZM13.1636 114.838H15.5126V128.338H13.1636V126.016C11.9936 127.798 10.2926 128.689 8.06061 128.689C6.17061 128.689 4.55961 128.005 3.22761 126.637C1.89561 125.251 1.22961 123.568 1.22961 121.588C1.22961 119.608 1.89561 117.934 3.22761 116.566C4.55961 115.18 6.17061 114.487 8.06061 114.487C10.2926 114.487 11.9936 115.378 13.1636 117.16V114.838ZM8.35761 126.421C9.72561 126.421 10.8686 125.962 11.7866 125.044C12.7046 124.108 13.1636 122.956 13.1636 121.588C13.1636 120.22 12.7046 119.077 11.7866 118.159C10.8686 117.223 9.72561 116.755 8.35761 116.755C7.00761 116.755 5.87361 117.223 4.95561 118.159C4.03761 119.077 3.57861 120.22 3.57861 121.588C3.57861 122.956 4.03761 124.108 4.95561 125.044C5.87361 125.962 7.00761 126.421 8.35761 126.421ZM25.4166 128.689C23.3826 128.689 21.6906 128.014 20.3406 126.664C18.9906 125.296 18.3156 123.604 18.3156 121.588C18.3156 119.572 18.9906 117.889 20.3406 116.539C21.6906 115.171 23.3826 114.487 25.4166 114.487C26.7486 114.487 27.9456 114.811 29.0076 115.459C30.0696 116.089 30.8616 116.944 31.3836 118.024L29.4126 119.158C29.0706 118.438 28.5396 117.862 27.8196 117.43C27.1176 116.998 26.3166 116.782 25.4166 116.782C24.0666 116.782 22.9326 117.241 22.0146 118.159C21.1146 119.077 20.6646 120.22 20.6646 121.588C20.6646 122.938 21.1146 124.072 22.0146 124.99C22.9326 125.908 24.0666 126.367 25.4166 126.367C26.3166 126.367 27.1266 126.16 27.8466 125.746C28.5666 125.314 29.1156 124.738 29.4936 124.018L31.4916 125.179C30.9156 126.241 30.0876 127.096 29.0076 127.744C27.9276 128.374 26.7306 128.689 25.4166 128.689Z" fill="#FFF5ED"/>
</g>
</g>
<defs>
<clipPath id="clip0">
<rect width="116" height="116" fill="white" transform="translate(0.660156 0.337891)"/>
</clipPath>
</defs>
</svg>
