<svg width="158" height="160" viewBox="0 0 158 160" fill="none" xmlns="http://www.w3.org/2000/svg">
<g clip-path="url(#clip0)">
<circle cx="79.001" cy="79.7168" r="79" fill="#E88568"/>
<mask id="mask0" mask-type="alpha" maskUnits="userSpaceOnUse" x="0" y="0" width="159" height="159">
<circle cx="79.001" cy="79.7168" r="79" fill="white"/>
</mask>
<g mask="url(#mask0)">
<path d="M-3.44552 86.5566H-7.00952L-14.5335 78.7356V86.5566H-17.4045V70.0566H-14.5335V77.3496L-7.40552 70.0566H-3.70952L-11.5965 78.0426L-3.44552 86.5566ZM-0.277262 79.6266C0.00873834 81.1006 0.679738 82.2446 1.73574 83.0586C2.81374 83.8726 4.13374 84.2796 5.69574 84.2796C7.87374 84.2796 9.45774 83.4766 10.4477 81.8706L12.8897 83.2566C11.2837 85.7426 8.86374 86.9856 5.62974 86.9856C3.01174 86.9856 0.877738 86.1716 -0.772262 84.5436C-2.40026 82.8936 -3.21426 80.8146 -3.21426 78.3066C-3.21426 75.8206 -2.41126 73.7526 -0.805261 72.1026C0.800739 70.4526 2.87974 69.6276 5.43174 69.6276C7.85174 69.6276 9.82074 70.4856 11.3387 72.2016C12.8787 73.8956 13.6487 75.9416 13.6487 78.3396C13.6487 78.7576 13.6157 79.1866 13.5497 79.6266H-0.277262ZM5.43174 72.3336C3.89174 72.3336 2.61574 72.7736 1.60374 73.6536C0.591739 74.5116 -0.0352614 75.6666 -0.277262 77.1186H10.7447C10.5027 75.5566 9.88674 74.3686 8.89674 73.5546C7.90674 72.7406 6.75174 72.3336 5.43174 72.3336ZM19.655 67.5816V65.0736H28.565V67.5816H19.655ZM28.928 70.0566H31.238V86.5566H28.4V74.9736L19.259 86.5566H16.949V70.0566H19.787V81.6396L28.928 70.0566ZM43.3632 86.9856C40.8772 86.9856 38.8092 86.1606 37.1592 84.5106C35.5092 82.8386 34.6842 80.7706 34.6842 78.3066C34.6842 75.8426 35.5092 73.7856 37.1592 72.1356C38.8092 70.4636 40.8772 69.6276 43.3632 69.6276C44.9912 69.6276 46.4542 70.0236 47.7522 70.8156C49.0502 71.5856 50.0182 72.6306 50.6562 73.9506L48.2472 75.3366C47.8292 74.4566 47.1802 73.7526 46.3002 73.2246C45.4422 72.6966 44.4632 72.4326 43.3632 72.4326C41.7132 72.4326 40.3272 72.9936 39.2052 74.1156C38.1052 75.2376 37.5552 76.6346 37.5552 78.3066C37.5552 79.9566 38.1052 81.3426 39.2052 82.4646C40.3272 83.5866 41.7132 84.1476 43.3632 84.1476C44.4632 84.1476 45.4532 83.8946 46.3332 83.3886C47.2132 82.8606 47.8842 82.1566 48.3462 81.2766L50.7882 82.6956C50.0842 83.9936 49.0722 85.0386 47.7522 85.8306C46.4322 86.6006 44.9692 86.9856 43.3632 86.9856ZM60.6181 75.9966C62.2681 75.9966 63.6321 76.4916 64.7101 77.4816C65.8101 78.4496 66.3601 79.7146 66.3601 81.2766C66.3601 82.8386 65.8101 84.1146 64.7101 85.1046C63.6321 86.0726 62.2681 86.5566 60.6181 86.5566H53.6551V70.0566H56.5261V75.9966H60.6181ZM68.5051 70.0566H71.3761V86.5566H68.5051V70.0566ZM60.6181 83.8836C61.4321 83.8836 62.1141 83.6526 62.6641 83.1906C63.2361 82.7066 63.5221 82.0686 63.5221 81.2766C63.5221 80.4846 63.2361 79.8466 62.6641 79.3626C62.1141 78.8786 61.4321 78.6366 60.6181 78.6366H56.5261V83.8836H60.6181Z" fill="#FFF5ED"/>
<path d="M43.5545 125.557H39.9905L32.4665 117.736V125.557H29.5955V109.057H32.4665V116.35L39.5945 109.057H43.2905L35.4035 117.043L43.5545 125.557ZM46.7227 118.627C47.0087 120.101 47.6797 121.245 48.7357 122.059C49.8137 122.873 51.1337 123.28 52.6957 123.28C54.8737 123.28 56.4577 122.477 57.4477 120.871L59.8897 122.257C58.2837 124.743 55.8637 125.986 52.6297 125.986C50.0117 125.986 47.8777 125.172 46.2277 123.544C44.5997 121.894 43.7857 119.815 43.7857 117.307C43.7857 114.821 44.5887 112.753 46.1947 111.103C47.8007 109.453 49.8797 108.628 52.4317 108.628C54.8517 108.628 56.8207 109.486 58.3387 111.202C59.8787 112.896 60.6487 114.942 60.6487 117.34C60.6487 117.758 60.6157 118.187 60.5497 118.627H46.7227ZM52.4317 111.334C50.8917 111.334 49.6157 111.774 48.6037 112.654C47.5917 113.512 46.9647 114.667 46.7227 116.119H57.7447C57.5027 114.557 56.8867 113.369 55.8967 112.555C54.9067 111.741 53.7517 111.334 52.4317 111.334ZM66.655 106.582V104.074H75.565V106.582H66.655ZM75.928 109.057H78.238V125.557H75.4V113.974L66.259 125.557H63.949V109.057H66.787V120.64L75.928 109.057ZM90.3632 125.986C87.8772 125.986 85.8092 125.161 84.1592 123.511C82.5092 121.839 81.6842 119.771 81.6842 117.307C81.6842 114.843 82.5092 112.786 84.1592 111.136C85.8092 109.464 87.8772 108.628 90.3632 108.628C91.9912 108.628 93.4542 109.024 94.7522 109.816C96.0502 110.586 97.0182 111.631 97.6562 112.951L95.2472 114.337C94.8292 113.457 94.1802 112.753 93.3002 112.225C92.4422 111.697 91.4632 111.433 90.3632 111.433C88.7132 111.433 87.3272 111.994 86.2052 113.116C85.1052 114.238 84.5552 115.635 84.5552 117.307C84.5552 118.957 85.1052 120.343 86.2052 121.465C87.3272 122.587 88.7132 123.148 90.3632 123.148C91.4632 123.148 92.4532 122.895 93.3332 122.389C94.2132 121.861 94.8842 121.157 95.3462 120.277L97.7882 121.696C97.0842 122.994 96.0722 124.039 94.7522 124.831C93.4322 125.601 91.9692 125.986 90.3632 125.986ZM107.618 114.997C109.268 114.997 110.632 115.492 111.71 116.482C112.81 117.45 113.36 118.715 113.36 120.277C113.36 121.839 112.81 123.115 111.71 124.105C110.632 125.073 109.268 125.557 107.618 125.557H100.655V109.057H103.526V114.997H107.618ZM115.505 109.057H118.376V125.557H115.505V109.057ZM107.618 122.884C108.432 122.884 109.114 122.653 109.664 122.191C110.236 121.707 110.522 121.069 110.522 120.277C110.522 119.485 110.236 118.847 109.664 118.363C109.114 117.879 108.432 117.637 107.618 117.637H103.526V122.884H107.618Z" fill="#FFF5ED"/>
<path d="M100.554 164.557H96.9905L89.4665 156.736V164.557H86.5955V148.057H89.4665V155.35L96.5945 148.057H100.29L92.4035 156.043L100.554 164.557ZM103.723 157.627C104.009 159.101 104.68 160.245 105.736 161.059C106.814 161.873 108.134 162.28 109.696 162.28C111.874 162.28 113.458 161.477 114.448 159.871L116.89 161.257C115.284 163.743 112.864 164.986 109.63 164.986C107.012 164.986 104.878 164.172 103.228 162.544C101.6 160.894 100.786 158.815 100.786 156.307C100.786 153.821 101.589 151.753 103.195 150.103C104.801 148.453 106.88 147.628 109.432 147.628C111.852 147.628 113.821 148.486 115.339 150.202C116.879 151.896 117.649 153.942 117.649 156.34C117.649 156.758 117.616 157.187 117.55 157.627H103.723ZM109.432 150.334C107.892 150.334 106.616 150.774 105.604 151.654C104.592 152.512 103.965 153.667 103.723 155.119H114.745C114.503 153.557 113.887 152.369 112.897 151.555C111.907 150.741 110.752 150.334 109.432 150.334ZM123.655 145.582V143.074H132.565V145.582H123.655ZM132.928 148.057H135.238V164.557H132.4V152.974L123.259 164.557H120.949V148.057H123.787V159.64L132.928 148.057ZM147.363 164.986C144.877 164.986 142.809 164.161 141.159 162.511C139.509 160.839 138.684 158.771 138.684 156.307C138.684 153.843 139.509 151.786 141.159 150.136C142.809 148.464 144.877 147.628 147.363 147.628C148.991 147.628 150.454 148.024 151.752 148.816C153.05 149.586 154.018 150.631 154.656 151.951L152.247 153.337C151.829 152.457 151.18 151.753 150.3 151.225C149.442 150.697 148.463 150.433 147.363 150.433C145.713 150.433 144.327 150.994 143.205 152.116C142.105 153.238 141.555 154.635 141.555 156.307C141.555 157.957 142.105 159.343 143.205 160.465C144.327 161.587 145.713 162.148 147.363 162.148C148.463 162.148 149.453 161.895 150.333 161.389C151.213 160.861 151.884 160.157 152.346 159.277L154.788 160.696C154.084 161.994 153.072 163.039 151.752 163.831C150.432 164.601 148.969 164.986 147.363 164.986ZM164.618 153.997C166.268 153.997 167.632 154.492 168.71 155.482C169.81 156.45 170.36 157.715 170.36 159.277C170.36 160.839 169.81 162.115 168.71 163.105C167.632 164.073 166.268 164.557 164.618 164.557H157.655V148.057H160.526V153.997H164.618ZM172.505 148.057H175.376V164.557H172.505V148.057ZM164.618 161.884C165.432 161.884 166.114 161.653 166.664 161.191C167.236 160.707 167.522 160.069 167.522 159.277C167.522 158.485 167.236 157.847 166.664 157.363C166.114 156.879 165.432 156.637 164.618 156.637H160.526V161.884H164.618Z" fill="#FFF5ED"/>
<path d="M80.8943 47.5566H77.3303L69.8063 39.7356V47.5566H66.9353V31.0566H69.8063V38.3496L76.9343 31.0566H80.6303L72.7433 39.0426L80.8943 47.5566ZM84.0626 40.6266C84.3486 42.1006 85.0196 43.2446 86.0756 44.0586C87.1536 44.8726 88.4736 45.2796 90.0356 45.2796C92.2136 45.2796 93.7976 44.4766 94.7876 42.8706L97.2296 44.2566C95.6236 46.7426 93.2036 47.9856 89.9696 47.9856C87.3516 47.9856 85.2176 47.1716 83.5676 45.5436C81.9396 43.8936 81.1256 41.8146 81.1256 39.3066C81.1256 36.8206 81.9286 34.7526 83.5346 33.1026C85.1406 31.4526 87.2196 30.6276 89.7716 30.6276C92.1916 30.6276 94.1606 31.4856 95.6786 33.2016C97.2186 34.8956 97.9886 36.9416 97.9886 39.3396C97.9886 39.7576 97.9556 40.1866 97.8896 40.6266H84.0626ZM89.7716 33.3336C88.2316 33.3336 86.9556 33.7736 85.9436 34.6536C84.9316 35.5116 84.3046 36.6666 84.0626 38.1186H95.0846C94.8426 36.5566 94.2266 35.3686 93.2366 34.5546C92.2466 33.7406 91.0916 33.3336 89.7716 33.3336ZM103.995 28.5816V26.0736H112.905V28.5816H103.995ZM113.268 31.0566H115.578V47.5566H112.74V35.9736L103.599 47.5566H101.289V31.0566H104.127V42.6396L113.268 31.0566ZM127.703 47.9856C125.217 47.9856 123.149 47.1606 121.499 45.5106C119.849 43.8386 119.024 41.7706 119.024 39.3066C119.024 36.8426 119.849 34.7856 121.499 33.1356C123.149 31.4636 125.217 30.6276 127.703 30.6276C129.331 30.6276 130.794 31.0236 132.092 31.8156C133.39 32.5856 134.358 33.6306 134.996 34.9506L132.587 36.3366C132.169 35.4566 131.52 34.7526 130.64 34.2246C129.782 33.6966 128.803 33.4326 127.703 33.4326C126.053 33.4326 124.667 33.9936 123.545 35.1156C122.445 36.2376 121.895 37.6346 121.895 39.3066C121.895 40.9566 122.445 42.3426 123.545 43.4646C124.667 44.5866 126.053 45.1476 127.703 45.1476C128.803 45.1476 129.793 44.8946 130.673 44.3886C131.553 43.8606 132.224 43.1566 132.686 42.2766L135.128 43.6956C134.424 44.9936 133.412 46.0386 132.092 46.8306C130.772 47.6006 129.309 47.9856 127.703 47.9856ZM144.958 36.9966C146.608 36.9966 147.972 37.4916 149.05 38.4816C150.15 39.4496 150.7 40.7146 150.7 42.2766C150.7 43.8386 150.15 45.1146 149.05 46.1046C147.972 47.0726 146.608 47.5566 144.958 47.5566H137.995V31.0566H140.866V36.9966H144.958ZM152.845 31.0566H155.716V47.5566H152.845V31.0566ZM144.958 44.8836C145.772 44.8836 146.454 44.6526 147.004 44.1906C147.576 43.7066 147.862 43.0686 147.862 42.2766C147.862 41.4846 147.576 40.8466 147.004 40.3626C146.454 39.8786 145.772 39.6366 144.958 39.6366H140.866V44.8836H144.958Z" fill="#FFF5ED"/>
<path d="M80.8943 8.55664H77.3303L69.8063 0.73564V8.55664H66.9353V-7.94336H69.8063V-0.65036L76.9343 -7.94336H80.6303L72.7433 0.0426401L80.8943 8.55664ZM84.0626 1.62664C84.3486 3.10064 85.0196 4.24464 86.0756 5.05864C87.1536 5.87264 88.4736 6.27964 90.0356 6.27964C92.2136 6.27964 93.7976 5.47664 94.7876 3.87064L97.2296 5.25664C95.6236 7.74264 93.2036 8.98564 89.9696 8.98564C87.3516 8.98564 85.2176 8.17164 83.5676 6.54364C81.9396 4.89364 81.1256 2.81464 81.1256 0.306641C81.1256 -2.17936 81.9286 -4.24736 83.5346 -5.89736C85.1406 -7.54736 87.2196 -8.37236 89.7716 -8.37236C92.1916 -8.37236 94.1606 -7.51436 95.6786 -5.79836C97.2186 -4.10436 97.9886 -2.05836 97.9886 0.33964C97.9886 0.75764 97.9556 1.18664 97.8896 1.62664H84.0626ZM89.7716 -5.66636C88.2316 -5.66636 86.9556 -5.22636 85.9436 -4.34636C84.9316 -3.48836 84.3046 -2.33336 84.0626 -0.88136H95.0846C94.8426 -2.44336 94.2266 -3.63136 93.2366 -4.44536C92.2466 -5.25936 91.0916 -5.66636 89.7716 -5.66636ZM103.995 -10.4184V-12.9264H112.905V-10.4184H103.995ZM113.268 -7.94336H115.578V8.55664H112.74V-3.02636L103.599 8.55664H101.289V-7.94336H104.127V3.63964L113.268 -7.94336ZM127.703 8.98564C125.217 8.98564 123.149 8.16064 121.499 6.51064C119.849 4.83864 119.024 2.77064 119.024 0.306641C119.024 -2.15736 119.849 -4.21436 121.499 -5.86436C123.149 -7.53636 125.217 -8.37236 127.703 -8.37236C129.331 -8.37236 130.794 -7.97636 132.092 -7.18436C133.39 -6.41436 134.358 -5.36936 134.996 -4.04936L132.587 -2.66336C132.169 -3.54336 131.52 -4.24736 130.64 -4.77536C129.782 -5.30336 128.803 -5.56736 127.703 -5.56736C126.053 -5.56736 124.667 -5.00636 123.545 -3.88436C122.445 -2.76236 121.895 -1.36536 121.895 0.306641C121.895 1.95664 122.445 3.34264 123.545 4.46464C124.667 5.58664 126.053 6.14764 127.703 6.14764C128.803 6.14764 129.793 5.89464 130.673 5.38864C131.553 4.86064 132.224 4.15664 132.686 3.27664L135.128 4.69564C134.424 5.99364 133.412 7.03864 132.092 7.83064C130.772 8.60064 129.309 8.98564 127.703 8.98564ZM144.958 -2.00336C146.608 -2.00336 147.972 -1.50836 149.05 -0.51836C150.15 0.44964 150.7 1.71464 150.7 3.27664C150.7 4.83864 150.15 6.11464 149.05 7.10464C147.972 8.07264 146.608 8.55664 144.958 8.55664H137.995V-7.94336H140.866V-2.00336H144.958ZM152.845 -7.94336H155.716V8.55664H152.845V-7.94336ZM144.958 5.88364C145.772 5.88364 146.454 5.65264 147.004 5.19064C147.576 4.70664 147.862 4.06864 147.862 3.27664C147.862 2.48464 147.576 1.84664 147.004 1.36264C146.454 0.87864 145.772 0.63664 144.958 0.63664H140.866V5.88364H144.958Z" fill="#FFF5ED"/>
<path d="M-60.4455 125.557H-64.0095L-71.5335 117.736V125.557H-74.4045V109.057H-71.5335V116.35L-64.4055 109.057H-60.7095L-68.5965 117.043L-60.4455 125.557ZM-57.2773 118.627C-56.9913 120.101 -56.3203 121.245 -55.2643 122.059C-54.1863 122.873 -52.8663 123.28 -51.3043 123.28C-49.1263 123.28 -47.5423 122.477 -46.5523 120.871L-44.1103 122.257C-45.7163 124.743 -48.1363 125.986 -51.3703 125.986C-53.9883 125.986 -56.1223 125.172 -57.7723 123.544C-59.4003 121.894 -60.2143 119.815 -60.2143 117.307C-60.2143 114.821 -59.4113 112.753 -57.8053 111.103C-56.1993 109.453 -54.1203 108.628 -51.5683 108.628C-49.1483 108.628 -47.1793 109.486 -45.6613 111.202C-44.1213 112.896 -43.3513 114.942 -43.3513 117.34C-43.3513 117.758 -43.3843 118.187 -43.4503 118.627H-57.2773ZM-51.5683 111.334C-53.1083 111.334 -54.3843 111.774 -55.3963 112.654C-56.4083 113.512 -57.0353 114.667 -57.2773 116.119H-46.2553C-46.4973 114.557 -47.1133 113.369 -48.1033 112.555C-49.0933 111.741 -50.2483 111.334 -51.5683 111.334ZM-37.345 106.582V104.074H-28.435V106.582H-37.345ZM-28.072 109.057H-25.762V125.557H-28.6V113.974L-37.741 125.557H-40.051V109.057H-37.213V120.64L-28.072 109.057ZM-13.6368 125.986C-16.1228 125.986 -18.1908 125.161 -19.8408 123.511C-21.4908 121.839 -22.3158 119.771 -22.3158 117.307C-22.3158 114.843 -21.4908 112.786 -19.8408 111.136C-18.1908 109.464 -16.1228 108.628 -13.6368 108.628C-12.0088 108.628 -10.5458 109.024 -9.24782 109.816C-7.94982 110.586 -6.98182 111.631 -6.34382 112.951L-8.75282 114.337C-9.17082 113.457 -9.81982 112.753 -10.6998 112.225C-11.5578 111.697 -12.5368 111.433 -13.6368 111.433C-15.2868 111.433 -16.6728 111.994 -17.7948 113.116C-18.8948 114.238 -19.4448 115.635 -19.4448 117.307C-19.4448 118.957 -18.8948 120.343 -17.7948 121.465C-16.6728 122.587 -15.2868 123.148 -13.6368 123.148C-12.5368 123.148 -11.5468 122.895 -10.6668 122.389C-9.78682 121.861 -9.11582 121.157 -8.65382 120.277L-6.21182 121.696C-6.91582 122.994 -7.92782 124.039 -9.24782 124.831C-10.5678 125.601 -12.0308 125.986 -13.6368 125.986ZM3.61805 114.997C5.26805 114.997 6.63205 115.492 7.71005 116.482C8.81005 117.45 9.36005 118.715 9.36005 120.277C9.36005 121.839 8.81005 123.115 7.71005 124.105C6.63205 125.073 5.26805 125.557 3.61805 125.557H-3.34495V109.057H-0.473949V114.997H3.61805ZM11.5051 109.057H14.3761V125.557H11.5051V109.057ZM3.61805 122.884C4.43205 122.884 5.11405 122.653 5.66405 122.191C6.23605 121.707 6.52205 121.069 6.52205 120.277C6.52205 119.485 6.23605 118.847 5.66405 118.363C5.11405 117.879 4.43205 117.637 3.61805 117.637H-0.473949V122.884H3.61805Z" fill="#FFF5ED"/>
<path d="M-3.44552 164.557H-7.00952L-14.5335 156.736V164.557H-17.4045V148.057H-14.5335V155.35L-7.40552 148.057H-3.70952L-11.5965 156.043L-3.44552 164.557ZM-0.277262 157.627C0.00873834 159.101 0.679738 160.245 1.73574 161.059C2.81374 161.873 4.13374 162.28 5.69574 162.28C7.87374 162.28 9.45774 161.477 10.4477 159.871L12.8897 161.257C11.2837 163.743 8.86374 164.986 5.62974 164.986C3.01174 164.986 0.877738 164.172 -0.772262 162.544C-2.40026 160.894 -3.21426 158.815 -3.21426 156.307C-3.21426 153.821 -2.41126 151.753 -0.805261 150.103C0.800739 148.453 2.87974 147.628 5.43174 147.628C7.85174 147.628 9.82074 148.486 11.3387 150.202C12.8787 151.896 13.6487 153.942 13.6487 156.34C13.6487 156.758 13.6157 157.187 13.5497 157.627H-0.277262ZM5.43174 150.334C3.89174 150.334 2.61574 150.774 1.60374 151.654C0.591739 152.512 -0.0352614 153.667 -0.277262 155.119H10.7447C10.5027 153.557 9.88674 152.369 8.89674 151.555C7.90674 150.741 6.75174 150.334 5.43174 150.334ZM19.655 145.582V143.074H28.565V145.582H19.655ZM28.928 148.057H31.238V164.557H28.4V152.974L19.259 164.557H16.949V148.057H19.787V159.64L28.928 148.057ZM43.3632 164.986C40.8772 164.986 38.8092 164.161 37.1592 162.511C35.5092 160.839 34.6842 158.771 34.6842 156.307C34.6842 153.843 35.5092 151.786 37.1592 150.136C38.8092 148.464 40.8772 147.628 43.3632 147.628C44.9912 147.628 46.4542 148.024 47.7522 148.816C49.0502 149.586 50.0182 150.631 50.6562 151.951L48.2472 153.337C47.8292 152.457 47.1802 151.753 46.3002 151.225C45.4422 150.697 44.4632 150.433 43.3632 150.433C41.7132 150.433 40.3272 150.994 39.2052 152.116C38.1052 153.238 37.5552 154.635 37.5552 156.307C37.5552 157.957 38.1052 159.343 39.2052 160.465C40.3272 161.587 41.7132 162.148 43.3632 162.148C44.4632 162.148 45.4532 161.895 46.3332 161.389C47.2132 160.861 47.8842 160.157 48.3462 159.277L50.7882 160.696C50.0842 161.994 49.0722 163.039 47.7522 163.831C46.4322 164.601 44.9692 164.986 43.3632 164.986ZM60.6181 153.997C62.2681 153.997 63.6321 154.492 64.7101 155.482C65.8101 156.45 66.3601 157.715 66.3601 159.277C66.3601 160.839 65.8101 162.115 64.7101 163.105C63.6321 164.073 62.2681 164.557 60.6181 164.557H53.6551V148.057H56.5261V153.997H60.6181ZM68.5051 148.057H71.3761V164.557H68.5051V148.057ZM60.6181 161.884C61.4321 161.884 62.1141 161.653 62.6641 161.191C63.2361 160.707 63.5221 160.069 63.5221 159.277C63.5221 158.485 63.2361 157.847 62.6641 157.363C62.1141 156.879 61.4321 156.637 60.6181 156.637H56.5261V161.884H60.6181Z" fill="#FFF5ED"/>
<path d="M-23.1057 47.5566H-26.6697L-34.1937 39.7356V47.5566H-37.0647V31.0566H-34.1937V38.3496L-27.0657 31.0566H-23.3697L-31.2567 39.0426L-23.1057 47.5566ZM-19.9374 40.6266C-19.6514 42.1006 -18.9804 43.2446 -17.9244 44.0586C-16.8464 44.8726 -15.5264 45.2796 -13.9644 45.2796C-11.7864 45.2796 -10.2024 44.4766 -9.21242 42.8706L-6.77042 44.2566C-8.37642 46.7426 -10.7964 47.9856 -14.0304 47.9856C-16.6484 47.9856 -18.7824 47.1716 -20.4324 45.5436C-22.0604 43.8936 -22.8744 41.8146 -22.8744 39.3066C-22.8744 36.8206 -22.0714 34.7526 -20.4654 33.1026C-18.8594 31.4526 -16.7804 30.6276 -14.2284 30.6276C-11.8084 30.6276 -9.83942 31.4856 -8.32142 33.2016C-6.78142 34.8956 -6.01142 36.9416 -6.01142 39.3396C-6.01142 39.7576 -6.04442 40.1866 -6.11042 40.6266H-19.9374ZM-14.2284 33.3336C-15.7684 33.3336 -17.0444 33.7736 -18.0564 34.6536C-19.0684 35.5116 -19.6954 36.6666 -19.9374 38.1186H-8.91542C-9.15742 36.5566 -9.77342 35.3686 -10.7634 34.5546C-11.7534 33.7406 -12.9084 33.3336 -14.2284 33.3336ZM-0.00516009 28.5816V26.0736H8.90484V28.5816H-0.00516009ZM9.26784 31.0566H11.5778V47.5566H8.73984V35.9736L-0.40116 47.5566H-2.71116V31.0566H0.12684V42.6396L9.26784 31.0566ZM23.703 47.9856C21.217 47.9856 19.149 47.1606 17.499 45.5106C15.849 43.8386 15.024 41.7706 15.024 39.3066C15.024 36.8426 15.849 34.7856 17.499 33.1356C19.149 31.4636 21.217 30.6276 23.703 30.6276C25.331 30.6276 26.794 31.0236 28.092 31.8156C29.39 32.5856 30.358 33.6306 30.996 34.9506L28.587 36.3366C28.169 35.4566 27.52 34.7526 26.64 34.2246C25.782 33.6966 24.803 33.4326 23.703 33.4326C22.053 33.4326 20.667 33.9936 19.545 35.1156C18.445 36.2376 17.895 37.6346 17.895 39.3066C17.895 40.9566 18.445 42.3426 19.545 43.4646C20.667 44.5866 22.053 45.1476 23.703 45.1476C24.803 45.1476 25.793 44.8946 26.673 44.3886C27.553 43.8606 28.224 43.1566 28.686 42.2766L31.128 43.6956C30.424 44.9936 29.412 46.0386 28.092 46.8306C26.772 47.6006 25.309 47.9856 23.703 47.9856ZM40.9579 36.9966C42.6079 36.9966 43.9719 37.4916 45.0499 38.4816C46.1499 39.4496 46.6999 40.7146 46.6999 42.2766C46.6999 43.8386 46.1499 45.1146 45.0499 46.1046C43.9719 47.0726 42.6079 47.5566 40.9579 47.5566H33.9949V31.0566H36.8659V36.9966H40.9579ZM48.8449 31.0566H51.7159V47.5566H48.8449V31.0566ZM40.9579 44.8836C41.7719 44.8836 42.4539 44.6526 43.0039 44.1906C43.5759 43.7066 43.8619 43.0686 43.8619 42.2766C43.8619 41.4846 43.5759 40.8466 43.0039 40.3626C42.4539 39.8786 41.7719 39.6366 40.9579 39.6366H36.8659V44.8836H40.9579Z" fill="#FFF5ED"/>
<path d="M-23.1057 8.55664H-26.6697L-34.1937 0.73564V8.55664H-37.0647V-7.94336H-34.1937V-0.65036L-27.0657 -7.94336H-23.3697L-31.2567 0.0426401L-23.1057 8.55664ZM-19.9374 1.62664C-19.6514 3.10064 -18.9804 4.24464 -17.9244 5.05864C-16.8464 5.87264 -15.5264 6.27964 -13.9644 6.27964C-11.7864 6.27964 -10.2024 5.47664 -9.21242 3.87064L-6.77042 5.25664C-8.37642 7.74264 -10.7964 8.98564 -14.0304 8.98564C-16.6484 8.98564 -18.7824 8.17164 -20.4324 6.54364C-22.0604 4.89364 -22.8744 2.81464 -22.8744 0.306641C-22.8744 -2.17936 -22.0714 -4.24736 -20.4654 -5.89736C-18.8594 -7.54736 -16.7804 -8.37236 -14.2284 -8.37236C-11.8084 -8.37236 -9.83942 -7.51436 -8.32142 -5.79836C-6.78142 -4.10436 -6.01142 -2.05836 -6.01142 0.33964C-6.01142 0.75764 -6.04442 1.18664 -6.11042 1.62664H-19.9374ZM-14.2284 -5.66636C-15.7684 -5.66636 -17.0444 -5.22636 -18.0564 -4.34636C-19.0684 -3.48836 -19.6954 -2.33336 -19.9374 -0.88136H-8.91542C-9.15742 -2.44336 -9.77342 -3.63136 -10.7634 -4.44536C-11.7534 -5.25936 -12.9084 -5.66636 -14.2284 -5.66636ZM-0.00516009 -10.4184V-12.9264H8.90484V-10.4184H-0.00516009ZM9.26784 -7.94336H11.5778V8.55664H8.73984V-3.02636L-0.40116 8.55664H-2.71116V-7.94336H0.12684V3.63964L9.26784 -7.94336ZM23.703 8.98564C21.217 8.98564 19.149 8.16064 17.499 6.51064C15.849 4.83864 15.024 2.77064 15.024 0.306641C15.024 -2.15736 15.849 -4.21436 17.499 -5.86436C19.149 -7.53636 21.217 -8.37236 23.703 -8.37236C25.331 -8.37236 26.794 -7.97636 28.092 -7.18436C29.39 -6.41436 30.358 -5.36936 30.996 -4.04936L28.587 -2.66336C28.169 -3.54336 27.52 -4.24736 26.64 -4.77536C25.782 -5.30336 24.803 -5.56736 23.703 -5.56736C22.053 -5.56736 20.667 -5.00636 19.545 -3.88436C18.445 -2.76236 17.895 -1.36536 17.895 0.306641C17.895 1.95664 18.445 3.34264 19.545 4.46464C20.667 5.58664 22.053 6.14764 23.703 6.14764C24.803 6.14764 25.793 5.89464 26.673 5.38864C27.553 4.86064 28.224 4.15664 28.686 3.27664L31.128 4.69564C30.424 5.99364 29.412 7.03864 28.092 7.83064C26.772 8.60064 25.309 8.98564 23.703 8.98564ZM40.9579 -2.00336C42.6079 -2.00336 43.9719 -1.50836 45.0499 -0.51836C46.1499 0.44964 46.6999 1.71464 46.6999 3.27664C46.6999 4.83864 46.1499 6.11464 45.0499 7.10464C43.9719 8.07264 42.6079 8.55664 40.9579 8.55664H33.9949V-7.94336H36.8659V-2.00336H40.9579ZM48.8449 -7.94336H51.7159V8.55664H48.8449V-7.94336ZM40.9579 5.88364C41.7719 5.88364 42.4539 5.65264 43.0039 5.19064C43.5759 4.70664 43.8619 4.06864 43.8619 3.27664C43.8619 2.48464 43.5759 1.84664 43.0039 1.36264C42.4539 0.87864 41.7719 0.63664 40.9579 0.63664H36.8659V5.88364H40.9579Z" fill="#FFF5ED"/>
<path d="M100.554 86.5566H96.9905L89.4665 78.7356V86.5566H86.5955V70.0566H89.4665V77.3496L96.5945 70.0566H100.29L92.4035 78.0426L100.554 86.5566ZM103.723 79.6266C104.009 81.1006 104.68 82.2446 105.736 83.0586C106.814 83.8726 108.134 84.2796 109.696 84.2796C111.874 84.2796 113.458 83.4766 114.448 81.8706L116.89 83.2566C115.284 85.7426 112.864 86.9856 109.63 86.9856C107.012 86.9856 104.878 86.1716 103.228 84.5436C101.6 82.8936 100.786 80.8146 100.786 78.3066C100.786 75.8206 101.589 73.7526 103.195 72.1026C104.801 70.4526 106.88 69.6276 109.432 69.6276C111.852 69.6276 113.821 70.4856 115.339 72.2016C116.879 73.8956 117.649 75.9416 117.649 78.3396C117.649 78.7576 117.616 79.1866 117.55 79.6266H103.723ZM109.432 72.3336C107.892 72.3336 106.616 72.7736 105.604 73.6536C104.592 74.5116 103.965 75.6666 103.723 77.1186H114.745C114.503 75.5566 113.887 74.3686 112.897 73.5546C111.907 72.7406 110.752 72.3336 109.432 72.3336ZM123.655 67.5816V65.0736H132.565V67.5816H123.655ZM132.928 70.0566H135.238V86.5566H132.4V74.9736L123.259 86.5566H120.949V70.0566H123.787V81.6396L132.928 70.0566ZM147.363 86.9856C144.877 86.9856 142.809 86.1606 141.159 84.5106C139.509 82.8386 138.684 80.7706 138.684 78.3066C138.684 75.8426 139.509 73.7856 141.159 72.1356C142.809 70.4636 144.877 69.6276 147.363 69.6276C148.991 69.6276 150.454 70.0236 151.752 70.8156C153.05 71.5856 154.018 72.6306 154.656 73.9506L152.247 75.3366C151.829 74.4566 151.18 73.7526 150.3 73.2246C149.442 72.6966 148.463 72.4326 147.363 72.4326C145.713 72.4326 144.327 72.9936 143.205 74.1156C142.105 75.2376 141.555 76.6346 141.555 78.3066C141.555 79.9566 142.105 81.3426 143.205 82.4646C144.327 83.5866 145.713 84.1476 147.363 84.1476C148.463 84.1476 149.453 83.8946 150.333 83.3886C151.213 82.8606 151.884 82.1566 152.346 81.2766L154.788 82.6956C154.084 83.9936 153.072 85.0386 151.752 85.8306C150.432 86.6006 148.969 86.9856 147.363 86.9856ZM164.618 75.9966C166.268 75.9966 167.632 76.4916 168.71 77.4816C169.81 78.4496 170.36 79.7146 170.36 81.2766C170.36 82.8386 169.81 84.1146 168.71 85.1046C167.632 86.0726 166.268 86.5566 164.618 86.5566H157.655V70.0566H160.526V75.9966H164.618ZM172.505 70.0566H175.376V86.5566H172.505V70.0566ZM164.618 83.8836C165.432 83.8836 166.114 83.6526 166.664 83.1906C167.236 82.7066 167.522 82.0686 167.522 81.2766C167.522 80.4846 167.236 79.8466 166.664 79.3626C166.114 78.8786 165.432 78.6366 164.618 78.6366H160.526V83.8836H164.618Z" fill="#FFF5ED"/>
<path d="M147.554 125.557H143.99L136.466 117.736V125.557H133.595V109.057H136.466V116.35L143.594 109.057H147.29L139.403 117.043L147.554 125.557ZM150.723 118.627C151.009 120.101 151.68 121.245 152.736 122.059C153.814 122.873 155.134 123.28 156.696 123.28C158.874 123.28 160.458 122.477 161.448 120.871L163.89 122.257C162.284 124.743 159.864 125.986 156.63 125.986C154.012 125.986 151.878 125.172 150.228 123.544C148.6 121.894 147.786 119.815 147.786 117.307C147.786 114.821 148.589 112.753 150.195 111.103C151.801 109.453 153.88 108.628 156.432 108.628C158.852 108.628 160.821 109.486 162.339 111.202C163.879 112.896 164.649 114.942 164.649 117.34C164.649 117.758 164.616 118.187 164.55 118.627H150.723ZM156.432 111.334C154.892 111.334 153.616 111.774 152.604 112.654C151.592 113.512 150.965 114.667 150.723 116.119H161.745C161.503 114.557 160.887 113.369 159.897 112.555C158.907 111.741 157.752 111.334 156.432 111.334ZM170.655 106.582V104.074H179.565V106.582H170.655ZM179.928 109.057H182.238V125.557H179.4V113.974L170.259 125.557H167.949V109.057H170.787V120.64L179.928 109.057ZM194.363 125.986C191.877 125.986 189.809 125.161 188.159 123.511C186.509 121.839 185.684 119.771 185.684 117.307C185.684 114.843 186.509 112.786 188.159 111.136C189.809 109.464 191.877 108.628 194.363 108.628C195.991 108.628 197.454 109.024 198.752 109.816C200.05 110.586 201.018 111.631 201.656 112.951L199.247 114.337C198.829 113.457 198.18 112.753 197.3 112.225C196.442 111.697 195.463 111.433 194.363 111.433C192.713 111.433 191.327 111.994 190.205 113.116C189.105 114.238 188.555 115.635 188.555 117.307C188.555 118.957 189.105 120.343 190.205 121.465C191.327 122.587 192.713 123.148 194.363 123.148C195.463 123.148 196.453 122.895 197.333 122.389C198.213 121.861 198.884 121.157 199.346 120.277L201.788 121.696C201.084 122.994 200.072 124.039 198.752 124.831C197.432 125.601 195.969 125.986 194.363 125.986ZM211.618 114.997C213.268 114.997 214.632 115.492 215.71 116.482C216.81 117.45 217.36 118.715 217.36 120.277C217.36 121.839 216.81 123.115 215.71 124.105C214.632 125.073 213.268 125.557 211.618 125.557H204.655V109.057H207.526V114.997H211.618ZM219.505 109.057H222.376V125.557H219.505V109.057ZM211.618 122.884C212.432 122.884 213.114 122.653 213.664 122.191C214.236 121.707 214.522 121.069 214.522 120.277C214.522 119.485 214.236 118.847 213.664 118.363C213.114 117.879 212.432 117.637 211.618 117.637H207.526V122.884H211.618Z" fill="#FFF5ED"/>
</g>
</g>
<defs>
<clipPath id="clip0">
<rect width="158" height="159" fill="white" transform="translate(0.000976562 0.556641)"/>
</clipPath>
</defs>
</svg>
