<svg width="205" height="181" viewBox="0 0 205 181" fill="none" xmlns="http://www.w3.org/2000/svg">
<path d="M34.3246 140.508C29.1727 138.933 24.2849 137.109 19.9123 135.442C19.5688 135.337 18.8819 135.127 18.0233 134.864C9.65473 132.141 1.55022 129.168 2.6245 125.04C2.96041 123.327 5.51592 122.953 9.11466 122.237C9.50426 122.191 9.89387 122.145 10.1117 122.047C13.1492 121.325 16.1866 120.603 19.224 119.881C24.9092 118.483 30.72 117.289 36.4052 115.891C37.0127 115.747 37.7919 115.655 38.5711 115.563C39.9578 115.327 41.5162 115.143 41.4829 114.638C41.5291 114.487 41.6214 114.185 41.4163 113.627C40.8013 111.953 39.4532 110.221 38.1051 108.488C37.6822 108.029 37.4311 107.622 37.0082 107.163C34.5632 104.104 33.5638 100.003 32.7695 96.4586L32.4518 95.041C30.2149 85.7743 34.1987 76.4289 38.203 68.245C42.5636 59.5099 48.4569 51.9036 55.5727 45.8265C66.9462 36.2644 81.8488 31.7427 96.2105 28.3759C106.32 26.0199 116.226 27.3981 125.743 28.8222C126.992 29.0388 128.24 29.2554 129.362 29.2685C131.344 29.5441 133.279 29.9707 134.996 30.4957C136.027 30.8107 137.103 30.9748 138.305 31.3423C163.852 36.842 187.308 60.8488 188.304 82.7752C188.905 96.1633 188.253 111.809 178.486 125.328C169.742 137.345 151.54 147.13 134.1 148.896C131.201 149.165 128.302 149.434 125.45 149.552C123.502 149.782 121.428 149.808 119.48 150.037C92.0488 152.544 64.5079 147.425 41.5039 142.208C39.3047 142.031 36.7288 141.243 34.3246 140.508Z" fill="#F9F9F9" stroke="black"/>
</svg>
