<svg width="173" height="137" viewBox="0 0 173 137" fill="none" xmlns="http://www.w3.org/2000/svg">
<path d="M35.832 135.682C30.4447 135.682 25.237 135.366 20.5681 135.051C20.2089 135.051 19.4906 135.051 18.5928 135.051C9.7936 134.893 1.17401 134.419 0.994436 130.158C0.814861 128.421 3.14933 127.317 6.38168 125.58C6.74083 125.422 7.09998 125.265 7.27956 125.107C9.97318 123.528 12.6668 121.95 15.3604 120.371C20.3885 117.372 25.5962 114.531 30.6243 111.532C31.163 111.217 31.8813 110.901 32.5996 110.585C33.8566 109.954 35.2932 109.323 35.1137 108.849C35.1137 108.691 35.1137 108.376 34.7545 107.902C33.6771 106.481 31.8813 105.219 30.0856 103.956C29.5468 103.64 29.1877 103.325 28.649 103.009C25.4166 100.799 23.2617 97.1687 21.466 94.0119L20.7477 92.7492C15.8991 84.5414 16.9766 74.4395 18.4132 65.4426C20.0294 55.8142 23.4413 46.8172 28.4694 38.9251C36.5503 26.4556 49.4796 17.7743 62.2295 10.3558C71.2082 5.14701 81.0848 3.56859 90.6023 2.14801C91.8593 1.99017 93.1163 1.83233 94.1938 1.51664C96.1691 1.20096 98.1444 1.04312 99.9402 1.04312C101.018 1.04312 102.095 0.885277 103.352 0.885277C129.39 -1.32451 158.841 14.7754 166.203 35.4526C170.693 48.08 174.643 63.2328 169.256 79.0169C164.408 93.0649 149.862 107.744 133.7 114.531C131.007 115.636 128.313 116.741 125.619 117.688C123.824 118.477 121.848 119.109 120.053 119.898C94.5529 130.316 66.7188 133.472 43.1945 135.209C41.0396 135.682 38.346 135.682 35.832 135.682Z" fill="#F9F9F9" stroke="black"/>
</svg>
