<svg width="161" height="136" viewBox="0 0 161 136" fill="none" xmlns="http://www.w3.org/2000/svg">
<path d="M72.2711 133.621C72.1104 133.618 72.1104 133.618 71.9496 133.615C71.1485 133.44 70.3559 132.783 70.0512 131.813C69.7493 130.682 69.9325 129.398 70.2737 128.279C73.0257 118.034 77.8593 108.308 84.281 99.7361C84.4445 99.5781 84.4501 99.2565 84.4558 98.935C84.3062 98.2891 83.8323 97.7984 83.1948 97.4656C81.9171 96.9608 80.3065 97.0935 78.6932 97.387C66.6043 98.945 54.7127 98.4158 43.0156 95.9601C33.7216 94.0289 26.2158 91.0031 19.8551 86.8715C12.2221 81.9136 6.71295 75.0629 4.1089 67.6196C2.11707 61.9561 1.58623 55.514 2.53321 47.3286C3.68868 36.4128 6.88368 28.4275 12.1266 22.8902C16.3853 18.4616 22.0629 15.6659 27.0861 13.502C52.036 3.00165 80.2302 0.116514 106.837 5.24478C119.499 7.7173 129.563 11.5919 137.831 17.0433C148.005 23.8146 155.077 33.2657 157.791 43.6057C160.966 55.2403 157.853 67.7301 150.156 75.6368C144.098 81.8032 135.685 84.7119 127.753 87.6291C126.295 88.2469 124.679 88.7012 123.221 89.319C120.307 90.3939 117.391 91.6296 114.635 92.8681C108.312 95.8133 102.299 99.4073 97.0839 103.337C91.5418 107.582 86.6372 112.16 82.8497 117.241C80.8727 119.94 79.0565 122.642 77.3982 125.508C76.5691 126.941 75.9007 128.377 75.2296 129.973C75.066 130.131 75.0604 130.453 75.0576 130.614C74.8856 131.254 74.5528 131.891 74.2201 132.529C73.7237 133.324 73.075 133.635 72.2711 133.621Z" fill="#F9F9F9" stroke="black"/>
</svg>
