<svg width="206" height="181" viewBox="0 0 206 181" fill="none" xmlns="http://www.w3.org/2000/svg">
<path d="M34.8544 140.408C29.7025 138.833 24.8147 137.008 20.4421 135.341C20.0986 135.236 19.4117 135.026 18.5531 134.764C10.1845 132.04 2.08001 129.067 3.15429 124.939C3.49019 123.226 6.0457 122.852 9.64444 122.137C10.034 122.091 10.4237 122.045 10.6415 121.946C13.6789 121.225 16.7163 120.503 19.7538 119.781C25.439 118.383 31.2498 117.188 36.935 115.791C37.5425 115.646 38.3217 115.554 39.1009 115.462C40.4876 115.226 42.046 115.042 42.0127 114.537C42.0589 114.386 42.1511 114.084 41.9461 113.526C41.3311 111.853 39.983 110.12 38.6349 108.388C38.212 107.928 37.9609 107.521 37.538 107.062C35.0929 104.004 34.0936 99.9019 33.2993 96.358L32.9816 94.9404C30.7446 85.6737 34.7285 76.3283 38.7328 68.1444C43.0934 59.4093 48.9867 51.803 56.1025 45.7259C67.476 36.1638 82.3786 31.6421 96.7403 28.2753C106.85 25.9193 116.756 27.2975 126.273 28.7216C127.521 28.9382 128.77 29.1548 129.892 29.1679C131.874 29.4435 133.809 29.8701 135.526 30.3951C136.556 30.7102 137.633 30.8742 138.835 31.2418C164.382 36.7414 187.838 60.7482 188.833 82.6746C189.435 96.0627 188.782 111.708 179.016 125.228C170.272 137.244 152.07 147.03 134.63 148.795C131.731 149.064 128.832 149.333 125.979 149.451C124.031 149.681 121.958 149.707 120.01 149.937C92.5786 152.444 65.0377 147.325 42.0337 142.107C39.8345 141.93 37.2586 141.143 34.8544 140.408Z" fill="#F9F9F9" stroke="black"/>
</svg>
