<svg width="33" height="43" viewBox="0 0 33 43" fill="none" xmlns="http://www.w3.org/2000/svg">
<path fill-rule="evenodd" clip-rule="evenodd" d="M10.0151 0H13.4139H33V3.43276H13.4139V19.5326V22.872V22.9653H0V19.5326H9.98113V0H10.0151ZM28.5809 5.57156L23.7009 12.2888L19.0049 5.57156H14.8853L21.9847 15.4269V22.735H25.4173V15.4269L32.7004 5.57156H28.5809ZM10.415 34.1237C10.415 36.9674 8.10974 39.2726 5.26602 39.2726H3.43279V28.9746H5.26602C8.10974 28.9746 10.415 31.28 10.415 34.1237ZM5.26601 25.542H3.05176e-05V42.7052H5.26601C10.0054 42.7052 13.8477 38.8631 13.8477 34.1237C13.8477 29.3841 10.0054 25.542 5.26601 25.542Z" fill="#1B1919"/>
</svg>
