<svg width="140" height="43" viewBox="0 0 140 43" fill="none" xmlns="http://www.w3.org/2000/svg">
<path fill-rule="evenodd" clip-rule="evenodd" d="M85.0151 0H88.4139H139.861V3.43276H88.4139V19.5326V22.872V22.9653H0V19.5326H84.9811V0H85.0151ZM109.012 14.1591C109.012 16.9541 111.286 19.2279 114.081 19.2279C116.876 19.2279 119.149 16.9541 119.149 14.1591C119.149 11.364 116.876 9.09004 114.081 9.09004C111.286 9.09004 109.012 11.364 109.012 14.1591ZM105.368 14.1591C105.368 9.34689 109.268 5.44582 114.081 5.44582C118.893 5.44582 122.794 9.34689 122.794 14.1591C122.794 18.9711 118.893 22.872 114.081 22.872C109.268 22.872 105.368 18.9711 105.368 14.1591ZM18.5232 34.1293C18.5232 36.9244 20.797 39.1982 23.592 39.1982C26.3871 39.1982 28.6609 36.9244 28.6609 34.1293C28.6609 31.3343 26.3871 29.0603 23.592 29.0603C20.797 29.0603 18.5232 31.3343 18.5232 34.1293ZM14.879 34.1293C14.879 29.3172 18.78 25.4163 23.592 25.4163C28.404 25.4163 32.3051 29.3172 32.3051 34.1293C32.3051 38.9415 28.404 42.8424 23.592 42.8424C18.78 42.8424 14.879 38.9415 14.879 34.1293ZM10.415 34.1236C10.415 36.9674 8.10979 39.2726 5.26606 39.2726H3.43283V28.9745H5.26606C8.10979 28.9745 10.415 31.2799 10.415 34.1236ZM5.26606 25.5419H7.34908e-05V42.7051H5.26606C10.0055 42.7051 13.8478 38.863 13.8478 34.1236C13.8478 29.384 10.0055 25.5419 5.26606 25.5419ZM65.0256 25.5419H68.4584V39.2726H75.5492V42.7051H68.4584H65.0256V39.2726V25.5419ZM77.0258 28.9747V25.5419H80.4586H88.4138V28.9747H80.4586V32.4129H86.3867V35.8457H80.4586V39.2726H88.4138V42.7051H80.4586H77.0258V39.2726V35.8457V32.4129V28.9747ZM45.1531 34.1293C45.1531 36.9243 44.1952 39.1981 41.0246 39.1981C37.9944 39.1981 36.8963 36.9243 36.8963 34.1293V25.5419H33.2285V34.1293C33.2285 38.9414 35.3548 42.8423 41.0246 42.8423C46.6647 42.8423 48.8209 38.9414 48.8209 34.1293V25.5419H45.1531V34.1293ZM135.642 14.159C135.642 16.954 134.684 19.2278 131.513 19.2278C128.483 19.2278 127.385 16.954 127.385 14.159V5.5716H123.717V14.159C123.717 18.971 125.843 22.8721 131.513 22.8721C137.153 22.8721 139.309 18.971 139.309 14.159V5.5716H135.642V14.159ZM53.8692 39.2726H58.4698C59.599 39.2726 60.3651 38.4138 60.3651 37.2914C60.3651 36.2462 59.6833 35.3101 58.4698 35.3101H53.8692V39.2726ZM57.1379 28.9747H53.8692V31.8775H57.1291L57.1379 31.8669C57.9116 31.8669 58.5412 31.2374 58.5412 30.4638C58.5412 29.5907 57.9792 28.9747 57.1379 28.9747ZM62.0598 30.4638C62.0598 31.6223 61.5872 32.6034 60.771 33.3158C62.437 33.9263 63.7152 35.128 63.7152 37.335C63.7152 40.6863 61.6045 42.7053 58.4698 42.7053H53.8692H50.4365V39.2726V35.3101V31.8775V28.9747V25.5419H53.8692H57.1379C60.3284 25.5419 62.0598 27.7455 62.0598 30.4638ZM103.581 5.57156L98.7009 12.2888L94.0048 5.57156H89.8853L96.9847 15.4269V22.735H100.417V15.4269L107.7 5.57156H103.581Z" fill="#1B1919"/>
</svg>
