<svg width="551" height="465" viewBox="0 0 551 465" fill="none" xmlns="http://www.w3.org/2000/svg">
<path fill-rule="evenodd" clip-rule="evenodd" d="M292.921 106.533C292.921 106.533 286.859 107.135 286.288 107.56C285.717 107.986 279.477 111.523 279.477 111.523C279.477 111.523 283.854 111.591 285.858 110.931C285.858 110.931 281.909 110.543 272.949 116.387C272.949 116.387 280.943 114.386 282.568 114.11C284.194 113.834 272.953 118.849 271.513 120.268C270.075 121.688 282.702 117.11 284.579 116.544C286.455 115.978 275.234 122.284 275.14 123.574C275.046 124.885 284.926 119.779 286.248 118.961C287.57 118.143 278.713 124.573 278.47 125.587C278.226 126.6 290.025 120.073 296.974 113.4L292.921 106.533Z" fill="#ED9A60"/>
<path fill-rule="evenodd" clip-rule="evenodd" d="M174.147 259.519C181.803 243.304 174.885 182.902 172.699 165.582C188.502 161.188 212.812 150.434 212.812 150.434C239.595 139.79 259.237 123.993 259.237 123.993L255.914 115.771C213.954 136.892 156.583 144.491 153.467 144.892C148.17 144.622 136.272 144.794 125.201 150.391C123.465 151.269 121.76 152.329 120.193 153.803C119.057 154.71 36.7491 220.481 21.9187 232.732L25.6119 240.524C25.6119 240.524 59.8217 224.819 81.9789 207.653C81.9789 207.653 97.8758 199.257 109.25 192.484C105.246 217.13 101.394 248.518 105.817 260.528C109.509 265.941 119.743 267.645 145.315 266.854C170.888 266.064 174.147 259.519 174.147 259.519Z" fill="#6F85E9"/>
<path d="M450.544 144.169L404.08 141.351C404.08 141.351 404.154 141.944 404.339 143.057L394.29 142.649C394.29 142.649 375.007 188.149 373.079 228.05C376.75 278 387.207 337.702 387.207 337.702H398.295C398.295 337.702 404.339 252.747 398.258 228.198C398.258 228.198 405.118 213.884 412.683 196.826C414.352 207.395 416.057 218.223 417.689 228.05C425.18 282.227 437.751 337.702 437.751 337.702H448.838C448.838 337.702 450.025 252.747 443.906 228.198C443.906 228.235 453.436 154.478 450.544 144.169Z" fill="#82836C"/>
<path d="M388.728 337.74L385.835 345.75C385.835 345.75 371.892 350.125 371.744 352.906H395.885C395.885 352.906 397.405 352.573 397.553 350.904C397.702 349.235 397.553 337.777 397.553 337.777H388.728V337.74Z" fill="#5F5B58"/>
<path d="M439.049 337.74L436.156 345.75C436.156 345.75 426.329 350.125 426.181 352.906H446.205C446.205 352.906 447.726 352.573 447.874 350.904C448.022 349.235 447.874 337.777 447.874 337.777H439.049V337.74Z" fill="#5F5B58"/>
<path d="M412.683 196.863L408.715 171.462C408.715 171.462 407.454 197.753 410.68 201.313L412.683 196.863Z" fill="#39332E"/>
<path fill-rule="evenodd" clip-rule="evenodd" d="M395.815 4.03467L380.714 8.10867L385.347 24.5927L400.934 23.0217L395.815 4.03467Z" fill="#ED9A60"/>
<path fill-rule="evenodd" clip-rule="evenodd" d="M421.14 37.1354C406.495 33.0614 386.84 40.1595 386.84 40.1595C386.84 40.1595 383.474 40.7278 380.216 43.8461C379.838 44.1235 313.167 93.0096 292.813 106.351L297.084 113.587C297.084 113.587 325.439 101.007 346.177 90.6994C346.177 90.6994 362.665 83.323 375.386 78.22C377.19 101.082 381.084 139.534 387.332 147.787C387.332 147.787 393.873 154.829 416.72 153.935C439.568 153.041 452.688 148.39 455.58 142.748C458.342 131.661 450.127 95.4297 439.98 68.444C452.853 72.558 471.166 75.9276 471.166 75.9276C485.954 80.599 503.645 85.0694 515.049 87.9513C521.735 89.6408 526.261 90.7844 526.774 91.1023L526.75 91.1863C526.839 91.1749 526.845 91.1466 526.774 91.1023L529.278 82.4209C503.657 68.3898 430.728 40.7511 421.998 37.4585C421.709 37.3221 421.423 37.214 421.14 37.1354Z" fill="#BA562D"/>
<path fill-rule="evenodd" clip-rule="evenodd" d="M386.486 41.116C393.073 42.3168 406.856 35.2041 406.856 35.2041C401.637 24.1431 399.816 20.3086 399.816 20.3086L382.736 17.9634C387.42 30.9334 386.486 41.116 386.486 41.116Z" fill="#ED9A60"/>
<path fill-rule="evenodd" clip-rule="evenodd" d="M393.738 4.59277L380.715 8.10871C380.715 8.10871 380.445 16.3512 383.305 21.7702C384.857 24.7067 387.074 26.8182 390.917 26.2523C395.838 25.1323 397.973 20.5947 397.955 17.7566C397.918 11.6285 393.738 4.59277 393.738 4.59277Z" fill="#ED9A60"/>
<path fill-rule="evenodd" clip-rule="evenodd" d="M384.52 23.726C384.52 23.726 388.76 27.6744 393.84 23.6997C393.84 23.6997 395.007 32.4954 386.178 32.6483C386.178 32.6483 385.681 28.2617 384.52 23.726Z" fill="#BD745D"/>
<path fill-rule="evenodd" clip-rule="evenodd" d="M386.486 41.1159C386.486 41.1159 383.529 49.2406 389.331 51.579C395.133 53.9184 405.238 44.9202 406.856 35.2041C406.856 35.2041 392.093 36.6991 386.486 41.1159Z" fill="#ED9A60"/>
<path fill-rule="evenodd" clip-rule="evenodd" d="M175.447 255.855C175.447 255.855 239.438 272.056 243.166 301.639C246.9 331.263 211.871 375.538 196.712 395.467H183.256C183.256 395.467 203.33 331.052 215.55 314.188C215.55 314.188 142.288 300.089 114.009 264.829L175.447 255.855Z" fill="#F4B35F"/>
<path fill-rule="evenodd" clip-rule="evenodd" d="M105.817 260.528C105.817 260.528 96.5879 291.169 110.523 342.537C110.523 342.537 88.0163 353.991 73.7694 447.977H86.6264C86.6264 447.977 125.953 373.516 135.443 348.632C144.934 323.746 156.791 277.921 157.777 261.12L105.817 260.528Z" fill="#F4B35F"/>
<path fill-rule="evenodd" clip-rule="evenodd" d="M152.021 292.865C152.021 292.865 156.062 276.581 156.356 272.196C156.356 272.196 158.553 289.582 157.298 295.409C157.298 295.409 153.606 293.878 152.021 292.865Z" fill="#282622"/>
<path fill-rule="evenodd" clip-rule="evenodd" d="M375.305 51.9526C375.305 51.9526 372.859 59.4238 374.512 77.6287C374.512 77.6287 371.366 61.883 375.305 51.9526Z" fill="#282622"/>
<path fill-rule="evenodd" clip-rule="evenodd" d="M393.534 9.99725C393.534 9.99725 383.843 10.5865 380.715 8.10878L380.71 8.97169C380.71 8.97169 376.431 7.12315 377.926 1.9554C377.926 1.9554 380.156 3.6228 383.606 3.25075C383.606 3.25075 381.642 3.05206 380.702 1.96125C380.702 1.96125 382.641 3.05986 387.135 1.72555C391.629 0.392225 393.306 -0.17948 394.741 0.355215C394.741 0.355215 396.836 -0.449262 398.546 1.88918C400.207 4.16041 398.591 14.3323 398.901 15.4815C399.212 16.6298 395.103 12.3795 393.534 9.99725Z" fill="#5F5B58"/>
<path fill-rule="evenodd" clip-rule="evenodd" d="M393.381 8.22064C393.381 8.22064 394.35 5.61535 396.676 6.49871C398.599 7.22527 399.547 11.2253 395.359 13.1819C395.359 13.1819 393.225 11.4259 393.381 8.22064Z" fill="#ED9A60"/>
<path fill-rule="evenodd" clip-rule="evenodd" d="M196.441 395.458L196.987 401.46C196.987 401.46 216.613 406.932 219.093 411.337H192.297L187.873 409.059V411.337H180.867C180.867 411.337 181.235 404.018 181.85 402.299L183.584 395.458H196.441Z" fill="#5F5B58"/>
<path fill-rule="evenodd" clip-rule="evenodd" d="M86.6265 447.977L87.1728 453.978C87.1728 453.978 106.799 459.449 109.278 463.854H82.4833L78.0587 461.576V463.854H71.0531C71.0531 463.854 71.4213 456.536 72.0358 454.815L73.7694 447.977H86.6265Z" fill="#5F5B58"/>
<path fill-rule="evenodd" clip-rule="evenodd" d="M139.294 112.771L154.924 113.339L154.124 130.443L138.583 132.423L139.294 112.771Z" fill="#EA8D6F"/>
<path fill-rule="evenodd" clip-rule="evenodd" d="M157.272 147.283C151.269 150.249 136.061 147.199 136.061 147.199C138.039 135.13 138.736 130.941 138.736 130.941L154.512 123.993C153.573 137.75 157.272 147.283 157.272 147.283Z" fill="#EA8D6F"/>
<path fill-rule="evenodd" clip-rule="evenodd" d="M141.443 112.848L154.924 113.339C154.924 113.339 157.043 121.308 155.476 127.233C154.627 130.444 152.941 133 149.07 133.314C144.023 133.332 140.922 129.392 140.3 126.622C138.955 120.643 141.443 112.848 141.443 112.848Z" fill="#EA8D6F"/>
<path fill-rule="evenodd" clip-rule="evenodd" d="M154.383 130.022C154.383 130.022 151.39 134.984 145.413 132.56C145.413 132.56 146.709 141.337 155.241 139.057C155.241 139.057 154.513 134.703 154.383 130.022Z" fill="#BD745D"/>
<path fill-rule="evenodd" clip-rule="evenodd" d="M136.061 147.198C136.061 147.198 140.933 161.714 152.054 160.913C161.786 160.212 157.272 147.282 157.272 147.282C157.272 147.282 148.094 145.896 136.061 147.198Z" fill="#EA8D6F"/>
<path fill-rule="evenodd" clip-rule="evenodd" d="M142.915 119.118C142.915 119.118 153.435 118.792 154.924 113.339C154.924 113.339 155.121 114.132 155.223 114.639C155.223 114.639 157.895 111.442 156.054 109.131C151.587 103.526 142.687 109.487 140.697 110.644C140.697 110.644 138.619 110.288 137.107 111.712C135.594 113.136 136.325 118.793 138.887 123.992C138.887 123.992 142.049 122.076 142.915 119.118Z" fill="#5F5B58"/>
<path fill-rule="evenodd" clip-rule="evenodd" d="M142.568 118.25C142.568 118.25 140.649 116.237 138.86 117.967C137.379 119.393 138.086 123.442 142.705 123.589C142.705 123.589 143.974 121.135 142.568 118.25Z" fill="#EA8D6F"/>
<path fill-rule="evenodd" clip-rule="evenodd" d="M269.146 118.966C272.397 115.852 278.118 108.691 277.778 108.483C277.37 108.231 267.638 116.043 267.638 116.043C268.818 113.899 273.046 101.992 272.298 102.399C271.734 102.707 267.063 110.586 265.512 113.242C267.141 110.214 269.289 104.04 268.874 104.266C268.517 104.46 264.928 109.184 263.807 110.748C264.563 109.387 266.189 105.731 266.189 105.731L265.167 106.29C264.241 106.796 256.015 116.021 256.015 116.021L259.147 123.784C262.753 124.258 270.529 120.932 270.529 120.932C272.225 120.486 274.484 119.858 274.484 119.858C274.484 119.858 270.427 118.947 269.147 118.965L269.146 118.966Z" fill="#EA8D6F"/>
<path fill-rule="evenodd" clip-rule="evenodd" d="M21.9187 232.732C21.9187 232.732 10.7261 237.359 8.29124 239.307C5.85638 241.254 1.7366 247.439 0.743179 249.533C0.221145 250.633 8.53473 244.176 9.26518 243.446C9.26518 243.446 5.6129 249.168 5.6129 251.359C5.6129 252.09 11.2394 245.333 16.7587 242.817C16.7587 242.817 11.6591 248.234 11.5783 249.168C11.5014 250.051 25.0353 242.715 25.6118 240.524L21.9187 232.732Z" fill="#EA8D6F"/>
<path fill-rule="evenodd" clip-rule="evenodd" d="M529.278 82.4209C529.278 82.4209 541.525 86.641 544.934 90.0498C548.343 93.4586 550.534 99.7892 550.534 101.25C550.534 101.25 544.325 93.8238 543.717 92.8499C543.717 92.8499 544.569 98.3283 544.569 100.033C544.569 100.033 537.751 98.4501 535.438 95.163C535.438 95.163 528.775 94.6351 526.75 91.1864L529.278 82.4209Z" fill="#ED9A60"/>
<path fill-rule="evenodd" clip-rule="evenodd" d="M439.979 68.4436C439.979 68.4436 434.328 66.4996 432.916 65.8247C432.916 65.8247 438.702 79.7745 444.886 82.6603C444.886 82.6603 440.94 70.0896 439.979 68.4436Z" fill="#282622"/>
<path fill-rule="evenodd" clip-rule="evenodd" d="M109.25 192.482L117.193 187.464C117.193 187.464 110.675 203.681 107.084 206.763C107.084 206.763 108.837 195.085 109.25 192.482Z" fill="#445BC4"/>
</svg>
