<svg width="745" height="327" viewBox="0 0 745 327" fill="none" xmlns="http://www.w3.org/2000/svg">
<path d="M7.39404 320.436L122.481 249.111L213.062 269.867L317.805 158.416H415.413L542.472 80.4786L574.257 90.5956L733.186 11.832" stroke="#6B845F" stroke-width="2.5"/>
<path fill-rule="evenodd" clip-rule="evenodd" d="M324.206 158.415C324.206 161.95 321.339 164.818 317.804 164.818C314.271 164.818 311.404 161.95 311.404 158.415C311.404 154.88 314.271 152.012 317.804 152.012C321.339 152.012 324.206 154.88 324.206 158.415Z" fill="#6B845F"/>
<path fill-rule="evenodd" clip-rule="evenodd" d="M13.7948 320.435C13.7948 323.971 10.9305 326.838 7.39509 326.838C3.85968 326.838 0.99231 323.971 0.99231 320.435C0.99231 316.9 3.85968 314.033 7.39509 314.033C10.9305 314.033 13.7948 316.9 13.7948 320.435Z" fill="#6B845F"/>
<path fill-rule="evenodd" clip-rule="evenodd" d="M129.422 249.462C129.422 252.998 126.296 255.865 122.439 255.865C118.581 255.865 115.452 252.998 115.452 249.462C115.452 245.927 118.581 243.06 122.439 243.06C126.296 243.06 129.422 245.927 129.422 249.462Z" fill="#6B845F"/>
<path fill-rule="evenodd" clip-rule="evenodd" d="M421.814 158.415C421.814 161.951 418.95 164.818 415.414 164.818C411.879 164.818 409.012 161.951 409.012 158.415C409.012 154.88 411.879 152.013 415.414 152.013C418.95 152.013 421.814 154.88 421.814 158.415Z" fill="#6B845F"/>
<path fill-rule="evenodd" clip-rule="evenodd" d="M547.776 80.4778C547.776 83.4076 545.403 85.7838 542.473 85.7838C539.543 85.7838 537.167 83.4076 537.167 80.4778C537.167 77.5505 539.543 75.1743 542.473 75.1743C545.403 75.1743 547.776 77.5505 547.776 80.4778Z" fill="#6B845F"/>
<path fill-rule="evenodd" clip-rule="evenodd" d="M579.751 90.5952C579.751 93.6295 577.293 96.0878 574.256 96.0878C571.222 96.0878 568.763 93.6295 568.763 90.5952C568.763 87.5609 571.222 85.1025 574.256 85.1025C577.293 85.1025 579.751 87.5609 579.751 90.5952Z" fill="#6B845F"/>
<path fill-rule="evenodd" clip-rule="evenodd" d="M744.246 11.8318C744.246 17.9397 739.294 22.8911 733.186 22.8911C727.078 22.8911 722.127 17.9397 722.127 11.8318C722.127 5.72392 727.078 0.772461 733.186 0.772461C739.294 0.772461 744.246 5.72392 744.246 11.8318Z" fill="#6B845F"/>
<path fill-rule="evenodd" clip-rule="evenodd" d="M740.173 11.8327C740.173 15.6904 737.044 18.8159 733.186 18.8159C729.328 18.8159 726.2 15.6904 726.2 11.8327C726.2 7.97498 729.328 4.84619 733.186 4.84619C737.044 4.84619 740.173 7.97498 740.173 11.8327Z" fill="#FFF5ED"/>
</svg>
