<svg width="29" height="17" viewBox="0 0 29 17" fill="none" xmlns="http://www.w3.org/2000/svg">
<path d="M28.3847 14.6274C28.3093 14.5012 27.8431 13.4882 25.5996 11.4059C23.2509 9.22548 23.5664 9.57953 26.3953 5.80938C28.1183 3.51329 28.8071 2.11109 28.5915 1.51165C28.3864 0.940258 27.1192 1.09099 27.1192 1.09099L22.9056 1.11553C22.9056 1.11553 22.5936 1.07347 22.3605 1.21193C22.1344 1.34865 21.9889 1.66414 21.9889 1.66414C21.9889 1.66414 21.3211 3.44142 20.4307 4.95229C18.5535 8.14053 17.8016 8.30879 17.4949 8.11073C16.7815 7.64976 16.9603 6.25633 16.9603 5.26778C16.9603 2.1777 17.4283 0.889428 16.0471 0.556407C15.5879 0.445984 15.2514 0.372368 14.0788 0.360099C12.5749 0.344325 11.3007 0.365358 10.5803 0.717659C10.1 0.952527 9.73022 1.4766 9.95632 1.50639C10.235 1.5432 10.866 1.67641 11.2008 2.13212C11.6337 2.71929 11.6179 4.04086 11.6179 4.04086C11.6179 4.04086 11.8668 7.67781 11.0378 8.13001C10.4681 8.44025 9.68815 7.80751 8.01428 4.91373C7.15719 3.43266 6.50868 1.79384 6.50868 1.79384C6.50868 1.79384 6.38423 1.48887 6.16163 1.32586C5.89171 1.1278 5.51312 1.0647 5.51312 1.0647L1.50634 1.08924C1.50634 1.08924 0.905153 1.10677 0.684307 1.36793C0.488 1.60104 0.668533 2.08129 0.668533 2.08129C0.668533 2.08129 3.80595 9.42003 7.35701 13.1201C10.6154 16.5116 14.3136 16.289 14.3136 16.289H15.9893C15.9893 16.289 16.4958 16.233 16.7535 15.9543C16.9918 15.6984 16.9831 15.2181 16.9831 15.2181C16.9831 15.2181 16.9498 12.9693 17.9944 12.6381C19.0233 12.3121 20.3448 14.8115 21.7453 15.7737C22.8039 16.5011 23.6084 16.3416 23.6084 16.3416L27.3541 16.289C27.3541 16.289 29.3136 16.1681 28.3847 14.6274Z" fill="#D3A58D"/>
</svg>
