<svg width="278" height="96" viewBox="0 0 278 96" fill="none" xmlns="http://www.w3.org/2000/svg">
<g clip-path="url(#clip0)">
<circle cx="21" cy="67.5" r="6.5" fill="#1B1919" stroke="#D3A58D" stroke-width="2"/>
<circle cx="270" cy="30.5" r="6.5" fill="#D3A58D" stroke="#1B1919" stroke-width="2"/>
<path d="M34.3763 57.7629C77.3169 19.6461 128.85 100.57 207.22 75.9123" stroke="#1B1919" stroke-width="2" stroke-dasharray="14"/>
<path fill-rule="evenodd" clip-rule="evenodd" d="M200.915 52.5351L252.92 39.8365L219.439 66.6167L200.915 52.5351Z" fill="#1B1919"/>
<path fill-rule="evenodd" clip-rule="evenodd" d="M256.951 38.7061L198.616 53.0642L219.367 68.8743L256.951 38.7061ZM249.274 42.4984L219.338 66.5285L202.809 53.9353L249.274 42.4984Z" fill="#D3A58D"/>
<path fill-rule="evenodd" clip-rule="evenodd" d="M256.657 38.593L219.286 68.9788L230.014 92.6343L256.657 38.593Z" fill="#D3A58D"/>
<path d="M9.076 57L8.164 54.488H3.124L2.212 57H0.628L4.804 45.8H6.484L10.66 57H9.076ZM3.636 53.096H7.652L5.636 47.576L3.636 53.096Z" fill="#D3A58D"/>
<path d="M256.908 12.2C257.879 12.2 258.7 12.5307 259.372 13.192C260.044 13.8427 260.38 14.6427 260.38 15.592C260.38 16.5627 260.044 17.3733 259.372 18.024C258.711 18.6747 257.889 19 256.908 19H252.7V7.8H259.42V9.208H254.188V12.2H256.908ZM256.908 17.608C257.463 17.608 257.932 17.416 258.316 17.032C258.711 16.648 258.908 16.168 258.908 15.592C258.908 15.0267 258.711 14.552 258.316 14.168C257.932 13.784 257.463 13.592 256.908 13.592H254.188V17.608H256.908Z" fill="#D3A58D"/>
</g>
<defs>
<clipPath id="clip0">
<rect width="277" height="96" fill="white" transform="translate(0.5)"/>
</clipPath>
</defs>
</svg>
