<svg width="250" height="224" viewBox="0 0 250 224" fill="none" xmlns="http://www.w3.org/2000/svg">
<path d="M201.637 204.122C158.432 242.58 103.841 219.624 59.004 179.719C14.167 139.815 -15.2423 67.8304 27.963 51.1046C49.1021 43.1311 70.6862 56.5934 82.4795 49.8808C99.2425 40.3126 81.7007 22.4 97.0544 8.52978C120.382 -12.5351 170.819 4.82117 211.428 78.4C248.811 146.082 220.44 187.433 201.637 204.122Z" fill="#6F85E9"/>
<ellipse cx="198.188" cy="199.078" rx="50.5113" ry="9.04901" fill="white"/>
<ellipse cx="71.465" cy="198.336" rx="61.2662" ry="8.5298" fill="white"/>
<path d="M129.06 65.5684H186.766C186.766 65.5684 183.02 52.8108 172.45 52.8108C161.881 52.8108 161.288 63.3062 149.828 60.0797C138.85 56.9644 129.653 59.7459 129.06 65.5684Z" fill="white"/>
<path d="M171.746 82.1087H194.999C194.999 82.1087 193.478 75.1736 189.213 75.1736C184.948 75.1736 184.726 80.8848 180.09 79.1047C175.714 77.4358 172.005 78.9564 171.746 82.1087Z" fill="white"/>
<path d="M39.608 152.609C39.608 152.387 39.3855 152.201 39.163 152.201C38.9404 152.201 37.4199 151.979 37.3828 152.201C26.4424 151.089 11.608 145.229 8.52985 144.042C7.04641 137.33 5.71131 130.209 4.59873 122.94C1.70601 104.138 0.556343 86.2252 1.33515 72.2808C3.15237 72.7258 15.9842 75.9152 25.5895 75.3589C25.5895 75.396 25.6265 75.4331 25.6265 75.4702C25.7007 75.6927 25.9232 75.804 26.1457 75.7298C26.3683 75.6556 26.4795 75.4331 26.4053 75.2106C23.5868 66.5695 20.5828 59.5232 17.653 54.8503C14.5007 49.8066 11.5338 47.4331 8.82654 47.8411C6.5272 48.1748 4.63581 50.5113 3.22654 54.7391C1.89144 58.7073 1.00138 64.2331 0.556343 71.1311C-0.333723 85.298 0.815946 103.73 3.78283 123.089C6.74972 142.448 11.2001 160.397 16.2808 173.637C18.7656 180.09 21.2875 185.097 23.7352 188.472C26.1457 191.772 28.408 193.441 30.559 193.441C30.7815 193.441 30.9669 193.441 31.1524 193.404C34.3047 192.922 36.6411 188.842 38.0875 181.24C39.4967 174.082 40.0159 164.217 39.608 152.609Z" fill="#191919"/>
<path d="M222.813 135.475C225.038 136.848 233.568 144.042 233.865 156.948C233.865 156.948 234.495 165.181 230.268 173.266C230.268 173.266 228.97 175.603 232.826 180.869C236.721 186.135 240.652 192.922 240.503 193.812C240.355 194.702 236.016 197.743 236.016 197.743C236.016 197.743 233.791 195.258 231.714 197.038C231.38 197.261 228.673 196.63 228.673 196.63L225.335 192.885C225.335 192.885 226.04 198.967 225.076 199.746C224.111 200.524 219.624 200.376 219.624 200.376L218.845 200.154C218.845 200.154 218.289 196.89 215.804 197.928L213.727 196.074L212.615 179.126L208.313 178.977C208.313 178.977 197.706 179.311 193.515 175.306C193.515 175.306 191.921 177.939 193.107 181.314C194.294 184.689 198.077 192.736 198.077 192.736C198.077 192.736 199.375 195.703 198.967 196.482C198.559 197.261 196.074 198.41 196.074 198.41L192.143 199.931C192.143 199.931 190.474 196.408 188.546 197.595L186.543 195.926C186.543 195.926 179.534 179.385 178.718 175.38C178.718 175.38 175.269 179.942 175.751 184.095C176.233 188.249 177.976 202.305 177.976 202.305C177.976 202.305 173.489 203.083 171.746 202.861C171.746 202.861 171.672 199.597 168.964 199.82C168.964 199.82 167.444 197.335 166.405 197.038C166.405 197.038 163.698 181.944 164.254 176.01C164.811 170.04 171.115 157.319 171.115 157.319C171.115 157.319 165.923 159.173 163.624 159.248C161.325 159.322 158.766 159.322 158.766 159.322C158.766 159.322 151.83 167.963 144.562 168.705C137.293 169.446 129.987 166.368 127.91 158.432C125.462 149.049 127.428 139.74 126.389 137.181L131.433 131.21C131.433 131.21 133.287 135.772 132.805 139.518C132.323 143.263 134.103 158.283 142.299 158.283C148.27 158.283 149.568 146.156 150.681 143.041C151.793 139.926 154.983 132.509 160.917 132.991C166.887 133.473 168.334 135.216 170.893 134.993C171.226 134.771 174.713 126.946 182.649 128.911C190.623 130.84 190.066 140.742 190.066 140.742L202.193 134.585C202.119 134.622 213.69 129.801 222.813 135.475Z" fill="#6B845F"/>
<path d="M217.139 168.297C217.473 168.593 217.584 169.113 217.621 169.558C217.844 171.894 217.621 174.305 218.215 176.604C218.437 177.42 218.808 178.31 219.55 178.681C220.032 178.94 220.588 178.94 221.144 179.052C221.701 179.163 222.22 179.46 222.405 179.979C222.628 180.758 221.923 181.425 221.515 182.093C220.922 183.131 221.144 184.466 221.664 185.542C222.22 186.617 223.073 187.47 223.852 188.397C224.63 189.325 225.372 190.326 225.595 191.513C225.632 191.846 225.52 192.291 225.224 192.217C225.113 192.217 225.075 192.143 225.001 192.069C223.963 191.105 222.887 190.103 222.294 188.768C222.146 188.434 222.034 188.101 221.812 187.804C221.626 187.581 221.367 187.396 221.144 187.211C220.514 186.654 220.069 185.876 219.661 185.134C218.956 183.873 218.252 182.649 217.547 181.388C217.287 180.906 216.991 180.387 216.805 179.868C216.509 179.052 216.434 178.125 216.36 177.234C216.212 175.269 216.026 173.266 215.841 171.264C215.767 170.856 215.507 166.925 217.139 168.297Z" fill="white"/>
<circle cx="159.73" cy="143.264" r="3.22649" fill="white"/>
<path d="M168.259 199.004C168.334 199.152 168.371 199.375 168.519 199.449C168.63 199.523 168.742 199.56 168.853 199.56C169.446 199.671 170.003 199.857 170.559 200.079C170.818 200.191 171.041 200.302 171.226 200.524C171.486 200.858 171.56 201.303 171.56 201.711C171.56 201.971 171.597 202.193 171.597 202.49C171.597 202.527 171.597 202.601 171.56 202.638C171.523 202.675 171.449 202.713 171.412 202.713C169.669 203.12 167.814 203.083 166.071 202.601C165.886 202.564 165.663 202.49 165.515 202.342C165.367 202.156 165.293 201.897 165.256 201.674C165.107 200.376 165.367 199.041 165.96 197.891C166.294 197.224 166.591 197.113 167.184 197.595C167.703 197.966 168.037 198.448 168.259 199.004Z" fill="white"/>
<path d="M188.694 197.484C188.879 197.484 189.028 197.446 189.213 197.446C189.881 197.372 190.585 197.558 191.142 198.003C191.698 198.448 192.032 199.078 192.143 199.746C192.143 199.783 192.143 199.857 192.143 199.894C192.106 199.968 192.032 200.005 191.995 200.042C190.289 200.858 188.397 201.452 186.506 201.266C186.395 201.266 186.246 201.229 186.135 201.155C186.024 201.118 185.987 201.007 185.913 200.895C185.69 200.488 185.69 200.042 185.69 199.597C185.727 198.856 185.727 196.816 186.506 196.445C187.285 196.037 187.915 197.446 188.694 197.484Z" fill="white"/>
<path d="M215.322 197.669C215.396 197.78 215.507 197.891 215.619 197.891C215.693 197.891 215.767 197.891 215.804 197.891C216.286 197.817 216.805 197.78 217.25 197.929C217.473 198.003 217.695 198.151 217.918 198.262C218.437 198.633 218.919 199.152 218.919 199.783C218.919 199.931 218.882 200.08 218.808 200.154C218.734 200.191 218.623 200.228 218.548 200.265C216.731 200.525 214.84 200.265 213.023 200.005C212.911 200.005 212.837 199.968 212.763 199.931C212.652 199.894 212.615 199.783 212.54 199.672C212.318 199.115 212.577 198.485 212.874 197.966C213.097 197.595 213.282 197.187 213.505 196.816C213.764 196.334 214.024 196.519 214.395 196.779C214.728 197.039 215.062 197.335 215.322 197.669Z" fill="white"/>
<path d="M233.939 196.519C234.681 196.667 235.311 197.15 235.905 197.632C235.682 197.854 235.497 198.077 235.274 198.299C234.977 198.633 234.681 198.967 234.31 199.226C233.939 199.486 233.531 199.708 233.123 199.931C232.641 200.191 232.196 200.45 231.714 200.71C231.343 200.895 230.935 201.118 230.527 201.118C230.49 201.118 230.416 201.118 230.379 201.081C230.342 201.044 230.342 201.044 230.305 200.969C229.785 199.968 229.266 198.93 228.932 197.854C228.895 197.743 228.858 197.595 228.895 197.483C228.932 197.409 228.97 197.335 229.007 197.224C229.044 197.112 229.007 197.038 228.932 197.001C229.415 196.853 229.934 196.853 230.453 196.89C230.861 196.927 231.343 197.112 231.714 197.038C232.048 197.001 232.344 196.705 232.678 196.556C233.049 196.445 233.494 196.408 233.939 196.519Z" fill="white"/>
<path d="M126.983 140.593C126.983 140.593 128.911 141.15 128.466 146.49C128.021 151.83 128.911 166.516 141.669 169.298C141.669 169.298 133.324 169.001 129.022 161.918C125.611 156.281 126.797 146.527 126.797 146.527L126.983 140.593Z" fill="white"/>
<path d="M150.903 144.45C150.903 144.45 154.241 136.254 158.654 135.475C163.068 134.734 165.404 136.588 167.703 134.919C167.703 134.919 162.066 132.063 159.211 133.361C156.355 134.697 152.276 136.885 150.903 144.45Z" fill="white"/>
<path d="M170.448 137.367C170.448 137.367 172.895 132.175 178.903 131.025C184.948 129.875 188.731 134.215 188.731 134.215C188.731 134.215 186.803 127.391 178.681 128.874C170.559 130.32 170.448 137.367 170.448 137.367Z" fill="white"/>
<path d="M174.638 159.136C174.638 159.136 177.42 159.396 178.236 163.438C179.052 167.444 180.572 177.42 182.649 181.722C184.726 186.024 189.287 194.034 186.469 195.963C186.469 195.963 181.425 184.392 180.016 179.905C178.644 175.417 177.716 170.003 177.716 170.003C177.716 170.003 175.343 159.878 174.638 159.136Z" fill="white"/>
<path d="M169.187 161.436C169.187 161.436 170.373 162.734 169.632 164.403C168.89 166.072 165.701 172.413 165.589 177.309C165.404 184.689 170.003 197.261 166.368 197.076C166.368 197.076 164.106 183.613 164.032 178.607C163.921 173.637 166.109 167.258 169.187 161.436Z" fill="white"/>
<path fill-rule="evenodd" clip-rule="evenodd" d="M156.095 143.301C156.095 141.298 157.727 139.666 159.73 139.666C161.732 139.666 163.364 141.298 163.364 143.301C163.364 145.303 161.732 146.935 159.73 146.935C157.727 146.935 156.095 145.303 156.095 143.301ZM157.134 144.302C157.542 145.34 158.543 146.082 159.73 146.082C161.25 146.082 162.511 144.821 162.511 143.301C162.511 142.225 161.918 141.298 161.028 140.816C161.065 140.927 161.065 141.038 161.065 141.15C161.065 142.93 159.619 144.376 157.838 144.376C157.616 144.376 157.356 144.339 157.134 144.302Z" fill="#191919"/>
<path fill-rule="evenodd" clip-rule="evenodd" d="M225.78 192.699C225.78 192.477 225.558 192.291 225.335 192.328C225.113 192.328 224.927 192.551 224.964 192.774C225.187 195.629 225.261 198.856 224.964 199.449C224.668 199.672 222.924 200.005 219.29 200.042C219.179 198.93 218.734 198.114 218.066 197.706C217.176 197.15 216.138 197.335 215.73 197.483L215.73 197.483C215.619 197.335 215.507 197.187 215.359 197.038C214.877 196.519 214.395 196.148 214.098 196C214.098 195.295 214.024 193.626 213.875 191.587C213.764 188.583 214.358 186.432 215.656 185.208C216.969 184.001 218.589 184.119 218.757 184.132L218.757 184.132C218.765 184.132 218.769 184.132 218.771 184.132C218.919 184.17 219.105 184.095 219.179 183.947C219.253 183.799 219.253 183.65 219.179 183.502C217.844 181.388 217.065 178.087 217.065 178.05C217.028 177.828 216.805 177.717 216.583 177.717L212.318 178.458H212.281H212.244H212.207H212.17C212.17 178.458 212.132 178.458 212.132 178.495H212.095C212.095 178.495 212.058 178.495 212.058 178.532L212.021 178.57C212.021 178.57 212.021 178.607 211.984 178.607V178.644V178.681V178.718V178.755V178.829L213.06 191.921V191.995C213.208 194.146 213.282 195.703 213.245 195.963C213.222 196.102 213.126 196.285 213.012 196.502L213.012 196.502C212.944 196.632 212.869 196.775 212.8 196.927C212.207 198.04 211.502 199.449 212.244 200.154C212.689 200.599 215.248 200.784 217.881 200.784C219.958 200.784 222.109 200.673 223.295 200.562C225.075 200.339 225.483 200.079 225.632 199.82C226.262 198.893 225.891 193.738 225.78 192.699ZM213.542 197.409C213.58 197.332 213.619 197.259 213.656 197.19C213.726 197.058 213.79 196.937 213.838 196.816C214.506 197.298 215.804 198.448 215.804 200.042C214.172 199.968 213.06 199.82 212.8 199.672C212.54 199.338 213.208 198.04 213.542 197.409ZM216.175 198.188C216.509 198.781 216.657 199.412 216.657 200.042C217.213 200.079 217.807 200.079 218.437 200.079C218.326 199.264 218.029 198.707 217.584 198.411C217.139 198.077 216.546 198.114 216.175 198.188Z" fill="#191919"/>
<path fill-rule="evenodd" clip-rule="evenodd" d="M179.014 175.714C179.126 175.528 179.089 175.269 178.903 175.158C178.792 175.083 178.644 175.083 178.532 175.12C178.384 175.083 178.199 175.12 178.087 175.232C178.087 175.232 176.493 177.049 174.75 177.049C174.193 177.049 173.674 176.826 173.155 176.604L173.143 176.599C172.367 176.266 171.519 175.903 170.781 176.604C169.706 177.605 170.893 179.089 172.302 180.795L172.363 180.869C173.012 181.662 173.69 182.49 174.193 183.354C174.861 184.429 175.343 185.987 175.714 187.581C176.034 190.657 176.548 193.817 176.706 194.786L176.706 194.786C176.731 194.939 176.747 195.038 176.752 195.073C176.752 195.091 176.761 195.119 176.771 195.147C176.78 195.175 176.789 195.203 176.789 195.221C176.869 195.951 176.952 196.684 177.03 197.385L177.03 197.385C177.28 199.604 177.494 201.51 177.494 202.045C177.049 202.268 175.158 202.601 171.968 202.713C171.931 201.6 171.56 200.71 170.893 200.154C170.151 199.486 169.224 199.449 168.779 199.449C168.074 198.003 167.036 197.075 166.591 196.742C166.556 196.397 166.458 195.766 166.236 194.342L166.236 194.342L166.183 193.997C165.441 189.473 164.106 180.98 164.44 176.307C164.885 170.003 171.338 157.579 171.412 157.468C171.523 157.245 171.449 157.022 171.226 156.911C171.004 156.8 170.781 156.874 170.67 157.097C170.66 157.118 170.639 157.158 170.609 157.217C169.904 158.6 164.051 170.08 163.624 176.27C163.307 180.804 164.523 188.701 165.251 193.429L165.251 193.43C165.291 193.691 165.33 193.942 165.367 194.183C165.589 195.481 165.775 196.705 165.775 196.927C165.763 196.961 165.749 197.013 165.73 197.076C165.689 197.22 165.629 197.426 165.552 197.632C165.107 198.893 164.365 201.007 164.922 202.638C165.07 203.046 165.589 203.417 168.259 203.566C168.816 203.603 169.409 203.603 170.003 203.603C171.189 203.603 172.524 203.566 173.748 203.454C178.054 203.123 178.16 202.646 178.234 202.312L178.236 202.305C178.31 201.86 178.087 199.56 177.42 194.071L177.405 193.913C177.331 193.093 177.22 191.867 177.012 190.511C176.567 186.58 176.196 182.797 176.27 182.056C176.752 179.237 179.014 175.714 179.014 175.714ZM165.775 202.23C165.336 200.915 166.014 198.952 166.388 197.866L166.405 197.817C166.424 197.78 166.433 197.743 166.442 197.706C166.452 197.669 166.461 197.632 166.479 197.595C167.258 198.299 168.816 200.079 168.667 202.638C166.887 202.601 165.96 202.379 165.775 202.23ZM169.187 200.228C169.409 200.932 169.558 201.748 169.52 202.675H171.189C171.152 201.785 170.893 201.118 170.41 200.71C170.003 200.376 169.52 200.265 169.187 200.228Z" fill="#191919"/>
<path d="M174.268 143.894C174.305 144.895 174.416 145.934 174.787 146.861C175.158 147.788 175.788 148.678 176.678 149.16C177.568 149.605 178.755 149.605 179.534 148.938C179.942 148.604 180.201 148.122 180.387 147.64C180.758 146.713 180.943 145.674 180.758 144.673C180.609 143.671 180.053 142.707 179.274 142.114C178.57 141.558 177.568 141.224 177.309 140.371C177.16 139.889 177.272 139.332 177.42 138.813C177.531 138.294 177.642 137.738 177.383 137.293C177.123 136.736 176.344 136.588 175.899 136.996C175.417 137.441 175.046 138.331 174.824 138.924C174.193 140.445 174.156 142.188 174.268 143.894Z" fill="#191919"/>
<path d="M182.501 179.423C181.981 179.423 181.499 179.348 181.017 179.163C180.795 179.089 180.683 178.866 180.758 178.644C180.832 178.421 181.054 178.31 181.277 178.384C182.056 178.644 182.908 178.644 183.687 178.421C183.91 178.347 184.132 178.458 184.207 178.681C184.281 178.903 184.169 179.126 183.947 179.2C183.465 179.348 182.983 179.423 182.501 179.423Z" fill="#191919"/>
<path d="M218.548 179.979C218.326 179.979 218.14 179.793 218.14 179.571C218.14 179.348 218.326 179.163 218.548 179.126C219.513 179.126 220.477 178.792 221.256 178.273C221.441 178.162 221.701 178.199 221.849 178.384C221.96 178.569 221.923 178.829 221.738 178.977C220.811 179.608 219.661 179.942 218.548 179.979Z" fill="#191919"/>
<path d="M220.736 181.611C220.551 181.611 220.366 181.462 220.328 181.277C220.291 181.054 220.44 180.832 220.662 180.795C221.218 180.683 221.738 180.387 222.109 179.979C222.257 179.83 222.517 179.793 222.702 179.979C222.85 180.127 222.887 180.387 222.702 180.572C222.22 181.128 221.552 181.499 220.811 181.648C220.811 181.611 220.773 181.611 220.736 181.611Z" fill="#191919"/>
<path fill-rule="evenodd" clip-rule="evenodd" d="M242.84 172.079C242.803 170.633 242.654 169.298 242.432 168.26C242.246 167.37 241.987 166.813 241.727 166.554C241.356 163.55 240.726 160.546 239.836 157.653L239.65 157.097L239.465 156.54L239.094 155.428L238.649 154.315L238.426 153.759L238.204 153.203L237.722 152.127L237.203 151.052C237.11 150.821 236.99 150.605 236.867 150.385C236.792 150.252 236.716 150.117 236.646 149.976C236.598 149.89 236.55 149.8 236.501 149.71C236.362 149.452 236.218 149.185 236.053 148.938L235.46 147.899L234.792 146.898C234.736 146.824 234.681 146.74 234.625 146.657C234.569 146.574 234.514 146.49 234.458 146.416L234.124 145.934C234.069 145.86 234.013 145.776 233.958 145.693C233.902 145.609 233.846 145.526 233.791 145.452L233.42 144.97C232.456 143.672 231.417 142.448 230.305 141.298C229.192 140.148 228.005 139.036 226.744 138.034C226.606 137.929 226.467 137.821 226.328 137.713C225.833 137.328 225.329 136.935 224.779 136.588L224.26 136.254L224.037 136.106C221.738 134.363 219.179 133.102 216.397 132.434C209.462 130.729 202.935 132.397 198.633 133.955C196.964 134.511 195.852 134.993 195.036 135.401C194.924 135.438 194.85 135.476 194.776 135.513C192.403 136.514 190.622 136.774 190.029 136.848C189.51 134.437 188.546 132.472 187.136 131.025C185.208 129.06 182.538 128.17 179.385 128.466C175.232 128.837 172.784 131.248 171.523 133.213C171.189 133.732 170.893 134.252 170.633 134.734C170.151 134.734 168.334 134.66 165.552 133.658C163.216 132.805 161.028 132.62 159.025 133.139C156.207 133.844 153.907 135.921 152.164 139.258C151.017 141.483 150.163 144.23 149.327 146.917L149.16 147.454C148.233 150.532 147.343 153.462 146.119 155.502C144.821 157.69 143.338 158.469 141.409 158.024C134.808 156.466 133.213 146.045 133.139 142.151V141.187C133.139 138.591 133.102 134.697 131.804 131.248C131.73 131.025 131.47 130.914 131.248 131.025C131.025 131.099 130.914 131.359 131.025 131.581C131.359 132.434 131.581 133.325 131.767 134.215C130.469 137.511 127.314 137.259 126.85 137.222L126.85 137.222C126.823 137.22 126.805 137.219 126.797 137.219V137.144C126.76 136.922 126.538 136.774 126.315 136.811C126.093 136.848 125.944 137.07 125.981 137.293C125.981 137.295 125.984 137.308 125.987 137.333C126.047 137.706 126.519 140.674 126.241 146.972C125.944 153.574 126.464 162.14 133.065 166.776C133.102 166.813 133.176 166.887 133.25 166.887C134.734 167.889 136.477 168.705 138.591 169.261C139.74 169.558 140.89 169.706 142.04 169.706C144.821 169.706 147.64 168.853 150.458 167.184C150.607 167.184 150.718 167.11 150.792 166.962C150.866 166.906 150.94 166.86 151.014 166.813C151.089 166.767 151.163 166.721 151.237 166.665C154.723 164.403 157.393 161.436 158.765 159.878C159.915 159.989 165.218 160.286 170.336 158.024C171.189 157.653 171.968 157.653 172.673 158.024C175.564 159.578 176.8 167.012 177.582 171.714L177.642 172.079C177.716 172.599 177.791 173.081 177.865 173.526C178.758 178.781 184.614 192.849 185.798 195.692L185.798 195.693C185.892 195.919 185.957 196.074 185.987 196.148C186.024 196.334 185.875 197.076 185.764 197.595C185.43 199.078 185.06 200.747 185.764 201.563C185.95 201.748 186.246 201.971 186.765 201.971H186.951C188.768 201.823 190.919 201.192 193.626 200.154L193.923 200.042C196.445 199.078 198.856 198.003 199.449 196.816C199.968 195.815 198.67 192.959 196.482 188.397C195.703 186.803 194.924 185.134 194.368 183.799C193.218 181.017 192.959 178.755 193.589 176.307C194.331 176.752 196.222 177.754 199.301 178.57C201.414 179.126 204.344 179.608 207.979 179.608C210.426 179.608 213.245 179.385 216.323 178.792C217.992 184.948 223.11 190.956 226.225 194.591L226.377 194.77L226.377 194.77C227.349 195.915 228.161 196.871 228.302 197.224C228.427 197.557 228.528 197.878 228.626 198.188C228.703 198.43 228.777 198.665 228.858 198.893C229.303 200.302 229.637 201.34 230.193 201.748C230.305 201.823 230.416 201.86 230.527 201.86H230.675C232.233 201.563 239.91 195.852 240.726 194.554C241.208 193.775 240.058 191.735 235.83 185.171L235.59 184.798C233.315 181.259 230.817 177.376 230.638 176.122C230.536 175.436 230.939 174.149 231.44 172.553L231.442 172.547C231.483 172.418 231.524 172.287 231.565 172.154C232.196 170.225 232.975 167.815 233.531 164.922C233.679 164.329 233.716 163.921 233.716 163.846C234.087 161.436 234.31 158.729 234.124 155.762C233.902 152.164 232.975 148.752 231.491 145.637L231.936 146.193L232.307 146.638L232.641 147.083L232.975 147.528C233.086 147.677 233.197 147.825 233.309 148.011L233.976 148.938L234.607 149.902C234.829 150.236 235.014 150.569 235.2 150.903L235.2 150.903C235.262 151.015 235.328 151.126 235.394 151.237C235.525 151.46 235.657 151.682 235.756 151.905L236.313 152.906L236.832 153.944L237.091 154.464L237.314 154.983L237.759 156.058L238.204 157.134L238.426 157.69L238.612 158.246C239.613 161.028 240.318 163.883 240.763 166.813C240.503 167.073 240.281 167.629 240.169 168.556C240.021 169.595 239.947 170.967 240.021 172.376C240.058 173.823 240.207 175.158 240.429 176.196C240.689 177.494 241.06 178.05 241.579 178.05H241.616C242.135 178.05 242.432 177.457 242.654 176.122C242.84 174.861 242.877 173.526 242.84 172.079ZM146.824 155.799L146.824 155.799C146.935 155.613 147.046 155.428 147.158 155.205C147.565 155.465 148.752 156.281 149.679 157.764C151.163 160.101 151.311 162.956 150.124 166.22C147.973 167.518 145.86 168.297 143.746 168.556C144.784 167.184 146.49 163.958 144.969 158.135C144.969 158.098 144.932 158.024 144.895 157.987C145.6 157.505 146.23 156.763 146.824 155.799ZM127.02 151.979C127.799 152.313 130.803 153.24 133.844 150.681C133.473 149.568 133.176 148.419 132.879 147.269C131.507 148.27 130.172 148.53 129.171 148.53H128.689C127.947 148.456 127.316 148.27 126.946 148.122C126.909 149.494 126.946 150.792 127.02 151.979ZM127.02 147.232V146.824C127.038 146.431 127.047 146.056 127.056 145.693C127.065 145.303 127.075 144.927 127.094 144.562C127.539 144.71 128.132 144.895 128.911 144.895C129.913 144.895 131.099 144.599 132.36 143.597C132.434 144.45 132.546 145.378 132.731 146.379C129.95 148.678 127.279 147.38 127.02 147.232ZM132.286 142.077V141.076C132.286 140.705 132.286 140.26 132.249 139.852C130.951 141.076 129.69 141.409 128.689 141.409C127.984 141.409 127.428 141.261 127.057 141.113C127.094 141.854 127.094 142.707 127.094 143.709C127.65 144.005 129.875 144.895 132.286 142.633V142.077ZM127.131 152.906C127.576 153.054 128.244 153.203 129.06 153.24H129.356C130.617 153.24 132.397 152.906 134.177 151.497C134.548 152.424 134.956 153.277 135.438 154.056C131.971 158.002 128.101 156.593 127.657 156.432L127.65 156.429C127.391 155.317 127.242 154.167 127.131 152.906ZM131.989 135.401C130.58 137.627 128.318 137.886 127.242 137.886C127.094 137.886 126.983 137.886 126.871 137.812C126.946 138.368 127.02 139.11 127.057 140.111C127.354 140.297 129.69 141.558 132.249 138.628C132.212 137.627 132.138 136.514 131.989 135.401ZM127.873 157.356C128.318 157.468 129.022 157.616 129.838 157.616H130.172C131.656 157.542 133.844 157.023 135.883 154.76C136.477 155.613 137.107 156.318 137.812 156.911L137.701 157.023C134.478 162.479 129.881 161.535 129.588 161.475L129.579 161.473H129.542C129.282 160.991 129.06 160.509 128.837 159.989C128.429 159.211 128.132 158.321 127.873 157.356ZM130.299 162.416C130.209 162.408 130.128 162.4 130.061 162.4C130.988 163.809 132.101 164.959 133.51 165.923C133.881 165.923 135.105 165.849 136.551 165.107C138.739 163.995 140.408 161.807 141.446 158.766C141.409 158.766 141.372 158.756 141.335 158.747C141.298 158.738 141.261 158.729 141.224 158.729C140.222 158.506 139.295 158.061 138.442 157.468V157.505C136.588 160.657 134.215 161.807 132.583 162.215C131.841 162.4 131.173 162.437 130.654 162.437C130.532 162.437 130.409 162.426 130.299 162.416ZM138.776 168.297C137.218 167.889 135.846 167.332 134.622 166.665C135.216 166.554 136.032 166.331 136.885 165.886C139.963 164.328 141.52 161.25 142.299 158.877H142.411C143.041 158.877 143.634 158.729 144.228 158.469C146.082 165.738 142.707 168.593 142.559 168.705C141.261 168.742 140 168.593 138.776 168.297ZM186.395 200.821C186.432 200.932 186.543 201.007 186.877 200.97C187.581 200.895 188.36 200.747 189.176 200.562C188.434 197.706 187.322 196.853 186.765 196.593C186.691 196.853 186.617 197.187 186.543 197.595C186.518 197.733 186.49 197.882 186.46 198.039L186.46 198.04L186.46 198.041C186.264 199.066 186.009 200.403 186.395 200.821ZM189.992 200.302C189.732 199.264 189.399 198.485 189.065 197.854C189.287 197.78 189.547 197.743 189.881 197.817C190.548 198.003 191.142 198.67 191.624 199.783C191.067 200.005 190.511 200.191 189.992 200.302ZM229.728 198.732L229.728 198.732C230.026 199.664 230.298 200.518 230.601 200.821C230.972 200.747 231.899 200.191 233.012 199.449C231.232 197.038 229.785 197.001 229.192 197.15C229.377 197.595 229.526 198.04 229.637 198.448C229.667 198.541 229.697 198.634 229.726 198.727L229.728 198.732ZM233.754 198.967C233.197 198.225 232.678 197.669 232.159 197.261C232.456 197.038 232.938 196.779 233.531 196.779C234.162 196.816 234.755 197.15 235.348 197.78C234.936 198.133 234.501 198.44 234.079 198.736C233.97 198.814 233.861 198.89 233.754 198.967ZM232.938 163.55C233.309 161.176 233.531 158.506 233.346 155.576C232.752 145.378 226.225 136.366 217.732 133.658H217.584C217.473 133.621 204.344 131.025 202.601 137.589L202.564 137.775C202.552 137.818 202.541 137.862 202.529 137.906C202.428 138.277 202.322 138.671 202.156 139.036C201.452 140.63 200.747 141.15 199.115 141.335C198.934 141.353 198.754 141.362 198.577 141.372C198.392 141.381 198.211 141.39 198.04 141.409C197.075 141.446 196.222 141.521 195.036 142.003C192.514 143.041 190.548 146.416 189.918 147.603L189.695 148.048C189.658 148.122 189.658 148.122 189.621 148.159C188.991 149.679 188.026 151.089 186.803 152.238C184.911 154.019 182.501 155.131 180.053 155.354C179.719 155.391 179.385 155.391 179.052 155.391C174.601 155.391 171.115 152.461 169.52 147.417C169.446 147.195 169.558 146.972 169.78 146.898C170.003 146.824 170.225 146.935 170.299 147.158C171.857 152.164 175.454 154.909 179.905 154.501C182.167 154.278 184.429 153.277 186.172 151.608C188.026 149.865 189.213 147.529 189.51 145.044C190.215 138.999 189.176 134.215 186.617 131.581C184.874 129.801 182.426 129.023 179.534 129.282C172.154 129.95 170.559 137.441 170.559 137.515C170.522 137.738 170.299 137.886 170.077 137.849C169.854 137.812 169.706 137.589 169.743 137.367C169.753 137.347 169.771 137.281 169.8 137.175C169.879 136.889 170.038 136.308 170.336 135.55C169.483 135.476 167.74 135.29 165.293 134.4C161.621 133.028 156.429 132.805 152.943 139.592C152.313 140.853 151.756 142.262 151.237 143.783V143.894C151.163 144.302 151.014 145.452 151.089 146.008C151.2 146.861 151.793 147.974 152.498 148.678L152.498 148.678C152.646 148.827 152.795 148.975 152.98 149.123C153.462 149.494 153.944 149.902 154.167 150.532C154.389 151.126 154.315 151.793 154.056 152.313C153.796 152.795 153.388 153.166 152.832 153.314C152.275 153.462 151.422 153.462 150.644 153.425C150.498 153.425 150.348 153.42 150.208 153.416C149.956 153.408 149.738 153.401 149.642 153.425C148.715 153.574 148.418 153.833 147.751 154.612C148.307 154.983 149.457 155.836 150.384 157.319C152.201 160.101 151.942 163.142 151.274 165.552C154.457 163.346 156.934 160.576 158.224 159.133C158.257 159.096 158.289 159.06 158.32 159.025C158.506 158.803 160.546 155.984 161.695 154.056C162.511 152.683 163.624 152.424 164.403 152.683C165.404 153.017 165.997 154.13 165.886 155.576C165.775 157.023 165.404 157.987 165.07 158.58C166.665 158.283 168.371 157.838 170.04 157.097C171.115 156.615 172.154 156.615 173.081 157.134C176.381 158.951 177.642 166.665 178.458 171.783C178.532 172.265 178.607 172.747 178.681 173.192C179.608 178.829 186.691 195.518 186.765 195.666V195.703C187.136 195.778 187.841 196.111 188.583 197.15C188.916 197.001 189.436 196.89 190.066 197.038C190.956 197.298 191.735 198.114 192.365 199.523L192.366 199.523C192.663 199.412 192.959 199.301 193.293 199.189L193.589 199.078C194.85 198.596 198.151 197.298 198.67 196.26C198.707 196.148 198.818 195.666 197.965 193.589C197.519 192.429 196.858 191.031 196.193 189.623C196.029 189.276 195.865 188.928 195.703 188.583C195.592 188.323 195.471 188.073 195.351 187.823C195.23 187.572 195.11 187.322 194.999 187.062C194.947 187.036 194.913 186.993 194.885 186.956C194.873 186.94 194.861 186.925 194.85 186.914C194.832 186.881 194.769 186.776 194.669 186.611C193.776 185.13 189.951 178.785 189.25 175.714C188.657 172.97 189.844 172.079 191.772 170.67C191.858 170.606 191.945 170.54 192.034 170.475C192.705 169.973 193.437 169.426 194.257 168.705C197.632 165.701 199.226 159.693 199.226 159.656C199.264 159.544 199.375 159.433 199.486 159.396H199.56H199.597H199.634H199.671H199.709H199.746H199.783C199.783 159.433 199.82 159.433 199.82 159.433L199.857 159.47L199.894 159.507L199.931 159.544C199.968 159.544 199.968 159.581 199.968 159.581V159.619V159.656V159.693V159.73V159.767V159.804V159.841C199.966 159.854 199.963 159.886 199.958 159.934C199.878 160.69 199.355 165.644 195.555 171.746C194.776 173.044 194.183 174.193 193.775 175.343C194.294 175.677 196.222 176.789 199.486 177.642C202.935 178.532 208.609 179.274 216.101 177.865C215.144 173.707 215.392 169.987 215.613 166.669L215.618 166.591C215.841 163.216 216.026 160.249 214.877 157.801C214.765 157.579 214.84 157.356 215.062 157.245C215.285 157.134 215.507 157.208 215.618 157.43C216.854 160.046 216.665 163.017 216.448 166.449L216.434 166.665L216.432 166.705C216.21 170.071 215.956 173.913 216.991 178.087C218.511 184.207 223.703 190.289 226.818 193.923C227.894 195.147 228.524 195.926 228.858 196.408C229.34 196.26 230.267 196.148 231.417 196.816C231.714 196.556 232.456 196 233.457 196H233.531C234.421 196.037 235.237 196.482 236.016 197.335C237.907 195.963 239.613 194.517 240.021 193.96C240.021 193.812 239.91 193.219 238.612 190.993C237.785 189.572 236.664 187.827 235.538 186.072C235.4 185.858 235.263 185.644 235.126 185.43C234.458 184.392 233.791 183.354 233.16 182.352L233.086 182.278C233.056 182.234 232.991 182.148 232.9 182.027C232.763 181.847 232.567 181.588 232.344 181.277C231.38 180.201 230.082 179.385 228.784 178.607C228.699 178.553 228.615 178.499 228.531 178.445C226.881 177.395 225.341 176.415 224.742 174.898C223.631 172.158 226.439 170.564 229.18 169.008L229.192 169.001C229.266 168.957 229.339 168.919 229.41 168.882C229.519 168.825 229.622 168.772 229.711 168.705C231.343 167.778 232.159 166.331 232.567 165.219L232.938 163.55Z" fill="#191919"/>
<path d="M212.244 153.128C212.281 153.24 212.355 153.351 212.466 153.425C212.689 153.648 213.06 153.685 213.393 153.685C213.727 153.685 214.061 153.648 214.395 153.536C214.728 153.425 214.988 153.203 215.136 152.869C215.619 151.867 214.988 150.718 213.875 150.829C212.763 151.014 211.65 151.905 212.244 153.128Z" fill="white"/>
<path d="M216.36 145.118C216.36 144.413 216.249 143.671 215.989 143.004L214.691 144.636L216.36 145.118Z" fill="white"/>
<path d="M207.905 149.383L205.679 153.314C205.791 153.425 205.976 153.61 206.05 153.685L209.388 149.939L207.905 149.383Z" fill="white"/>
<path d="M207.089 154.204C207.719 154.426 208.387 154.463 209.054 154.352C209.981 154.204 210.723 153.648 210.946 152.683C211.094 152.09 210.909 151.459 211.279 150.94C211.354 150.829 211.428 150.755 211.502 150.681L210.241 150.236L207.089 154.204Z" fill="white"/>
<path d="M214.246 144.524C214.246 144.524 215.841 142.67 215.841 142.633C215.322 141.706 214.432 141.112 213.43 140.816L211.576 143.745L214.246 144.524Z" fill="white"/>
<path d="M208.238 148.863L209.944 149.308L213.764 145.044L211.057 144.45L208.238 148.863Z" fill="white"/>
<path d="M210.797 149.494L212.615 149.939C213.653 149.494 214.84 149.197 215.544 148.307C216.138 147.528 216.323 146.564 216.36 145.563L214.321 145.118L210.797 149.494Z" fill="white"/>
<path d="M212.355 140.556C212.058 140.519 211.762 140.482 211.428 140.482C210.464 140.482 209.462 140.63 208.72 141.224C208.275 141.595 207.979 142.114 207.793 142.67L210.686 143.486L212.355 140.556Z" fill="white"/>
<path d="M210.204 144.302L207.571 143.746C207.534 144.228 207.571 144.71 207.608 145.192C207.645 145.674 207.756 146.156 207.682 146.601C207.571 147.343 207.052 147.899 206.495 148.456L207.645 148.715L210.204 144.302Z" fill="white"/>
<path d="M206.199 148.789C205.717 149.234 205.272 149.716 205.012 150.31C204.678 151.163 204.826 152.164 205.309 152.906L207.385 149.197L206.199 148.789Z" fill="white"/>
<path d="M73.6901 164.588L72.4292 176.456L71.91 196.074L70.7232 201.6L68.6464 202.156C68.6464 202.156 58.2994 201.785 58.2623 201.637C58.2252 201.489 58.2623 196.816 54.8504 197.854C54.8504 197.854 53.7007 194.702 52.9219 195.073C52.9219 195.073 54.7391 192.959 55.2212 189.25C55.7404 185.542 56.0371 175.009 56.0371 175.009L56.8159 164.217L58.8556 154.501L71.4278 154.093C71.4278 154.056 71.7245 160.805 73.6901 164.588Z" fill="#F4B35F"/>
<path d="M54.3311 197.335C54.4053 197.446 54.4795 197.595 54.5907 197.669C54.8874 197.854 55.2583 197.743 55.592 197.706C56.4079 197.632 57.1867 198.077 57.6689 198.707C58.151 199.338 58.3735 200.154 58.4106 200.932C58.4106 201.081 58.4106 201.266 58.3364 201.377C58.2252 201.526 58.0026 201.526 57.7801 201.526C55.4437 201.452 53.1444 201.266 50.845 200.932C50.4 200.858 49.8808 200.747 49.6954 200.339C49.5841 200.079 49.6583 199.783 49.6954 199.486C49.955 198.522 50.4742 197.632 51.1788 196.927C51.5126 196.593 52.6993 195.11 53.1815 195.184C53.8119 195.295 54.0715 196.89 54.3311 197.335Z" fill="white"/>
<path fill-rule="evenodd" clip-rule="evenodd" d="M74.3575 164.551V164.588V164.662C74.3575 164.662 74.3575 164.699 74.3205 164.625L73.282 173.711C73.2627 174.04 73.2332 174.359 73.2042 174.674V174.674V174.674V174.674V174.674C73.1776 174.961 73.1514 175.245 73.1337 175.528C73.0224 176.715 72.9483 178.977 72.8741 181.611C72.7628 185.542 72.5774 190.474 72.2807 194.479C71.7986 200.858 71.2052 202.008 70.6118 202.305C70.241 202.49 69.0542 202.564 67.5337 202.564C65.3456 202.564 62.49 202.416 60.4503 202.305C55.9999 202.045 51.1046 201.637 50.2516 201.303C49.6953 201.118 49.3615 200.821 49.2503 200.376C48.9907 199.412 49.8066 198.04 52.6622 194.591C55.5549 191.105 55.7403 181.573 55.8887 173.897C55.9258 172.45 55.9628 171.115 55.9999 169.891C56.2595 162.103 58.3734 154.464 58.4105 154.389C58.4847 154.167 58.7072 154.056 58.9297 154.093C58.9648 154.1 59.0038 154.105 59.0441 154.111C59.2167 154.136 59.4118 154.165 59.4118 154.315L67.237 154.093L71.7615 153.536C71.8728 153.536 72.0211 153.573 72.0953 153.648C72.1695 153.759 72.2066 153.87 72.2066 153.981C71.9099 159.544 74.2834 164.44 74.3205 164.477C74.3418 164.498 74.3508 164.507 74.3547 164.518C74.3575 164.526 74.3575 164.535 74.3575 164.551ZM53.033 195.444C51.4013 197.409 49.8436 199.486 50.0291 200.191C50.0356 200.197 50.0421 200.208 50.0509 200.223C50.0918 200.293 50.1815 200.446 50.5483 200.599C50.9191 200.71 52.3655 200.895 54.4052 201.081C54.5536 198.633 54.1456 197.224 53.7377 196.408C53.4781 195.926 53.2185 195.629 53.033 195.444ZM55.1469 198.225C55.4807 198.151 56.1483 198.077 56.6675 198.411C57.335 198.856 57.7059 199.857 57.743 201.303C57.327 201.269 56.9191 201.242 56.5193 201.216L56.5191 201.216L56.5189 201.216C56.0634 201.186 55.6185 201.157 55.184 201.118C55.2953 199.968 55.2582 199.004 55.1469 198.225ZM60.4503 201.489C66.5695 201.86 69.833 201.822 70.241 201.6C70.3522 201.526 70.686 201.044 70.9827 198.485V198.336V198.04C71.165 193.445 69.0884 187.81 67.5381 183.604C67.5118 183.532 67.4856 183.461 67.4595 183.391C66.2357 180.09 65.3827 177.679 65.7536 176.604C66.0873 175.751 66.5695 175.343 67.0145 175.009C67.0225 175.003 67.0304 174.996 67.0383 174.99C67.8447 174.33 68.5609 173.745 67.4224 169.632C66.4035 165.956 67.42 164.387 68.2294 163.139C68.2448 163.115 68.2602 163.091 68.2754 163.068C68.943 162.14 69.388 161.436 68.8317 159.915C67.8304 157.171 61.3403 156.911 58.596 157.022C57.9655 159.878 57.0013 164.848 56.8158 169.928C56.7653 170.762 56.7492 171.646 56.7324 172.571C56.7245 173.004 56.7164 173.447 56.7046 173.897C56.5562 181.462 56.3337 190.808 53.5522 194.739C53.9602 195.11 54.5907 195.889 54.9615 197.372C55.4436 197.261 56.3337 197.187 57.1125 197.706C58.0397 198.336 58.5218 199.56 58.596 201.377C59.1893 201.415 59.8198 201.452 60.4503 201.489Z" fill="#191919"/>
<path d="M59.3006 166.22C59.1152 166.22 58.9297 166.072 58.8927 165.886C58.6331 164.514 58.6701 163.105 59.0039 161.732C59.041 161.51 59.2635 161.362 59.486 161.436C59.7085 161.473 59.8569 161.695 59.7827 161.918C59.486 163.142 59.4489 164.44 59.6715 165.701C59.7085 165.923 59.5602 166.146 59.3377 166.183C59.3377 166.22 59.3377 166.22 59.3006 166.22Z" fill="#191919"/>
<path d="M133.547 124.238C133.547 124.238 130.988 126.575 129.134 129.356C127.279 132.138 123.867 133.918 123.867 133.918C123.867 133.918 119.454 135.55 116.524 133.547C114.893 132.435 113.891 131.174 113.298 130.284L113.335 130.246C113.261 130.209 113.224 130.098 113.15 130.024C113.001 129.764 112.89 129.542 112.779 129.356C111.777 127.205 110.591 121.68 108.291 113.632C105.51 104.027 99.4277 95.0146 99.4277 95.0146C99.4277 95.0146 102.543 102.209 103.581 109.256C104.62 116.302 104.842 123.942 104.842 123.942C105.399 127.539 109.404 134.178 109.404 134.178L109.552 134.029C110.479 135.364 113.15 138.591 117.6 139.036C117.6 139.036 119.862 139.407 121.976 138.887L121.939 138.962C121.939 138.962 125.128 138.702 128.169 135.29C131.211 131.915 133.992 125.685 133.992 125.685L133.547 124.238Z" fill="#F4B35F"/>
<path d="M73.69 164.588C73.69 164.588 80.7364 177.902 83.3695 183.094C86.0026 188.286 89.4145 197.965 89.4145 197.965L92.5668 198.707C95.237 197.335 97.0913 199.968 97.0913 199.968C97.0913 199.968 96.4238 200.413 102.803 196.556C109.181 192.662 106.585 190.548 106.585 190.548L98.3894 175.603C88.9695 158.543 94.347 151.422 94.347 151.422C101.987 142.93 104.768 134.363 104.768 122.792C104.768 111.258 101.987 96.3125 94.9033 87.5231C87.7827 78.7708 81.2185 75.1734 69.796 72.6887C58.3735 70.2039 48.1006 72.5774 41.6476 73.8013C35.1947 74.988 28.0741 75.5443 19.8781 75.2847C11.6821 75.0251 1.40923 72.3178 1.40923 72.3178C0.815852 81.4781 1.26088 95.4225 2.70724 107.92C5.71122 134.252 8.56684 143.82 8.56684 143.82C11.9046 145.897 33.4887 151.905 40.498 152.795C47.5072 153.685 58.8927 154.501 58.8927 154.501L71.6503 154.352L73.69 164.588Z" fill="#F4B35F"/>
<path d="M72.5403 145.674C72.5403 145.674 75.2105 145.563 74.9509 150.199C74.6913 154.797 72.5403 159.507 79.29 169.298C86.0397 179.089 92.8635 194.776 89.4516 197.966C89.4516 197.966 87.1523 190.437 84.5562 186.024C81.9602 181.611 73.0225 162.029 73.0225 162.029C73.0225 162.029 70.9456 157.394 72.5403 145.674Z" fill="white"/>
<path d="M102.543 104.991C102.543 104.991 107.179 108.18 108.514 121.457C108.922 125.648 109.997 128.281 110.85 129.727C111.369 130.617 112.556 130.877 113.372 130.246C113.372 130.246 111.777 127.762 109.997 119.38C108.18 110.999 103.211 99.3166 99.4648 95.0146L102.543 104.991Z" fill="white"/>
<path d="M92.0476 198.596C92.196 198.67 92.3072 198.745 92.4927 198.782C92.7152 198.819 92.9377 198.707 93.1602 198.633C94.5695 198.114 96.3125 198.707 97.0913 199.968C95.4595 200.895 93.8648 201.823 92.2331 202.75C91.2317 203.343 90.1562 203.937 89.0066 203.862C88.8582 202.564 88.747 201.229 88.747 199.931C88.747 199.19 88.7099 198.151 89.5258 197.892C90.2675 197.669 91.4542 198.225 92.0476 198.596Z" fill="white"/>
<path d="M125.314 133.102C125.314 133.102 126.241 134.029 127.724 132.917C129.208 131.804 133.621 124.795 133.621 124.795L132.62 125.054C132.62 125.091 127.91 131.544 125.314 133.102Z" fill="white"/>
<path d="M69.7589 72.6516C58.2993 70.1668 48.0635 72.5403 41.6106 73.7642C38.0503 74.4317 34.3046 74.8767 30.2622 75.1363C30.2622 75.2105 30.2622 75.2476 30.2622 75.2476C30.2622 75.2476 30.2622 81.6264 42.4264 78.0291C54.5907 74.4317 68.7205 73.1337 76.7682 78.0291C89.0437 85.5204 96.7205 84.4079 103.062 108.773L103.396 108.551C101.95 100.689 99.2053 92.9377 94.8291 87.5231C87.7827 78.7708 81.2185 75.1734 69.7589 72.6516Z" fill="white"/>
<path d="M94.2357 202.119C94.0874 202.119 93.902 202.008 93.8649 201.86C92.0477 197.558 89.3775 198.448 89.2662 198.485C89.0437 198.559 88.8212 198.448 88.747 198.225C88.6728 198.003 88.7841 197.78 88.9695 197.706C89.0066 197.706 92.4927 196.445 94.6066 201.526C94.6808 201.748 94.6066 201.971 94.3841 202.082C94.347 202.119 94.2728 202.119 94.2357 202.119Z" fill="#191919"/>
<path d="M96.9801 200.376C96.8318 200.376 96.7205 200.302 96.6464 200.191C96.0901 199.375 95.4225 198.893 94.6808 198.744C93.6053 198.559 92.6782 199.189 92.6782 199.189C92.4927 199.338 92.2331 199.264 92.0848 199.078C91.9364 198.893 92.0106 198.633 92.196 198.485C92.2331 198.448 93.3828 197.669 94.8291 197.891C95.7934 198.04 96.6464 198.67 97.351 199.672C97.4623 199.857 97.4252 200.117 97.2397 200.265C97.1656 200.376 97.0914 200.376 96.9801 200.376Z" fill="#191919"/>
<path d="M138.517 126.13C137.738 124.313 136.774 123.237 135.661 122.978C134.623 122.718 133.844 123.311 133.807 123.311L133.77 123.348C132.805 124.35 133.325 125.648 133.362 125.722C133.436 125.87 133.584 125.982 133.732 125.982C133.77 125.982 133.807 125.982 133.807 125.982C134.029 126.204 133.881 128.058 133.658 130.617C133.621 131.174 133.547 131.804 133.51 132.472C133.213 136.254 134.029 139.295 135.698 140.593C136.291 141.076 136.959 141.298 137.664 141.298C138.034 141.298 138.442 141.224 138.85 141.113C139.518 140.89 140 140.408 140.334 139.666C141.706 136.737 140.148 129.913 138.517 126.13Z" fill="#191919"/>
<path d="M107.513 192.143C107.513 192.032 107.475 191.883 107.438 191.772C107.401 191.661 107.364 191.55 107.327 191.438C107.179 190.993 106.993 190.585 106.771 190.215C106.4 189.436 105.955 188.694 105.547 187.915C104.842 186.691 104.175 185.43 103.507 184.207C103.507 184.169 103.507 184.132 103.47 184.095C103.099 183.391 102.728 182.686 102.358 182.018C101.801 180.98 101.282 179.905 100.8 178.866C99.3165 175.788 97.9443 172.636 96.6463 169.483C96.3125 168.705 95.9787 167.889 95.682 167.11L95.1999 165.923C95.0516 165.515 94.9032 165.144 94.7549 164.736C94.1986 163.142 93.9019 161.473 93.9761 159.804C94.0132 158.988 94.1244 158.172 94.3469 157.356C94.384 157.245 94.384 157.171 94.4211 157.06L94.5324 156.763C94.6065 156.577 94.6436 156.355 94.7549 156.169L94.9774 155.576C95.0516 155.391 95.1628 155.205 95.237 155.02C95.3854 154.649 95.6079 154.278 95.8304 153.907C96.0529 153.536 96.2383 153.166 96.4608 152.795C96.9059 152.053 97.3509 151.311 97.796 150.607C98.686 149.123 99.5761 147.64 100.355 146.082C101.134 144.524 101.838 142.93 102.395 141.298C102.988 139.666 103.433 137.997 103.804 136.291C104.175 134.919 104.397 133.584 104.509 132.36C104.546 131.989 104.62 131.581 104.657 131.211C104.694 130.988 104.694 130.766 104.731 130.543L104.768 129.875C104.805 129.43 104.842 129.022 104.879 128.577L104.954 127.279L104.991 126.612C104.991 126.389 104.991 126.167 105.028 125.944C105.065 125.091 105.102 124.201 105.102 123.348V122.05L105.065 120.752C105.065 119.899 105.028 119.009 104.954 118.156C104.954 117.711 104.916 117.303 104.879 116.858L104.768 115.56L104.62 114.262C104.583 113.817 104.546 113.409 104.471 112.964C104.36 112.111 104.249 111.258 104.101 110.405C103.544 106.993 102.765 103.618 101.653 100.355C101.505 99.947 101.393 99.539 101.245 99.1311L100.8 97.9072L100.577 97.3138L100.318 96.7205L99.7986 95.5337L99.2423 94.347L98.9827 93.7536C98.8714 93.5682 98.7973 93.3827 98.686 93.1602L98.0926 92.0105C97.8701 91.6397 97.6476 91.2688 97.4251 90.898L97.0913 90.3417C96.9801 90.1562 96.8688 89.9708 96.7575 89.7854L96.0529 88.7099L95.3112 87.6344L94.9403 87.1152L94.5324 86.596C94.2728 86.2622 94.0132 85.8913 93.7165 85.5576L92.8635 84.5562C92.7151 84.4079 92.6039 84.2225 92.4185 84.0741L91.9734 83.592L91.5284 83.1099C91.3801 82.9615 91.2317 82.7761 91.0834 82.6278C90.4529 82.0344 89.8224 81.4039 89.1549 80.8847L88.6728 80.4397L88.4132 80.2172L88.1536 80.0317L87.1152 79.2529C86.9668 79.1046 86.7814 78.9933 86.5959 78.8821L86.0397 78.5112L85.4834 78.1403C85.4092 78.0662 85.2979 78.0291 85.2238 77.9549L84.9642 77.8066L83.8516 77.139C83.4807 76.9165 83.0728 76.7311 82.7019 76.5086L82.1085 76.2119C81.9231 76.1006 81.7377 76.0264 81.5152 75.9523L80.3284 75.396L79.1046 74.9138L78.5112 74.6913L77.9178 74.4688L76.694 74.0238L75.4701 73.6529C75.2476 73.5787 75.0622 73.5046 74.8397 73.4675L74.2092 73.2821C73.8012 73.1708 73.3933 73.0595 72.9483 72.9483C69.6105 72.0953 66.1615 71.5019 62.7125 71.3165C59.2635 71.1311 55.7774 71.3165 52.3655 71.7615C48.9536 72.2066 45.5416 72.7999 42.1668 73.3933C38.792 73.9496 35.3801 74.4317 32.0052 74.6913C28.5933 74.9138 25.1814 74.9509 21.7324 74.7655C18.3205 74.6172 14.9085 74.2834 11.5337 73.7642C9.82774 73.5417 8.15886 73.245 6.4529 72.9112C4.78403 72.5774 3.11515 72.2066 1.44628 71.7986C1.26085 71.7615 1.07542 71.8728 1.00125 72.0582C0.96416 72.2437 1.07542 72.4291 1.26085 72.5033C2.92972 72.9483 4.5986 73.3191 6.30456 73.6529C8.01052 73.9867 9.67939 74.2834 11.3854 74.543C14.7973 75.0251 18.2092 75.3589 21.6582 75.5443C25.1072 75.6927 28.5562 75.6927 32.0052 75.4701C35.4542 75.2476 38.8661 74.7655 42.2781 74.2092C45.6529 73.6529 49.0648 73.0225 52.4397 72.6145C55.8145 72.2066 59.2635 72.0211 62.6383 72.1695C66.0503 72.3178 69.4251 72.9112 72.7257 73.7642C73.1337 73.8754 73.5416 73.9867 73.9496 74.098L74.543 74.2834C74.7655 74.3205 74.9509 74.3946 75.1363 74.4688L76.3602 74.8397L77.5469 75.2476L78.1403 75.4701L78.7337 75.6927L79.9204 76.1748L81.0701 76.694C81.2556 76.7682 81.441 76.8794 81.6635 76.9536L82.2198 77.2503C82.5906 77.4728 82.9615 77.6211 83.3324 77.8437L84.4079 78.5112L84.6675 78.6595C84.7787 78.6966 84.8529 78.7708 84.9271 78.8079L85.4463 79.1787L85.9655 79.5496C86.1509 79.6609 86.2993 79.7721 86.4847 79.9205L87.486 80.6993L87.7456 80.8847L87.9681 81.1072L88.4503 81.5152C89.1178 82.0715 89.7112 82.6648 90.3046 83.2211C90.4529 83.3695 90.6012 83.5178 90.7496 83.6662L91.1946 84.1112L91.6397 84.5562C91.788 84.7046 91.8993 84.89 92.0476 85.0384L92.8635 86.0026C93.1231 86.3364 93.3827 86.6701 93.6423 87.0039L94.0132 87.486L94.384 88.0052L95.1257 89.0436L95.7933 90.1191C95.9046 90.3046 96.0158 90.49 96.1271 90.6754L96.4608 91.2317C96.6834 91.6026 96.9059 91.9735 97.0913 92.3443L97.6847 93.494C97.796 93.6794 97.8701 93.8648 97.9814 94.0503L98.241 94.6437L98.7973 95.7933L99.2794 96.9801L99.539 97.5735L99.7615 98.1668L100.207 99.3536C100.355 99.7615 100.466 100.169 100.614 100.54C101.69 103.767 102.506 107.105 103.025 110.479C103.173 111.332 103.285 112.185 103.396 113.001C103.47 113.409 103.507 113.854 103.544 114.262L103.656 115.523L103.767 116.784C103.804 117.229 103.841 117.637 103.841 118.045C103.878 118.898 103.915 119.751 103.952 120.604L103.989 121.902V123.2C103.989 124.053 103.952 124.906 103.915 125.759C103.915 125.981 103.915 126.204 103.878 126.389L103.841 127.02L103.767 128.281C103.73 128.726 103.693 129.134 103.656 129.542L103.618 130.172C103.618 130.395 103.581 130.617 103.544 130.803C103.507 131.025 103.507 131.248 103.47 131.507C103.433 131.544 103.433 131.618 103.433 131.656C103.433 131.693 102.988 135.03 101.467 139.11C100.058 142.856 97.388 147.973 92.641 151.2C88.9324 153.722 86.9668 156.169 86.633 158.654C86.3734 160.583 87.0781 162.474 88.7469 164.477C91.5284 167.74 96.4238 173.563 100.763 181.091C101.319 182.13 101.764 182.946 102.061 183.502C102.877 185.06 103.693 186.58 104.583 188.101C104.991 188.842 105.436 189.584 105.807 190.326C105.992 190.697 106.177 191.067 106.289 191.438C106.326 191.55 106.326 191.624 106.363 191.698C106.363 191.772 106.4 191.883 106.4 191.958C106.4 192.032 106.4 192.106 106.4 192.217C106.4 192.254 106.4 192.291 106.4 192.328C106.4 192.366 106.4 192.403 106.363 192.44C106.363 192.477 106.326 192.514 106.326 192.551C106.326 192.588 106.289 192.625 106.289 192.662C106.252 192.699 106.177 192.811 106.14 192.885C106.029 193.033 105.881 193.181 105.732 193.33C105.436 193.589 105.102 193.886 104.768 194.146C104.101 194.665 103.396 195.184 102.728 195.666C101.319 196.63 99.8728 197.595 98.4264 198.485C96.9801 199.375 95.4966 200.265 94.0132 201.081C93.2714 201.489 92.5297 201.897 91.7509 202.267C91.3801 202.453 90.9721 202.638 90.6012 202.824C90.2304 202.972 89.8224 203.158 89.4516 203.269C89.3403 203.306 89.2662 203.306 89.192 203.306C89.1549 203.232 89.0807 203.12 89.0436 202.972C89.0065 202.824 89.0065 202.601 89.0065 202.416C89.0065 202.23 89.0065 202.008 89.0065 201.822C89.0436 201.007 89.1178 200.117 89.1549 199.264C89.192 198.373 89.192 197.52 89.0436 196.63C88.9324 195.74 88.6357 194.887 88.3761 194.071C87.8198 192.44 87.1522 190.845 86.4476 189.25C85.0383 186.098 83.5549 183.02 81.9973 179.942L80.8105 177.642L79.6238 175.343C78.8079 173.822 78.0291 172.302 77.2132 170.781C76.4344 169.261 75.6926 167.74 74.988 166.183C74.2834 164.625 73.6529 163.03 73.1708 161.436L73.0595 161.139L72.9854 160.842L72.837 160.249C72.7257 159.841 72.6145 159.433 72.5774 159.025C72.5403 158.803 72.5032 158.617 72.4661 158.395L72.392 157.764C72.3549 157.356 72.2807 156.911 72.2807 156.503C72.1324 154.797 72.1324 153.091 72.1324 151.385C72.2065 147.973 72.5774 144.562 73.0595 141.187C73.5416 137.812 74.1721 134.437 74.7655 131.025C75.0622 129.319 75.3218 127.65 75.5443 125.907C75.6556 125.054 75.6926 124.164 75.7297 123.311C75.7297 122.866 75.7297 122.421 75.6926 121.976C75.6555 121.531 75.5814 121.086 75.396 120.641C75.3589 120.53 75.3218 120.418 75.2476 120.307C75.2105 120.27 75.2105 120.196 75.1734 120.159L75.0622 120.011C74.9138 119.788 74.7284 119.603 74.5059 119.454L74.4317 119.417L74.3204 119.38C74.2834 119.343 74.2092 119.343 74.135 119.306C74.0238 119.269 73.8754 119.232 73.7642 119.195L73.5787 119.158C73.5046 119.158 73.4675 119.158 73.3933 119.158C73.282 119.158 73.1337 119.195 73.0224 119.195C72.9483 119.195 72.9112 119.232 72.837 119.232C72.7999 119.269 72.7258 119.269 72.6516 119.306L72.5032 119.417C72.4661 119.454 72.392 119.454 72.3549 119.528L72.3178 119.788C72.2807 119.825 72.2065 119.862 72.1695 119.899C72.1324 119.936 72.0582 119.973 72.0582 120.011L71.9469 120.159C71.6503 120.53 71.4277 120.938 71.2423 121.346C70.8715 122.162 70.6489 123.015 70.5006 123.867C70.3522 124.72 70.241 125.573 70.1668 126.464C70.1668 126.612 70.2781 126.723 70.3893 126.723C70.5006 126.723 70.6489 126.612 70.6489 126.501C70.7231 125.685 70.8714 124.832 71.0198 123.979C71.2052 123.163 71.4277 122.347 71.7986 121.605C71.984 121.234 72.1695 120.901 72.4291 120.604C72.6887 120.307 72.9854 120.085 73.3191 120.048C73.3933 120.048 73.4675 120.011 73.5787 120.011C73.6158 120.011 73.6529 120.011 73.69 120.011L73.8012 120.048C73.8754 120.048 73.9496 120.085 74.0609 120.085C74.0979 120.085 74.135 120.122 74.1721 120.122L74.2092 120.159L74.2463 120.196C74.5059 120.344 74.7284 120.678 74.8397 121.049C74.9509 121.42 75.0251 121.828 75.0622 122.199C75.0993 122.607 75.0993 123.015 75.0993 123.46C75.0622 124.313 74.988 125.166 74.9138 125.981C74.6913 127.687 74.4317 129.356 74.135 131.062C73.5416 134.437 72.9112 137.812 72.4291 141.224C71.9469 144.636 71.5761 148.048 71.5019 151.534C71.5019 152.238 71.5019 152.906 71.5019 153.611C55.4807 155.316 39.3854 152.461 28.6675 149.828C16.9854 146.935 9.04893 143.56 8.93767 143.56C8.71515 143.486 8.49264 143.56 8.38138 143.783C8.30721 144.005 8.38138 144.228 8.6039 144.339C8.67807 144.376 16.6887 147.751 28.445 150.681C36.9748 152.795 48.8794 155.02 61.4516 155.02C64.7893 155.02 68.1642 154.871 71.539 154.501C71.5761 155.279 71.6132 156.021 71.6503 156.8C71.6873 157.245 71.7244 157.653 71.7615 158.098L71.8728 158.766C71.9099 158.988 71.9469 159.211 71.984 159.433C72.0582 159.878 72.1695 160.286 72.2807 160.731L72.4661 161.362L72.5403 161.695L72.6516 161.992C73.1708 163.661 73.8012 165.256 74.5059 166.85C75.2105 168.445 75.9893 169.965 76.7681 171.486C77.5469 173.007 78.3628 174.527 79.1787 176.048L80.3655 178.347L81.5522 180.646C83.1099 183.687 84.5933 186.766 86.0026 189.918C86.6701 191.475 87.3748 193.07 87.894 194.665C88.1536 195.481 88.4132 196.26 88.5244 197.075C88.6357 197.891 88.6357 198.707 88.5986 199.56C88.5615 200.413 88.4873 201.266 88.4503 202.119C88.4503 202.342 88.4503 202.564 88.4503 202.787C88.4503 203.009 88.4873 203.269 88.5244 203.491C88.5615 203.751 88.6728 204.048 88.9324 204.27C88.9324 204.27 89.0436 204.381 89.1178 204.381C89.192 204.418 89.2661 204.418 89.3032 204.418C89.4145 204.418 89.4887 204.418 89.5628 204.418C89.7112 204.418 89.8224 204.381 89.9337 204.344C90.3787 204.233 90.7867 204.048 91.1946 203.862C91.6026 203.677 91.9734 203.491 92.3814 203.306C93.1602 202.935 93.9019 202.49 94.6807 202.082C96.2012 201.229 97.6847 200.376 99.1311 199.449C100.614 198.522 102.024 197.595 103.433 196.593C104.138 196.111 104.842 195.592 105.51 195.073C105.844 194.813 106.177 194.517 106.511 194.22C106.66 194.071 106.845 193.923 106.993 193.738C107.067 193.626 107.142 193.552 107.216 193.441C107.216 193.404 107.253 193.367 107.253 193.33L107.29 193.218C107.327 193.144 107.327 193.107 107.364 193.033L107.401 192.811C107.401 192.736 107.401 192.662 107.438 192.588C107.55 192.403 107.513 192.291 107.513 192.143Z" fill="#191919"/>
<path d="M80.0689 165.738C79.9947 165.738 79.9205 165.738 79.8463 165.701C78.4371 164.922 77.5841 163.253 77.8066 161.621C77.8437 161.399 78.0291 161.25 78.2887 161.25C78.5112 161.287 78.6596 161.473 78.6596 161.732C78.5112 162.993 79.1788 164.365 80.2914 164.959C80.4768 165.07 80.551 165.33 80.4397 165.515C80.3656 165.663 80.2172 165.738 80.0689 165.738Z" fill="white"/>
<path d="M26.8875 118.045L19.359 123.794C19.5074 124.35 19.767 124.906 20.0266 125.425L27.11 121.346L26.8875 118.045Z" fill="white"/>
<path d="M21.2133 127.057C21.6212 127.502 22.0662 127.873 22.5854 128.132C24.106 128.948 25.9603 128.726 27.555 128.132L27.2583 123.348L21.2133 127.057Z" fill="white"/>
<path d="M33.2663 111.332L32.9325 107.364C31.6716 107.958 30.3736 108.514 29.1126 109.107L29.0385 114.707L33.2663 111.332Z" fill="white"/>
<path d="M43.1311 112.074L44.0212 111.555L47.7669 109.404C47.8411 109.033 47.8782 108.699 47.8782 108.329C47.9894 106.548 47.4702 104.657 46.3576 103.248L42.204 106.4L43.1311 112.074Z" fill="white"/>
<path d="M44.8742 102.024C43.7616 101.505 42.612 101.727 41.4994 102.284L41.8703 104.435L44.8742 102.024Z" fill="white"/>
<path d="M40.3868 105.658L40.1272 103.136C39.6822 103.47 39.2 103.804 38.7921 104.101C37.4199 105.102 35.9736 105.918 34.4901 106.66L34.8239 110.146L40.3868 105.658Z" fill="white"/>
<path d="M26.4054 110.517C24.2914 111.703 22.363 113.187 20.9908 115.115C19.7669 116.858 18.9881 118.935 18.951 121.049C18.951 121.605 18.9881 122.162 19.0994 122.681L26.8133 116.525L26.4054 110.517Z" fill="white"/>
<path d="M35.5286 118.23L36.0107 123.645C37.3829 123.015 38.718 122.347 39.9418 121.494C40.6464 120.975 41.2769 120.419 41.8703 119.788L41.314 114.67L35.5286 118.23Z" fill="white"/>
<path d="M43.3536 113.409L43.9841 117.155C44.3179 116.673 44.6517 116.154 44.9854 115.672C45.9126 114.188 46.8026 112.631 47.3589 110.962L44.6517 112.593L43.3536 113.409Z" fill="white"/>
<path d="M40.5723 107.661L34.9352 111.926L35.3431 116.524L41.1656 113.187L41.0915 112.445L40.5723 107.661Z" fill="white"/>
<path d="M29.0755 116.413L29.0013 120.196L33.7854 117.452L33.4517 113.076L29.0755 116.413Z" fill="white"/>
<path d="M29.0013 122.273L28.9642 127.502C30.151 126.872 31.2636 126.093 32.4503 125.425C33.0808 125.054 33.7483 124.758 34.4159 124.424L33.9709 119.232L29.0013 122.273Z" fill="white"/>
<path d="M69.8702 118.972C69.8331 119.046 69.7589 119.121 69.6847 119.195C69.6106 119.269 69.5735 119.343 69.4993 119.454C69.3881 119.64 69.2768 119.788 69.1655 120.011C68.943 120.381 68.7947 120.752 68.6093 121.16L68.3867 121.754C68.3126 121.939 68.2755 122.162 68.2013 122.347L68.1642 122.495L68.1271 122.644L68.053 122.94L67.9788 123.237L67.9417 123.571C67.9046 123.793 67.8675 123.979 67.8304 124.201C67.8304 124.424 67.7934 124.646 67.7563 124.832C67.7563 124.943 67.7192 125.054 67.7192 125.166V125.499C67.7192 125.722 67.6821 125.944 67.6821 126.167V127.465C67.6821 127.91 67.7192 128.355 67.7192 128.763C67.7192 128.874 67.645 128.911 67.5708 128.911C67.4967 128.911 67.4225 128.874 67.4225 128.763C67.3112 128.318 67.2371 127.873 67.1629 127.465C67.1258 127.02 67.0516 126.575 67.0516 126.13C67.0516 125.907 67.0516 125.685 67.0516 125.462V125.128C67.0516 125.017 67.0516 124.906 67.0516 124.795C67.0516 124.572 67.0887 124.35 67.0887 124.127C67.1258 123.905 67.1629 123.682 67.2 123.46C67.2 123.348 67.2371 123.237 67.2371 123.126L67.3112 122.792L67.3854 122.458L67.4225 122.31L67.4596 122.162C67.5338 121.939 67.6079 121.717 67.6821 121.494C67.7563 121.272 67.8304 121.049 67.9417 120.864C68.053 120.678 68.1642 120.456 68.2755 120.27C68.3867 120.085 68.5351 119.899 68.6463 119.714C68.9059 119.343 69.2397 119.009 69.6477 118.713C69.7218 118.676 69.8702 118.676 69.9073 118.75C69.9444 118.824 69.9444 118.935 69.9073 118.972H69.8702Z" fill="#191919"/>
<path d="M88.0052 115.746L90.1191 110.665L87.7085 108.551C87.0039 110.554 87.3377 113.076 86.0397 114.819L87.7456 115.634L88.0052 115.746Z" fill="white"/>
<path d="M92.2702 110.294L95.3112 113.483L95.645 112.927C95.4225 112.148 95.2741 111.37 95.2 110.554C95.1258 109.664 95.1629 108.699 94.7549 107.921C94.4583 107.327 93.9761 106.882 93.4569 106.548L91.9364 109.886L92.2702 110.294Z" fill="white"/>
<path d="M90.8608 108.811L92.0476 106.029C90.9721 105.844 89.7854 106.066 88.9324 106.771C89.0065 106.845 89.0436 106.919 89.1178 106.956L90.8608 108.811Z" fill="white"/>
<path d="M95.2371 115.152L93.494 118.453L95.3112 119.343L97.1285 120.233C97.0914 118.898 96.8689 117.6 96.5351 116.302C96.4238 116.191 96.3126 116.117 96.2013 116.005L95.2371 115.152Z" fill="white"/>
<path d="M95.0145 120.048L93.086 119.269L92.7522 119.936L89.9708 125.24L89.4886 126.167C90.2304 126.352 90.9721 126.501 91.7138 126.501C93.6423 126.501 95.6449 125.611 96.535 123.942C97.0171 123.052 97.1284 122.013 97.1655 121.012C97.0913 120.975 97.0171 120.975 96.943 120.938L95.0145 120.048Z" fill="white"/>
<path d="M91.8251 119.417L92.1218 118.898L91.0834 118.453L88.4132 117.34L86.0026 122.569L85.2238 124.201C85.5575 124.424 85.8913 124.609 86.2622 124.795C86.8555 125.128 87.5231 125.425 88.1536 125.685L88.784 124.572L91.8251 119.417Z" fill="white"/>
<path d="M94.4953 114.485L91.1205 111.555L88.9324 116.191L91.5284 117.452L92.641 118.008L94.6065 114.596L94.4953 114.485Z" fill="white"/>
<path d="M87.486 116.932L87.1893 116.821L84.9641 115.894C84.0741 116.562 83.1098 117.081 82.5536 118.008C81.8118 119.269 82.1085 120.901 82.9244 122.087C83.3694 122.755 83.9628 123.311 84.6304 123.793L85.2608 122.236L87.486 116.932Z" fill="white"/>
<path d="M134.771 122.94C133.77 122.903 132.768 124.238 131.248 126.241C129.393 128.652 126.872 131.989 123.719 133.399C120.493 134.623 117.785 134.4 115.634 132.694C114.04 131.433 113.335 129.727 113.335 129.727C112.63 128.132 112.111 126.019 111.37 123.163C110.665 120.344 109.775 116.821 108.366 112.445C105.028 102.209 99.7245 93.6795 95.8676 88.3391C95.7192 88.1537 95.4967 88.1166 95.2742 88.2279C95.0888 88.3762 95.0517 88.5987 95.1629 88.8212C98.9828 94.1246 104.249 102.58 107.513 112.705C108.922 117.081 109.812 120.567 110.517 123.348C111.295 126.315 111.815 128.503 112.593 130.172C112.63 130.246 112.668 130.321 112.705 130.395C112.705 130.432 112.742 130.432 112.742 130.432C113.076 131.099 113.78 132.249 115.041 133.213C116.562 134.437 118.268 134.882 119.862 134.882C121.234 134.882 122.532 134.548 123.645 134.178C123.682 134.178 123.719 134.178 123.756 134.14C127.205 132.694 129.913 129.171 131.841 126.612C132.954 125.129 134.14 123.645 134.66 123.645C134.882 123.645 135.105 123.497 135.105 123.237C135.105 122.978 134.993 122.94 134.771 122.94Z" fill="#191919"/>
<path d="M133.881 125.351C133.658 125.277 133.436 125.388 133.325 125.574C131.285 130.914 127.613 137.552 121.717 138.776C114.893 139.815 110.257 134.363 109.775 133.844C106.326 129.579 105.139 124.127 105.139 124.09C105.102 123.868 104.879 123.719 104.657 123.756C104.434 123.793 104.286 124.016 104.323 124.239C104.36 124.461 105.547 129.876 109.107 134.289C109.144 134.363 110.405 135.921 112.593 137.404C114.299 138.517 116.858 139.741 119.974 139.741C120.567 139.741 121.197 139.703 121.865 139.592C128.132 138.294 131.989 131.433 134.103 125.87C134.215 125.648 134.103 125.425 133.881 125.351Z" fill="#191919"/>
<path d="M114.856 144.821C114.856 144.821 114.336 143.894 114.411 141.929C114.411 141.298 114.781 139.333 114.781 139.333C114.818 139.184 114.744 138.999 114.559 138.887C114.373 138.776 114.225 138.813 114.077 138.925L112.927 139.889C112.853 139.963 112.779 140.074 112.779 140.186C112.779 140.297 112.667 143.264 114.151 145.266C114.225 145.378 114.373 145.415 114.485 145.415C114.559 145.415 114.633 145.378 114.707 145.34C114.93 145.229 114.967 145.007 114.856 144.821Z" fill="#191919"/>
<path d="M114.522 139.481C114.522 139.481 113.558 144.636 115.115 146.082C116.673 147.491 119.417 146.193 119.417 146.193C119.417 146.193 120.567 144.302 120.901 142.225C121.234 140.148 122.384 135.661 123.497 133.77C125.648 130.135 127.91 130.283 127.91 130.283L129.727 128.318C129.727 128.318 126.463 124.164 123.237 125.833C120.011 127.502 118.119 130.172 116.636 133.213C115.189 136.217 114.522 139.481 114.522 139.481Z" fill="#6B845F"/>
<path d="M116.005 146.49C116.005 146.49 115.56 141.15 118.416 134.14C121.383 126.834 126.204 127.094 128.8 129.319L129.876 128.17C129.876 128.17 127.094 124.832 123.682 125.833C120.27 126.834 116.858 131.656 115.746 135.438C114.633 139.221 113.706 142.522 114.077 144.191C114.448 145.86 116.005 146.49 116.005 146.49Z" fill="white"/>
<path fill-rule="evenodd" clip-rule="evenodd" d="M125.351 125.203C127.316 125.425 128.948 126.389 130.172 128.058C130.32 128.244 130.283 128.503 130.209 128.54C130.024 128.689 129.764 128.652 129.616 128.466C128.837 127.428 127.91 126.723 126.834 126.315C127.724 127.279 128.392 128.8 127.947 131.062C127.91 131.248 127.724 131.396 127.539 131.396H127.465C127.242 131.359 127.094 131.136 127.131 130.914C127.899 126.966 124.955 126.009 124.764 125.947L124.758 125.944H124.72C123.645 125.981 122.681 126.389 121.828 126.983C123.237 127.205 125.648 128.132 126.352 132.323C126.389 132.546 126.241 132.768 126.018 132.805H125.944C125.759 132.805 125.573 132.694 125.536 132.472C125.165 130.283 124.275 128.837 122.903 128.17C121.902 127.687 120.975 127.799 120.975 127.799H120.863C120.233 128.392 119.64 129.06 119.195 129.69L118.527 130.691C119.491 130.728 121.346 131.174 123.979 133.547V133.584C124.016 133.584 124.016 133.621 124.016 133.621C124.053 133.621 124.053 133.658 124.053 133.658V133.695V133.732V133.77V133.807V133.844V133.881V133.918V133.955V133.992V134.029V134.066C124.053 134.069 124.039 134.1 124.012 134.156C123.727 134.756 122.038 138.316 121.123 144.042C120.863 145.711 119.603 146.935 117.897 147.158C117.711 147.195 117.526 147.195 117.34 147.195C115.931 147.195 114.707 146.453 114.151 145.192C112.927 142.485 114.781 134.289 118.453 129.245C120.567 126.315 122.94 124.943 125.351 125.203ZM115.695 136.954L115.695 136.954C115.681 136.957 115.673 136.959 115.671 136.959C115.523 137.404 115.412 137.812 115.301 138.257C115.078 139.147 114.893 140 114.781 140.779C115.041 141.113 116.599 142.707 120.678 141.78C120.975 140.445 121.271 139.258 121.568 138.22C118.192 136.426 115.949 136.901 115.695 136.954ZM117.748 146.342C116.487 146.49 115.375 145.934 114.893 144.858C114.596 144.228 114.522 143.152 114.633 141.817C115.263 142.299 116.413 142.93 118.305 142.93C118.935 142.93 119.677 142.856 120.493 142.707L120.493 142.707C120.418 143.115 120.344 143.523 120.27 143.968C120.01 145.489 118.75 146.193 117.748 146.342ZM123.126 133.955C119.825 131.062 117.971 131.581 117.971 131.581C117.192 132.954 116.487 134.474 115.931 136.069C116.858 135.958 118.972 135.921 121.791 137.404C122.347 135.624 122.866 134.474 123.126 133.955Z" fill="#191919"/>
<path d="M118.379 129.467C118.379 129.467 116.821 128.132 114.411 129.579C112 130.988 107.921 135.995 107.327 137.441L111.666 141.817L114.559 137.552C114.559 137.552 115.597 134.437 116.154 133.436C117.303 131.248 118.379 129.467 118.379 129.467Z" fill="#6B845F"/>
<path d="M109.107 138.702C109.107 138.702 113.113 130.84 117.415 131.099L118.416 129.356C118.416 129.356 116.191 127.947 113.446 130.172C110.665 132.397 107.068 137.552 107.068 137.552L109.107 138.702Z" fill="white"/>
<path fill-rule="evenodd" clip-rule="evenodd" d="M114.151 129.282C117.118 127.688 118.638 129.134 118.713 129.208C118.861 129.393 118.861 129.653 118.713 129.839C118.564 129.987 118.268 129.987 118.119 129.839C118.119 129.801 117.6 129.356 116.599 129.393C117.118 129.727 117.637 130.246 117.86 131.025C117.897 131.248 117.785 131.507 117.563 131.544H117.452C117.266 131.544 117.081 131.433 117.044 131.248C116.747 130.209 115.523 129.801 115.227 129.727C115.004 129.801 114.781 129.913 114.522 130.061C114.299 130.172 114.114 130.284 113.891 130.432C115.041 130.654 116.413 131.433 116.784 133.325C116.821 133.547 116.673 133.77 116.45 133.807H116.376C116.191 133.807 116.005 133.658 115.968 133.473C115.499 131.129 113.172 131.169 112.942 131.173C112.935 131.174 112.93 131.174 112.927 131.174C112.408 131.582 111.926 132.064 111.481 132.546C112.148 132.62 113.001 132.805 113.78 133.399C114.744 134.103 115.264 135.253 115.412 136.737C115.449 136.959 115.264 137.144 115.041 137.182H115.004C114.819 137.182 114.596 137.033 114.596 136.811C114.485 135.587 114.04 134.66 113.298 134.066C112.334 133.362 111.11 133.362 110.739 133.399C110.257 133.955 109.775 134.548 109.367 135.105C110.813 135.327 112.816 136.291 113.483 139.11C113.566 138.995 113.648 138.882 113.728 138.771C114.011 138.381 114.275 138.018 114.448 137.701C114.559 137.515 114.819 137.441 115.004 137.552C115.189 137.664 115.264 137.923 115.152 138.109C114.336 139.555 112.371 141.743 111.889 142.225C111.815 142.782 111.666 143.523 111.11 143.709C110.999 143.746 110.925 143.746 110.813 143.746H110.813C110.216 143.746 109.586 143.114 108.859 142.386C108.819 142.345 108.778 142.304 108.736 142.262L108.736 142.262C108.366 141.891 107.995 141.521 107.661 141.261C106.956 140.705 106.4 140.371 105.918 140.111C105.88 140.089 105.843 140.068 105.806 140.047C105.159 139.674 104.686 139.402 104.546 138.665C104.472 138.294 104.583 137.923 104.805 137.664C105.325 137.07 106.474 136.996 106.993 136.996C107.698 135.921 110.962 131.025 114.151 129.282ZM112.645 140.045C112.689 139.993 112.734 139.941 112.779 139.889C112.26 136.032 109.367 135.846 108.774 135.884C108.366 136.403 108.069 136.848 107.846 137.182C108.736 137.515 110.554 138.517 111.629 141.187C111.896 140.92 112.252 140.504 112.645 140.045Z" fill="#191919"/>
</svg>
