<svg width="266" height="186" viewBox="0 0 266 186" fill="none" xmlns="http://www.w3.org/2000/svg">
<mask id="mask0" mask-type="alpha" maskUnits="userSpaceOnUse" x="184" y="104" width="82" height="82">
<rect x="184.198" y="104.227" width="80.8505" height="80.8505" fill="white"/>
</mask>
<g mask="url(#mask0)">
<ellipse cx="224.624" cy="144.675" rx="40.4252" ry="40.3748" fill="#6F85E9"/>
</g>
<mask id="mask1" mask-type="alpha" maskUnits="userSpaceOnUse" x="0" y="91" width="174" height="95">
<rect y="91.396" width="173.125" height="93.6811" fill="white"/>
</mask>
<g mask="url(#mask1)">
<ellipse cx="86.5664" cy="138.239" rx="35.6073" ry="91.991" transform="rotate(-69.0657 86.5664 138.239)" fill="#6B845F"/>
</g>
<mask id="mask2" mask-type="alpha" maskUnits="userSpaceOnUse" x="193" y="101" width="65" height="62">
<rect x="193.865" y="101.415" width="63.45" height="61.5167" fill="white"/>
</mask>
<g mask="url(#mask2)">
<path d="M252.067 138.149L239.812 156.336C238.776 157.874 237.199 158.96 235.397 159.378L235.145 159.436L255.593 101.947C256.65 103.464 257.099 105.325 256.847 107.159L252.9 135.963C252.794 136.746 252.508 137.494 252.067 138.149Z" fill="#E9856F"/>
<path fill-rule="evenodd" clip-rule="evenodd" d="M234.846 159.703C234.922 159.79 235.032 159.838 235.144 159.838C235.175 159.838 235.205 159.835 235.234 159.828L235.487 159.769C237.394 159.327 239.047 158.188 240.143 156.561L252.398 138.374C252.872 137.672 253.182 136.857 253.297 136.018L257.243 107.214C257.51 105.274 257.04 103.321 255.921 101.717C255.835 101.594 255.691 101.529 255.54 101.549C255.392 101.569 255.267 101.671 255.217 101.812L234.768 159.301C234.719 159.439 234.748 159.594 234.846 159.703ZM235.774 158.861L255.69 102.868C256.383 104.158 256.652 105.635 256.452 107.105L252.505 135.908C252.406 136.627 252.141 137.324 251.736 137.924L239.481 156.111C238.589 157.435 237.285 158.399 235.774 158.861Z" fill="#1A1A1A"/>
<path d="M198.191 162.53H231.201C233.081 162.53 234.752 162.006 235.005 159.699C232.768 159.699 194.265 159.699 194.265 159.699C194.265 159.699 194.848 162.53 198.191 162.53Z" fill="#E9856F"/>
<path fill-rule="evenodd" clip-rule="evenodd" d="M198.191 162.931H231.201C232.154 162.931 235.054 162.931 235.403 159.743C235.415 159.629 235.379 159.516 235.303 159.431C235.227 159.345 235.119 159.297 235.005 159.297H194.265C194.145 159.297 194.03 159.351 193.955 159.445C193.879 159.539 193.849 159.662 193.873 159.78C193.88 159.812 194.565 162.931 198.191 162.931ZM198.191 162.128C196.017 162.128 195.143 160.831 194.822 160.1H234.536C234.224 161.516 233.201 162.128 231.201 162.128H198.191Z" fill="#1A1A1A"/>
<path d="M194.265 159.699H235.005L241.534 123.627H207.48L194.265 159.699Z" fill="white"/>
<path fill-rule="evenodd" clip-rule="evenodd" d="M194.265 160.1H235.006C235.199 160.1 235.364 159.961 235.399 159.77L241.928 123.699C241.949 123.582 241.917 123.461 241.841 123.37C241.765 123.278 241.653 123.226 241.534 123.226H207.48C207.313 123.226 207.163 123.33 207.105 123.489L193.89 159.56C193.845 159.683 193.863 159.821 193.937 159.929C194.012 160.036 194.135 160.1 194.265 160.1ZM234.672 159.297H194.838L207.759 124.029H241.055L234.672 159.297Z" fill="#1A1A1A"/>
<path d="M250.936 136.21L235.005 159.698L241.534 123.627L255.689 101.816L250.936 136.21Z" fill="#1A1A1A"/>
<path fill-rule="evenodd" clip-rule="evenodd" d="M234.854 160.07C234.903 160.09 234.955 160.1 235.005 160.1C235.135 160.1 235.26 160.037 235.336 159.924L251.267 136.436C251.301 136.384 251.324 136.326 251.332 136.265L256.085 101.871C256.111 101.685 256.004 101.506 255.829 101.44C255.654 101.374 255.456 101.439 255.354 101.597L241.199 123.408C241.17 123.452 241.15 123.502 241.141 123.555L234.612 159.627C234.578 159.813 234.679 159.998 234.854 160.07ZM235.736 157.908L241.913 123.778L255.046 103.541L250.553 136.062L235.736 157.908Z" fill="#1A1A1A"/>
<path fill-rule="evenodd" clip-rule="evenodd" d="M230.515 128.294L230.08 130.166C230.01 130.47 230.274 130.714 230.67 130.711L233.139 130.694C233.535 130.691 233.91 130.442 233.976 130.138L234.379 128.264C234.443 127.966 234.177 127.727 233.785 127.73L231.348 127.749C230.956 127.753 230.584 127.996 230.515 128.294ZM229.509 132.629L229.058 134.573C228.985 134.888 229.253 135.142 229.656 135.14L232.171 135.126C232.575 135.124 232.959 134.866 233.027 134.55L233.445 132.604C233.512 132.294 233.242 132.046 232.843 132.049L230.361 132.065C229.962 132.067 229.581 132.319 229.509 132.629ZM228.465 137.131L227.996 139.151C227.92 139.479 228.192 139.744 228.603 139.742L231.167 139.731C231.579 139.729 231.971 139.461 232.041 139.133L232.476 137.11C232.545 136.788 232.271 136.53 231.865 136.532L229.335 136.545C228.929 136.548 228.539 136.81 228.465 137.131ZM227.379 141.811L226.892 143.912C226.813 144.253 227.089 144.529 227.508 144.528L230.122 144.52C230.543 144.519 230.943 144.241 231.016 143.899L231.469 141.796C231.541 141.461 231.263 141.192 230.848 141.193L228.269 141.203C227.855 141.205 227.457 141.476 227.379 141.811ZM226.25 146.679L225.743 148.866C225.66 149.221 225.94 149.509 226.368 149.508L229.034 149.504C229.463 149.503 229.873 149.214 229.949 148.859L230.42 146.669C230.495 146.321 230.213 146.04 229.79 146.041L227.16 146.048C226.738 146.049 226.331 146.331 226.25 146.679ZM228.689 151.088L226.006 151.091C225.575 151.092 225.158 151.385 225.074 151.747L224.546 154.025C224.46 154.395 224.744 154.696 225.181 154.696H227.902C228.339 154.696 228.759 154.395 228.838 154.024L229.329 151.744C229.407 151.381 229.12 151.088 228.689 151.088ZM217.415 154.027L218.007 151.753C218.101 151.392 218.524 151.099 218.953 151.099L221.625 151.096C222.055 151.096 222.332 151.388 222.244 151.75L221.69 154.026C221.601 154.396 221.174 154.696 220.739 154.696H218.029C217.594 154.696 217.319 154.396 217.415 154.027ZM210.967 151.759L210.314 154.028C210.208 154.396 210.472 154.696 210.906 154.696H213.604C214.038 154.696 214.471 154.396 214.571 154.027L215.187 151.756C215.285 151.394 215.017 151.103 214.589 151.103L211.928 151.106C211.501 151.107 211.071 151.398 210.967 151.759ZM203.242 154.029L203.957 151.765C204.07 151.405 204.507 151.114 204.933 151.113L207.583 151.11C208.009 151.11 208.267 151.401 208.159 151.761L207.482 154.028C207.371 154.397 206.931 154.696 206.499 154.696H203.812C203.381 154.696 203.126 154.397 203.242 154.029ZM218.754 148.878L219.322 146.695C219.412 146.348 219.826 146.066 220.246 146.066L222.865 146.059C223.286 146.058 223.559 146.338 223.475 146.686L222.944 148.871C222.858 149.226 222.441 149.514 222.014 149.515L219.359 149.519C218.932 149.519 218.662 149.232 218.754 148.878ZM212.421 146.711L211.794 148.89C211.692 149.243 211.953 149.53 212.378 149.53L215.023 149.526C215.448 149.525 215.871 149.236 215.967 148.883L216.558 146.702C216.652 146.355 216.388 146.076 215.969 146.076L213.36 146.083C212.941 146.084 212.521 146.365 212.421 146.711ZM204.861 148.901L205.548 146.727C205.657 146.381 206.083 146.101 206.5 146.1L209.099 146.093C209.517 146.093 209.772 146.372 209.668 146.718L209.017 148.894C208.912 149.248 208.482 149.535 208.059 149.536L205.425 149.54C205.002 149.54 204.75 149.254 204.861 148.901ZM220.04 143.933L220.585 141.836C220.672 141.503 221.076 141.232 221.489 141.23L224.058 141.22C224.471 141.218 224.74 141.487 224.659 141.821L224.148 143.921C224.065 144.261 223.659 144.539 223.24 144.54L220.636 144.548C220.218 144.549 219.952 144.274 220.04 143.933ZM213.818 141.861L213.215 143.955C213.117 144.294 213.375 144.569 213.791 144.568L216.384 144.561C216.802 144.559 217.214 144.282 217.307 143.942L217.875 141.846C217.965 141.513 217.705 141.245 217.293 141.246L214.735 141.256C214.324 141.258 213.913 141.528 213.818 141.861ZM206.417 143.976L207.076 141.886C207.181 141.554 207.598 141.284 208.007 141.282L210.556 141.272C210.966 141.27 211.217 141.538 211.118 141.871L210.492 143.963C210.391 144.302 209.971 144.579 209.556 144.58L206.973 144.588C206.558 144.589 206.309 144.315 206.417 143.976ZM221.275 139.182L221.8 137.165C221.883 136.844 222.278 136.583 222.683 136.58L225.203 136.567C225.609 136.565 225.874 136.823 225.796 137.144L225.305 139.163C225.225 139.491 224.828 139.759 224.417 139.76L221.863 139.771C221.453 139.773 221.19 139.509 221.275 139.182ZM215.16 137.199L214.581 139.212C214.487 139.539 214.741 139.802 215.149 139.801L217.693 139.79C218.102 139.788 218.506 139.521 218.594 139.194L219.141 137.179C219.228 136.858 218.971 136.601 218.567 136.603L216.057 136.616C215.654 136.617 215.253 136.878 215.16 137.199ZM207.912 139.241L208.546 137.232C208.647 136.912 209.054 136.652 209.455 136.65L211.956 136.637C212.359 136.634 212.607 136.892 212.511 137.212L211.91 139.223C211.812 139.55 211.403 139.817 210.995 139.818L208.461 139.829C208.055 139.831 207.809 139.567 207.912 139.241ZM222.464 134.611L222.968 132.671C223.049 132.362 223.435 132.11 223.832 132.107L226.305 132.091C226.703 132.089 226.965 132.337 226.889 132.646L226.417 134.588C226.341 134.904 225.952 135.161 225.549 135.164L223.044 135.178C222.641 135.18 222.382 134.926 222.464 134.611ZM216.452 132.712L215.894 134.649C215.804 134.964 216.055 135.217 216.456 135.215L218.952 135.201C219.353 135.199 219.748 134.941 219.833 134.627L220.359 132.687C220.443 132.378 220.189 132.131 219.793 132.133L217.329 132.149C216.933 132.152 216.541 132.404 216.452 132.712ZM209.35 134.688L209.96 132.754C210.058 132.446 210.456 132.195 210.85 132.192L213.305 132.176C213.7 132.174 213.945 132.421 213.853 132.729L213.274 134.665C213.18 134.979 212.779 135.236 212.379 135.238L209.893 135.252C209.494 135.254 209.251 135.001 209.35 134.688ZM223.607 130.212L224.093 128.343C224.171 128.046 224.549 127.803 224.94 127.799L227.368 127.781C227.758 127.778 228.016 128.016 227.944 128.314L227.489 130.185C227.415 130.488 227.034 130.737 226.639 130.739L224.179 130.756C223.785 130.759 223.529 130.515 223.607 130.212ZM217.696 128.392L217.159 130.258C217.072 130.56 217.32 130.804 217.713 130.801L220.163 130.784C220.557 130.782 220.943 130.534 221.025 130.23L221.532 128.363C221.613 128.066 221.363 127.828 220.973 127.83L218.554 127.849C218.165 127.852 217.781 128.095 217.696 128.392ZM210.734 130.303L211.322 128.441C211.416 128.144 211.805 127.902 212.192 127.899L214.602 127.881C214.99 127.877 215.232 128.115 215.143 128.412L214.586 130.276C214.495 130.579 214.103 130.827 213.711 130.829L211.27 130.846C210.879 130.849 210.638 130.606 210.734 130.303Z" fill="#E9856F"/>
</g>
<mask id="mask3" mask-type="alpha" maskUnits="userSpaceOnUse" x="41" y="114" width="123" height="57">
<rect x="41.8313" y="114.421" width="121.979" height="55.7165" fill="white"/>
</mask>
<g mask="url(#mask3)">
<ellipse cx="102.823" cy="142.281" rx="15.5732" ry="65.0032" transform="rotate(-69.0657 102.823 142.281)" fill="#1A1A1A"/>
<path fill-rule="evenodd" clip-rule="evenodd" d="M141.494 169.451C145.009 169.908 148.15 170.135 150.889 170.135C158.005 170.135 162.398 168.607 163.523 165.645C165.082 161.544 160.152 155.283 149.64 148.016C139.271 140.848 124.671 133.478 108.528 127.264C92.3847 121.05 76.6236 116.732 64.1477 115.107C51.5001 113.459 43.6769 114.811 42.1177 118.912C40.559 123.014 45.4896 129.275 56.0012 136.542C66.3704 143.71 80.9706 151.08 97.1136 157.294C113.257 163.508 129.018 167.825 141.494 169.451ZM42.867 119.201C43.8586 116.592 48.0552 115.232 54.7453 115.232C57.4521 115.232 60.5688 115.455 64.0446 115.908C76.4595 117.525 92.1557 121.826 108.241 128.018C124.326 134.21 138.868 141.549 149.186 148.682C159.214 155.615 164.167 161.693 162.774 165.357C161.381 169.022 153.662 170.222 141.597 168.65C129.181 167.033 113.486 162.732 97.4005 156.54C81.3152 150.348 66.7739 143.009 56.4553 135.876C46.4271 128.943 41.4743 122.866 42.867 119.201Z" fill="#1A1A1A"/>
</g>
<mask id="mask4" mask-type="alpha" maskUnits="userSpaceOnUse" x="28" y="14" width="197" height="157">
<rect x="28.1219" y="14.4126" width="196.326" height="155.725" fill="white"/>
</mask>
<g mask="url(#mask4)">
<path d="M188.877 100.76C188.877 100.76 190.463 97.9316 190.644 95.9806C190.825 94.0297 192.308 94.3028 192.421 95.7932C192.534 97.2839 192.104 99.3037 192.104 99.3037" fill="#E9856F"/>
<path d="M188.876 101.163C188.81 101.163 188.742 101.146 188.68 101.111C188.487 101.002 188.419 100.757 188.527 100.563C188.543 100.536 190.073 97.7853 190.244 95.9438C190.364 94.6533 190.991 94.1943 191.542 94.1943C191.545 94.1943 191.547 94.1943 191.55 94.1943C192.123 94.1992 192.743 94.7394 192.82 95.7632C192.937 97.2942 192.514 99.3038 192.495 99.3887C192.45 99.6059 192.236 99.7423 192.02 99.6981C191.803 99.6518 191.665 99.4378 191.711 99.2206C191.715 99.2009 192.128 97.2382 192.02 95.8247C191.978 95.2639 191.71 95.0005 191.543 94.9993C191.543 94.9993 191.542 94.9993 191.542 94.9993C191.379 94.9993 191.112 95.27 191.042 96.019C190.855 98.0319 189.292 100.84 189.225 100.958C189.152 101.089 189.016 101.163 188.876 101.163Z" fill="#1A1A1A"/>
<path d="M206.396 97.5685C202.944 97.5649 198.201 99.7689 198.201 99.7689C198.201 99.7689 199.893 97.147 204.533 95.0315C206.371 94.194 205.698 92.805 203.711 93.4438C200.616 94.4389 197.033 97.5754 196.617 98.1414C196.617 98.1414 198.587 94.5118 201.545 92.0982C202.754 91.1123 202.218 89.5374 200.318 90.9968C195.797 94.4687 191.469 99.6619 181.188 106.323C180.946 106.48 180.627 106.681 180.245 106.916L187.282 113.693C188.764 111.985 189.582 110.967 189.598 110.955C192.079 108.428 197.191 103.052 204.873 103.453C206.866 103.735 207.175 102.316 205.691 101.889C202.815 101.061 199.615 101.717 199.615 101.717C199.615 101.717 201.301 99.851 206.501 99.3888C208.286 99.2303 208.278 97.5705 206.396 97.5685Z" fill="#E9856F"/>
<path fill-rule="evenodd" clip-rule="evenodd" d="M187.005 113.984C187.08 114.056 187.179 114.096 187.282 114.096C187.288 114.096 187.294 114.095 187.3 114.095C187.41 114.091 187.512 114.041 187.585 113.957C188.738 112.627 189.493 111.712 189.778 111.367C189.835 111.297 189.873 111.251 189.889 111.232L190.03 111.089C192.455 108.617 197.497 103.476 204.817 103.851C206.243 104.053 206.885 103.489 207.001 102.943C207.11 102.429 206.781 101.785 205.802 101.503C204.178 101.035 202.475 101.021 201.256 101.107C202.284 100.6 203.968 100.018 206.537 99.7902C207.733 99.6836 208.25 98.9925 208.224 98.3955C208.197 97.7849 207.622 97.1678 206.397 97.1666H206.388C204.119 97.1666 201.362 98.0689 199.65 98.7286C200.606 97.807 202.226 96.5258 204.699 95.3983C205.923 94.8408 206.138 94.0732 205.951 93.5853C205.732 93.0173 204.917 92.634 203.589 93.0616C201.878 93.6114 199.996 94.811 198.564 95.8951C199.391 94.7776 200.501 93.4694 201.798 92.4107C202.554 91.7944 202.813 90.8889 202.389 90.3491C202.222 90.1375 201.563 89.5345 200.075 90.6782C198.588 91.8198 197.145 93.1247 195.475 94.6356L195.474 94.6362C192.087 97.7009 187.872 101.515 180.97 105.986C180.73 106.141 180.415 106.34 180.035 106.574C179.929 106.639 179.86 106.75 179.847 106.874C179.834 106.997 179.878 107.121 179.968 107.207L187.005 113.984ZM187.255 113.111L180.896 106.985C181.09 106.863 181.261 106.754 181.405 106.661C188.36 102.155 192.602 98.3167 196.011 95.2326C197.668 93.7333 199.1 92.4389 200.561 91.3161C201.307 90.7433 201.7 90.7715 201.759 90.8467C201.85 90.9618 201.767 91.3982 201.292 91.7856C198.307 94.2209 196.346 97.7974 196.264 97.9482C196.163 98.1341 196.223 98.3662 196.401 98.48C196.579 98.5938 196.813 98.5496 196.939 98.3798C197.306 97.8818 200.808 94.7993 203.833 93.8267C204.683 93.5543 205.144 93.7229 205.202 93.8741C205.249 93.996 205.052 94.3528 204.367 94.665C199.674 96.8046 197.936 99.439 197.864 99.55C197.767 99.7005 197.781 99.8972 197.898 100.032C198.015 100.168 198.208 100.209 198.369 100.134L198.37 100.133C198.46 100.092 203.079 97.9707 206.387 97.9707H206.395C207.05 97.9715 207.413 98.2081 207.423 98.4305C207.431 98.626 207.14 98.9285 206.466 98.9885C201.171 99.4591 199.391 101.367 199.318 101.447C199.201 101.576 199.181 101.766 199.266 101.917C199.352 102.068 199.526 102.147 199.695 102.112L199.697 102.111C199.795 102.092 202.861 101.492 205.581 102.276C206.058 102.413 206.242 102.655 206.216 102.776C206.186 102.916 205.821 103.181 204.893 103.051C197.185 102.648 191.964 107.969 189.458 110.525L189.327 110.658C189.303 110.681 189.271 110.72 189.171 110.84L189.16 110.854C188.901 111.168 188.248 111.961 187.255 113.111Z" fill="#1A1A1A"/>
<path d="M222.958 131.9C219.794 130.252 219.648 127.241 217.377 125.496C217.377 125.496 219.481 126.111 221.168 126.257C222.556 126.377 223.128 124.994 221.052 124.489C217.395 123.6 216.373 122.417 210.629 120.302C206.224 118.678 199.496 119.919 199.496 119.919C199.496 119.919 198.381 120.125 197.757 120.26C195.139 120.825 192.568 121.319 190.041 121.677L191.917 132.194C194.433 130.973 196.977 129.557 199.545 127.928L199.545 127.953C199.545 127.953 199.807 127.768 200.218 127.493C200.546 127.28 200.874 127.074 201.204 126.855C201.215 126.847 201.226 126.839 201.237 126.831C202.306 126.159 203.661 125.377 204.632 125.065C207.184 124.246 208.975 129.504 210.121 132.509C211.268 135.513 212.908 134.038 212.792 132.717C212.677 131.396 212.635 131.724 211.927 128.681C214.79 131.091 217.627 133.055 221.647 133.95C224.154 134.507 224.874 132.836 222.958 131.9Z" fill="#E9856F"/>
<path fill-rule="evenodd" clip-rule="evenodd" d="M209.747 132.651C210.385 134.325 211.161 134.671 211.692 134.671C211.796 134.671 211.891 134.657 211.973 134.638C212.723 134.464 213.27 133.586 213.191 132.681C213.115 131.807 213.065 131.611 212.858 130.802L212.856 130.794L212.847 130.762C212.781 130.502 212.698 130.179 212.593 129.749C215.314 131.934 217.979 133.544 221.559 134.341C223.297 134.728 224.169 134.135 224.387 133.509C224.573 132.974 224.357 132.138 223.138 131.54C221.436 130.652 220.643 129.318 219.877 128.028L219.874 128.022C219.518 127.423 219.155 126.813 218.702 126.249C219.427 126.414 220.322 126.587 221.133 126.657C221.999 126.734 222.698 126.321 222.802 125.681C222.891 125.132 222.503 124.427 221.146 124.097C219.198 123.624 218.031 123.074 216.416 122.313L216.406 122.308C215.067 121.678 213.401 120.893 210.767 119.923C206.309 118.281 199.702 119.472 199.423 119.523C199.377 119.532 198.295 119.731 197.672 119.866C194.7 120.507 192.257 120.956 189.984 121.278C189.876 121.293 189.779 121.352 189.715 121.44C189.651 121.529 189.626 121.639 189.645 121.747L191.522 132.265C191.543 132.389 191.622 132.495 191.734 132.552C191.846 132.609 191.978 132.611 192.091 132.556C194.614 131.331 197.153 129.914 199.64 128.343C199.688 128.331 199.733 128.31 199.775 128.281C199.775 128.281 199.777 128.28 199.779 128.278C199.816 128.253 200.065 128.078 200.434 127.83L200.762 127.619C200.983 127.478 201.204 127.337 201.45 127.171C202.858 126.285 204.001 125.689 204.753 125.447C206.782 124.796 208.496 129.339 209.521 132.055L209.522 132.058L209.747 132.651ZM210.271 131.771C209.171 128.856 207.556 124.574 205.169 124.574C204.955 124.574 204.735 124.608 204.509 124.681C203.683 124.947 202.51 125.555 201.024 126.49C201.022 126.492 200.985 126.517 200.981 126.519C200.764 126.664 200.548 126.803 200.331 126.942L199.995 127.158C199.743 127.327 199.546 127.462 199.43 127.543C199.396 127.553 199.362 127.568 199.331 127.588C196.988 129.074 194.597 130.422 192.218 131.599L190.509 122.015C192.685 121.695 195.028 121.26 197.841 120.653C198.461 120.519 199.567 120.315 199.568 120.315C199.635 120.303 206.237 119.112 210.491 120.679C213.098 121.639 214.748 122.416 216.074 123.041L216.076 123.042C217.672 123.793 218.932 124.387 220.958 124.88C221.773 125.078 222.038 125.397 222.012 125.552C221.987 125.707 221.691 125.899 221.203 125.856C219.581 125.716 217.525 125.12 217.49 125.11L217.489 125.11C217.305 125.056 217.107 125.142 217.02 125.314C216.933 125.487 216.98 125.698 217.134 125.816C218.047 126.518 218.602 127.452 219.189 128.44C220.013 129.828 220.866 131.264 222.773 132.257C222.776 132.259 222.779 132.26 222.782 132.261C223.481 132.603 223.711 133.01 223.63 133.245C223.538 133.508 222.943 133.824 221.733 133.556C217.908 132.705 215.149 130.868 212.184 128.372C212.052 128.261 211.863 128.247 211.717 128.337C211.57 128.428 211.497 128.603 211.536 128.771C211.793 129.875 211.962 130.537 212.08 130.995C212.285 131.796 212.322 131.941 212.393 132.752C212.435 133.238 212.144 133.774 211.793 133.855C211.468 133.931 210.959 133.577 210.495 132.364L210.272 131.773L210.271 131.771Z" fill="#1A1A1A"/>
<path d="M196.083 120.61C175.967 124.726 156.98 123.854 141.733 87.2012L114.525 111.404C123.095 125.51 157.804 153.696 198.705 128.443C195.145 127.22 195.687 122.554 196.083 120.61Z" fill="white"/>
<path fill-rule="evenodd" clip-rule="evenodd" d="M151.77 137.361C156.302 138.454 160.832 139 165.354 139C176.661 139 187.904 135.584 198.916 128.786C199.047 128.705 199.121 128.553 199.104 128.399C199.087 128.244 198.982 128.113 198.835 128.063C195.577 126.944 196.1 122.535 196.476 120.691C196.503 120.559 196.462 120.422 196.367 120.326C196.272 120.231 196.136 120.19 196.003 120.216C177.303 124.042 157.739 124.633 142.103 87.0465C142.053 86.927 141.949 86.8386 141.823 86.8096C141.695 86.7802 141.564 86.8148 141.467 86.9005L114.26 111.104C114.114 111.233 114.082 111.448 114.183 111.614C118.29 118.374 131.431 132.455 151.77 137.361ZM151.957 136.578C132.158 131.803 119.281 118.246 115.044 111.481L141.58 87.8744C148.575 104.495 156.865 114.861 166.913 119.558C176.447 124.015 186.716 122.897 195.582 121.122C195.238 123.233 195.075 126.99 197.84 128.501C182.82 137.582 167.387 140.3 151.957 136.578Z" fill="#1A1A1A"/>
<path d="M97.6441 156.969C119.894 165.509 140.433 170.048 152.533 169.718C153.472 125.146 145.562 55.6598 109.82 62.571C72.6159 77.6059 72.9214 138.767 72.6885 145.826C80.0939 149.671 88.5387 153.474 97.6441 156.969Z" fill="white"/>
<path d="M82.6121 91.8555C77.3925 112.653 83.9938 120.51 78.1602 130.062C76.9408 132.059 77.1556 136.892 78.7743 141C80.514 145.416 83.9938 148.497 90.9534 154.146C79.9003 149.319 72.6881 145.827 72.6881 145.827C72.6881 145.827 72.6332 113.578 82.6121 91.8555Z" fill="#E9856F"/>
<path d="M111.32 66.8464C104.565 66.2301 95.354 72.0842 86.6547 83.6898C87.668 81.6564 88.9912 79.6109 90.4624 77.6708C95.0834 71.5749 101.16 66.5169 103.644 66.1275C106.919 65.6143 111.32 66.8464 111.32 66.8464Z" fill="#E9856F"/>
<path d="M88.317 96.4838C87.676 96.4838 87.0299 96.4238 86.3853 96.3023C84.6031 95.9664 82.9448 95.1708 81.5895 94.0014C81.4219 93.8566 81.4027 93.6024 81.5474 93.4342C81.6917 93.2657 81.9446 93.2472 82.1126 93.3916C83.3604 94.4688 84.8893 95.2017 86.5332 95.5119C88.9508 95.9677 91.3912 95.487 93.4067 94.1595C95.4181 92.8353 96.765 90.8252 97.2003 88.5005C98.0534 83.9433 95.0802 79.4295 90.4307 78.2248C90.2163 78.1692 90.0876 77.9496 90.1429 77.7348C90.1982 77.5196 90.4167 77.3905 90.6311 77.446C95.6871 78.7561 98.9188 83.6774 97.988 88.6493C97.5122 91.1912 96.0419 93.3868 93.8464 94.8325C92.1949 95.9194 90.282 96.4838 88.317 96.4838Z" fill="#E9856F"/>
<path d="M107.636 63.4573C112.52 60.553 116.613 62.5237 127.382 71.7077C127.549 68.9092 127.13 66.4711 125.338 64.7727C123.545 63.074 115.865 57.6809 107.636 63.4573Z" fill="#E9856F"/>
<path d="M105.116 160.12C105.106 160.12 105.095 160.12 105.085 160.119C104.864 160.102 104.699 159.909 104.716 159.687C104.924 156.964 104.064 154.323 102.292 152.25C100.521 150.177 98.0514 148.919 95.3381 148.71C91.9424 148.448 88.6598 149.896 86.5497 152.582C86.413 152.756 86.1613 152.786 85.9869 152.648C85.813 152.511 85.7833 152.258 85.9204 152.084C88.196 149.187 91.7436 147.627 95.399 147.909C98.326 148.134 100.99 149.49 102.901 151.726C104.812 153.963 105.74 156.812 105.515 159.749C105.499 159.96 105.324 160.12 105.116 160.12Z" fill="#E9856F"/>
<path d="M145.401 97.4014C149.392 106.953 152.617 116.35 154.766 120.51C158.016 126.801 162.288 129.445 167.508 132.68C172.727 135.916 179.175 131.14 191.917 132.194C177.026 138.072 165.819 140.383 151.235 137.148C150.928 129.907 148.011 104.488 145.401 97.4014Z" fill="#1A1A1A"/>
<path fill-rule="evenodd" clip-rule="evenodd" d="M97.5005 157.345C118.22 165.297 138.629 170.137 151.284 170.137C151.712 170.137 152.133 170.132 152.543 170.121C152.758 170.115 152.929 169.941 152.933 169.727C153.196 157.26 153.038 125.399 145.911 98.866C142.523 86.2547 138.028 76.7006 132.551 70.4696C126.219 63.2651 118.547 60.4742 109.744 62.1758C109.719 62.1806 109.694 62.1879 109.67 62.1975C86.5604 71.5364 73.2954 100.802 72.3177 144.602C72.3065 145.102 72.2972 145.508 72.2876 145.813C72.282 145.968 72.3666 146.112 72.5037 146.183C80.182 150.17 88.592 153.925 97.5005 157.345ZM152.139 169.325C139.668 169.55 118.899 164.696 97.7872 156.593C88.9932 153.218 80.6875 149.515 73.0957 145.585C73.102 145.365 73.1077 145.108 73.1142 144.815L73.1186 144.62C73.6806 119.46 79.2092 75.4053 109.933 62.9586C118.42 61.3294 125.827 64.0358 131.95 71.0022C137.344 77.1395 141.781 86.585 145.136 99.0755C152.165 125.24 152.39 156.633 152.139 169.325Z" fill="#1A1A1A"/>
<path d="M83.6226 99.1851C83.6126 109.378 87.8877 124.256 95.1119 136C98.5985 141.667 102.772 146.606 107.482 149.935C138.502 171.861 184.497 117.48 189.597 110.956C189.896 110.651 190.235 110.304 190.61 109.932C189.208 106.357 186.436 104.844 184.338 104.201C183.352 104.892 182.307 105.598 181.187 106.324C177.019 109.024 150.902 124.344 139.706 123.084C132.682 122.293 129.026 112.899 125.137 99.2494" fill="white"/>
<path fill-rule="evenodd" clip-rule="evenodd" d="M122.484 143.978C122.484 149.41 126.888 153.829 132.301 153.829C137.714 153.829 142.117 149.41 142.117 143.978C142.117 138.546 137.714 134.127 132.301 134.127C126.888 134.127 122.484 138.546 122.484 143.978ZM123.286 143.978C123.286 138.99 127.33 134.931 132.301 134.931C137.272 134.931 141.316 138.99 141.316 143.978C141.316 148.966 137.271 153.024 132.301 153.024C127.33 153.024 123.286 148.966 123.286 143.978Z" fill="#E9856F"/>
<path fill-rule="evenodd" clip-rule="evenodd" d="M121.592 88.1097C122.32 88.2943 123.041 88.3856 123.74 88.3856C125.331 88.3856 126.815 87.9134 128.049 86.993C129.827 85.6679 130.867 83.579 130.979 81.1111C131.09 78.6742 130.279 76.1537 128.696 74.0153C127.113 71.8764 124.942 70.3696 122.585 69.7722C120.197 69.1672 117.905 69.5638 116.128 70.8889C114.35 72.2139 113.31 74.3029 113.198 76.7707C113.087 79.208 113.898 81.7282 115.481 83.8666C117.064 86.0054 119.235 87.5123 121.592 88.1097ZM116.606 71.5349C117.699 70.7199 119.018 70.3016 120.44 70.3016C121.073 70.3016 121.727 70.3845 122.389 70.5522C124.568 71.1045 126.579 72.5044 128.052 74.4948C129.526 76.4851 130.281 78.8219 130.179 81.0745C130.078 83.2962 129.152 85.1687 127.572 86.347C125.991 87.5248 123.937 87.8739 121.788 87.3293C119.609 86.7774 117.599 85.3767 116.125 83.3867C114.652 81.3967 113.896 79.06 113.999 76.8073C114.099 74.5857 115.025 72.7131 116.606 71.5349Z" fill="#E9856F"/>
<path d="M222.669 132.224C222.639 132.224 222.61 132.221 222.58 132.214C219.18 131.442 215.562 128.699 215.41 128.582C215.234 128.448 215.2 128.196 215.334 128.019C215.468 127.842 215.719 127.807 215.895 127.942C215.931 127.97 219.528 130.696 222.756 131.43C222.972 131.479 223.108 131.694 223.059 131.911C223.017 132.097 222.852 132.224 222.669 132.224Z" fill="#1A1A1A"/>
<path d="M216.614 126.915C216.614 126.915 218.737 127.991 220.16 129.284L216.614 126.915Z" fill="#FECE2F"/>
<path d="M220.16 129.686C220.065 129.686 219.968 129.652 219.891 129.582C218.526 128.342 216.454 127.284 216.433 127.274C216.236 127.173 216.157 126.931 216.256 126.733C216.356 126.535 216.598 126.455 216.795 126.555C216.884 126.601 218.983 127.671 220.429 128.986C220.594 129.135 220.606 129.389 220.457 129.554C220.378 129.641 220.27 129.686 220.16 129.686Z" fill="#1A1A1A"/>
<path d="M162.979 138.013C162.879 138.013 162.78 137.977 162.702 137.903C160.791 136.079 159.738 133.618 159.738 130.972C159.738 125.699 164.013 121.409 169.267 121.409C172.261 121.409 175.021 122.78 176.842 125.169C176.976 125.345 176.942 125.598 176.766 125.733C176.59 125.867 176.339 125.834 176.205 125.657C174.537 123.469 172.009 122.214 169.267 122.214C164.454 122.214 160.54 126.143 160.54 130.972C160.54 133.395 161.504 135.649 163.254 137.32C163.414 137.473 163.421 137.727 163.268 137.889C163.19 137.971 163.084 138.013 162.979 138.013Z" fill="#E9856F"/>
<path d="M130.663 116.042C132.176 130.392 134.864 127.734 138.563 125.829C141.626 124.252 141.489 127.222 144.117 127.253C145.97 127.275 147.684 124.964 149.338 124.065C150.993 123.167 152.014 125.279 155.782 122.219C157.46 120.856 160.176 120.088 161.6 119.937C163.026 119.785 164.973 118.416 166.461 117.11C169.005 114.878 182.457 105.807 182.457 105.807C182.457 105.807 163.354 116.923 154.592 119.712C149.457 121.347 137.111 127.751 130.663 116.042Z" fill="#E9856F"/>
<path d="M93.9519 134.584C93.8324 134.584 93.7142 134.531 93.6352 134.429C93.4993 134.254 93.5306 134.001 93.7054 133.865C96.0107 132.063 97.3331 129.349 97.3331 126.42C97.3331 121.22 93.1173 116.989 87.9355 116.989C87.5078 116.989 87.0772 117.018 86.6559 117.076C86.4371 117.106 86.2343 116.951 86.2046 116.731C86.1749 116.511 86.3289 116.308 86.5477 116.279C87.0051 116.216 87.4721 116.185 87.9355 116.185C93.5595 116.185 98.1348 120.776 98.1348 126.42C98.1348 129.599 96.6998 132.544 94.198 134.499C94.1243 134.557 94.0377 134.584 93.9519 134.584Z" fill="#E9856F"/>
<path fill-rule="evenodd" clip-rule="evenodd" d="M127.159 71.8556C128.22 72.7643 130.585 74.6553 131.892 74.6553C132.094 74.6553 132.271 74.6099 132.413 74.5085C133.046 74.06 132.73 72.9956 132.439 72.2337C130.612 67.469 126.094 64.7638 125.903 64.6507C125.747 64.559 125.55 64.5827 125.421 64.7086C125.291 64.8342 125.261 65.0309 125.347 65.1898C126.559 67.4311 127.106 69.5056 127.019 71.5322C127.013 71.6557 127.065 71.7752 127.159 71.8556ZM131.95 73.852C131.63 74.0568 129.813 73.0439 127.826 71.3685C127.867 69.6943 127.51 67.9971 126.741 66.2199C128.194 67.3479 130.542 69.5265 131.69 72.523C132.104 73.6029 131.955 73.8445 131.95 73.8519C131.95 73.852 131.95 73.852 131.95 73.852Z" fill="#1A1A1A"/>
<path d="M127.141 73.0695L127.185 74.4577C127.185 74.4577 128.156 74.9911 128.818 74.6234L129.795 73.4549L127.729 71.8579L127.141 73.0695Z" fill="#1A1A1A"/>
<path fill-rule="evenodd" clip-rule="evenodd" d="M126.993 74.8107C127.078 74.8569 127.646 75.1558 128.267 75.1558C128.516 75.1558 128.774 75.1075 129.012 74.9752C129.055 74.9514 129.094 74.9197 129.125 74.8819L130.102 73.7133C130.172 73.6296 130.205 73.5206 130.193 73.4116C130.181 73.3026 130.126 73.2032 130.04 73.136L127.974 71.5391C127.878 71.4655 127.753 71.4385 127.637 71.4663C127.52 71.494 127.421 71.5729 127.368 71.6819L126.781 72.8935C126.752 72.9522 126.738 73.017 126.741 73.0821L126.785 74.4703C126.789 74.6127 126.868 74.7423 126.993 74.8107ZM128.566 74.299C128.273 74.4189 127.849 74.3038 127.578 74.196L127.545 73.1562L127.874 72.4775L129.219 73.5174L128.566 74.299Z" fill="#1A1A1A"/>
<path d="M142.12 97.4782C142.12 97.4782 135.549 96.4331 133.108 87.5805C130.948 79.7461 129.391 75.2275 127.789 72.709C133.222 76.1342 135.372 81.1657 136.859 85.0194C138.346 88.8742 138.612 94.4495 142.12 97.4782Z" fill="#1A1A1A"/>
<path d="M131.902 92.7755C131.902 92.7755 126.188 92.7602 127.145 83.6257C127.736 77.986 128.586 75.2523 127.792 72.3721C131.09 76.6292 130.982 80.2057 130.927 83.2689C130.852 87.4017 130.929 88.9874 131.902 92.7755Z" fill="#1A1A1A"/>
<path d="M194.554 131.216C194.499 131.216 194.443 131.205 194.39 131.181C190.122 129.252 191.399 123.948 191.412 123.894C191.466 123.679 191.681 123.548 191.898 123.603C192.113 123.657 192.243 123.875 192.19 124.09C192.142 124.282 191.066 128.796 194.719 130.447C194.921 130.538 195.011 130.776 194.92 130.979C194.853 131.128 194.707 131.216 194.554 131.216Z" fill="#1A1A1A"/>
<path d="M187.46 113.504C187.3 113.504 187.149 113.407 187.087 113.249C185.912 110.257 182.65 108.361 182.617 108.342C182.425 108.232 182.358 107.986 182.468 107.794C182.578 107.601 182.822 107.534 183.015 107.644C183.158 107.726 186.556 109.701 187.833 112.954C187.914 113.161 187.813 113.394 187.607 113.476C187.559 113.495 187.509 113.504 187.46 113.504Z" fill="#1A1A1A"/>
<ellipse cx="139.299" cy="102.896" rx="1.24181" ry="2.23006" transform="rotate(-7.19253 139.299 102.896)" fill="#E9856F"/>
<path fill-rule="evenodd" clip-rule="evenodd" d="M137.674 103.103C137.849 104.494 138.634 105.517 139.496 105.517C139.541 105.517 139.587 105.514 139.633 105.508C140.112 105.447 140.507 105.09 140.744 104.501C140.949 103.991 141.017 103.348 140.934 102.69C140.75 101.226 139.895 100.172 138.976 100.285C138.062 100.401 137.49 101.639 137.674 103.103ZM139.076 101.083C139.089 101.082 139.102 101.081 139.115 101.081C139.505 101.081 140.012 101.787 140.138 102.791C140.203 103.307 140.153 103.821 140 104.2C139.878 104.502 139.707 104.688 139.532 104.71C139.138 104.756 138.6 104.041 138.469 103.002C138.339 101.965 138.682 101.133 139.076 101.083Z" fill="#1A1A1A"/>
<ellipse cx="141.343" cy="116.195" rx="1.24179" ry="2.23003" transform="rotate(-4.17502 141.343 116.195)" fill="#E9856F"/>
<path fill-rule="evenodd" clip-rule="evenodd" d="M140.255 118.055C140.582 118.554 141.008 118.825 141.459 118.825C141.486 118.825 141.514 118.824 141.541 118.822C142.46 118.755 143.096 117.549 142.989 116.077C142.882 114.605 142.089 113.498 141.159 113.571C140.241 113.639 139.605 114.844 139.713 116.317C139.761 116.978 139.953 117.595 140.255 118.055ZM141.22 114.374C141.227 114.373 141.234 114.373 141.241 114.373C141.633 114.373 142.115 115.112 142.19 116.135C142.265 117.179 141.879 117.99 141.483 118.019C141.313 118.036 141.102 117.884 140.924 117.612C140.7 117.27 140.55 116.777 140.512 116.258C140.437 115.215 140.823 114.403 141.218 114.374C141.219 114.374 141.219 114.374 141.22 114.374Z" fill="#1A1A1A"/>
<ellipse cx="145.334" cy="157.276" rx="1.24179" ry="2.23003" transform="rotate(-4.17502 145.334 157.276)" fill="#E9856F"/>
<path fill-rule="evenodd" clip-rule="evenodd" d="M143.704 157.4C143.809 158.829 144.569 159.908 145.454 159.908C145.48 159.908 145.507 159.906 145.534 159.905C146.453 159.837 147.088 158.632 146.981 157.159C146.933 156.498 146.74 155.881 146.439 155.421C146.091 154.891 145.622 154.62 145.152 154.654C144.233 154.721 143.597 155.927 143.704 157.4ZM145.21 155.456C145.217 155.455 145.224 155.455 145.232 155.455C145.403 155.455 145.598 155.603 145.769 155.864C145.993 156.205 146.143 156.698 146.181 157.218C146.257 158.261 145.871 159.073 145.475 159.102C145.064 159.126 144.579 158.384 144.503 157.341C144.428 156.297 144.814 155.485 145.21 155.456Z" fill="#1A1A1A"/>
<path d="M162.755 137.339C162.755 137.339 153.865 143.261 146.41 144.106C138.956 144.952 140.952 147.748 138.032 148.907C135.112 150.067 129.515 149.577 125.077 147.691C120.638 145.805 114.949 146.354 113.623 147.778C112.297 149.202 112.237 152.457 117.154 154.094C122.07 155.731 130.728 155.071 140.949 151.013C151.17 146.956 158.023 141.211 162.755 137.339Z" fill="#1A1A1A"/>
<path d="M124.128 155.277C119.403 155.277 114.961 154.302 110.842 152.352C104.751 149.47 99.2732 144.139 94.5608 136.507C91.1463 130.978 88.2594 124.372 86.2118 117.405C85.5937 115.302 85.0589 113.185 84.6212 111.113C83.7024 106.762 83.2186 102.637 83.2218 99.1844C83.0947 94.0435 84.6196 89.6557 87.6332 86.5052C90.604 83.3993 94.871 81.6467 99.648 81.5698C99.65 81.5698 99.6524 81.5698 99.6544 81.5698C99.8729 81.5698 100.052 81.7456 100.055 81.9656C100.059 82.1877 99.8821 82.3707 99.6609 82.3743C95.0995 82.448 91.0337 84.1125 88.2121 87.0623C85.35 90.0543 83.9017 94.2426 84.0239 99.1747C84.0207 102.582 84.4989 106.65 85.4061 110.947C85.839 112.999 86.3689 115.095 86.981 117.178C89.009 124.077 91.8658 130.615 95.2422 136.084C99.8721 143.581 105.236 148.81 111.185 151.625C124.878 158.105 141.775 153.656 161.407 138.403C175.406 127.525 186.18 114.582 189.148 110.874C189.267 110.724 189.302 110.681 189.329 110.656L189.444 110.539C189.657 110.321 189.889 110.085 190.139 109.835C188.808 106.682 186.336 105.273 184.406 104.644C183.404 105.343 182.42 106.004 181.405 106.661C181.133 106.837 154.232 123.559 141.124 123.561C140.614 123.561 140.127 123.536 139.662 123.483C131.668 122.583 127.55 111.876 124.291 100.438C124.23 100.225 124.353 100.002 124.566 99.9411C124.782 99.8795 125.001 100.004 125.062 100.217C129.414 115.49 133.67 121.999 139.751 122.684C150.619 123.908 176.355 108.976 180.971 105.985C182.032 105.298 183.059 104.606 184.11 103.871C184.211 103.801 184.338 103.78 184.456 103.816C186.627 104.481 189.522 106.056 190.984 109.784C191.043 109.934 191.007 110.105 190.893 110.218C190.573 110.535 190.28 110.834 190.015 111.103L189.892 111.229C189.874 111.251 189.833 111.301 189.772 111.378C186.791 115.103 175.966 128.107 161.897 139.039C153.156 145.831 144.781 150.557 137.003 153.087C132.515 154.547 128.215 155.277 124.128 155.277Z" fill="#1A1A1A"/>
<path d="M124.139 99.635C124.139 99.635 123.366 95.3783 124.523 94.9362C126.134 94.3199 129.512 95.8606 128.591 102.023C127.67 108.185 128.667 107.364 129.691 114.758C126.314 109.418 125.162 103.846 124.139 99.635Z" fill="#1A1A1A"/>
<path fill-rule="evenodd" clip-rule="evenodd" d="M106.928 114.194C106.928 119.625 111.331 124.045 116.744 124.045C122.158 124.045 126.561 119.625 126.561 114.194C126.561 108.762 122.158 104.343 116.744 104.343C111.331 104.343 106.928 108.762 106.928 114.194ZM107.73 114.193C107.73 109.205 111.774 105.147 116.744 105.147C121.715 105.147 125.759 109.205 125.759 114.193C125.759 119.181 121.715 123.24 116.744 123.24C111.774 123.24 107.73 119.181 107.73 114.193Z" fill="#E9856F"/>
<path d="M112.983 86.4394C110.727 84.7294 108.241 83.5133 105.698 82.7856L112.983 86.4394Z" fill="white"/>
<path d="M112.982 86.8409C112.898 86.8409 112.813 86.8143 112.741 86.7596C110.575 85.1172 108.168 83.9104 105.588 83.1719C105.375 83.1111 105.252 82.8883 105.312 82.6747C105.373 82.4607 105.597 82.3376 105.808 82.3983C108.484 83.1642 110.978 84.4156 113.224 86.118C113.4 86.252 113.435 86.5042 113.302 86.6816C113.224 86.7858 113.104 86.8409 112.982 86.8409Z" fill="#1A1A1A"/>
<ellipse cx="145.377" cy="40.3456" rx="5.70425" ry="2.78047" transform="rotate(-70.8711 145.377 40.3456)" fill="white"/>
<path fill-rule="evenodd" clip-rule="evenodd" d="M143.374 46.1351C143.566 46.2019 143.766 46.2353 143.972 46.2353C144.675 46.2353 145.442 45.8463 146.188 45.0997C147.077 44.2083 147.852 42.8905 148.371 41.3896C149.493 38.1442 149.056 35.1437 147.375 34.5588C145.695 33.9732 143.5 36.0589 142.379 39.3043C141.859 40.8051 141.655 42.3217 141.804 43.5743C141.964 44.9291 142.522 45.8386 143.374 46.1351ZM143.135 39.5678C144.075 36.8481 145.683 35.2652 146.782 35.2652C146.898 35.2652 147.009 35.2829 147.112 35.3187C148.193 35.6952 148.653 38.1184 147.613 41.1261C147.133 42.5143 146.426 43.7231 145.62 44.5305C144.898 45.2545 144.176 45.5611 143.636 45.3748C143.098 45.1874 142.72 44.4967 142.599 43.4794C142.465 42.345 142.656 40.956 143.135 39.5678Z" fill="#1A1A1A"/>
<path d="M109.58 62.2762C109.58 62.2762 119.073 56.4989 121.913 43.7895C123.978 34.5476 131.217 47.5925 131.217 47.5925L124.776 66.9062C119.544 64.1029 115.209 61.0437 109.58 62.2762Z" fill="#E9856F"/>
<path d="M125.239 66.0678C125.197 66.0678 125.154 66.061 125.113 66.0473C124.903 65.9773 124.789 65.7497 124.859 65.5389L130.778 47.6431C129.569 45.6901 126.296 41.211 124.092 41.5505C123.164 41.6945 122.459 42.7388 121.996 44.6547C118.766 58.0049 107.016 64.2158 106.898 64.277C106.701 64.3784 106.46 64.3015 106.358 64.104C106.257 63.9065 106.334 63.6639 106.531 63.5622C106.646 63.5026 118.075 57.449 121.217 44.4649C121.764 42.2017 122.691 40.9535 123.971 40.7552C127.161 40.2612 131.119 46.6536 131.561 47.3837C131.621 47.4842 131.635 47.6069 131.598 47.7187L125.62 65.7923C125.564 65.9608 125.407 66.0678 125.239 66.0678Z" fill="#1A1A1A"/>
<path d="M127.478 50.1831C128.054 50.838 129.474 52.6096 133.632 53.3413C138.202 54.1458 139.56 47.1951 141.473 45.8375C143.306 45.6376 144.467 44.3757 143.576 42.5591C141.896 39.1326 143.258 38.0924 144.054 35.5891C147.109 25.9751 129.352 16.0083 121.366 28.6972L119.687 41.5559" fill="#E9856F"/>
<path d="M134.371 53.8101C134.112 53.8101 133.844 53.7867 133.562 53.7373C129.409 53.0063 127.888 51.2638 127.239 50.5192L127.177 50.4488C127.031 50.2822 127.047 50.028 127.213 49.8808C127.379 49.7344 127.632 49.7496 127.779 49.9162L127.842 49.989C128.436 50.6692 129.825 52.2626 133.701 52.9444C136.498 53.4372 137.984 50.7054 139.296 48.2951C139.964 47.0662 140.542 46.005 141.242 45.5082C141.298 45.4688 141.362 45.4443 141.43 45.4366C142.327 45.3389 143.013 44.9692 143.313 44.4225C143.565 43.9615 143.532 43.3786 143.216 42.7358C141.836 39.92 142.421 38.5443 143.099 36.9513C143.294 36.4907 143.497 36.0149 143.671 35.4658C145.137 30.8539 141.547 26.4041 137.244 24.392C132.736 22.2841 125.984 22.192 121.752 28.8365L120.085 41.6067C120.056 41.8267 119.855 41.9788 119.635 41.9534C119.416 41.9245 119.261 41.7225 119.29 41.5021L120.969 28.6434C120.977 28.5855 120.996 28.53 121.027 28.4809C125.535 21.3187 132.763 21.4084 137.584 23.6623C142.205 25.8228 146.043 30.6547 144.437 35.7096C144.25 36.2952 144.041 36.7892 143.837 37.2667C143.188 38.7929 142.719 39.8959 143.937 42.3798C144.488 43.5025 144.284 44.3207 144.016 44.8095C143.603 45.5637 142.737 46.075 141.63 46.2222C141.105 46.649 140.568 47.637 140 48.68C138.744 50.9874 137.207 53.8101 134.371 53.8101Z" fill="#1A1A1A"/>
<path d="M128.245 36.1248C127.823 34.6995 126.64 32.4215 123.908 34.0065C122.032 35.095 122.527 37.9349 123.294 39.8605C124.637 43.2283 128.338 53.494 107.021 57.5773C85.8081 61.6409 80.2955 86.933 61.6823 86.2577C47.1324 85.7295 38.836 81.3935 33.23 73.5221C24.578 61.3734 27.9079 47.6407 42.7619 45.7911C49.2766 44.9797 54.0572 45.1756 63.422 35.1621C68.5517 29.6765 79.857 30.6263 87.0639 31.465C97.6569 32.6975 98.9124 29.3559 107.942 22.8377C116.693 16.5214 123.601 13.5942 133.733 15.2889C152.234 18.3831 151.264 29.5482 144.209 31.7152C136.894 33.9622 132.898 28.6829 130.523 35.7591C129.582 38.56 128.591 37.4727 128.245 36.1248Z" fill="#1A1A1A"/>
<ellipse cx="137.709" cy="39.7141" rx="5.90388" ry="2.87742" transform="rotate(-70.8711 137.709 39.7141)" fill="white"/>
<path fill-rule="evenodd" clip-rule="evenodd" d="M135.641 45.6921C135.839 45.7609 136.044 45.7947 136.255 45.7947C136.98 45.7947 137.77 45.3936 138.538 44.6237C139.457 43.7025 140.259 42.3409 140.795 40.7894C141.953 37.4377 141.504 34.3403 139.773 33.7373C138.896 33.4316 137.867 33.8114 136.876 34.8053C135.957 35.7269 135.155 37.0886 134.619 38.6401C134.083 40.1912 133.872 41.7588 134.025 43.0533C134.191 44.4499 134.764 45.3872 135.641 45.6921ZM137.443 35.3749C138.049 34.7671 138.657 34.4413 139.165 34.4413C139.286 34.4413 139.401 34.4598 139.51 34.498C140.635 34.8898 141.116 37.4056 140.037 40.5263C139.54 41.9648 138.806 43.2178 137.971 44.0549C137.22 44.8084 136.467 45.1277 135.904 44.9323C135.341 44.7363 134.947 44.0171 134.821 42.9588C134.682 41.7826 134.879 40.3429 135.377 38.904C135.874 37.4651 136.608 36.2121 137.443 35.3749Z" fill="#1A1A1A"/>
<path d="M138.316 40.3849C137.026 40.3849 136.337 39.518 136.302 39.4729C136.167 39.2976 136.198 39.0449 136.373 38.9086C136.548 38.7722 136.798 38.804 136.934 38.977C136.967 39.0184 137.673 39.8728 139.026 39.4697C139.238 39.4054 139.461 39.528 139.525 39.7404C139.587 39.9532 139.466 40.1773 139.254 40.2409C138.913 40.343 138.6 40.3849 138.316 40.3849Z" fill="#1A1A1A"/>
<ellipse cx="138.017" cy="40.5257" rx="0.919591" ry="0.770354" transform="rotate(-65.0084 138.017 40.5257)" fill="#1A1A1A"/>
<path d="M137.412 50.3193C136.012 50.3193 134.817 49.5659 134.746 49.5201C134.56 49.4006 134.506 49.152 134.625 48.9653C134.744 48.7787 134.991 48.7236 135.178 48.8427C135.198 48.8555 137.257 50.1452 138.835 49.1025C139.02 48.9798 139.268 49.0317 139.39 49.2172C139.512 49.4026 139.461 49.6524 139.276 49.7743C138.666 50.1774 138.019 50.3193 137.412 50.3193Z" fill="#1A1A1A"/>
<path d="M63.2176 35.4189C63.2176 35.4189 57.0769 44.3544 46.9445 45.3813C35.7783 46.5129 33.2305 49.4892 30.5692 53.1868C37.324 47.7434 41.1474 48.4743 48.4798 47.1271C55.7465 45.792 61.1708 41.8893 63.2176 35.4189Z" fill="#E9856F"/>
<path d="M124.983 35.6626C124.983 35.6626 126.135 36.587 126.672 38.898L124.983 35.6626Z" fill="#1A1A1A"/>
<path d="M126.672 39.2997C126.49 39.2997 126.325 39.1742 126.282 38.9887C125.788 36.8628 124.742 35.9835 124.731 35.975C124.561 35.8346 124.534 35.582 124.673 35.4098C124.812 35.2373 125.062 35.2103 125.234 35.3483C125.285 35.3897 126.5 36.3873 127.062 38.8061C127.113 39.0225 126.979 39.239 126.763 39.2892C126.732 39.2965 126.702 39.2997 126.672 39.2997Z" fill="#1A1A1A"/>
<path d="M124.715 38.359C124.715 38.359 124.945 37.2419 125.751 36.8184L124.715 38.359Z" fill="#1A1A1A"/>
<path d="M124.715 38.761C124.688 38.761 124.66 38.7581 124.632 38.7525C124.416 38.7071 124.277 38.4951 124.322 38.2778C124.333 38.2247 124.602 36.9689 125.565 36.4624C125.76 36.3595 126.004 36.4355 126.106 36.6318C126.209 36.8285 126.133 37.0719 125.937 37.1748C125.313 37.5031 125.109 38.4323 125.107 38.4416C125.067 38.631 124.9 38.761 124.715 38.761Z" fill="#1A1A1A"/>
<path d="M129.958 74.2031C129.958 74.2031 133.449 80.5327 134.914 84.8276C136.298 88.8876 138.349 93.3045 139.813 94.2087C138.405 90.7614 137.504 86.4664 136.603 84.3755C135.702 82.2845 133.337 76.3508 129.958 74.2031Z" fill="#E9856F"/>
<path d="M128.412 14.6724C128.412 14.6724 120.429 14.1587 109.068 22.3752C97.7082 30.5918 96.9915 32.3376 91.1578 31.8239C99.1409 34.0834 106.51 26.8942 108.147 25.3536C109.785 23.8133 117.563 16.9319 128.412 14.6724Z" fill="#E9856F"/>
<path d="M135.269 38.1837C135.226 38.1837 135.182 38.1765 135.139 38.162L129.459 36.2107C129.25 36.1387 129.138 35.9098 129.21 35.6998C129.282 35.4898 129.509 35.378 129.719 35.4492L135.399 37.4005C135.609 37.4725 135.721 37.7014 135.649 37.9114C135.591 38.0784 135.436 38.1837 135.269 38.1837Z" fill="#1A1A1A"/>
<path d="M140.949 39.5184C140.733 39.5184 140.555 39.3458 140.548 39.1278C140.542 38.9058 140.716 38.7203 140.938 38.7139L142.678 38.6624C142.883 38.654 143.084 38.8301 143.09 39.0526C143.097 39.2746 142.922 39.4601 142.701 39.4665L140.961 39.518C140.957 39.5184 140.953 39.5184 140.949 39.5184Z" fill="#1A1A1A"/>
<path fill-rule="evenodd" clip-rule="evenodd" d="M61.6683 86.6599C61.9188 86.6692 62.1665 86.6736 62.4123 86.6736C71.7117 86.6736 77.7602 80.2483 84.153 73.4557L84.1546 73.454C90.4142 66.8044 96.887 59.9283 107.096 57.9727C115.878 56.2905 121.466 53.356 123.704 49.2513C125.88 45.2637 124.272 41.2298 123.666 39.7113C123.391 39.0198 122.116 35.5109 124.109 34.3548C124.935 33.8749 125.654 33.751 126.243 33.9867C127.178 34.3604 127.656 35.5511 127.859 36.2326C128.124 37.2619 128.638 37.8891 129.233 37.9108C129.244 37.9112 129.256 37.9112 129.267 37.9112C129.91 37.9112 130.445 37.2487 130.902 35.887C132.236 31.9127 133.91 32.1142 136.947 32.4798L136.948 32.4799L136.951 32.4802C138.916 32.7167 141.36 33.0108 144.326 32.0993C147.49 31.1275 149.483 28.4508 149.285 25.4395C149.16 23.5521 147.676 17.2129 133.799 14.8919C123.251 13.1275 116.244 16.3492 107.708 22.5107C105.919 23.8026 104.434 24.9693 103.124 25.9991L103.12 26.0023C97.8506 30.1444 95.4455 32.0338 87.1101 31.0651L87.1068 31.0647C81.5984 30.4241 68.7053 28.9247 63.1294 34.8866C54.5869 44.0215 50.0003 44.5489 44.1936 45.2166L44.1934 45.2166L44.1725 45.2191C43.6942 45.2742 43.2085 45.3302 42.7131 45.392C36.2248 46.2002 31.4755 49.335 29.3402 54.2196C26.8753 59.8581 28.2074 67.1616 32.9042 73.7562C38.9005 82.1759 47.7719 86.1555 61.6683 86.6599ZM63.7146 35.4377C66.869 32.0651 72.6132 31.2192 77.8836 31.2192C81.4697 31.2192 84.8368 31.6106 87.0179 31.8644C95.6804 32.8725 98.332 30.7884 103.615 26.6358C104.92 25.6101 106.398 24.4475 108.177 23.1643C116.54 17.1268 123.392 13.9662 133.668 15.6855C144.233 17.4526 148.25 21.9101 148.485 25.4926C148.658 28.1242 146.893 30.4702 144.092 31.3306C141.286 32.1927 138.934 31.9095 137.044 31.6818L137.043 31.6817C134.049 31.3217 131.685 31.0376 130.143 35.6308C129.652 37.0926 129.272 37.1075 129.262 37.1075C129.139 37.1031 128.827 36.7808 128.634 36.025C128.633 36.0221 128.632 36.0195 128.632 36.0169C128.631 36.0148 128.63 36.0127 128.63 36.0105C128.386 35.1907 127.792 33.7402 126.54 33.2397C125.712 32.9091 124.759 33.0491 123.708 33.6589C121.721 34.8118 122 37.696 122.922 40.011C123.888 42.4318 124.769 45.6265 123.002 48.8656C120.883 52.7494 115.481 55.5479 106.946 57.1827C96.4821 59.1875 89.9181 66.1603 83.5705 72.9038C77.1368 79.7394 71.0539 86.2005 61.6971 85.8562C48.0733 85.3618 39.394 81.4856 33.5564 73.2888C29.0255 66.927 27.7239 59.9193 30.0741 54.5431C32.0912 49.9283 36.6149 46.9621 42.8117 46.1909C43.305 46.1294 43.7885 46.0738 44.2646 46.0191L44.2848 46.0167L44.2853 46.0167C50.0189 45.3574 54.971 44.788 63.7146 35.4377Z" fill="#1A1A1A"/>
<path d="M102.109 66.7438C102.109 66.7438 109.733 62.2779 118.352 72.7335C126.682 82.8379 127.381 71.7073 127.381 71.7073C114.441 57.8599 107.545 61.9811 102.109 66.7438Z" fill="white"/>
<path fill-rule="evenodd" clip-rule="evenodd" d="M118.043 72.9901C120.469 75.9327 122.467 77.3792 124.116 77.3792C124.402 77.3792 124.677 77.3358 124.943 77.2497C127.458 76.4295 127.77 71.9246 127.782 71.7331C127.789 71.6225 127.75 71.5134 127.674 71.4326C114.579 57.4186 107.475 61.508 101.845 66.4409C101.69 66.5769 101.663 66.8094 101.783 66.9776C101.904 67.1461 102.132 67.1956 102.31 67.0918C102.61 66.9176 109.76 62.9425 118.043 72.9901ZM118.661 72.4773C113.936 66.7451 109.444 65.4216 106.302 65.4216C105.443 65.4216 104.684 65.521 104.049 65.6557C109.283 61.6082 115.671 59.8246 126.969 71.8534C126.855 73.1156 126.277 75.9689 124.694 76.4842C123.286 76.9432 121.199 75.5566 118.661 72.4773Z" fill="#1A1A1A"/>
<path d="M128.437 50.6832C128.437 50.6832 127.617 49.328 126.826 49.5662C126.058 49.7971 126.557 52.8015 128.821 54.6885L129.781 52.3007C129.781 52.3011 129.013 51.9158 128.437 50.6832Z" fill="#1A1A1A"/>
<path fill-rule="evenodd" clip-rule="evenodd" d="M142.057 97.8757C142.078 97.8789 142.099 97.8805 142.12 97.8805C142.274 97.8805 142.417 97.7912 142.484 97.6472C142.559 97.4839 142.517 97.2908 142.382 97.1734C140.019 95.1329 139.182 91.8764 138.374 88.7266L138.373 88.7255L138.37 88.7117C138.018 87.3406 137.685 86.0453 137.233 84.8746C135.585 80.6002 133.376 75.7566 128.002 72.3688C127.845 72.269 127.637 72.2919 127.505 72.4259C127.373 72.5594 127.35 72.767 127.451 72.9259C128.956 75.29 130.483 79.5668 132.722 87.6881C135.202 96.6866 141.779 97.8314 142.057 97.8757ZM133.494 87.4736C131.643 80.7615 130.266 76.636 128.977 74.0229C133.146 77.2019 135.036 81.4088 136.485 85.1651C136.921 86.2962 137.25 87.5738 137.597 88.9266C138.271 91.5514 139.02 94.471 140.764 96.6444C138.759 95.8205 135.166 93.5373 133.494 87.4736Z" fill="#1A1A1A"/>
<path d="M129.62 75.4463C129.62 75.4463 129.282 80.5325 129.057 83.0756C128.838 85.5487 130.183 89.066 131.535 90.7048C130.859 87.5402 130.634 85.7317 130.971 82.9058C131.309 80.0803 130.634 76.9157 129.62 75.4463Z" fill="#E9856F"/>
<path fill-rule="evenodd" clip-rule="evenodd" d="M131.901 93.1776H131.902C132.026 93.1776 132.142 93.1205 132.218 93.022C132.294 92.9238 132.321 92.7955 132.29 92.6748C131.315 88.8747 131.255 87.2656 131.327 83.276L131.329 83.1569C131.384 80.1641 131.451 76.4392 128.108 72.1249C127.991 71.9733 127.783 71.9266 127.612 72.0123C127.441 72.0984 127.355 72.2939 127.405 72.4789C127.952 74.4601 127.681 76.4231 127.271 79.3937L127.27 79.399L127.268 79.4143C127.102 80.6182 126.914 81.9819 126.746 83.5833C126.373 87.1449 126.942 89.7987 128.438 91.4708C129.943 93.1531 131.822 93.1776 131.901 93.1776ZM128.065 79.5096C128.37 77.3 128.6 75.6294 128.486 74.0687C130.629 77.5263 130.576 80.4893 130.528 83.1406L130.528 83.142L130.526 83.2611C130.456 87.128 130.508 88.8055 131.369 92.3015C130.794 92.1788 129.85 91.8441 129.035 90.9334C127.697 89.4378 127.195 86.9933 127.543 83.6674C127.708 82.0961 127.893 80.7509 128.057 79.5623L128.065 79.5096Z" fill="#1A1A1A"/>
</g>
<mask id="mask5" mask-type="alpha" maskUnits="userSpaceOnUse" x="158" y="10" width="42" height="43">
<rect x="158.713" y="10.8975" width="41.1283" height="41.1283" fill="white"/>
</mask>
<g mask="url(#mask5)">
<ellipse cx="179.277" cy="31.473" rx="20.5641" ry="20.5385" fill="#6B845F"/>
</g>
<mask id="mask6" mask-type="alpha" maskUnits="userSpaceOnUse" x="206" y="104" width="19" height="18">
<rect width="15.6428" height="9.49114" transform="matrix(-0.847259 -0.53118 -0.53118 0.847259 224.544 113.149)" fill="white"/>
</mask>
<g mask="url(#mask6)">
<path d="M206.629 112.998C206.732 113.062 206.864 113.077 206.985 113.023C207.061 112.991 214.651 109.781 222.912 113.046C223.11 113.124 223.336 113.024 223.417 112.824C223.498 112.623 223.404 112.394 223.206 112.318C214.642 108.933 206.769 112.273 206.691 112.307C206.493 112.393 206.399 112.623 206.48 112.821C206.512 112.897 206.564 112.957 206.629 112.998Z" fill="#1A1A1A"/>
<path d="M211.035 115.882C211.102 115.924 211.184 115.946 211.27 115.938C211.319 115.934 216.255 115.548 220.344 119.021C220.504 119.158 220.75 119.135 220.89 118.969C221.03 118.803 221.011 118.557 220.849 118.419C216.511 114.734 211.43 115.14 211.216 115.16C211.003 115.179 210.842 115.368 210.857 115.583C210.866 115.711 210.935 115.819 211.035 115.882Z" fill="#1A1A1A"/>
</g>
<mask id="mask7" mask-type="alpha" maskUnits="userSpaceOnUse" x="161" y="21" width="38" height="24">
<rect x="161.158" y="28.0054" width="34.9766" height="17.2247" transform="rotate(-10.1691 161.158 28.0054)" fill="white"/>
</mask>
<g mask="url(#mask7)">
<path d="M192.556 22.8486L164.365 27.8405C162.863 28.1067 161.86 29.5407 162.126 31.043L163.061 36.3216C163.327 37.8243 164.761 38.8265 166.263 38.5607L167.787 38.291L168.751 43.7327L171.469 37.6392L194.455 33.5692C195.958 33.3029 196.96 31.8694 196.695 30.3666L195.76 25.088C195.493 23.585 194.059 22.5823 192.556 22.8486Z" fill="white"/>
<path fill-rule="evenodd" clip-rule="evenodd" d="M168.702 44.1338C168.742 44.1384 168.783 44.1373 168.822 44.1303C168.951 44.1071 169.064 44.022 169.12 43.8974L171.751 37.9995L194.525 33.9669L194.532 33.9656C195.362 33.8167 196.086 33.3541 196.569 32.6627C197.054 31.9694 197.24 31.1286 197.092 30.2959L196.157 25.0173C195.853 23.2978 194.206 22.1465 192.486 22.4509L164.295 27.4427L164.288 27.444C162.572 27.7517 161.424 29.3965 161.728 31.1138L162.663 36.3919C162.967 38.1119 164.614 39.2631 166.334 38.9588L167.46 38.7593L168.353 43.8031C168.384 43.9778 168.525 44.1121 168.702 44.1338ZM162.524 30.9731C162.297 29.6935 163.152 28.4687 164.43 28.2394L164.436 28.2385L192.628 23.2457C193.908 23.0193 195.135 23.8768 195.362 25.1576L196.296 30.4362C196.407 31.0568 196.268 31.6826 195.907 32.1994C195.546 32.7162 195 33.0739 194.384 33.1707L171.399 37.2408L171.398 37.2409C171.266 37.2645 171.155 37.3518 171.1 37.4741L168.919 42.3636L168.186 38.2202C168.167 38.1144 168.107 38.0208 168.019 37.9595C167.931 37.898 167.823 37.874 167.717 37.893L166.193 38.163C164.912 38.3895 163.685 37.532 163.458 36.2512L162.524 30.9731Z" fill="#1A1A1A"/>
<ellipse cx="174.541" cy="31.6486" rx="1.06967" ry="1.06955" transform="rotate(-10.1691 174.541 31.6486)" fill="#1A1A1A"/>
<ellipse cx="179.424" cy="30.7843" rx="1.06967" ry="1.06955" transform="rotate(-10.1691 179.424 30.7843)" fill="#1A1A1A"/>
<ellipse cx="184.307" cy="29.9191" rx="1.06967" ry="1.06955" transform="rotate(-10.1691 184.307 29.9191)" fill="#1A1A1A"/>
</g>
<mask id="mask8" mask-type="alpha" maskUnits="userSpaceOnUse" x="208" y="23" width="31" height="31">
<rect x="208.454" y="23.9038" width="30.0553" height="30.0553" fill="white"/>
</mask>
<g mask="url(#mask8)">
<ellipse cx="223.481" cy="38.94" rx="15.0276" ry="15.0089" fill="#6F85E9"/>
</g>
<mask id="mask9" mask-type="alpha" maskUnits="userSpaceOnUse" x="211" y="30" width="25" height="20">
<rect x="211.955" y="34.0825" width="21.2672" height="15.467" transform="rotate(-10.629 211.955 34.0825)" fill="white"/>
</mask>
<g mask="url(#mask9)">
<path d="M233.966 45.2701L216.362 48.5333C215.679 48.6598 215.022 48.2073 214.895 47.5228L212.693 35.6425C212.566 34.9579 213.017 34.3002 213.7 34.1737L231.304 30.9106C231.987 30.7841 232.644 31.2365 232.77 31.9211L234.973 43.8013C235.1 44.4859 234.649 45.1436 233.966 45.2701Z" fill="white"/>
<path fill-rule="evenodd" clip-rule="evenodd" d="M234.041 45.6748L234.045 45.674C234.481 45.5921 234.86 45.3453 235.112 44.9777C235.363 44.6098 235.457 44.1651 235.376 43.7261L233.174 31.8458C233.093 31.4068 232.845 31.0258 232.478 30.7724C232.11 30.5195 231.667 30.4247 231.229 30.5061L213.625 33.7692L213.621 33.7699C212.719 33.9392 212.122 34.812 212.29 35.717L214.492 47.5978C214.66 48.504 215.532 49.1056 216.437 48.9379L234.041 45.6748ZM213.097 35.5676C213.012 35.108 213.315 34.6647 213.773 34.5787L213.775 34.5784L231.379 31.3156C231.602 31.2743 231.826 31.3221 232.013 31.4508C232.2 31.579 232.325 31.7727 232.367 31.9957L234.569 43.8764C234.61 44.0993 234.563 44.3251 234.435 44.512C234.307 44.6984 234.115 44.8236 233.893 44.8653L233.891 44.8657L216.286 48.1288C216.064 48.1697 215.839 48.1219 215.652 47.9933C215.466 47.865 215.34 47.6713 215.299 47.4484L213.097 35.5676Z" fill="#1A1A1A"/>
<path d="M223.941 40.283C223.513 40.3635 223.058 40.3069 222.641 40.1017L213.057 35.385C212.854 35.2846 212.77 35.0379 212.87 34.8341C212.97 34.6303 213.215 34.5466 213.419 34.6461L223.002 39.3628C223.506 39.6107 224.099 39.5003 224.48 39.0888L231.736 31.2512C231.89 31.0851 232.149 31.0753 232.316 31.2295C232.482 31.3842 232.492 31.6445 232.338 31.8111L225.082 39.649C224.769 39.9879 224.368 40.203 223.941 40.283Z" fill="#1A1A1A"/>
<path d="M215.671 48.1329C215.547 48.1562 215.415 48.1223 215.316 48.0301C215.149 47.8754 215.14 47.6152 215.294 47.4485L220.887 41.4063C221.041 41.2397 221.301 41.2307 221.467 41.3846C221.633 41.5392 221.643 41.7995 221.489 41.9662L215.896 48.0087C215.834 48.0756 215.755 48.1173 215.671 48.1329Z" fill="#1A1A1A"/>
<path d="M234.469 44.6488C234.385 44.6645 234.295 44.6541 234.212 44.6136L226.825 40.9773C226.621 40.8769 226.537 40.6302 226.637 40.4264C226.737 40.2226 226.982 40.1389 227.186 40.2384L234.574 43.8746C234.777 43.975 234.862 44.2217 234.762 44.4255C234.702 44.5467 234.592 44.6257 234.469 44.6488Z" fill="#1A1A1A"/>
</g>
<mask id="mask10" mask-type="alpha" maskUnits="userSpaceOnUse" x="213" y="57" width="38" height="39">
<rect x="213.199" y="57.6499" width="37.7888" height="37.7888" fill="white"/>
</mask>
<g mask="url(#mask10)">
<ellipse cx="232.094" cy="76.5549" rx="18.8944" ry="18.8708" fill="#E9856F"/>
</g>
<mask id="mask11" mask-type="alpha" maskUnits="userSpaceOnUse" x="184" y="52" width="27" height="26">
<rect x="184.726" y="52.0254" width="25.4855" height="25.4855" fill="white"/>
</mask>
<g mask="url(#mask11)">
<ellipse cx="197.468" cy="64.7752" rx="12.7427" ry="12.7268" fill="#F4B35F"/>
</g>
<mask id="mask12" mask-type="alpha" maskUnits="userSpaceOnUse" x="198" y="0" width="23" height="22">
<rect x="198.962" width="21.6187" height="21.6187" fill="white"/>
</mask>
<g mask="url(#mask12)">
<ellipse cx="209.772" cy="10.8154" rx="10.8094" ry="10.7959" fill="#82836C"/>
</g>
<mask id="mask13" mask-type="alpha" maskUnits="userSpaceOnUse" x="187" y="56" width="21" height="17">
<rect x="187.554" y="60.2915" width="17.7519" height="12.8306" transform="rotate(-10.7185 187.554 60.2915)" fill="white"/>
</mask>
<g mask="url(#mask13)">
<path d="M205.637 69.5105L191.502 72.1536C190.816 72.2821 190.157 71.834 190.03 71.153L188.289 61.843C188.162 61.1621 188.614 60.5059 189.3 60.3778L203.435 57.7347C204.121 57.6066 204.78 58.0548 204.907 58.7357L206.648 68.0457C206.775 68.7262 206.323 69.3824 205.637 69.5105Z" fill="white"/>
<path fill-rule="evenodd" clip-rule="evenodd" d="M205.712 69.9129L205.716 69.9123C206.622 69.7407 207.222 68.87 207.053 67.9697L205.313 58.6597C205.144 57.7579 204.268 57.1625 203.36 57.3322L189.225 59.9753L189.221 59.9761C188.782 60.059 188.402 60.306 188.15 60.6721C187.897 61.0392 187.803 61.4817 187.884 61.9188L189.624 71.2284C189.706 71.6655 189.954 72.0439 190.323 72.295C190.692 72.5455 191.137 72.6384 191.577 72.556L205.712 69.9129ZM188.694 61.767C188.609 61.3098 188.914 60.8676 189.373 60.7806L189.375 60.7802L203.511 58.1367C203.972 58.0502 204.417 58.3527 204.502 58.8106L206.243 68.1207C206.329 68.5778 206.024 69.02 205.564 69.1072L205.562 69.1076L191.426 71.7507C191.203 71.7925 190.977 71.7457 190.79 71.6182C190.602 71.4912 190.476 71.2988 190.435 71.0771L188.694 61.767Z" fill="#1A1A1A"/>
<path d="M205.314 60.9028C205.313 60.9029 205.313 60.9029 205.313 60.9029L196.097 62.6261C195.409 62.7546 194.707 62.4396 194.35 61.8421L193.59 60.5667C193.405 60.2575 193.042 60.0946 192.686 60.1612C192.462 60.2032 192.247 60.0567 192.205 59.8346C192.164 59.6128 192.311 59.3987 192.534 59.3564C192.535 59.3564 192.535 59.3563 192.535 59.3563C193.231 59.2263 193.939 59.5443 194.3 60.1482L195.06 61.4232C195.241 61.7269 195.597 61.8865 195.947 61.8212L205.162 60.0981C205.386 60.0561 205.601 60.2025 205.643 60.4246C205.684 60.6468 205.537 60.8605 205.314 60.9028Z" fill="#1A1A1A"/>
</g>
<mask id="mask14" mask-type="alpha" maskUnits="userSpaceOnUse" x="219" y="60" width="27" height="33">
<rect x="219.419" y="64.3701" width="21.2672" height="28.4734" transform="rotate(-10.3865 219.419 64.3701)" fill="white"/>
</mask>
<g mask="url(#mask14)">
<path d="M233.547 62.2207L221.619 64.3793C220.694 64.5467 220.081 65.4352 220.25 66.3641L224.561 90.1829C224.729 91.1118 225.615 91.729 226.539 91.5617L243.275 88.5329C244.199 88.3655 244.812 87.477 244.644 86.5481L241.207 67.561L233.547 62.2207Z" fill="white"/>
<path fill-rule="evenodd" clip-rule="evenodd" d="M243.347 88.9322L243.352 88.9312C243.903 88.8302 244.382 88.5201 244.701 88.0578C245.021 87.5937 245.142 87.0321 245.042 86.4765L241.605 67.4894C241.585 67.3832 241.526 67.2894 241.437 67.2281L233.776 61.8874C233.688 61.826 233.58 61.8022 233.475 61.8215L221.547 63.9801L221.542 63.9811C220.99 64.0821 220.512 64.3922 220.192 64.8544C219.872 65.3185 219.752 65.8801 219.852 66.4357L224.164 90.255C224.264 90.8106 224.574 91.2942 225.036 91.6165C225.499 91.9388 226.058 92.0611 226.611 91.9609L243.347 88.9322ZM220.856 65.3175C221.053 65.0324 221.348 64.8414 221.688 64.7791L221.691 64.7785L233.454 62.6497L240.84 67.7986L244.247 86.6201C244.309 86.9626 244.235 87.309 244.037 87.5947C243.841 87.8799 243.545 88.0709 243.206 88.1332L243.203 88.1337L226.467 91.1624C226.126 91.2242 225.781 91.1488 225.496 90.9503C225.211 90.7521 225.02 90.4539 224.958 90.1114L220.647 66.2922C220.585 65.9497 220.659 65.6032 220.856 65.3175Z" fill="#1A1A1A"/>
<path d="M238.166 72.8735C238.166 72.8735 238.166 72.8736 238.165 72.8737L226.074 75.0618C225.855 75.1016 225.644 74.955 225.604 74.7346C225.565 74.5147 225.71 74.3037 225.929 74.2636C225.929 74.2636 225.929 74.2636 225.929 74.2635L238.021 72.0753C238.24 72.0356 238.45 72.1822 238.49 72.4025C238.53 72.6224 238.385 72.8333 238.166 72.8735Z" fill="#1A1A1A"/>
<path d="M238.8 76.3745C238.8 76.3745 238.8 76.3746 238.799 76.3746L226.708 78.5628C226.489 78.6026 226.278 78.456 226.238 78.2356C226.198 78.0157 226.344 77.8047 226.562 77.7646C226.562 77.7646 226.563 77.7645 226.563 77.7645L238.654 75.5763C238.874 75.5365 239.084 75.6832 239.124 75.9035C239.164 76.1235 239.019 76.3344 238.8 76.3745Z" fill="#1A1A1A"/>
<path d="M239.433 79.8755C239.433 79.8755 239.433 79.8755 239.433 79.8756L227.341 82.0638C227.122 82.1036 226.912 81.9569 226.872 81.7366C226.832 81.5167 226.977 81.3057 227.196 81.2656C227.196 81.2656 227.196 81.2655 227.197 81.2655L239.288 79.0773C239.507 79.0375 239.718 79.1841 239.757 79.4045C239.797 79.6244 239.653 79.8353 239.433 79.8755Z" fill="#1A1A1A"/>
<path d="M236.447 84.0313C236.447 84.0313 236.446 84.0314 236.446 84.0315L227.975 85.5643C227.756 85.604 227.546 85.4574 227.506 85.2371C227.466 85.0172 227.611 84.8062 227.83 84.7661C227.83 84.7661 227.83 84.766 227.831 84.7659L236.301 83.2331C236.52 83.1934 236.731 83.34 236.771 83.5603C236.811 83.7807 236.665 83.9912 236.447 84.0313Z" fill="#1A1A1A"/>
<path d="M233.538 62.2143L234.415 67.0612C234.583 67.9901 235.469 68.6073 236.393 68.4399L241.217 67.5669L233.538 62.2143Z" fill="white"/>
<path fill-rule="evenodd" clip-rule="evenodd" d="M241.288 67.9663L241.289 67.9661C241.45 67.9367 241.577 67.8137 241.61 67.6537C241.645 67.4935 241.58 67.328 241.445 67.2343L233.767 61.8813C233.633 61.7879 233.456 61.7844 233.318 61.8731C233.181 61.9614 233.111 62.1248 233.14 62.2861L234.017 67.133C234.118 67.689 234.428 68.1725 234.89 68.4948C235.353 68.8171 235.912 68.9393 236.465 68.8392L241.288 67.9663ZM234.812 66.9893L234.109 63.1061L240.185 67.3416L236.321 68.0408C235.98 68.1025 235.635 68.0271 235.35 67.8286C235.065 67.63 234.874 67.3318 234.812 66.9893Z" fill="#1A1A1A"/>
</g>
<mask id="mask15" mask-type="alpha" maskUnits="userSpaceOnUse" x="202" y="3" width="17" height="15">
<rect x="202.022" y="6.45898" width="15.2913" height="10.8972" transform="rotate(-9.67224 202.022 6.45898)" fill="white"/>
</mask>
<g mask="url(#mask15)">
<path d="M218.539 14.6984C218.538 14.6985 218.538 14.6986 218.537 14.6987L204.23 17.0816C204.127 17.0988 204.022 17.0749 203.937 17.0149C203.852 16.9545 203.795 16.8636 203.778 16.7612L202.126 6.83565C202.091 6.62394 202.235 6.4228 202.449 6.38635C202.449 6.38628 202.45 6.38615 202.45 6.38608C202.665 6.35034 202.867 6.49394 202.903 6.70642L204.491 16.2471L218.409 13.9288C218.624 13.893 218.826 14.0366 218.862 14.2491C218.897 14.4611 218.753 14.662 218.539 14.6984Z" fill="#1A1A1A"/>
<path d="M205.613 10.1494L208.795 9.61957L209.803 15.6727L206.621 16.2025L205.613 10.1494Z" fill="white"/>
<path fill-rule="evenodd" clip-rule="evenodd" d="M209.867 16.0576L209.869 16.0574C209.971 16.0399 210.062 15.9831 210.123 15.8992C210.184 15.8148 210.208 15.7101 210.191 15.6081L209.184 9.55452C209.167 9.45252 209.11 9.3613 209.025 9.30135C208.94 9.2414 208.834 9.21743 208.731 9.23457L205.55 9.76457L205.548 9.76484C205.334 9.80129 205.19 10.002 205.225 10.2141L206.233 16.2673C206.268 16.4798 206.471 16.6234 206.685 16.5876L209.867 16.0576ZM209.351 15.3523L206.946 15.7531L206.066 10.4695L208.471 10.0687L209.351 15.3523Z" fill="#1A1A1A"/>
<path d="M208.582 7.60986L211.763 7.08002L213.103 15.1232L209.921 15.6531L208.582 7.60986Z" fill="white"/>
<path fill-rule="evenodd" clip-rule="evenodd" d="M213.166 15.508L213.168 15.5077C213.382 15.4713 213.526 15.2704 213.491 15.0588L212.152 7.01512C212.135 6.91311 212.078 6.82189 211.993 6.76194C211.908 6.70199 211.802 6.67802 211.699 6.69516L208.518 7.22516L208.516 7.22543C208.302 7.26188 208.158 7.46263 208.193 7.67473L209.532 15.718C209.549 15.82 209.606 15.9112 209.691 15.9712C209.776 16.0312 209.882 16.0551 209.985 16.038L213.166 15.508ZM212.65 14.8027L210.245 15.2035L209.035 7.93L211.439 7.52923L212.65 14.8027Z" fill="#1A1A1A"/>
<path d="M212.426 11.0601L215.608 10.5302L216.285 14.5932L213.103 15.123L212.426 11.0601Z" fill="white"/>
<path fill-rule="evenodd" clip-rule="evenodd" d="M216.348 14.978L216.35 14.9777C216.452 14.9602 216.543 14.9032 216.604 14.8196C216.665 14.7351 216.69 14.6304 216.673 14.5284L215.996 10.465C215.979 10.363 215.922 10.2718 215.837 10.2119C215.752 10.1519 215.647 10.1279 215.544 10.1451L212.362 10.6751L212.361 10.6753C212.147 10.7118 212.003 10.9125 212.038 11.1246L212.714 15.1876C212.75 15.4001 212.952 15.5437 213.167 15.508L216.348 14.978ZM215.832 14.2724L213.427 14.6731L212.878 11.3797L215.283 10.9789L215.832 14.2724Z" fill="#1A1A1A"/>
</g>
</svg>
