<svg width="241" height="232" viewBox="0 0 241 232" fill="none" xmlns="http://www.w3.org/2000/svg">
<path d="M108.39 0.297103C118.275 1.40839 130.848 5.5822 135.888 20.9852C143.292 43.6245 158.281 45.9763 174.964 43.2756C178.517 42.7071 182.2 42.6295 185.934 43.1335C206.532 45.8988 235.568 71.1096 235.568 101.864C235.568 131.714 229.546 148.06 220.449 163.114C209.207 181.722 188.622 205.369 169.149 202.578C157.028 200.833 148.861 193.235 142.103 183.996C127.992 164.691 119.748 160.271 95.9457 158.075C95.4288 158.023 94.899 157.971 94.3821 157.894C73.7844 155.128 56.0296 133.923 55.6807 113.145C55.306 90.6993 49.8271 63.085 56.4431 41.3761C63.3047 18.866 87.766 -2.01593 108.39 0.297103Z" fill="#6F85E9"/>
<mask id="mask0" mask-type="alpha" maskUnits="userSpaceOnUse" x="199" y="47" width="42" height="42">
<rect width="41.1283" height="41.1283" transform="matrix(-1 0 0 1 240.5 47.1494)" fill="white"/>
</mask>
<g mask="url(#mask0)">
<ellipse rx="20.5641" ry="20.5385" transform="matrix(-1 0 0 1 219.936 67.725)" fill="#E9856F"/>
</g>
<mask id="mask1" mask-type="alpha" maskUnits="userSpaceOnUse" x="200" y="58" width="39" height="24">
<rect width="34.9766" height="17.2247" transform="matrix(-0.984291 -0.176553 -0.176553 0.984291 238.055 64.2576)" fill="white"/>
</mask>
<g mask="url(#mask1)">
<path d="M206.657 59.1011L234.848 64.0929C236.35 64.3591 237.353 65.7931 237.087 67.2954L236.153 72.574C235.886 74.0768 234.452 75.079 232.95 74.8132L231.426 74.5435L230.462 79.9851L227.744 73.8917L204.758 69.8217C203.255 69.5554 202.253 68.1219 202.518 66.6191L203.453 61.3405C203.72 59.8374 205.154 58.8348 206.657 59.1011Z" fill="white"/>
<path fill-rule="evenodd" clip-rule="evenodd" d="M230.511 80.386C230.471 80.3906 230.43 80.3895 230.391 80.3825C230.262 80.3593 230.149 80.2742 230.093 80.1496L227.462 74.2516L204.688 70.2191L204.681 70.2178C203.851 70.0689 203.127 69.6063 202.644 68.9149C202.159 68.2216 201.973 67.3808 202.121 66.5481L203.056 61.2695C203.36 59.55 205.007 58.3987 206.727 58.7031L234.918 63.6949L234.925 63.6962C236.641 64.0039 237.789 65.6487 237.485 67.366L236.55 72.6441C236.246 74.3641 234.599 75.5153 232.879 75.211L231.753 75.0115L230.86 80.0553C230.829 80.23 230.688 80.3643 230.511 80.386ZM236.689 67.2253C236.916 65.9457 236.061 64.7209 234.783 64.4916L234.777 64.4907L206.585 59.4979C205.305 59.2715 204.078 60.129 203.851 61.4098L202.917 66.6884C202.806 67.309 202.945 67.9348 203.306 68.4516C203.667 68.9684 204.213 69.3261 204.829 69.4229L227.814 73.493L227.815 73.4931C227.947 73.5167 228.058 73.604 228.113 73.7263L230.294 78.6158L231.027 74.4724C231.046 74.3666 231.106 74.273 231.194 74.2117C231.282 74.1502 231.39 74.1262 231.496 74.1452L233.02 74.4152C234.301 74.6417 235.528 73.7842 235.755 72.5034L236.689 67.2253Z" fill="#1A1A1A"/>
<ellipse rx="1.06967" ry="1.06955" transform="matrix(-0.984291 -0.176553 -0.176553 0.984291 224.672 67.9008)" fill="#1A1A1A"/>
<ellipse rx="1.06967" ry="1.06955" transform="matrix(-0.984291 -0.176553 -0.176553 0.984291 219.789 67.0363)" fill="#1A1A1A"/>
<ellipse rx="1.06967" ry="1.06955" transform="matrix(-0.984291 -0.176553 -0.176553 0.984291 214.906 66.1715)" fill="#1A1A1A"/>
</g>
<mask id="mask2" mask-type="alpha" maskUnits="userSpaceOnUse" x="154" y="1" width="31" height="31">
<rect width="30.0553" height="30.0553" transform="matrix(-1 0 0 1 184.346 1.79907)" fill="white"/>
</mask>
<g mask="url(#mask2)">
<ellipse rx="15.0276" ry="15.0089" transform="matrix(-1 0 0 1 169.319 16.8351)" fill="#E9856F"/>
</g>
<mask id="mask3" mask-type="alpha" maskUnits="userSpaceOnUse" x="157" y="8" width="24" height="20">
<rect width="21.2672" height="15.467" transform="matrix(-0.982842 -0.184448 -0.184448 0.982842 180.845 11.9783)" fill="white"/>
</mask>
<g mask="url(#mask3)">
<path d="M158.834 23.1659L176.438 26.429C177.121 26.5555 177.778 26.1031 177.905 25.4185L180.107 13.5383C180.234 12.8537 179.783 12.1959 179.1 12.0695L161.496 8.8063C160.813 8.67982 160.156 9.13224 160.029 9.81682L157.827 21.6971C157.7 22.3816 158.151 23.0394 158.834 23.1659Z" fill="white"/>
<path fill-rule="evenodd" clip-rule="evenodd" d="M158.759 23.5705L158.755 23.5698C158.318 23.4879 157.94 23.241 157.688 22.8735C157.436 22.5055 157.342 22.0609 157.423 21.6218L159.626 9.7416C159.707 9.30257 159.954 8.92154 160.322 8.66813C160.69 8.41521 161.133 8.32048 161.571 8.40182L179.175 11.665L179.179 11.6657C180.081 11.8349 180.678 12.7077 180.51 13.6128L178.308 25.4935C178.14 26.3998 177.268 27.0013 176.363 26.8337L158.759 23.5705ZM179.703 13.4634C179.788 13.0037 179.485 12.5605 179.027 12.4745L179.025 12.4741L161.421 9.21137C161.198 9.17005 160.973 9.21786 160.787 9.34653C160.6 9.47473 160.474 9.66849 160.433 9.8914L158.231 21.7721C158.19 21.995 158.237 22.2208 158.365 22.4077C158.493 22.5942 158.685 22.7194 158.907 22.761L158.909 22.7614L176.513 26.0246C176.736 26.0655 176.961 26.0177 177.148 25.8891C177.334 25.7608 177.46 25.567 177.501 25.3441L179.703 13.4634Z" fill="#1A1A1A"/>
<path d="M168.858 18.1787C169.287 18.2592 169.742 18.2027 170.159 17.9975L179.742 13.2807C179.946 13.1803 180.03 12.9337 179.93 12.7299C179.83 12.526 179.585 12.4423 179.381 12.5418L169.798 17.2586C169.294 17.5065 168.701 17.396 168.32 16.9846L161.064 9.147C160.91 8.98081 160.651 8.97103 160.484 9.12527C160.318 9.27992 160.308 9.54021 160.462 9.70688L167.718 17.5448C168.031 17.8836 168.432 18.0987 168.858 18.1787Z" fill="#1A1A1A"/>
<path d="M177.129 26.0287C177.252 26.0519 177.384 26.0181 177.484 25.9258C177.651 25.7712 177.66 25.5109 177.506 25.3442L171.913 19.302C171.759 19.1355 171.499 19.1265 171.333 19.2803C171.167 19.435 171.157 19.6953 171.311 19.8619L176.904 25.9044C176.966 25.9714 177.045 26.013 177.129 26.0287Z" fill="#1A1A1A"/>
<path d="M158.331 22.5445C158.415 22.5603 158.505 22.5499 158.588 22.5093L165.975 18.873C166.178 18.7726 166.263 18.526 166.163 18.3221C166.063 18.1183 165.817 18.0346 165.614 18.1341L158.226 21.7703C158.023 21.8707 157.938 22.1174 158.038 22.3212C158.097 22.4424 158.208 22.5214 158.331 22.5445Z" fill="#1A1A1A"/>
</g>
<mask id="mask4" mask-type="alpha" maskUnits="userSpaceOnUse" x="146" y="55" width="39" height="38">
<rect width="37.7888" height="37.7888" transform="matrix(-1 0 0 1 184.346 55)" fill="white"/>
</mask>
<g mask="url(#mask4)">
<ellipse rx="18.8944" ry="18.8708" transform="matrix(-1 0 0 1 165.452 73.905)" fill="#E9856F"/>
</g>
<mask id="mask5" mask-type="alpha" maskUnits="userSpaceOnUse" x="152" y="57" width="27" height="33">
<rect width="21.2672" height="28.4734" transform="matrix(-0.983614 -0.180288 -0.180288 0.983614 178.126 61.7202)" fill="white"/>
</mask>
<g mask="url(#mask5)">
<path d="M163.999 59.5708L175.927 61.7294C176.851 61.8968 177.464 62.7853 177.296 63.7142L172.985 87.533C172.816 88.4619 171.931 89.0791 171.007 88.9118L154.271 85.883C153.346 85.7156 152.733 84.8271 152.902 83.8982L156.338 64.911L163.999 59.5708Z" fill="white"/>
<path fill-rule="evenodd" clip-rule="evenodd" d="M154.199 86.2822L154.193 86.2813C153.642 86.1803 153.164 85.8702 152.844 85.4079C152.524 84.9438 152.403 84.3822 152.504 83.8266L155.941 64.8394C155.96 64.7333 156.02 64.6395 156.108 64.5782L163.769 59.2375C163.857 59.1761 163.966 59.1523 164.071 59.1716L175.999 61.3302L176.004 61.3312C176.555 61.4322 177.034 61.7423 177.353 62.2045C177.673 62.6686 177.794 63.2302 177.693 63.7858L173.382 87.6051C173.281 88.1607 172.972 88.6443 172.509 88.9666C172.047 89.2889 171.488 89.4112 170.935 89.311L154.199 86.2822ZM176.689 62.6676C176.492 62.3825 176.197 62.1915 175.858 62.1292L175.854 62.1286L164.091 59.9998L156.705 65.1487L153.298 83.9702C153.236 84.3127 153.311 84.6591 153.508 84.9448C153.705 85.23 154 85.421 154.34 85.4833L154.343 85.4838L171.078 88.5125C171.42 88.5743 171.765 88.4989 172.049 88.3004C172.334 88.1022 172.525 87.804 172.587 87.4615L176.899 63.6423C176.961 63.2998 176.886 62.9533 176.689 62.6676Z" fill="#1A1A1A"/>
<path d="M159.379 70.2239C159.379 70.2239 159.38 70.2239 159.38 70.224L171.471 72.4122C171.691 72.4519 171.901 72.3053 171.941 72.085C171.981 71.8651 171.836 71.6541 171.617 71.614C171.617 71.614 171.616 71.6139 171.616 71.6138L159.525 69.4257C159.306 69.3859 159.095 69.5325 159.055 69.7529C159.015 69.9728 159.16 70.1837 159.379 70.2239Z" fill="#1A1A1A"/>
<path d="M158.745 73.7246C158.745 73.7246 158.746 73.7247 158.746 73.7247L170.837 75.9129C171.057 75.9527 171.267 75.8061 171.307 75.5857C171.347 75.3658 171.202 75.1548 170.983 75.1147C170.983 75.1147 170.983 75.1146 170.982 75.1146L158.891 72.9264C158.672 72.8866 158.461 73.0333 158.421 73.2536C158.382 73.4736 158.527 73.6845 158.745 73.7246Z" fill="#1A1A1A"/>
<path d="M158.112 77.2253C158.112 77.2253 158.112 77.2254 158.113 77.2255L170.204 79.4136C170.423 79.4534 170.634 79.3068 170.674 79.0865C170.713 78.8665 170.568 78.6556 170.349 78.6154C170.349 78.6154 170.349 78.6154 170.349 78.6153L158.257 76.4271C158.038 76.3874 157.828 76.534 157.788 76.7543C157.748 76.9743 157.893 77.1852 158.112 77.2253Z" fill="#1A1A1A"/>
<path d="M161.099 81.3812C161.099 81.3812 161.099 81.3813 161.1 81.3813L169.57 82.9141C169.789 82.9539 170 82.8073 170.04 82.5869C170.08 82.367 169.934 82.156 169.716 82.1159C169.716 82.1159 169.715 82.1159 169.715 82.1158L161.244 80.583C161.025 80.5432 160.815 80.6898 160.775 80.9102C160.735 81.1305 160.88 81.3411 161.099 81.3812Z" fill="#1A1A1A"/>
<path d="M164.008 59.5647L163.13 64.4116C162.962 65.3404 162.077 65.9576 161.152 65.7902L156.329 64.9173L164.008 59.5647Z" fill="white"/>
<path fill-rule="evenodd" clip-rule="evenodd" d="M156.257 65.3166L156.256 65.3165C156.096 65.2871 155.969 65.164 155.935 65.004C155.901 64.8438 155.966 64.6784 156.1 64.5847L163.779 59.2316C163.913 59.1382 164.089 59.1347 164.227 59.2235C164.364 59.3118 164.435 59.4752 164.405 59.6364L163.528 64.4833C163.427 65.0394 163.118 65.5228 162.655 65.8451C162.193 66.1674 161.633 66.2897 161.08 66.1896L156.257 65.3166ZM162.733 64.3397L163.436 60.4565L157.36 64.6919L161.225 65.3912C161.566 65.4529 161.911 65.3775 162.195 65.1789C162.48 64.9803 162.671 64.6822 162.733 64.3397Z" fill="#1A1A1A"/>
</g>
<mask id="mask6" mask-type="alpha" maskUnits="userSpaceOnUse" x="191" y="89" width="26" height="26">
<rect width="25.4855" height="25.4855" transform="matrix(-1 0 0 1 216.973 89.1494)" fill="white"/>
</mask>
<g mask="url(#mask6)">
<ellipse rx="12.7427" ry="12.7268" transform="matrix(-1 0 0 1 204.231 101.899)" fill="#E9856F"/>
</g>
<mask id="mask7" mask-type="alpha" maskUnits="userSpaceOnUse" x="194" y="94" width="21" height="17">
<rect width="17.7519" height="12.8306" transform="matrix(-0.982553 -0.185984 -0.185984 0.982553 214.145 97.4153)" fill="white"/>
</mask>
<g mask="url(#mask7)">
<path d="M196.062 106.634L210.197 109.277C210.883 109.406 211.542 108.958 211.669 108.277L213.41 98.9668C213.537 98.2859 213.085 97.6297 212.399 97.5016L198.264 94.8585C197.578 94.7304 196.919 95.1785 196.792 95.8595L195.051 105.17C194.924 105.85 195.376 106.506 196.062 106.634Z" fill="white"/>
<path fill-rule="evenodd" clip-rule="evenodd" d="M195.987 107.037L195.984 107.036C195.077 106.864 194.477 105.994 194.646 105.094L196.386 95.7835C196.555 94.8817 197.432 94.2862 198.339 94.456L212.474 97.0991L212.479 97.0999C212.917 97.1828 213.297 97.4297 213.549 97.7959C213.802 98.1629 213.897 98.6054 213.815 99.0426L212.075 108.352C211.993 108.789 211.745 109.168 211.376 109.419C211.007 109.669 210.562 109.762 210.122 109.68L195.987 107.037ZM213.005 98.8908C213.09 98.4336 212.786 97.9914 212.326 97.9043L212.324 97.904L198.189 95.2604C197.727 95.174 197.283 95.4765 197.197 95.9344L195.456 105.244C195.371 105.702 195.675 106.144 196.136 106.231L196.138 106.231L210.273 108.874C210.496 108.916 210.722 108.869 210.909 108.742C211.097 108.615 211.223 108.423 211.264 108.201L213.005 98.8908Z" fill="#1A1A1A"/>
<path d="M196.385 98.0263C196.386 98.0264 196.386 98.0264 196.386 98.0265L205.602 99.7496C206.29 99.8782 206.992 99.5631 207.349 98.9656L208.109 97.6903C208.294 97.381 208.657 97.2181 209.013 97.2847C209.237 97.3267 209.452 97.1803 209.494 96.9581C209.535 96.7364 209.388 96.5222 209.165 96.48C209.164 96.4799 209.164 96.4798 209.164 96.4798C208.468 96.3499 207.76 96.6678 207.399 97.2718L206.64 98.5468C206.458 98.8504 206.102 99.0101 205.752 98.9447L196.537 97.2216C196.313 97.1796 196.098 97.326 196.056 97.5482C196.015 97.7703 196.162 97.9841 196.385 98.0263Z" fill="#1A1A1A"/>
</g>
<mask id="mask8" mask-type="alpha" maskUnits="userSpaceOnUse" x="193" y="17" width="22" height="22">
<rect width="21.6187" height="21.6187" transform="matrix(-1 0 0 1 214.973 17.2991)" fill="white"/>
</mask>
<g mask="url(#mask8)">
<ellipse rx="10.8094" ry="10.7959" transform="matrix(-1 0 0 1 204.164 28.1145)" fill="#E9856F"/>
</g>
<mask id="mask9" mask-type="alpha" maskUnits="userSpaceOnUse" x="195" y="21" width="17" height="14">
<rect width="15.2913" height="10.8972" transform="matrix(-0.985785 -0.168012 -0.168012 0.985785 211.913 23.7581)" fill="white"/>
</mask>
<g mask="url(#mask9)">
<path d="M195.397 31.9975C195.397 31.9976 195.398 31.9977 195.399 31.9978L209.705 34.3807C209.808 34.3979 209.914 34.3739 209.999 34.3139C210.083 34.2535 210.14 34.1627 210.157 34.0603L211.81 24.1347C211.845 23.923 211.701 23.7219 211.487 23.6854C211.487 23.6854 211.486 23.6852 211.486 23.6852C211.271 23.6494 211.069 23.793 211.033 24.0055L209.445 33.5462L195.527 31.2279C195.312 31.1921 195.11 31.3357 195.074 31.5482C195.038 31.7602 195.183 31.961 195.397 31.9975Z" fill="#1A1A1A"/>
<path d="M208.323 27.4485L205.141 26.9186L204.133 32.9717L207.315 33.5016L208.323 27.4485Z" fill="white"/>
<path fill-rule="evenodd" clip-rule="evenodd" d="M204.069 33.3567L204.067 33.3564C203.965 33.339 203.873 33.2822 203.813 33.1983C203.752 33.1139 203.727 33.0091 203.744 32.9071L204.752 26.8536C204.769 26.7516 204.826 26.6604 204.911 26.6004C204.996 26.5405 205.102 26.5165 205.205 26.5336L208.386 27.0636L208.388 27.0639C208.602 27.1004 208.746 27.3011 208.711 27.5132L207.703 33.5664C207.667 33.7788 207.465 33.9224 207.25 33.8867L204.069 33.3567ZM204.585 32.6514L206.99 33.0522L207.87 27.7685L205.465 27.3678L204.585 32.6514Z" fill="#1A1A1A"/>
<path d="M205.354 24.9089L202.173 24.3791L200.833 32.4223L204.015 32.9521L205.354 24.9089Z" fill="white"/>
<path fill-rule="evenodd" clip-rule="evenodd" d="M200.769 32.807L200.768 32.8068C200.554 32.7703 200.409 32.5695 200.445 32.3579L201.784 24.3142C201.801 24.2122 201.858 24.121 201.943 24.061C202.028 24.0011 202.133 23.9771 202.236 23.9942L205.418 24.5242L205.42 24.5245C205.633 24.561 205.778 24.7617 205.742 24.9738L204.403 33.0171C204.387 33.1191 204.329 33.2103 204.245 33.2703C204.16 33.3303 204.054 33.3542 203.951 33.337L200.769 32.807ZM201.286 32.1018L203.691 32.5025L204.901 25.2291L202.496 24.8283L201.286 32.1018Z" fill="#1A1A1A"/>
<path d="M201.51 28.3591L198.328 27.8293L197.651 31.8923L200.833 32.4221L201.51 28.3591Z" fill="white"/>
<path fill-rule="evenodd" clip-rule="evenodd" d="M197.587 32.2773L197.586 32.277C197.483 32.2596 197.392 32.2025 197.332 32.1189C197.27 32.0345 197.246 31.9297 197.263 31.8277L197.939 27.7643C197.956 27.6623 198.014 27.5711 198.098 27.5112C198.183 27.4512 198.289 27.4272 198.392 27.4444L201.574 27.9744L201.575 27.9747C201.789 28.0111 201.933 28.2119 201.898 28.424L201.221 32.487C201.186 32.6994 200.983 32.843 200.769 32.8073L197.587 32.2773ZM198.104 31.5717L200.509 31.9725L201.058 28.679L198.653 28.2782L198.104 31.5717Z" fill="#1A1A1A"/>
</g>
<path d="M90.9449 209.259C100.029 217.296 118.068 216.43 126.106 207.346C134.143 198.262 129.504 184.345 120.407 176.308C111.323 168.27 96.385 164.872 88.3476 173.956C80.3101 183.053 81.8607 201.221 90.9449 209.259Z" fill="#6F85E9"/>
<path d="M136.12 215.797C139.105 220.113 146.768 221.612 151.084 218.64C155.4 215.655 154.896 209.336 151.911 205.02C148.926 200.704 143.008 197.732 138.692 200.717C134.363 203.689 133.135 211.481 136.12 215.797Z" fill="#6F85E9"/>
<path d="M20.0161 231.058H45.6145C45.8342 231.058 46.0022 230.89 46.0022 230.67C46.0022 230.451 45.8342 230.283 45.6145 230.283H20.0161C19.7964 230.283 19.6284 230.451 19.6284 230.67C19.6284 230.89 19.7964 231.058 20.0161 231.058Z" fill="#1A1A1A"/>
<path d="M50.2535 231.058H58.4073C58.6269 231.058 58.7949 230.89 58.7949 230.67C58.7949 230.451 58.6269 230.283 58.4073 230.283H50.2535C50.0338 230.283 49.8658 230.451 49.8658 230.67C49.8658 230.89 50.0338 231.058 50.2535 231.058Z" fill="#1A1A1A"/>
<path d="M84.962 40.2002L86.8616 41.2727C86.8616 41.2727 86.6031 43.2369 85.0266 43.3144C83.4631 43.4178 84.962 40.2002 84.962 40.2002Z" fill="#E9856F"/>
<path d="M84.1092 37.771C84.1092 37.771 86.6032 42.5134 85.1042 45.9118C83.5923 49.3103 82.0934 50.2149 78.8112 49.5688L78.2039 45.6534L74.8829 40.1874L78.9275 38.5075L84.1092 37.771Z" fill="#E9856F"/>
<path d="M147.685 49.827L152.635 40.5232L156.602 32.77L156.563 34.4111L153.94 41.4278L150.373 50.0855C150.36 50.0855 149.016 50.4344 147.685 49.827Z" fill="#1A1A1A"/>
<path d="M137.826 60.2939L142.349 52.4115L144.7 48.9484L148.461 45.0718C148.461 45.0718 149.352 46.6612 148.409 48.4315C147.466 50.2018 147.659 49.8271 147.659 49.8271C147.659 49.8271 149.055 50.2793 149.469 50.2406C149.882 50.2018 150.347 50.0855 150.347 50.0855L151.355 47.7725C151.355 47.7725 152.518 48.7933 152.13 49.9821C151.743 51.171 151.42 51.5974 151.42 51.5974C151.42 51.5974 151.833 53.0705 150.683 53.7424C150.683 53.7424 151.226 55.2801 149.998 56.0942C149.998 56.0942 149.546 57.7095 148.293 57.8775C147.039 58.0455 147.104 58.8079 147.104 58.8079L143.163 68.4347C143.163 68.4347 142.775 64.9716 140.837 62.8137C138.898 60.6557 137.826 60.2939 137.826 60.2939Z" fill="#E9856F"/>
<path d="M22.5617 213.032L21.7606 214.841C21.7606 214.841 22.8589 213.523 24.0607 214.221C25.2624 214.919 26.0636 215.875 26.1928 217.257C26.322 218.64 27.1749 222.84 27.1749 222.84L28.1053 227.944L28.9323 229.96L33.119 230.05L34.437 229.469C34.437 229.469 35.0573 228.655 34.5404 227.853C34.5404 227.853 32.7959 228.603 31.5684 228.474C30.3408 228.344 29.6559 227.892 29.6559 227.892L28.8547 224.558L28.1828 220.061L27.5367 216.288L25.9214 213.807L24.1382 212.799L22.5617 213.032Z" fill="white"/>
<path d="M28.3637 202.139L24.8748 209.375C24.8748 209.375 26.9423 208.949 28.1957 209.931C29.4492 210.926 29.5784 212.683 29.32 213.717C29.0615 214.751 29.32 216.469 29.6689 216.818C30.0177 217.167 30.8706 217.425 30.8706 217.425C30.8706 217.425 30.5734 216.172 31.3487 215.267C32.124 214.363 37.4608 208.186 37.4608 208.186C37.4608 208.186 34.7084 207.902 31.7751 205.576C28.8418 203.263 28.3637 202.139 28.3637 202.139Z" fill="#E9856F"/>
<path d="M80.6589 227.078C81.1629 227.35 81.6669 227.634 82.2096 227.802C82.9203 228.034 83.6827 228.06 84.4322 228.06C86.616 228.06 88.774 227.75 90.9319 227.401C93.7877 226.936 96.6305 226.393 99.4475 225.76C99.4863 225.708 99.3571 225.734 99.3829 225.786C99.4217 225.838 99.4863 225.825 99.5509 225.812C99.7576 225.812 99.8998 226.057 99.8481 226.264C99.8093 226.471 99.6413 226.626 99.4863 226.755C97.8452 228.125 95.6355 228.564 93.5292 228.952C90.4797 229.52 87.4171 230.089 84.3159 230.154C83.308 230.179 82.2871 230.141 81.318 229.882C80.4393 229.65 79.5606 229.172 79.1729 228.345C78.9532 227.866 78.8757 227.117 79.1729 226.639C79.4701 226.148 80.2713 226.858 80.6589 227.078Z" fill="white"/>
<path d="M93.2191 204.568L91.4746 212.967L89.4071 220.268C89.4071 220.268 89.2133 224.403 86.8227 224.339C84.4322 224.274 83.9153 223.046 83.9153 223.046C83.9153 223.046 82.4293 220.785 80.4263 221.496C80.4263 221.496 81.7315 215.758 81.8219 214.828C81.8607 214.414 82.2354 209.478 82.2354 209.478C82.2354 209.478 83.5276 209.866 87.8565 208.121C92.1854 206.377 93.2191 204.568 93.2191 204.568Z" fill="#E9856F"/>
<path d="M137.787 60.449C137.787 60.449 133.898 67.1038 129.892 70.722C125.886 74.3401 122.953 76.2397 115.548 75.3739C108.144 74.5081 99.3959 65.1655 99.3959 65.1655C99.3959 65.1655 93.2192 58.2264 87.8824 56.6758C82.5456 55.1251 77.8549 55.3836 77.8549 55.3836C77.8549 55.3836 75.4385 64.0413 73.0738 68.2668C70.7091 72.4923 59.2085 86.0992 59.2085 86.0992L52.6571 93.1675L39.7351 100.055C39.7351 100.055 41.4537 105.999 43.3532 110.56C45.2528 115.122 48.199 119.955 50.68 122.1L48.1215 131.236C48.1215 131.236 46.4416 136.792 46.1832 139.829C45.9247 142.865 46.8939 146.742 46.8939 146.742C46.8939 146.742 44.8263 150.554 43.2757 157.338C41.7251 164.122 43.2757 168.58 43.2757 168.58L36.8793 182.665L28.3767 202.139C28.3767 202.139 29.643 204.826 34.0365 207.023C38.43 209.22 43.2757 207.928 43.2757 207.928C43.2757 207.928 50.1244 206.571 52.1919 207.669C54.2594 208.768 57.2961 211.481 59.622 211.029C61.948 210.577 70.6057 208.445 70.6057 208.445C70.6057 208.445 73.3193 208.703 76.4206 209.349C79.5219 209.995 86.3059 209.155 90.3764 206.7C94.4468 204.245 93.9945 200.562 93.9945 200.562L98.711 170.712C98.711 170.712 101.102 149.779 101.425 143.576C101.748 137.374 101.942 121.48 101.942 121.48L100.74 107.976L102.717 108.558C102.717 108.558 108.532 111.853 118.611 111.594C128.69 111.336 135.668 107.588 135.668 107.588C135.668 107.588 141.806 100.675 143.098 85.4918C144.39 70.3085 143.292 67.5949 141.806 64.3644C140.32 61.1339 137.787 60.449 137.787 60.449Z" fill="#F4B35F"/>
<path d="M85.0654 152.57C85.9182 151.226 95.4676 140.54 99.047 133.484C102.73 126.196 101.618 116.854 101.618 116.854C101.618 116.854 103.169 131.003 100.649 154.457C98.1295 177.91 93.2191 204.581 93.2191 204.581L87.8565 208.134C87.8565 208.134 90.9578 201.169 95.8035 163.76C96.3204 159.742 96.7339 155.917 97.0699 152.299L97.057 152.286C97.057 152.286 97.4963 147.194 92.4697 150.787C91.8753 151.213 90.9578 151.963 90.1696 152.673C89.7173 153.074 89.3426 153.474 88.9678 153.862C88.2183 154.65 87.5722 155.335 86.7194 155.632C86.5643 155.684 86.4093 155.71 86.2413 155.71C85.7373 155.71 85.2204 155.477 84.8974 155.077C84.6519 154.78 84.5356 154.392 84.5485 153.978C84.5873 153.539 84.7552 153.061 85.0654 152.57Z" fill="white"/>
<path d="M77.2992 55.1767C77.2992 55.1767 79.7932 54.6599 83.6697 55.4352C87.5463 56.2105 92.5472 58.446 95.2091 61.2113C97.871 63.9766 106.839 71.6394 106.839 71.6394C106.839 71.6394 116.052 77.325 121.919 75.348C127.772 73.3709 132.424 69.055 134.066 66.0441C135.707 63.0333 141.134 54.5823 141.134 54.5823L143.809 50.1889L148.435 45.2268C148.435 45.2268 149.598 45.8083 147.815 49.0388C147.815 49.0388 145.708 51.3906 144.158 54.311C142.607 57.2443 138.123 68.0083 130.977 73.8619C129.362 75.1929 127.592 76.175 125.783 76.8728C125.783 76.8728 123.431 77.9582 123.56 79.2504C123.637 80.0645 124.452 80.6847 125.886 81.964C128.251 84.0703 127.863 86.3575 125.666 86.1895C121.66 85.8794 116.13 81.628 113.3 79.2246C112.163 78.2683 106.064 72.7377 100.727 70.0758C94.6922 67.065 92.5472 61.8962 87.8048 59.3118C83.0624 56.7274 76.007 57.4122 76.007 57.4122L77.2992 55.1767Z" fill="white"/>
<path d="M150.438 50.3053C150.593 50.3053 150.735 50.2148 150.8 50.0598L158.346 31.1678C158.411 30.9998 158.398 30.806 158.307 30.6509C158.217 30.4959 158.062 30.3796 157.881 30.3537C157.622 30.315 157.377 30.4442 157.261 30.6768L147.349 49.6592C147.246 49.853 147.324 50.0856 147.517 50.1761C147.711 50.2794 147.944 50.2019 148.034 50.0081L156.369 34.0365L150.089 49.7626C150.011 49.9564 150.102 50.189 150.308 50.2665C150.347 50.2924 150.386 50.3053 150.438 50.3053Z" fill="#1A1A1A"/>
<path d="M149.469 50.6541C149.895 50.6541 150.386 50.6153 150.968 50.499C151.174 50.4602 151.316 50.2535 151.278 50.0467C151.239 49.84 151.032 49.6978 150.825 49.7366C148.68 50.1243 147.931 49.5428 147.918 49.5299C147.763 49.3877 147.517 49.4006 147.375 49.5686C147.233 49.7237 147.246 49.9821 147.414 50.1243C147.504 50.1889 148.073 50.6541 149.469 50.6541Z" fill="#1A1A1A"/>
<path d="M148.422 48.8322C148.564 48.8322 148.706 48.7546 148.771 48.6125C149.856 46.3253 148.822 44.9039 148.784 44.8522C148.654 44.6842 148.409 44.6455 148.241 44.7747C148.073 44.9039 148.034 45.1494 148.163 45.3174C148.202 45.3691 148.952 46.4416 148.073 48.2765C147.983 48.4704 148.06 48.703 148.254 48.7934C148.306 48.8193 148.37 48.8322 148.422 48.8322Z" fill="#1A1A1A"/>
<path d="M1.5376 70.0888C2.58428 65.5402 4.4192 61.7153 6.69347 59.286C13.7747 51.7525 24.9781 52.0626 33.1577 52.2952C35.8972 52.3727 38.2619 52.4374 40.0322 52.2048L40.1873 52.1789C47.2814 51.2356 58.0067 49.8142 62.1934 38.6625C63.8991 34.1398 66.5352 31.0385 70.05 29.4491C73.7974 27.7564 77.4672 28.3249 78.8886 28.8676C81.5247 29.8626 85.1946 33.0802 84.4709 37.8226C84.458 37.9389 84.3805 38.0423 84.2771 38.1069C84.2383 38.1327 83.4242 38.6237 83.0883 40.0969C82.9203 40.8076 82.9332 41.402 82.9332 41.893C82.9332 42.6166 82.9461 43.224 82.3388 43.5729C82.0674 43.7279 81.7573 43.7279 81.473 43.5858C81.1887 43.4436 80.6848 43.0172 80.5426 41.8155C80.478 41.2986 80.2325 40.8722 79.8578 40.6267C79.5735 40.4328 79.2375 40.3811 78.9274 40.4587C78.7077 40.5233 78.5268 40.6783 78.3976 40.9109C78.1391 41.3761 78.1133 42.0739 78.3201 42.7846C78.4751 43.3015 78.7723 43.6892 78.992 43.9218C79.4184 44.3611 79.6639 44.9684 79.6769 45.6016C79.7285 49.3232 78.8886 62.8396 65.9925 80.5298C58.3814 90.9707 49.8788 97.9357 40.7041 101.257C36.75 102.691 32.6925 103.402 28.6221 103.402C27.9889 103.402 27.3687 103.389 26.7355 103.35C21.9673 103.092 17.1603 101.838 12.4308 99.6285C4.949 96.2041 2.18369 89.4072 1.17578 84.2901C0.335854 79.832 0.452148 74.7924 1.5376 70.0888Z" fill="#1A1A1A"/>
<path d="M18.866 93.6972C22.7814 93.0382 27.3299 92.8573 27.5238 95.1833C27.7176 97.5092 22.2516 98.1553 21.2049 98.6593C19.4605 99.4992 20.6622 101.076 21.4117 101.838C18.5301 101.218 15.6485 100.249 12.7669 98.8919C9.89819 97.5738 7.75314 95.7389 6.13789 93.6972C5.64685 92.9865 5.10413 92.1724 4.65186 91.5005C4.58725 91.3842 4.50972 91.2679 4.44511 91.1387C5.80192 92.6505 9.56221 95.2737 18.866 93.6972Z" fill="white"/>
<path d="M58.7821 47.501C59.6607 47.7853 66.251 48.6382 67.0521 50.4343C67.569 51.5844 66.1088 52.5406 64.0801 52.2434C62.0513 51.9462 61.3664 51.8558 60.8496 52.6698C60.3327 53.4839 58.9113 54.0525 56.9342 53.4839C54.9571 52.9283 51.4682 50.6799 47.7984 51.6361C47.7984 51.6361 47.8242 51.6232 47.8759 51.6102C51.4811 50.6799 55.1639 49.1421 58.1747 46.2864C57.9292 46.6094 57.7354 47.1651 58.7821 47.501Z" fill="white"/>
<path d="M53.161 172.263L66.1476 159.974C67.1813 158.992 67.233 157.351 66.2509 156.317L66.2122 156.266C65.2301 155.232 63.589 155.18 62.5552 156.162L49.5686 168.451C48.5349 169.433 48.4832 171.074 49.4653 172.108L49.504 172.16C50.4732 173.193 52.1272 173.245 53.161 172.263Z" fill="white"/>
<path d="M52.9026 182.407C52.3598 181.541 50.9643 181.115 48.6383 182.601C46.3123 184.087 46.0539 184.668 44.8909 184.474C43.728 184.28 42.6942 183.66 40.3036 185.185C36.9051 187.356 35.3933 188.997 36.427 190.095C37.4608 191.194 38.4041 190.199 40.4975 191.065C41.9189 191.646 42.565 192.615 44.4387 191.646C46.3123 190.677 51.9334 186.335 52.5149 185.508C53.4194 184.216 53.3161 183.079 52.9026 182.407Z" fill="white"/>
<ellipse rx="2.15801" ry="1.80911" transform="matrix(-0.992081 -0.125598 -0.125598 0.992081 38.7676 194.121)" fill="white"/>
<path d="M86.0475 124.077C85.5177 126.791 84.9749 129.504 84.3805 132.205C83.799 134.906 83.1788 137.606 82.5327 140.294C81.8866 142.982 81.2276 145.657 80.5169 148.331L79.9871 150.334L79.4443 152.337C79.0696 153.668 78.7078 154.999 78.3072 156.317C77.9195 157.648 77.5319 158.966 77.1313 160.284C76.7178 161.602 76.3172 162.92 75.8779 164.226C75.4644 165.544 75.025 166.849 74.5857 168.154C74.366 168.813 74.1334 169.459 73.9008 170.105L73.5648 171.087L73.2159 172.056L72.5052 173.995L71.7687 175.933C71.5361 176.579 71.2776 177.225 71.0192 177.858L70.6445 178.814L70.4506 179.293L70.2568 179.771L69.4686 181.683C69.2101 182.329 68.9258 182.95 68.6545 183.583L68.2539 184.539C68.1247 184.862 67.9696 185.172 67.8275 185.482L66.9875 187.382V187.395C66.8971 187.588 66.9875 187.821 67.1814 187.912C67.3623 187.989 67.5819 187.924 67.6724 187.744C68.3443 186.529 69.0421 185.314 69.6624 184.074L70.1405 183.143C70.2956 182.833 70.4636 182.523 70.6057 182.213L71.5102 180.326L71.7299 179.848L71.9496 179.37L72.376 178.414C72.6603 177.781 72.9575 177.148 73.2289 176.501L74.0429 174.576L74.8183 172.638C75.852 170.053 76.7953 167.43 77.6999 164.794C78.1521 163.476 78.5656 162.145 78.9921 160.827C79.3926 159.496 79.8191 158.165 80.1938 156.834C81.7444 151.484 83.0754 146.083 84.1867 140.63C84.7553 137.903 85.2463 135.177 85.6986 132.425C85.9183 131.055 86.125 129.672 86.3188 128.302C86.5127 126.92 86.6806 125.55 86.8099 124.154C86.8357 123.935 86.6677 123.754 86.461 123.728C86.2671 123.741 86.0862 123.883 86.0475 124.077Z" fill="#1A1A1A"/>
<path fill-rule="evenodd" clip-rule="evenodd" d="M78.9403 49.8141L77.7774 55.0475C77.7515 55.1638 77.7903 55.2801 77.829 55.3835C77.9066 55.4739 78.0099 55.5256 78.1262 55.5256H78.1392L80.3359 55.461C80.5297 55.461 80.6848 55.3189 80.7106 55.1379L81.5506 50.163C82.6748 49.8399 83.9928 49.0646 85.0007 47.2555C85.5822 46.2218 85.8536 44.9296 85.8278 43.4694C86.5643 43.3143 87.0166 42.6812 87.1329 42.048C87.2492 41.4019 87.0295 40.8592 86.5901 40.6912C85.7244 40.3681 85.285 39.7866 85.285 39.7866C85.2592 39.7479 85.2204 39.722 85.1817 39.6962L85.1817 39.6962C84.8198 38.4815 84.4451 37.6545 84.4193 37.6157C84.3288 37.4219 84.0962 37.3444 83.9024 37.4348C83.7085 37.5253 83.631 37.7579 83.7215 37.9517C83.7344 37.9646 84.3805 39.3473 84.7681 41.1434C85.117 42.7716 85.3238 45.0846 84.3159 46.8808C83.5147 48.3022 82.4422 49.1809 81.1112 49.491C80.2132 49.6946 79.5148 49.5542 79.4069 49.5325C79.3984 49.5308 79.3935 49.5298 79.3926 49.5298H79.3797C79.3538 49.5169 79.328 49.5169 79.3021 49.5169H79.2763C79.271 49.5169 79.2634 49.5191 79.2545 49.5217C79.242 49.5254 79.2268 49.5298 79.2117 49.5298H79.1988H79.1858L79.1083 49.5686L79.0954 49.5815C79.0696 49.5944 79.0437 49.6203 79.0308 49.6332C79.0308 49.6332 79.0179 49.6332 79.0179 49.6461C79.0114 49.659 79.0049 49.6687 78.9985 49.6784C78.992 49.6881 78.9856 49.6978 78.9791 49.7107L78.9662 49.7236C78.9597 49.7366 78.9565 49.7495 78.9533 49.7624C78.95 49.7753 78.9468 49.7882 78.9403 49.8012V49.8141ZM86.3576 42.0609C86.3059 42.216 86.1637 42.539 85.8148 42.6682C85.7631 42.1384 85.6856 41.5828 85.5693 41.0142C85.789 41.1564 86.0474 41.2985 86.3576 41.4148C86.3963 41.4536 86.4739 41.7249 86.3576 42.0609Z" fill="#1A1A1A"/>
<path d="M92.2887 79.0309C89.8077 78.4494 88.8902 79.8579 88.8902 82.1967C88.8902 84.975 89.1099 89.3684 92.0303 91.5264C94.9636 93.6844 106.141 96.9924 108.829 95.571C111.077 94.3822 110.38 92.0433 108.402 91.0095C106.425 89.9758 99.8739 89.4589 97.8064 86.8745C95.7389 84.2901 96.6822 80.0646 92.2887 79.0309Z" fill="white"/>
<path d="M11.7072 63.3952C11.7977 63.3952 11.8752 63.3693 11.9527 63.3047C16.8373 59.2989 22.3162 58.1618 26.0506 57.9163C30.1211 57.6449 33.0543 58.3427 33.0931 58.3556C33.2999 58.4073 33.5066 58.2781 33.5583 58.0713C33.61 57.8646 33.4808 57.6578 33.274 57.6061C33.1448 57.5803 30.2115 56.8825 26.0248 57.1539C22.1611 57.3994 16.5013 58.5753 11.4488 62.7232C11.2808 62.8654 11.255 63.098 11.3971 63.266C11.4875 63.3435 11.6038 63.3952 11.7072 63.3952Z" fill="white"/>
<path d="M32.0852 62.5681C38.74 62.5681 42.2807 60.0871 42.4616 59.9579C42.6296 59.8286 42.6812 59.5961 42.552 59.4151C42.4228 59.2472 42.1902 59.1955 42.0093 59.3247C41.9447 59.3764 36.9439 62.8265 27.821 61.4568C27.6142 61.431 27.4074 61.5731 27.3816 61.7799C27.3558 61.9866 27.4979 62.1934 27.7047 62.2192C29.2941 62.4777 30.7542 62.5681 32.0852 62.5681Z" fill="white"/>
<path fill-rule="evenodd" clip-rule="evenodd" d="M21.0499 215.345C21.1662 214.867 21.4763 214.182 21.864 213.432L21.9027 213.316C21.9027 213.309 21.9135 213.295 21.9313 213.272C21.9472 213.252 21.9688 213.224 21.9932 213.187C22.85 211.583 24.0243 209.755 24.4603 209.077C24.5372 208.957 24.5912 208.873 24.6164 208.832L28.0148 201.971C28.1958 201.57 36.8793 182.058 41.8801 170.751C42.0247 170.416 42.1827 170.064 42.3489 169.694L42.349 169.694L42.3493 169.693L42.3503 169.691L42.351 169.689C42.511 169.333 42.6786 168.959 42.8493 168.567C42.6684 168.05 42.1515 166.241 42.2161 163.127C42.229 162.3 42.2936 161.331 42.4358 160.233C42.4358 160.2 42.439 160.171 42.4422 160.142C42.4455 160.113 42.4487 160.084 42.4487 160.052C42.4487 160.045 42.4496 160.038 42.4512 160.031C42.4522 160.026 42.4534 160.022 42.4548 160.017C42.4559 160.014 42.4571 160.01 42.4584 160.007L42.4644 159.99L42.4644 159.99L42.4645 159.99C42.4677 159.981 42.4711 159.971 42.4746 159.961C42.9139 156.666 43.9993 152.221 46.4674 146.716C44.6067 141.741 46.5191 135.409 48.5479 128.716L48.7011 128.207L48.7012 128.206C49.2863 126.262 49.8827 124.281 50.3699 122.332C47.5271 119.645 44.8651 115.303 42.4746 109.423C40.8556 105.435 39.9076 102.053 39.7371 101.444C39.7197 101.383 39.7104 101.349 39.7092 101.347C39.6576 101.14 39.7739 100.934 39.9806 100.869C40.1874 100.817 40.3941 100.934 40.4587 101.14L40.4611 101.149C40.5738 101.568 44.2212 115.124 50.5766 121.441C50.7446 120.704 50.8997 119.981 51.0289 119.257C51.339 117.512 51.5975 115.768 51.8042 114.062V114.011C51.8042 114.007 51.8048 113.992 51.806 113.965L51.808 113.917L51.8082 113.915C51.8547 112.84 52.2763 103.095 50.9643 99.5638C50.6025 98.5947 50.0985 97.9744 49.4653 97.716C48.6642 97.4059 47.9018 97.7806 47.8889 97.7935C47.708 97.884 47.4883 97.8194 47.372 97.6385C47.2686 97.4576 47.3203 97.2379 47.4883 97.1216L52.6829 93.6973C52.6829 93.6973 52.6958 93.6973 52.6958 93.6843C52.7002 93.6822 52.7042 93.68 52.7079 93.6779L52.7143 93.6742C52.7295 93.6654 52.7415 93.6585 52.7605 93.6585C52.7659 93.6585 52.7691 93.6585 52.7719 93.6575C52.7757 93.6562 52.7789 93.653 52.7863 93.6456C52.8121 93.6326 52.838 93.6326 52.8768 93.6326H52.9543C52.9672 93.6326 52.9801 93.6326 52.993 93.6456C52.9975 93.6456 53.0034 93.6471 53.0099 93.6491L53.0189 93.652C53.0286 93.6553 53.0383 93.6585 53.0447 93.6585C53.0577 93.6585 53.0577 93.6585 53.0706 93.6714C53.0706 93.6714 53.0835 93.6714 53.0835 93.6843C53.1093 93.6973 53.1223 93.7102 53.1481 93.7231L53.174 93.7489C53.1869 93.7619 53.1998 93.7748 53.2127 93.8006C53.2127 93.8071 53.216 93.8103 53.2192 93.8136C53.2224 93.8168 53.2256 93.82 53.2256 93.8265C53.2386 93.8394 53.2515 93.8652 53.2515 93.8782C53.2515 93.8846 53.2547 93.8879 53.2579 93.8911C53.2612 93.8943 53.2644 93.8975 53.2644 93.904C53.2773 93.9299 53.2773 93.9686 53.2773 93.9945V94.0074C53.3032 94.4467 54.0139 106.904 51.7784 119.399C51.2383 122.426 50.2831 125.587 49.3519 128.669L49.2715 128.936C47.8113 133.742 46.4158 138.356 46.4674 142.336L46.5191 142.646C46.5708 142.788 46.6742 142.93 46.868 142.995C47.204 143.111 47.6433 142.943 47.9406 142.594C48.2507 142.245 48.6254 141.509 48.9743 140.759L49.6333 139.209C54.1542 127.931 56.9853 118.09 57.2051 117.326L57.2185 117.28C57.2702 117.073 57.4899 116.957 57.6967 117.009C57.9034 117.06 58.0197 117.28 57.968 117.487C57.9669 117.49 57.9638 117.5 57.9586 117.518L57.9324 117.609L57.9317 117.611C57.5886 118.795 54.8635 128.203 50.5508 139.028C50.5508 139.053 50.5379 139.079 50.5249 139.105C50.5229 139.109 50.5199 139.116 50.5158 139.126C50.5115 139.136 50.5061 139.149 50.4996 139.165C50.4854 139.201 50.466 139.25 50.4418 139.311L50.4404 139.314L50.4402 139.315L50.4401 139.315C50.3531 139.536 50.2063 139.908 50.021 140.346C49.1423 142.491 48.2119 144.687 47.2298 146.884C45.6792 150.334 43.8443 155.206 43.2111 160.194C43.2111 160.206 43.2103 160.22 43.2092 160.236L43.2073 160.259L43.206 160.273L43.206 160.274L43.206 160.274L43.206 160.274C43.2024 160.315 43.1982 160.362 43.1982 160.413C43.1853 161.008 43.2886 162.339 44.3224 162.494C45.0719 162.61 45.7826 161.796 46.2607 161.008C49.8274 153.208 54.033 144.131 55.8916 140.119C56.484 138.84 56.838 138.076 56.8567 138.033C56.9472 137.839 57.1798 137.748 57.3736 137.839C57.5674 137.929 57.6579 138.162 57.5674 138.356L57.4558 138.596L57.4545 138.599L57.4529 138.602C56.6477 140.335 51.778 150.816 47.5658 160.026C47.5658 160.078 47.5529 160.129 47.54 160.168C47.527 160.207 47.4108 160.517 47.204 160.917L43.7538 168.412C43.3578 169.286 43.0037 170.086 42.6822 170.813L42.6806 170.816L42.5779 171.048C38.6437 179.954 32.4186 193.936 29.8594 199.685L29.856 199.692L29.8558 199.693L29.8542 199.696L29.7857 199.85L29.7576 199.913C29.2777 200.991 28.9404 201.749 28.7902 202.087C29.475 203.082 33.3645 208.147 40.2649 207.85C41.4968 207.801 42.8463 207.622 44.1563 207.449L44.1572 207.449L44.3482 207.424L44.5806 207.393L44.5808 207.393C46.0562 207.195 47.549 206.996 48.9485 206.971C49.0131 206.946 49.0777 206.92 49.1423 206.92H49.2327C51.5195 206.92 52.6823 203.42 54.029 199.367L54.0527 199.296C54.1201 199.093 54.1875 198.89 54.2554 198.684C54.4605 198.064 54.6692 197.433 54.8926 196.802C56.2011 193.105 60.1719 182.673 61.7076 178.638C62.0827 177.653 62.3126 177.049 62.3227 177.018C62.3744 176.889 62.4778 176.799 62.6199 176.773C62.7492 176.747 62.8913 176.799 62.9818 176.902C63.3306 177.315 63.0464 178.478 59.635 188.17C59.0405 189.85 58.4332 191.581 57.8905 193.171C57.645 193.894 57.4124 194.579 57.1798 195.225L57.1691 195.256C55.1342 201.155 54.0136 204.403 53.8717 206.222C53.7684 207.501 54.156 208.121 54.3499 208.328C54.3691 208.347 54.3916 208.367 54.4141 208.386L54.4145 208.386L54.4148 208.387C54.4373 208.406 54.4598 208.425 54.4791 208.445C57.141 210.77 58.4461 211.197 64.1964 209.659C64.4416 209.594 64.6801 209.531 64.9121 209.469C66.3434 209.089 67.5336 208.772 68.5899 208.561C68.6545 208.535 68.7837 208.496 68.9646 208.445C69.7658 208.121 71.7687 206.894 73.0092 202.565C74.7273 196.602 76.7295 187.996 78.5207 180.297L78.6432 179.771C79.5865 175.713 80.4781 171.888 81.1501 169.188C81.5119 167.74 81.7962 166.694 82.0158 165.97C82.3389 164.936 82.5198 164.484 82.9591 164.561C83.0884 164.587 83.1917 164.652 83.2693 164.768C83.6957 165.401 82.985 168.852 80.3489 180.404L80.2137 180.999L80.2127 181.004L80.2118 181.007L80.2118 181.008L80.2115 181.009L80.2106 181.013L80.2105 181.013L80.2102 181.015C79.5816 183.782 78.9383 186.614 78.3848 189.178C77.7596 192.056 77.059 194.773 76.4305 197.21L76.2526 197.9L76.1878 198.148L76.1877 198.148C74.8509 203.255 73.8723 206.993 74.5082 208.341C74.5986 208.522 74.6891 208.664 74.9863 208.768H74.9992C78.6174 209.969 86.1509 208.768 90.2084 206.338C91.927 205.304 92.9478 204.129 93.1417 202.914C96.8244 182.911 101.27 153.849 101.554 129.039C101.593 125.77 101.554 122.914 101.463 120.446C100.649 120.575 99.9128 120.653 99.2279 120.653C97.6256 120.653 96.3463 120.278 95.3513 119.541C93.5423 118.184 93.09 115.858 92.8962 113.752C92.5731 110.328 92.263 108.674 88.3088 105.288C83.7345 101.373 82.5973 98.1812 82.1063 95.8294C81.8349 94.5113 82.1063 92.741 83.7603 92.1337C84.9879 91.6814 86.3447 92.1854 86.965 93.3354C87.3241 93.9999 87.7395 94.7143 87.9595 95.0928L87.9597 95.0932L87.9601 95.0938L87.9604 95.0943C88.0564 95.2595 88.115 95.3603 88.115 95.3642C88.133 95.3912 88.1448 95.4182 88.1546 95.4409L88.1613 95.4562L88.1667 95.4676C88.4122 95.9457 89.8853 98.6076 92.8574 101.567C95.8682 104.578 101.089 108.519 108.803 110.173C116.53 111.827 123.353 110.935 127.721 109.901C132.05 108.881 134.893 107.498 135.358 107.265C136.805 105.469 138.537 102.575 140.023 98.0132C139.913 98.0584 139.8 98.1004 139.687 98.1424L139.686 98.1425C139.573 98.1845 139.46 98.2265 139.351 98.2716C137.516 98.9565 135.668 99.5897 133.807 100.158C131.946 100.727 130.06 101.231 128.147 101.644C126.235 102.058 124.31 102.368 122.358 102.536C121.867 102.575 121.389 102.601 120.898 102.626C120.407 102.652 119.916 102.652 119.425 102.652C119.179 102.652 118.934 102.652 118.688 102.639L117.965 102.613L116.53 102.536C114.618 102.42 112.718 102.226 110.832 101.967C108.945 101.709 107.072 101.386 105.211 100.985C104.28 100.791 103.35 100.572 102.433 100.339C101.967 100.223 101.515 100.107 101.05 99.9644C100.585 99.8352 100.132 99.706 99.6673 99.5509C99.6544 99.5509 99.6544 99.5509 99.6414 99.538C99.4476 99.4605 99.3442 99.2279 99.4218 99.034C99.4993 98.8402 99.7319 98.7368 99.9257 98.8144C99.9744 98.8326 100.024 98.8516 100.074 98.8708C100.236 98.9331 100.404 98.9976 100.572 99.047C100.702 99.093 100.833 99.1345 100.966 99.1769L100.966 99.177C101.057 99.2059 101.149 99.2352 101.244 99.2666L101.244 99.2667L101.244 99.2667L101.244 99.2667L101.244 99.2668L101.244 99.2668L101.244 99.2668L101.245 99.2669L101.245 99.2669C101.697 99.396 102.149 99.5252 102.601 99.6414C103.505 99.874 104.423 100.081 105.353 100.249C107.201 100.585 109.062 100.817 110.935 100.946C111.857 101.011 112.792 101.036 113.714 101.062L113.739 101.063C114.67 101.063 115.613 101.063 116.543 101.024C116.698 101.015 116.854 101.008 117.009 101.001C117.319 100.987 117.629 100.972 117.939 100.946C118.404 100.921 118.869 100.882 119.322 100.83C120.226 100.74 121.131 100.598 122.035 100.404C122.488 100.313 122.927 100.21 123.379 100.094L123.517 100.057C123.913 99.9528 124.317 99.8462 124.71 99.7189C125.149 99.5897 125.589 99.4475 126.028 99.3054C126.133 99.2684 126.237 99.2322 126.34 99.1962L126.343 99.1954L126.348 99.1935L126.35 99.1929L126.35 99.1928L126.35 99.1928C126.677 99.0789 126.999 98.9669 127.32 98.8402C129.039 98.1941 130.719 97.4446 132.373 96.6047L132.373 96.6047C133.187 96.1783 134.001 95.7518 134.802 95.2867C135.603 94.8215 136.392 94.3563 137.167 93.8523C137.942 93.3484 138.705 92.8444 139.454 92.3146L139.59 92.216L139.59 92.216L139.591 92.2159L139.591 92.2158L139.591 92.2157C139.917 91.9798 140.235 91.7501 140.552 91.5005L141.082 91.087L141.341 90.8803L141.47 90.7769L141.535 90.7252C141.547 90.7123 141.573 90.6864 141.586 90.6864C141.69 90.5184 141.806 90.3505 141.935 90.2083C142.116 89.2262 142.271 88.1925 142.426 87.107C142.749 84.7552 143.008 81.8995 143.137 79.005C142.349 79.9483 141.522 80.8657 140.682 81.7573C139.751 82.7394 138.782 83.6827 137.787 84.6002L137.412 84.9491L137.038 85.285C136.908 85.3949 136.782 85.5079 136.657 85.621L136.656 85.621C136.53 85.7341 136.404 85.8471 136.275 85.957C135.758 86.3963 135.254 86.8228 134.725 87.2492C134.38 87.5335 134.024 87.8062 133.668 88.079L133.668 88.0793C133.49 88.2156 133.312 88.3519 133.135 88.4897C132.864 88.6964 132.593 88.8903 132.321 89.0841C132.231 89.1487 132.14 89.2148 132.05 89.2808C131.869 89.4129 131.688 89.545 131.507 89.6656C129.31 91.2033 127.023 92.5989 124.671 93.8394C124.503 93.9299 124.284 93.8782 124.167 93.7102C124.051 93.5293 124.103 93.2967 124.284 93.1675C126.48 91.7202 128.574 90.1308 130.551 88.438C130.796 88.2313 131.042 88.0116 131.287 87.7919C131.351 87.7353 131.414 87.6796 131.477 87.624L131.477 87.624C131.659 87.4639 131.838 87.3055 132.011 87.1329C132.489 86.6935 132.967 86.2413 133.432 85.789C133.898 85.3367 134.35 84.8715 134.802 84.4063C134.874 84.3308 134.945 84.2539 135.017 84.1765L135.017 84.1765L135.017 84.1764C135.166 84.0156 135.317 83.8527 135.474 83.6956L135.81 83.3338L136.133 82.972C136.999 82.0029 137.826 81.0079 138.627 79.987C139.428 78.9662 140.178 77.9324 140.901 76.8599C141.625 75.8003 142.297 74.7019 142.93 73.6036C143.021 73.4485 143.111 73.2934 143.189 73.1255C143.124 71.4327 142.982 69.8433 142.749 68.4994C141.819 63.0721 139.092 61.3794 137.8 60.8754C133.743 67.4785 129.026 73.8491 122.552 75.5289C121.325 75.852 120.071 76.0071 118.805 76.0071C115.432 76.0071 111.891 74.8699 108.105 72.5827C103.762 69.9612 99.9933 66.3684 96.9525 63.4692L96.9524 63.4691L96.9523 63.469L96.9523 63.469L96.9522 63.469L96.902 63.421L96.8022 63.3259C95.475 62.0613 94.3327 60.9728 93.3872 60.2164C92.922 59.8416 92.4439 59.4928 91.9528 59.1826H91.8624H91.8495C91.8251 59.1826 91.792 59.1797 91.7571 59.1767C91.7181 59.1733 91.6768 59.1697 91.6427 59.1697H91.4101C91.3309 59.1697 91.2517 59.1731 91.1742 59.1764C91.1 59.1795 91.0274 59.1826 90.9579 59.1826C90.6477 59.2085 90.3505 59.2472 90.0404 59.2989C89.4331 59.4152 88.8516 59.5832 88.283 59.8287C87.1588 60.3068 86.1509 61.0305 85.3109 61.935C84.4839 62.8266 83.8249 63.8862 83.308 65.0104C83.0496 65.579 82.8299 66.1605 82.649 66.7549C82.5061 67.2027 82.3772 67.6506 82.2468 68.1036L82.2455 68.1083L82.2414 68.1227C82.1967 68.2777 82.1519 68.4334 82.1063 68.5898C81.7226 69.9725 81.3633 71.3714 81.0033 72.773L81.003 72.7739C80.7205 73.8738 80.4376 74.9752 80.1422 76.0717C79.4702 78.5785 78.7595 81.0854 77.8808 83.5664C77.4415 84.8069 76.9633 86.0345 76.4077 87.2492C75.852 88.4639 75.2447 89.6527 74.5082 90.8157C73.7716 91.9657 72.9058 93.077 71.8204 94.0462C71.2777 94.5243 70.6703 94.9636 70.0113 95.3254C69.3523 95.6872 68.6287 95.9715 67.8663 96.1395L67.8661 96.1396C67.6723 96.1783 67.4785 96.2171 67.2977 96.2429C67.1168 96.2687 66.9359 96.2946 66.7421 96.3075C66.3673 96.3463 65.9926 96.3592 65.6178 96.3592C64.8554 96.3463 64.093 96.2429 63.3565 96.0361C61.8834 95.6356 60.5395 94.8602 59.4282 93.904C58.304 92.9478 57.3865 91.8365 56.6112 90.6606C56.6241 90.6541 56.6338 90.6444 56.6435 90.6347C56.6532 90.6251 56.6629 90.6154 56.6758 90.6089C56.9472 90.4538 58.6787 88.9678 58.9372 88.4509L58.9375 88.4515C59.0408 88.6322 59.144 88.8129 59.2473 88.9807C59.8546 89.9886 60.5653 90.9061 61.3923 91.6556C62.2064 92.418 63.1497 92.9865 64.1447 93.2967C64.6487 93.4517 65.1656 93.5551 65.7083 93.581C65.9797 93.5939 66.251 93.5939 66.5224 93.581C66.6153 93.581 66.7027 93.5699 66.7918 93.5587C66.839 93.5527 66.8866 93.5467 66.9359 93.5422C67.0005 93.5357 67.0651 93.526 67.1297 93.5163L67.1298 93.5163C67.1944 93.5066 67.2589 93.497 67.3235 93.4905C68.3444 93.3096 69.3135 92.8056 70.1922 92.0949C71.0709 91.3842 71.8592 90.4668 72.5569 89.4718C73.2547 88.4768 73.875 87.3913 74.4306 86.28C74.9992 85.1558 75.5032 84.0058 75.9683 82.8299C76.9117 80.4781 77.7128 78.0358 78.4881 75.5806C78.7901 74.6083 79.0839 73.6319 79.3785 72.6531L79.3788 72.6518L79.3793 72.6502L79.3796 72.6491L79.3798 72.6485L79.3801 72.6476C79.8287 71.1567 80.2791 69.66 80.7624 68.1634C80.8141 68.0084 80.8649 67.8534 80.9158 67.6983L80.9158 67.6982L80.9159 67.6982L80.9159 67.6981L80.9159 67.698L80.9159 67.6979L80.9159 67.6978L80.916 67.6978C81.0686 67.2327 81.2212 66.7677 81.3956 66.3026C81.6282 65.6695 81.8866 65.0492 82.1838 64.4548C82.7912 63.2531 83.5536 62.1159 84.5227 61.1597C85.4919 60.2035 86.6548 59.4281 87.9212 58.95C88.5544 58.7045 89.2134 58.5365 89.8853 58.4461C90.0516 58.4198 90.2119 58.4054 90.3744 58.3908L90.3744 58.3908C90.4518 58.3839 90.5297 58.3769 90.609 58.3685C90.5456 58.3352 90.4832 58.3019 90.4211 58.2688L90.421 58.2687C90.2425 58.1735 90.0675 58.0801 89.8853 57.9938C89.8595 57.9938 89.8336 57.997 89.8078 58.0003C89.782 58.0035 89.7561 58.0067 89.7303 58.0067C89.5364 58.0326 89.3297 58.0713 89.1359 58.1101C88.7353 58.1876 88.3476 58.3039 87.96 58.4461C87.1976 58.7174 86.461 59.0922 85.7891 59.5315C84.4323 60.4231 83.2951 61.6249 82.4035 62.9817C82.2872 63.1497 82.1838 63.3177 82.0805 63.4986L81.9254 63.757L81.7703 64.0284C81.5904 64.3319 81.4399 64.6453 81.2847 64.9684L81.2147 65.1138C80.8787 65.8633 80.5815 66.6386 80.2972 67.4269C79.9424 68.4334 79.6087 69.4611 79.2726 70.4963C79.0822 71.0825 78.8911 71.6711 78.6949 72.2597C78.1522 73.8878 77.5707 75.5289 76.847 77.1442C76.4852 77.9454 76.0846 78.7594 75.6324 79.5348C75.1672 80.323 74.6503 81.0854 74.0301 81.809C73.4098 82.5327 72.6862 83.2046 71.8462 83.7602C71.4327 84.0445 70.9805 84.2771 70.5023 84.4839C70.2698 84.5873 70.0242 84.6777 69.7787 84.7552C69.5332 84.8328 69.2877 84.9103 69.0292 84.962C68.7837 85.0266 68.5253 85.0654 68.2668 85.1041C68.199 85.1109 68.1321 85.1186 68.0656 85.1262L68.0653 85.1262L68.065 85.1263L68.0647 85.1263C67.8781 85.1477 67.6948 85.1687 67.5044 85.1687C67.0005 85.1946 66.4965 85.1817 65.9926 85.13C65.0105 85.0266 64.0543 84.8069 63.1497 84.5226H63.1368C63.1239 84.5162 63.1077 84.5097 63.0916 84.5033C63.0754 84.4968 63.0593 84.4903 63.0464 84.4839C62.8525 84.4063 62.6845 84.29 62.5295 84.1608C62.6587 84.0316 64.4032 82.1192 64.6228 81.5894C65.2043 81.7961 65.7858 81.9512 66.3673 82.0545C66.7162 82.1062 67.0651 82.145 67.414 82.145C67.5152 82.1528 67.6211 82.1465 67.726 82.1403L67.7261 82.1403C67.7953 82.1362 67.8641 82.1321 67.9309 82.1321C68.0989 82.1192 68.2668 82.1062 68.4348 82.0675C68.6028 82.0416 68.7708 82.0029 68.9259 81.9641C68.9818 81.9454 69.0394 81.9285 69.0975 81.9114L69.0975 81.9114L69.0976 81.9113L69.0977 81.9113L69.0978 81.9113L69.0978 81.9113L69.0979 81.9112L69.098 81.9112C69.2007 81.881 69.305 81.8503 69.404 81.809C69.727 81.6927 70.0372 81.5506 70.3344 81.3826C70.9417 81.0337 71.5103 80.5685 72.0401 80.0387C73.0867 78.9533 73.9525 77.5706 74.7149 76.1234C75.4773 74.6632 76.1363 73.1255 76.7566 71.549C77.0007 70.9461 77.241 70.3374 77.4827 69.7252L77.4835 69.7231L77.485 69.7194L77.486 69.7168L77.4874 69.7132L77.4883 69.711L77.4888 69.7097L77.4892 69.7086L77.4894 69.7083L77.4894 69.7081L77.4905 69.7053C77.873 68.7363 78.259 67.7585 78.669 66.7808C79.005 65.9796 79.3668 65.1913 79.7803 64.4031C79.9871 64.0154 80.2197 63.6149 80.4523 63.253L80.6332 62.9688L80.827 62.6974L81.2147 62.1547C82.2872 60.7333 83.6182 59.4798 85.1817 58.5882C85.957 58.1489 86.784 57.787 87.6369 57.5415C87.9083 57.464 88.1667 57.3994 88.4381 57.3477C83.1917 55.2027 78.1392 55.4869 78.0746 55.4999C77.855 55.5128 77.674 55.3577 77.6611 55.138C77.6482 54.9184 77.8033 54.7375 78.0229 54.7245C78.3848 54.6987 87.1071 54.1947 93.8007 59.5961C94.7708 60.3773 95.9252 61.4778 97.2638 62.754L97.3672 62.8525L97.4909 62.9704C100.493 65.8316 104.197 69.3615 108.428 71.9108C113.455 74.9475 117.978 75.8778 122.281 74.7665C129.789 72.8185 134.953 64.0702 139.509 56.3521L139.532 56.3139C139.784 55.8875 140.042 55.4514 140.3 55.0153C140.559 54.5792 140.817 54.143 141.069 53.7166C142.013 52.1531 143.008 50.6283 144.016 49.1552L144.054 49.1164L148.086 44.8005C148.228 44.6454 148.474 44.6325 148.629 44.7875C148.784 44.9297 148.797 45.1752 148.642 45.3303L144.623 49.6204C143.628 51.0676 142.659 52.5795 141.728 54.1172C141.224 54.9571 140.695 55.8488 140.191 56.7016C139.519 57.8517 138.821 59.0276 138.11 60.1905C139.454 60.7591 141.948 62.3873 143.111 66.9358C143.447 65.9279 144.222 63.421 144.132 62.0772V62.0642C144.119 61.7541 144.08 61.3923 144.041 61.0305C143.899 59.6866 143.744 58.1618 144.868 57.632C145.631 57.2831 147.233 57.3606 147.414 57.3735H147.427H147.466L147.473 57.3744C147.551 57.3839 148.231 57.4669 149.016 57.0376C149.469 56.7404 149.494 56.0684 149.494 56.0684C149.494 55.9392 149.559 55.8229 149.662 55.7583C150.727 55.053 150.277 54.0424 150.219 53.9133L150.218 53.9105C150.166 53.8071 150.166 53.7037 150.205 53.6003C150.244 53.4969 150.321 53.4194 150.425 53.3807C150.438 53.3807 151.42 52.993 151.071 51.4811C151.045 51.3519 151.071 51.2227 151.161 51.1322L151.167 51.125C151.276 50.9936 152.506 49.5064 150.968 48.0439C150.813 47.9017 150.8 47.6562 150.955 47.5011C151.097 47.3461 151.342 47.3332 151.497 47.4882C153.281 49.181 152.247 50.9513 151.859 51.494C152.092 52.7862 151.549 53.5616 151.045 53.9234C151.226 54.5695 151.213 55.5774 150.244 56.3139C150.192 56.6499 150.024 57.3348 149.417 57.7224C149.41 57.7224 149.407 57.7257 149.404 57.7289C149.401 57.7321 149.398 57.7354 149.391 57.7354C148.667 58.1359 148.008 58.2006 147.634 58.1876C147.338 58.9084 146.465 61.0395 145.589 63.1761L145.588 63.1785L145.582 63.1935L145.579 63.2014C145.036 64.5194 144.494 65.8374 144.08 66.8195C144.019 66.9658 143.96 67.1052 143.906 67.2363C143.777 67.5454 143.667 67.8087 143.576 68.0083C143.512 68.1505 143.46 68.2668 143.434 68.3443C143.428 68.3508 143.424 68.3605 143.421 68.3702C143.418 68.3799 143.415 68.3895 143.408 68.396C144.274 73.4743 143.86 81.7186 143.098 87.2363C141.509 98.8273 138.265 104.836 135.823 107.834C135.784 107.873 135.745 107.911 135.707 107.937C135.59 108.002 132.67 109.527 127.85 110.664C125.188 111.297 121.622 111.878 117.5 111.878C114.734 111.878 111.723 111.62 108.571 110.948C105.779 110.354 103.298 109.462 101.127 108.415C101.877 111.4 102.174 119.606 102.187 119.981C102.187 120.045 102.174 120.097 102.161 120.149C102.252 122.681 102.29 125.627 102.252 129C101.967 153.875 97.5093 183.001 93.8265 203.056C93.8007 203.198 93.7619 203.34 93.7232 203.47C93.7361 203.521 93.749 203.586 93.7361 203.65C92.6377 210.202 91.3455 214.983 90.4022 217.929C91.2163 216.805 92.1984 215.81 93.1417 215.655C93.6844 215.577 94.1754 215.758 94.5889 216.198C94.9895 216.624 95.1317 217.128 95.0024 217.645C94.8086 218.446 93.9428 219.221 92.922 219.868C93.6715 219.803 94.2659 219.906 94.6665 220.165C95.08 220.423 95.3126 220.85 95.3255 221.392V221.586L95.5064 221.599C98.2846 221.832 99.4993 222.878 100.016 223.731C100.481 224.468 100.52 225.243 100.365 225.695C100.171 226.871 99.3055 227.84 98.1554 228.176C95.0929 229.042 88.8645 230.541 84.9362 230.606H84.5744C81.1113 230.606 79.1084 229.688 78.6432 228.758C78.2943 228.047 78.2943 227.168 78.6432 226.122C78.6432 226.115 78.6464 226.109 78.6497 226.102C78.6529 226.096 78.6561 226.089 78.6561 226.083C78.6561 226.07 78.6561 226.057 78.669 226.057C78.669 225.825 78.7595 225.463 78.9662 224.7C79.2505 223.615 79.7286 221.78 80.4006 218.601C81.3827 213.936 81.6152 210.822 81.6799 209.801C79.005 210.15 76.4335 210.086 74.6632 209.491C72.6474 208.819 71.0322 208.819 68.745 209.284C68.7126 209.291 68.6868 209.297 68.6674 209.302C68.648 209.307 68.6351 209.31 68.6287 209.31C67.466 209.548 66.1218 209.906 64.4558 210.351L64.2869 210.396C62.0255 211.003 60.3973 211.352 59.0276 211.352C57.1152 211.352 55.7325 210.667 53.8588 209.026C53.8524 209.02 53.8459 209.016 53.8394 209.013C53.833 209.01 53.8265 209.007 53.8201 209C51.6879 207.178 47.9406 207.682 44.3224 208.173C42.9268 208.367 41.4925 208.561 40.1615 208.613C39.2311 208.651 38.3654 208.6 37.5384 208.483L31.9819 214.918C31.7235 215.229 31.5167 215.565 31.3616 215.939C32.4083 215.125 33.2612 214.776 33.946 214.867C34.3854 214.931 34.7472 215.177 35.0056 215.59C35.3158 216.094 35.3804 216.624 35.1866 217.102C34.941 217.723 34.282 218.226 33.4809 218.627C34.0236 218.64 34.45 218.756 34.7601 218.976C35.1349 219.247 35.3416 219.648 35.3545 220.165C35.3804 220.811 35.0832 221.173 34.8377 221.354C34.5405 221.573 34.1011 221.69 33.5455 221.69C32.9252 221.69 32.1499 221.547 31.2195 221.276C31.2841 222.917 31.3746 224.558 31.4392 225.605C31.9044 225.579 32.6797 225.579 33.2483 225.838C34.0753 226.212 34.5146 227.052 34.6826 227.453C35.0961 227.983 35.1736 228.68 34.8893 229.301C34.5921 229.934 33.9719 230.334 33.2741 230.334H26.4642C25.2108 230.334 24.0349 229.74 23.2983 228.745C22.7814 228.047 21.8511 226.548 21.3859 224.326C20.5847 219.738 20.4813 217.723 21.0499 215.345ZM94.3951 217.49C94.4339 217.322 94.4597 217.063 94.1625 216.753C93.9687 216.547 93.7619 216.443 93.5423 216.443C93.5035 216.443 93.4647 216.443 93.413 216.456C92.7152 216.56 91.759 217.503 90.7253 219.092C90.3376 219.687 90.0016 220.268 89.7561 220.733C90.2471 220.527 90.8674 220.242 91.5135 219.919C93.1934 219.015 94.2271 218.162 94.3951 217.49ZM93.4906 220.656C93.8653 220.656 94.1754 220.72 94.3951 220.85C94.5243 220.927 94.6923 221.069 94.6923 221.444V221.534L90.932 221.147C91.8107 220.875 92.7669 220.656 93.4906 220.656ZM79.4056 226.923C79.2764 227.543 79.3022 228.06 79.496 228.461C79.7286 228.952 81.4214 229.934 85.0784 229.869C88.9291 229.805 95.08 228.331 98.1037 227.466C98.6852 227.298 99.1762 226.91 99.4734 226.406C99.1633 226.509 98.7627 226.613 98.2329 226.742C97.1087 227.013 95.5322 227.336 93.8136 227.634C90.7769 228.163 86.9262 228.68 85.0784 228.68H85.0137C82.1709 228.655 80.2714 227.634 79.4056 226.923ZM80.8529 220.953C80.995 220.307 81.1501 219.596 81.3181 218.782C82.3647 213.768 82.5715 210.577 82.6103 209.711C85.5435 209.246 88.5285 208.302 90.6606 207.023C91.5523 206.48 92.263 205.912 92.8057 205.317C90.9721 215.327 88.7845 220.661 88.5919 221.131L88.5802 221.16V221.173C88.5802 221.179 88.577 221.186 88.5737 221.192C88.5705 221.199 88.5673 221.205 88.5673 221.211V221.224L88.5623 221.243C88.4961 221.494 87.7965 224.153 86.3835 224.041C85.1817 223.951 84.807 223.512 84.3289 222.943C84.1609 222.736 83.98 222.529 83.7474 222.323C82.3906 221.095 81.4343 220.888 80.8529 220.953ZM31.5555 214.427L36.8147 208.341C34.3337 207.798 32.4212 206.648 31.1161 205.628C29.7852 204.581 28.8935 203.521 28.4284 202.901L25.4175 208.987C26.2833 208.858 27.33 209.026 28.157 209.465C29.2812 210.073 29.9144 211.106 29.9144 212.386C29.9269 213.261 29.7943 213.773 29.6921 214.168L29.6818 214.208L29.6775 214.224C29.5633 214.668 29.4766 215.005 29.6042 215.745C29.7335 216.495 30.1728 216.818 30.4959 216.947C30.5734 216.03 30.9352 215.151 31.5555 214.427ZM34.5146 216.017C34.6955 216.314 34.7343 216.572 34.6309 216.831C34.3595 217.503 33.1449 218.175 31.31 218.705C31.297 218.239 31.2841 217.813 31.2712 217.425V217.193C32.8606 215.745 33.6747 215.603 34.0107 215.655C34.2174 215.681 34.3854 215.797 34.5146 216.017ZM34.5405 220.759C34.6309 220.695 34.7601 220.552 34.7472 220.216C34.7343 219.855 34.5921 219.712 34.4758 219.635C33.9977 219.299 32.8606 219.364 31.3358 219.816C31.3423 219.926 31.3455 220.035 31.3487 220.145C31.3519 220.255 31.3552 220.365 31.3616 220.475C33.5971 221.199 34.3337 220.914 34.5405 220.759ZM25.3529 214.699C24.5518 213.859 23.7377 213.51 22.9624 213.639C22.8847 213.653 22.8147 213.671 22.7461 213.689C22.6892 213.704 22.6333 213.718 22.5747 213.73C22.5876 213.71 22.5973 213.691 22.607 213.671C22.6167 213.652 22.6264 213.633 22.6393 213.613C22.7814 213.432 23.2596 213.019 24.2158 213.264C27.0586 214.001 27.5367 217.903 27.8856 220.759C27.9069 220.916 27.9267 221.071 27.9461 221.222C27.9856 221.529 28.0232 221.821 28.0665 222.09C28.0924 222.271 28.1215 222.455 28.1505 222.639C28.1796 222.823 28.2087 223.008 28.2345 223.189C28.7256 226.419 29.0098 228.112 29.7722 228.422C30.3925 228.667 31.0127 228.758 31.6072 228.758C32.8089 228.758 33.8556 228.383 34.3725 228.163C34.4888 228.422 34.4888 228.719 34.3595 228.99C34.1916 229.352 33.8427 229.572 33.4421 229.572H29.4621C29.3458 229.559 28.9323 229.352 28.4542 227.66C28.1441 226.548 27.8598 225.049 27.5497 222.801C26.9682 218.692 26.5159 215.9 25.3529 214.699Z" fill="#1A1A1A"/>
<path d="M16.7468 90.441C16.6564 91.8107 14.9894 92.586 12.8315 92.4051C10.4667 92.2242 9.34253 92.1467 9.12285 90.7899C8.9161 89.5623 10.3763 87.9212 12.9478 88.0116C15.6743 88.115 16.8373 89.0583 16.7468 90.441Z" fill="white"/>
<path d="M93.6585 222.956C94.8473 222.956 95.2737 222.426 95.4159 221.961C95.4805 221.754 95.3642 221.535 95.1574 221.483C94.9507 221.418 94.731 221.547 94.6793 221.741C94.6018 222 94.2916 222.271 93.232 222.155C91.6168 221.974 89.4717 221.018 89.4459 221.005C89.2521 220.914 89.0195 221.005 88.929 221.199C88.8386 221.392 88.929 221.625 89.1228 221.715C89.2133 221.754 91.41 222.736 93.1416 222.93C93.3225 222.943 93.5034 222.956 93.6585 222.956Z" fill="white"/>
</svg>
