<svg width="218" height="224" viewBox="0 0 218 224" fill="none" xmlns="http://www.w3.org/2000/svg">
<path d="M64.6574 218.659C-0.631447 208.017 -18.8627 140.424 21.342 99.7752C57.9566 62.7396 38.9418 33.8783 99.0618 30.0777C152.27 26.7215 205.257 70.4228 216.144 145.804C227.02 220.974 146.54 232.002 64.6574 218.659Z" fill="#E9856F"/>
<path d="M138.156 47.9812L136.518 68.6215L181.6 71.9543L183.424 50.9398C184.675 54.144 187.341 56.3425 190.417 56.3425C194.709 56.3425 198.182 52.0624 198.182 46.7883C198.182 41.5143 194.709 37.2342 190.417 37.2342C187.926 37.2342 185.704 38.6842 184.289 40.9295L185.809 23.3765L167.227 21.5756C170.361 23.283 172.291 26.4638 171.882 29.8434C171.32 34.4392 166.608 37.6318 161.369 36.9886C156.13 36.3454 152.341 32.1004 152.902 27.5046C153.3 24.3121 155.697 21.7861 158.878 20.7687L140.366 18.9795L138.623 41.3739" fill="#6F85E9"/>
<path d="M145.687 35.4803C143.067 35.4803 140.635 37.0356 139.126 39.5499L140.717 19.0149C140.728 18.8277 140.588 18.664 140.401 18.6406L121.491 16.676C124.31 15.3896 126.263 12.9222 126.613 10.0688C126.906 7.74163 126.146 5.43787 124.473 3.56679C122.813 1.70741 120.462 0.514601 117.843 0.187163C112.417 -0.479408 107.528 2.86514 106.944 7.63638C106.57 10.6535 107.996 13.6121 110.627 15.53L93.2264 13.7174C93.1328 13.7057 93.0393 13.7408 92.9691 13.7992C92.8873 13.8577 92.8522 13.9513 92.8405 14.0448L89.6831 64.5638C89.6714 64.7509 89.8117 64.9264 89.9988 64.9381L136.483 68.9726C136.495 68.9726 136.507 68.9726 136.518 68.9726C136.6 68.9726 136.682 68.9375 136.741 68.8907C136.822 68.8205 136.858 68.7387 136.869 68.6451L138.343 49.6186C139.664 53.0333 142.482 55.2903 145.687 55.2903C150.166 55.2903 153.802 50.8465 153.802 45.3853C153.802 39.9241 150.166 35.4803 145.687 35.4803Z" fill="#1A1A1A"/>
<path d="M181.6 72.3052C181.588 72.3052 181.588 72.3052 181.576 72.3052L136.495 68.9723C136.401 68.9606 136.32 68.9255 136.249 68.8554C136.191 68.7852 136.156 68.6917 136.168 68.5981L137.805 47.9578C137.816 47.759 137.992 47.6187 138.179 47.6304C138.378 47.6421 138.518 47.8175 138.506 48.0046L136.893 68.2941L181.272 71.5801L183.061 50.9048C183.073 50.741 183.202 50.6124 183.365 50.589C183.529 50.5656 183.681 50.6592 183.74 50.8112C184.979 53.9569 187.599 55.9917 190.417 55.9917C194.51 55.9917 197.831 51.8637 197.831 46.7884C197.831 41.7131 194.498 37.585 190.417 37.585C188.125 37.585 185.997 38.8714 184.582 41.1167C184.5 41.257 184.324 41.3155 184.172 41.257C184.02 41.2102 183.927 41.0582 183.938 40.8945L185.424 23.6923L168.631 22.0668C171.203 23.9847 172.583 26.9316 172.221 29.8785C171.683 34.2522 167.543 37.4213 162.69 37.4213C162.234 37.4213 161.778 37.3979 161.31 37.3395C158.691 37.012 156.34 35.8192 154.679 33.9598C153.007 32.0888 152.247 29.785 152.539 27.4578C152.879 24.6746 154.703 22.289 157.404 20.9792L140.693 19.3654L138.986 41.3974C138.974 41.5962 138.799 41.7365 138.612 41.7248C138.413 41.7131 138.272 41.5377 138.284 41.3506L140.027 18.9561C140.038 18.8626 140.073 18.7807 140.155 18.7106C140.225 18.6521 140.319 18.617 140.413 18.6287L158.924 20.4179C159.088 20.4296 159.217 20.5699 159.24 20.7337C159.264 20.8974 159.158 21.0494 158.995 21.1079C155.814 22.1253 153.615 24.5928 153.253 27.5514C152.996 29.668 153.697 31.7847 155.217 33.4921C156.761 35.2228 158.96 36.3338 161.404 36.6378C166.444 37.2576 170.981 34.182 171.519 29.7967C171.905 26.686 170.151 23.5754 167.052 21.8797C166.9 21.7978 166.841 21.6224 166.888 21.4704C166.935 21.3067 167.099 21.2131 167.262 21.2248L185.845 23.014C186.032 23.0374 186.172 23.2011 186.16 23.3883L184.745 39.6783C186.254 37.8774 188.265 36.86 190.417 36.86C194.896 36.86 198.533 41.3038 198.533 46.765C198.533 52.2262 194.896 56.67 190.417 56.67C187.692 56.67 185.143 54.9743 183.658 52.2496L181.95 71.966C181.927 72.1648 181.775 72.3052 181.6 72.3052Z" fill="#1A1A1A"/>
<path d="M136.553 68.2824L160.655 70.0599C163.883 67.4404 165.754 64.3298 165.754 60.9969C165.754 51.5714 150.785 43.9233 132.308 43.9233C113.832 43.9233 98.8629 51.5714 98.8629 60.9969C98.8629 62.4119 99.202 63.7801 99.8335 65.0899L136.553 68.2824Z" fill="#F4B35F"/>
<path d="M190.417 36.86C188.265 36.86 186.254 37.8774 184.745 39.6783L186.16 23.3883C186.172 23.2011 186.032 23.0374 185.845 23.014L167.262 21.2248C167.099 21.2131 166.935 21.3067 166.888 21.4704C166.841 21.6224 166.9 21.7978 167.052 21.8797C170.151 23.5754 171.905 26.686 171.519 29.7967C170.981 34.182 166.444 37.2576 161.404 36.6378C158.96 36.3338 156.761 35.2228 155.217 33.4921C153.697 31.7847 152.996 29.668 153.253 27.5514C153.615 24.5928 155.814 22.1253 158.995 21.1079C159.158 21.0494 159.264 20.8974 159.24 20.7337C159.217 20.5699 159.088 20.4296 158.924 20.4179L140.413 18.6287C140.319 18.617 140.225 18.6521 140.155 18.7106C140.073 18.7807 140.038 18.8626 140.027 18.9561L138.284 41.3506C138.272 41.5377 138.413 41.7131 138.612 41.7248C138.799 41.7365 138.974 41.5962 138.986 41.3974L140.693 19.3654L157.404 20.9792C154.703 22.289 152.879 24.6746 152.539 27.4578C152.247 29.785 153.007 32.0888 154.679 33.9598C156.34 35.8192 158.691 37.012 161.31 37.3395C161.778 37.3979 162.234 37.4213 162.69 37.4213C167.543 37.4213 171.683 34.2522 172.221 29.8785C172.583 26.9316 171.203 23.9847 168.631 22.0668L185.424 23.6923L183.938 40.8945C183.927 41.0582 184.02 41.2102 184.172 41.257C184.324 41.3155 184.5 41.257 184.582 41.1167C185.997 38.8714 188.125 37.585 190.417 37.585C194.498 37.585 197.831 41.7131 197.831 46.7884C197.831 51.8637 194.51 55.9917 190.417 55.9917C187.599 55.9917 184.979 53.9569 183.74 50.8112C183.681 50.6592 183.529 50.5656 183.365 50.589C183.202 50.6124 183.073 50.741 183.061 50.9048L181.272 71.5801L160.667 70.0482C160.538 70.1534 160.398 70.2587 160.258 70.3756L136.507 68.6215L136.168 68.5864V68.5981C136.156 68.6917 136.191 68.7852 136.249 68.8554C136.32 68.9255 136.401 68.9606 136.495 68.9723L181.576 72.3052C181.588 72.3052 181.588 72.3052 181.6 72.3052C181.775 72.3052 181.927 72.1648 181.95 71.966L183.658 52.2496C185.143 54.9743 187.692 56.67 190.417 56.67C194.896 56.67 198.533 52.2262 198.533 46.765C198.533 41.3038 194.896 36.86 190.417 36.86Z" fill="#1A1A1A"/>
<path d="M161.217 52.9867C161.135 52.9867 161.053 52.9633 160.994 52.9048C160.842 52.7762 160.819 52.5657 160.948 52.4137C167.146 44.9411 174.829 39.0589 183.775 34.9308C183.95 34.849 184.161 34.9308 184.243 35.1062C184.324 35.2816 184.243 35.4921 184.067 35.574C175.215 39.6553 167.613 45.4673 161.486 52.8581C161.415 52.9399 161.322 52.9867 161.217 52.9867Z" fill="white"/>
<path d="M136.518 68.9727C136.507 68.9727 136.495 68.9727 136.495 68.9727C136.296 68.961 136.156 68.7856 136.168 68.5985L137.793 47.6425C137.805 47.4671 137.945 47.3267 138.12 47.315C138.296 47.3033 138.448 47.4203 138.483 47.5957C139.302 51.7121 142.26 54.5888 145.675 54.5888C149.768 54.5888 153.089 50.4608 153.089 45.3855C153.089 45.1867 153.241 45.0347 153.44 45.0347C153.639 45.0347 153.791 45.1867 153.791 45.3855C153.791 50.8467 150.154 55.2905 145.675 55.2905C142.471 55.2905 139.652 53.0335 138.331 49.6188L136.869 68.6453C136.858 68.8324 136.705 68.9727 136.518 68.9727Z" fill="#1A1A1A"/>
<path d="M139.547 30.0543C139.535 30.0543 139.535 30.0543 139.524 30.0543C139.325 30.0427 139.185 29.8672 139.196 29.6801L139.804 21.2837C139.816 21.0849 139.992 20.9446 140.179 20.9562C140.377 20.9679 140.518 21.1434 140.506 21.3305L139.898 29.7269C139.875 29.914 139.723 30.0543 139.547 30.0543Z" fill="#1A1A1A"/>
<path d="M139.933 29.2004C145.336 27.2709 150.329 24.4409 154.843 20.7455L144.775 19.7749C143.371 20.5701 141.933 21.2835 140.459 21.9266L139.933 29.2004Z" fill="#F4B35F"/>
<circle cx="113.528" cy="39.4097" r="4.15145" fill="#6F85E9"/>
<path d="M139.734 22.2423C138.12 22.9089 136.472 23.4819 134.776 23.9613C129.49 25.4465 123.737 26.0078 117.702 25.6336C106.429 24.932 97.3428 21.2366 93.2264 19.2603L92.7937 26.2534C97.9976 28.4753 106.792 31.5041 117.293 32.1707C118.65 32.2525 119.994 32.2993 121.328 32.2993C126.648 32.2993 131.747 31.621 136.553 30.2762C137.454 30.0189 138.331 29.75 139.208 29.4459L139.734 22.2423Z" fill="#F4B35F"/>
<circle cx="173.484" cy="53.9922" r="2.57273" fill="white"/>
<path d="M151.265 69.9665C151.23 69.9665 151.195 69.9665 151.159 69.9548C150.972 69.8963 150.867 69.6975 150.926 69.5104C150.937 69.4636 152.329 65.1134 155.942 59.3248C157.439 56.9274 159.123 54.6003 160.936 52.4135C161.064 52.2615 161.275 52.2381 161.427 52.3667C161.579 52.4953 161.602 52.7058 161.474 52.8579C159.673 55.0213 158.012 57.3251 156.527 59.699C152.96 65.4174 151.592 69.6858 151.58 69.7326C151.557 69.8729 151.417 69.9665 151.265 69.9665Z" fill="#1A1A1A"/>
<path d="M151.557 199.129C148.692 195.446 144.12 191.224 137.957 186.605C125.315 177.121 107.423 166.97 87.5546 158.001C67.6978 149.031 48.2386 142.331 32.7672 139.126C25.2244 137.571 19.0381 136.916 14.3722 137.208C9.4372 137.524 6.385 138.881 5.32083 141.243C4.25666 143.605 5.25067 146.786 8.29116 150.692C11.1562 154.376 15.7287 158.597 21.8915 163.216C34.533 172.7 52.4368 182.851 72.2936 191.82C92.1504 200.79 111.61 207.491 127.081 210.695C133.454 212.016 138.857 212.683 143.196 212.683C143.991 212.683 144.751 212.66 145.476 212.613C150.411 212.297 153.463 210.941 154.527 208.578C155.592 206.216 154.598 203.035 151.557 199.129Z" fill="#1A1A1A"/>
<path d="M182.301 83.5317C182.301 83.5317 183.775 104.511 179.565 119.714C175.355 134.916 168.689 151.756 153.604 167.075C138.518 182.395 120.977 188.85 106.183 191.06C106.183 191.06 105.669 168.221 111.282 158.047C116.895 147.873 123.023 139.325 123.023 139.325C123.023 139.325 128.578 132.823 133.84 130.718C139.103 128.613 149.394 127.093 158.164 119.491C166.935 111.89 167.403 103.353 167.403 103.353C167.403 103.353 171.601 87.3674 171.788 81.6139C179.389 79.848 182.301 83.5317 182.301 83.5317Z" fill="white"/>
<path d="M82.9588 116.428C82.9588 116.428 82.4326 108.242 77.9888 98.1848C76.0007 93.6708 71.8493 88.8294 72.4925 79.2402C73.1357 69.6509 79.6844 58.8922 87.4026 51.4079C95.1208 43.9236 87.4026 51.4079 87.4026 51.4079C87.4026 51.4079 86.6659 43.4909 81.0527 43.7248C81.0527 43.7248 71.7324 52.5773 65.2421 60.0616C58.7518 67.5459 46.5898 81.1112 41.0935 100.29C35.5972 119.468 41.0935 137.945 42.2629 140.518C43.4324 143.091 62.0262 143.909 71.4985 135.489C80.9708 127.07 82.3741 119.702 82.3741 119.702L82.9588 116.428Z" fill="white"/>
<path d="M174.875 144.611C174.817 144.611 174.747 144.599 174.688 144.564C174.525 144.459 174.466 144.248 174.571 144.084C180.348 134.589 183.202 123.818 184.582 116.463C186.078 108.487 186.207 102.687 186.207 102.628C186.207 102.43 186.371 102.278 186.57 102.289C186.768 102.289 186.92 102.453 186.909 102.652C186.909 102.71 186.768 108.557 185.26 116.591C183.868 124.005 180.98 134.858 175.156 144.459C175.109 144.552 174.992 144.611 174.875 144.611Z" fill="#1A1A1A"/>
<path d="M35.4802 112.335C35.2931 112.335 35.1411 112.183 35.1294 111.995C34.7669 102.628 37.211 94.6178 39.3393 89.5425C41.6431 84.0463 44.0638 80.7017 44.0872 80.6666C44.2041 80.5146 44.4263 80.4795 44.5783 80.5965C44.7303 80.7134 44.7654 80.9356 44.6485 81.0876C44.6251 81.1227 42.2395 84.4088 39.9708 89.8349C37.8892 94.84 35.4802 102.745 35.831 111.972C35.8427 112.171 35.6907 112.323 35.4919 112.335C35.4919 112.335 35.4919 112.335 35.4802 112.335Z" fill="#1A1A1A"/>
<ellipse cx="154.878" cy="135.723" rx="2.68967" ry="3.39132" fill="#1A1A1A"/>
<path fill-rule="evenodd" clip-rule="evenodd" d="M123.339 118.194C123.491 117.153 123.584 115.995 123.561 114.767C123.479 111.528 122.474 107.377 118.462 104.547V104.523C118.521 103.763 118.72 99.9273 117.281 99.4829C115.936 99.0619 112.51 101.459 111.832 101.95L111.82 101.962C108.101 101.448 104.687 102.36 102.231 103.389C100.64 104.055 99.3073 104.816 98.2899 105.459C98.2665 105.424 98.2431 105.4 98.208 105.377C96.1381 104.02 90.9927 102.968 89.0982 105.038C88.5603 105.622 88.3732 106.231 88.5252 106.839C88.8293 108.043 90.4548 108.885 91.285 109.248C89.3438 110.405 87.4376 111.855 85.59 113.61C84.3062 114.822 83.0579 116.061 81.8452 117.265L81.3099 117.796C73.2876 125.772 65.7215 133.291 47.3148 138.787C45.3969 139.36 43.6077 140.003 41.9939 140.682C34.5915 143.816 31.3288 147.663 29.1069 151.019C28.2181 152.376 27.4346 153.756 26.6862 155.101L26.6369 155.188C25.2518 157.647 23.9376 159.98 21.9266 162.176C20.9677 163.228 19.9503 164.14 18.7926 164.994C15.4597 167.45 12.735 171.391 11.1329 176.115C9.43721 181.097 9.08638 186.5 10.1272 191.715C11.3317 197.761 14.4072 203.328 19.0265 207.806C24.4058 213.022 31.7966 216.823 41.0116 219.103C45.2332 220.144 50.2149 220.67 55.4072 220.67C60.7748 220.67 66.3881 220.12 71.6271 218.998C77.6028 217.723 82.9822 215.794 87.6365 213.268C92.8638 210.414 97.0737 206.848 100.149 202.649C100.652 201.959 101.132 201.246 101.576 200.521C103.295 197.703 104.804 194.744 106.172 191.493C107.214 189.034 108.026 186.751 108.81 184.547L108.81 184.547L108.885 184.336C110.744 179.109 112.218 174.981 115.375 171.823C121.316 165.871 127.467 158.527 125.116 146.599C124.582 143.914 124.093 141.656 123.663 139.666L123.662 139.664L123.655 139.629C122.438 134.086 121.702 130.671 121.936 126.122C122.251 126.298 122.696 126.508 123.199 126.707C123.959 126.999 124.602 127.14 125.152 127.14C125.584 127.14 125.958 127.046 126.251 126.871C126.835 126.52 127.21 125.818 127.28 124.965C127.35 124.006 127.116 121.421 123.339 118.194ZM117.082 100.161C117.656 100.337 117.878 102.278 117.796 104.102C117.199 103.74 116.556 103.389 115.843 103.085C114.826 102.64 113.808 102.336 112.802 102.126C114.358 101.085 116.416 99.9507 117.082 100.161ZM89.2152 106.687C89.4724 107.716 91.3318 108.558 92.0335 108.803C92.0393 108.803 92.0422 108.806 92.0452 108.809C92.0481 108.812 92.051 108.815 92.0569 108.815C93.4134 108.066 94.7816 107.47 96.1732 107.014L96.22 106.967C96.2267 106.962 96.2429 106.949 96.2684 106.928C96.4214 106.802 96.9083 106.401 97.6701 105.88C95.5651 104.617 91.0862 103.927 89.6245 105.529C89.2619 105.926 89.1216 106.312 89.2152 106.687ZM114.065 109.002C109.551 106.558 104.967 105.587 100.43 106.09C99.6113 106.184 98.781 106.324 97.9741 106.511C99.0032 105.798 100.582 104.827 102.511 104.02C105.716 102.699 110.569 101.565 115.562 103.728C118.158 104.851 120.088 106.511 121.304 108.663C122.275 110.394 122.801 112.452 122.859 114.767C122.918 116.966 122.544 118.989 122.181 120.381C121.748 115.551 118.977 111.657 114.065 109.002ZM125.888 126.274C126.274 126.041 126.531 125.538 126.578 124.906C126.707 123.211 125.456 121.035 123.199 119.001C122.877 120.793 122.418 122.072 122.302 122.397C122.287 122.438 122.277 122.464 122.275 122.474C122.267 122.496 122.255 122.513 122.245 122.529C122.238 122.538 122.232 122.547 122.228 122.556C122.216 122.942 122.181 123.339 122.134 123.737C122.129 123.793 122.123 123.848 122.117 123.903C122.065 124.405 122.014 124.888 121.982 125.362C122.895 125.888 124.953 126.847 125.888 126.274Z" fill="#1B1919"/>
<path d="M22.6517 162.41L22.1255 161.942C24.0433 159.778 25.3297 157.498 26.6862 155.089C27.4347 153.744 28.2182 152.364 29.1069 151.008C31.0716 148.026 34.1939 144.213 40.9298 141.149L41.2221 141.793C34.6968 144.775 31.7381 148.318 29.7033 151.405C28.8263 152.738 28.0545 154.107 27.306 155.44C25.9729 157.779 24.6164 160.199 22.6517 162.41Z" fill="#E9856F"/>
<ellipse cx="66.5276" cy="66.3413" rx="2.98203" ry="2.6312" transform="rotate(-40.2707 66.5276 66.3413)" fill="#1A1A1A"/>
<path d="M87.4026 51.4075C87.4026 51.4075 92.4896 47.6069 94.5361 44.7418C96.5826 41.8768 99.2138 36.2051 99.5646 35.4449C99.9155 34.6848 100.734 32.4044 99.9155 31.9951C99.0969 31.5858 95.6471 35.6204 95.6471 35.6204C95.6471 35.6204 92.8989 39.1286 92.0219 37.8423C91.1448 36.5559 91.3787 34.0416 91.3787 34.0416L91.7646 31.8899L92.0569 27.3525C92.0569 27.3525 89.4374 28.4401 88.806 29.668C88.1745 30.8959 85.8239 35.8659 85.8239 35.8659L84.3621 39.3742L80.8539 43.7011C80.8539 43.7011 84.0113 43.4672 85.3562 45.6891C86.701 47.911 87.4026 51.4075 87.4026 51.4075Z" fill="#E9856F"/>
<path d="M100.664 201.913L100.091 201.515C100.395 201.071 100.687 200.615 100.968 200.17C102.558 197.562 103.962 194.861 105.236 191.891L105.879 192.171C104.581 195.165 103.178 197.901 101.564 200.533C101.272 201 100.98 201.456 100.664 201.913Z" fill="#E9856F"/>
<path d="M24.9906 201.538L24.9321 200.836C31.3289 200.275 35.9715 198.006 39.1172 193.913C42.7424 189.177 44.4264 182.044 44.2627 172.08C43.8066 163.497 45.0579 157.299 48.1802 152.574C50.788 148.633 54.6471 145.698 61.079 142.775C63.1138 141.851 65.2772 141.091 67.5576 140.295C71.405 138.951 75.3927 137.559 78.9477 135.232C82.9588 132.601 85.859 129.116 87.8003 124.555C90.9226 117.234 95.2962 113.563 98.4303 111.773C101.833 109.82 104.476 109.622 104.593 109.61L104.64 110.312L104.617 109.961L104.64 110.312C104.617 110.312 102.02 110.522 98.746 112.405C95.7172 114.147 91.4839 117.714 88.4551 124.836C86.4554 129.525 83.4851 133.115 79.3453 135.817C75.7084 138.191 71.6856 139.594 67.7914 140.95C65.5228 141.746 63.3827 142.482 61.3713 143.406C55.0681 146.271 51.2909 149.125 48.7649 152.949C45.7245 157.544 44.5199 163.614 44.9643 172.034V172.045C45.128 182.172 43.3973 189.458 39.6785 194.323C36.3925 198.603 31.5978 200.953 24.9906 201.538Z" fill="#E9856F"/>
<path d="M55.606 209.584L55.3488 208.929C77.8835 200.24 76.8427 188.71 75.6265 175.378C75.533 174.349 75.4394 173.297 75.3576 172.244V172.221C75.2523 167.449 76.9714 161.942 80.199 156.714C83.0056 152.177 86.6776 148.283 90.0221 146.295C91.2734 145.546 92.5831 144.891 93.8461 144.26C98.9916 141.675 103.845 139.243 104.581 131.361C105.073 126.075 107.563 122.029 109.575 119.562C111.75 116.895 113.773 115.492 113.855 115.434L114.253 116.007C114.229 116.018 112.206 117.422 110.101 120.018C108.16 122.403 105.751 126.321 105.283 131.42C104.932 135.138 103.658 138.039 101.389 140.284C99.3658 142.284 96.8398 143.546 94.1619 144.891C92.9106 145.523 91.6125 146.166 90.3729 146.903C87.1219 148.832 83.5435 152.633 80.7837 157.088C77.6262 162.199 75.9423 167.566 76.0358 172.197C76.1177 173.25 76.2112 174.302 76.3048 175.32C76.9129 182.02 77.4859 188.347 75.0301 194.147C72.2937 200.626 66.1191 205.538 55.606 209.584Z" fill="#E9856F"/>
<path d="M82.5963 140.155L82.3975 139.477C82.4208 139.465 84.4907 138.857 86.8062 137.115C88.9345 135.513 91.7294 132.589 92.9106 127.806C94.9103 119.714 99.8803 116.72 100.091 116.591L100.442 117.199L100.266 116.895L100.442 117.199C100.395 117.223 95.5067 120.181 93.5888 127.97C92.3492 132.975 89.4374 136.015 87.2038 137.688C84.7831 139.512 82.6781 140.132 82.5963 140.155Z" fill="#E9856F"/>
<path d="M92.2792 32.288C92.2792 32.288 92.2792 32.288 92.2675 32.2997C92.2675 32.2997 92.2675 32.2997 92.2792 32.288Z" fill="#1A1A1A"/>
<path fill-rule="evenodd" clip-rule="evenodd" d="M100.079 31.6795C100.231 31.7497 100.442 31.9134 100.547 32.2525C100.792 33.1062 100.243 34.989 98.9097 37.8073C97.7871 40.1812 96.3604 42.6721 95.4482 44.0988C93.3316 47.3848 87.8821 51.5012 87.6482 51.6766C87.6365 51.6825 87.6277 51.6883 87.619 51.6941C87.6102 51.7 87.6014 51.7058 87.5897 51.7117C87.1921 52.0742 84.7714 54.3078 82.0233 57.8044C81.9999 57.9096 81.9297 57.9915 81.8362 58.0383C81.1228 58.9504 80.3978 59.9327 79.6844 60.9969C77.4391 64.3181 75.7084 67.686 74.5507 70.9955C73.1123 75.1235 72.551 79.1814 72.9018 83.0639C73.2994 87.5662 74.9366 90.9224 76.8427 94.8049C79.3804 99.9854 82.2455 105.868 83.3096 116.392C83.333 116.58 83.1927 116.755 82.9939 116.778C82.8068 116.802 82.6314 116.661 82.608 116.463C81.6374 106.873 79.1465 101.19 76.796 96.3368C73.505 97.1297 72.3426 96.0665 71.3223 95.1334C71.2441 95.0618 71.1667 94.991 71.0892 94.9218C69.913 93.8772 67.9891 94.7527 65.7548 95.7696C64.6126 96.2894 63.3892 96.8462 62.1431 97.2022C58.4594 98.2547 56.4597 95.3077 57.6057 92.7584C58.8921 89.905 70.1069 84.2918 72.2118 83.2627C72.2118 83.2393 72.2089 83.2189 72.206 83.1984L72.206 83.1984C72.2031 83.1779 72.2001 83.1574 72.2001 83.1341C71.8493 79.1463 72.4106 74.9949 73.8958 70.7616C74.8664 67.9783 76.2346 65.16 77.9654 62.3651C81.041 54.9042 76.8778 52.1444 76.8778 52.1444C76.8895 52.1502 76.8983 52.1531 76.907 52.1561L76.9071 52.1561C76.9126 52.1579 76.9181 52.1597 76.9243 52.1623C76.8643 52.1349 76.8068 52.1075 76.7492 52.0801C76.6878 52.0508 76.6264 52.0216 76.5621 51.9923C74.9951 51.3141 73.6736 51.3959 73.5333 51.4076C70.598 54.4481 67.0664 58.2838 63.4295 62.5873C58.0969 68.9256 53.5946 75.0417 50.0747 80.7952C45.666 87.9638 42.7658 94.5476 41.4443 100.383C40.8128 103.178 40.3334 105.821 39.9826 108.335C43.5493 108.733 46.1103 113.808 45.7478 119.831C45.4321 125.128 42.9295 129.431 39.889 130.355C40.8615 136.559 42.4216 140.038 42.5677 140.364C42.5744 140.379 42.5782 140.387 42.5787 140.389C42.6605 140.564 42.5904 140.775 42.415 140.857C42.3929 140.857 42.3708 140.859 42.3475 140.862C42.3214 140.865 42.2938 140.868 42.2629 140.868C42.1343 140.868 42.0057 140.798 41.9472 140.67L41.9418 140.658C41.8155 140.387 40.1397 136.793 39.1406 130.098C38.205 123.83 37.7256 113.551 40.7544 100.208C42.0992 94.302 45.0345 87.6363 49.4783 80.4093C53.0333 74.6324 57.5473 68.4812 62.9032 62.1195C71.7674 51.5947 80.0586 43.9467 80.5966 43.4556L84.0581 39.1755L87.5429 31.0129C88.1744 29.5278 89.3205 28.2882 90.7589 27.5514L92.0335 26.8966C92.2089 26.803 92.4194 26.8732 92.5013 27.0486C92.5949 27.224 92.5247 27.4345 92.3493 27.5163L91.0746 28.1712C89.7765 28.8378 88.7475 29.9487 88.1744 31.2936L84.6662 39.5029C84.6588 39.5249 84.6469 39.5424 84.6361 39.5581C84.6297 39.5674 84.6237 39.5761 84.6194 39.5848L81.5789 43.3386C82.3507 43.3971 83.5786 43.6544 84.7597 44.6016C86.3267 45.8763 87.3091 47.9345 87.6833 50.7528C89.0866 49.6418 93.1445 46.3557 94.8284 43.7362C97.1088 40.1929 100.278 33.878 99.857 32.4513C99.8256 32.3572 99.7942 32.3285 99.7796 32.3152L99.7751 32.311C99.7751 32.311 99.5646 32.2408 98.8045 32.9308C98.2659 33.4132 97.6412 34.111 96.9717 34.8588L96.8866 34.9539L96.8864 34.9542C95.1089 36.9304 93.4368 38.7896 92.244 38.4387C91.7412 38.2984 91.4137 37.7956 91.2734 36.9653C90.9577 35.1644 90.946 33.7494 91.2383 32.7671C91.4722 31.9718 91.8464 31.7263 91.9166 31.6912L92.2674 32.2993C92.1505 32.4045 91.3319 33.2582 91.9634 36.8483C92.0335 37.2226 92.1622 37.6903 92.4428 37.7722C93.2146 37.9944 95.0389 35.9713 96.3721 34.4861C98.2081 32.4513 99.2839 31.317 100.079 31.6795ZM76.9012 51.3784C76.9217 51.3872 76.9421 51.3959 76.9597 51.4076L82.9822 44.3911C82.0584 44.0403 81.2748 44.0286 81.0059 44.0403C80.4913 44.508 77.8718 46.9404 74.2115 50.706C74.843 50.7528 75.7903 50.8931 76.8427 51.3492C76.8603 51.3609 76.8807 51.3696 76.9012 51.3784ZM77.6029 51.7351L83.6254 44.7069C83.8593 44.8355 84.0932 44.9875 84.327 45.1746C84.9936 45.7126 85.5549 46.4259 85.9876 47.303L80.1054 53.9219C79.2985 52.8811 78.4215 52.1912 77.6029 51.7351ZM80.5264 54.4949C80.9942 55.1849 81.4269 56.0035 81.7894 56.9741C84.3036 53.84 86.4788 51.7819 87.0401 51.279C86.8998 50.0394 86.6542 48.9402 86.2917 48.0046L80.5264 54.4949Z" fill="#1A1A1A"/>
<path d="M137.185 158.656C136.998 158.656 136.752 158.597 136.53 158.352C136.156 157.966 135.665 156.995 135.641 153.136C135.63 150.914 135.77 147.979 136.062 144.435C136.565 138.401 137.349 132.589 137.349 132.531L138.039 132.624C138.027 132.683 137.255 138.483 136.752 144.494C136.46 148.014 136.32 150.926 136.331 153.124C136.355 156.633 136.776 157.603 137.033 157.872C137.115 157.954 137.173 157.954 137.197 157.954C138.296 157.872 138.939 154.726 139.559 151.686C140.448 147.324 141.465 142.366 144.33 141.138L144.611 141.781C142.073 142.868 141.067 147.827 140.249 151.826C139.489 155.568 138.881 158.527 137.255 158.656C137.232 158.644 137.208 158.656 137.185 158.656Z" fill="#E9856F"/>
<path d="M54.0741 121.854L53.3724 121.784C54.1092 114.978 59.9914 113.411 64.2831 112.265C67.1365 111.505 68.879 110.967 68.8088 109.68C68.7854 109.212 68.5749 108.815 68.1539 108.464C65.511 106.277 56.4246 107.423 56.3428 107.435L56.2492 106.733C56.6351 106.687 65.7332 105.54 68.5983 107.926C69.1596 108.394 69.4637 108.967 69.4988 109.633C69.604 111.563 67.3353 112.171 64.4469 112.931C60.1434 114.089 54.764 115.527 54.0741 121.854Z" fill="#E9856F"/>
<path fill-rule="evenodd" clip-rule="evenodd" d="M50.8932 38.5438C50.3436 38.5438 49.8758 38.3801 49.525 38.0526C49.2677 37.8187 49.0806 37.503 48.9169 37.0586C48.2971 35.3162 48.7415 33.258 50.0278 31.9365C50.5073 31.4454 50.9867 31.2232 51.4779 31.27C51.8521 31.3167 52.2029 31.5857 52.355 31.9599C52.4836 32.2757 52.4368 32.6031 52.2263 32.837C52.086 33.0007 51.8404 33.0241 51.6767 32.8838C51.513 32.7434 51.4896 32.4979 51.6299 32.3341C51.6533 32.3108 51.6299 32.264 51.6182 32.2523C51.5832 32.147 51.4662 32.0535 51.3843 32.0535C51.092 32.0184 50.7879 32.2757 50.5774 32.4862C49.4899 33.6088 49.1157 35.3396 49.6419 36.813C49.7589 37.1288 49.8875 37.351 50.0395 37.503C50.6125 38.0292 51.6299 37.6901 52.0392 37.5264C54.4248 36.5324 56.0854 34.3923 57.7226 32.112C58.0267 31.6793 58.3307 31.2466 58.6114 30.8139C58.3424 30.6736 58.0968 30.4981 57.9097 30.2643C57.5472 29.8199 57.3484 29.2235 57.3016 28.44C57.2432 27.3875 57.6408 26.2765 58.2956 25.6217C58.74 25.1773 59.2779 24.9668 59.8627 25.0019C60.2486 25.0253 60.5877 25.1773 60.7865 25.4229C61.0555 25.7386 61.0789 26.1596 61.0672 26.4753C61.0087 27.8436 60.5292 29.0948 59.8393 30.311C59.9913 30.311 60.1433 30.2993 60.307 30.2643C61.0321 30.1122 61.687 29.6679 62.2366 29.2469C64.1661 27.7734 65.8033 25.8789 66.9844 23.7506C66.7622 23.5986 66.5634 23.3998 66.4231 23.1776C66.1892 22.7917 66.1425 22.359 66.2945 21.9731C66.4933 21.4819 67.0897 21.096 67.651 21.3065C67.9083 21.4 68.1071 21.5988 68.2123 21.8561C68.3877 22.3005 68.2708 22.8618 68.0954 23.2828C68.645 23.2594 69.1946 22.9554 69.756 22.6162C72.2585 21.1194 74.1764 19.7044 75.4277 17.7281C75.5446 17.541 75.7785 17.4942 75.9656 17.6111C76.1527 17.7281 76.1995 17.9619 76.0825 18.1491C74.6675 20.3826 72.3989 21.938 70.1536 23.2828C69.4285 23.7155 68.6567 24.1365 67.803 24.0429C67.7837 24.0429 67.7644 24.0394 67.747 24.0362C67.7329 24.0336 67.72 24.0312 67.7095 24.0312C66.4699 26.2882 64.7508 28.2996 62.7044 29.855C62.0846 30.3227 61.3361 30.8373 60.4591 31.0127C60.0965 31.0829 59.734 31.0946 59.3832 31.0478C59.0558 31.5506 58.7166 32.0535 58.3541 32.5563C56.6467 34.942 54.9043 37.1755 52.3316 38.2397C51.8287 38.4385 51.3376 38.5438 50.8932 38.5438ZM59.7574 25.762C59.43 25.762 59.1259 25.8906 58.857 26.1596C58.3541 26.6508 58.0501 27.5512 58.0968 28.3815C58.1319 28.9896 58.2722 29.4457 58.5295 29.7497C58.6698 29.9134 58.8453 30.0421 59.0441 30.1356C59.7457 28.9545 60.2486 27.7383 60.307 26.4403C60.3187 26.2648 60.307 26.031 60.2135 25.914C60.1433 25.8322 60.0147 25.7854 59.8393 25.7737C59.8042 25.762 59.7808 25.762 59.7574 25.762ZM67.0195 22.2303C67.078 22.1017 67.2183 21.9965 67.3353 21.9965C67.347 21.9965 67.3703 21.9965 67.3937 22.0081C67.4405 22.0198 67.4756 22.0549 67.499 22.1134C67.5691 22.3005 67.5107 22.6864 67.347 23.0255C67.2417 22.9554 67.1599 22.8501 67.0897 22.7449C67.0078 22.6162 66.9377 22.4291 67.0195 22.2303Z" fill="#1A1A1A"/>
<path fill-rule="evenodd" clip-rule="evenodd" d="M212.379 91.6006C212.32 91.6006 212.262 91.5889 212.203 91.5538C210.788 90.8287 210.028 89.2032 209.958 86.7124C208.695 86.9579 207.327 87.0749 206.286 86.2563C205.853 85.9172 205.503 85.426 205.222 84.7477C204.45 82.9001 204.497 80.912 204.637 78.7018C204.672 78.1288 204.719 77.4973 204.824 76.8541C203.117 77.0296 201.152 76.9828 200.147 75.521C199.492 74.5738 199.527 73.4277 199.609 72.2232C199.655 71.5216 199.796 69.6622 201.164 69.0892C201.363 69.0073 201.597 69.1009 201.679 69.2997C201.76 69.4985 201.667 69.7324 201.468 69.8142C200.649 70.165 200.462 71.3228 200.392 72.2934C200.31 73.3459 200.287 74.3516 200.79 75.0883C201.62 76.2811 203.456 76.246 205 76.0589C205.14 75.5678 205.327 75.0883 205.596 74.6439C205.9 74.1528 206.356 73.7084 206.871 73.3927C207.643 72.9249 208.438 73.264 208.812 73.8487C209.198 74.4217 209.198 75.2871 208.473 75.8134C208.344 75.9069 208.204 75.9888 208.064 76.0706C207.292 76.4916 206.426 76.6436 205.62 76.7489C205.503 77.3687 205.444 78.0353 205.397 78.7486C205.269 80.8653 205.21 82.7597 205.924 84.4437C206.157 84.9933 206.426 85.3909 206.754 85.6482C207.572 86.2914 208.812 86.1394 209.935 85.9172C209.946 85.3441 210.017 84.7594 210.344 84.2566C210.59 83.8824 210.999 83.6251 211.432 83.5432C211.782 83.4848 212.121 83.5549 212.39 83.7537C212.426 83.7771 212.449 83.8122 212.472 83.8473C212.94 84.5256 212.624 85.4494 212.063 85.9289C211.665 86.268 211.163 86.4317 210.706 86.537C210.753 88.8056 211.361 90.2557 212.531 90.8521C212.718 90.9457 212.8 91.1796 212.706 91.3784C212.648 91.5187 212.519 91.6006 212.379 91.6006ZM211.677 84.3151C211.642 84.3151 211.607 84.3151 211.572 84.3267C211.35 84.3618 211.127 84.5139 211.011 84.701C210.823 84.9933 210.753 85.3558 210.73 85.7534C211.046 85.6716 211.338 85.5429 211.572 85.3558C211.853 85.122 212.028 84.6776 211.876 84.3735C211.817 84.3267 211.747 84.3151 211.677 84.3151ZM207.257 74.0709C207.385 74.0008 207.502 73.9657 207.608 73.9657C207.853 73.9657 208.04 74.1177 208.157 74.2931C208.321 74.5504 208.379 74.9363 208.005 75.2053C207.9 75.2754 207.795 75.3456 207.689 75.4041C207.128 75.7081 206.497 75.8484 205.842 75.9537C205.947 75.6379 206.076 75.3456 206.251 75.0649C206.497 74.6673 206.847 74.3165 207.257 74.0709Z" fill="#1A1A1A"/>
<path fill-rule="evenodd" clip-rule="evenodd" d="M204.181 129.314H204.275C205.035 129.314 205.818 128.847 206.263 128.098C206.684 127.42 206.836 126.648 206.929 125.911C207.35 122.614 206.847 119.211 205.514 116.17L205.514 116.17C205.561 116.147 205.608 116.123 205.643 116.1C206.497 115.574 206.894 114.591 207.163 113.703C208.064 110.791 208.426 107.762 208.227 104.71C208.216 104.499 208.028 104.336 207.818 104.347C207.607 104.359 207.444 104.546 207.455 104.757C207.643 107.715 207.303 110.65 206.426 113.48C206.181 114.276 205.877 115.059 205.245 115.445C205.239 115.451 205.234 115.454 205.228 115.457C205.222 115.46 205.216 115.463 205.21 115.468L205.21 115.468C205.07 115.199 204.929 114.93 204.789 114.673C204.356 113.901 203.795 113.059 202.871 112.697C202.31 112.475 201.632 112.533 201.105 112.837C200.673 113.083 200.404 113.469 200.334 113.913C200.217 114.685 200.72 115.702 202.474 116.217C203.105 116.404 203.971 116.603 204.789 116.439C206.087 119.363 206.578 122.637 206.169 125.818C206.087 126.461 205.97 127.139 205.619 127.689C205.28 128.239 204.731 128.566 204.216 128.543C203.9 128.531 203.585 128.355 203.362 128.063C203.117 127.747 203.012 127.35 203.082 127.011C203.222 126.297 204.006 125.759 204.754 125.841C204.965 125.876 205.163 125.713 205.187 125.502C205.21 125.292 205.058 125.093 204.848 125.069C203.69 124.929 202.532 125.759 202.322 126.859C202.216 127.42 202.38 128.04 202.754 128.531C203.117 128.999 203.643 129.291 204.181 129.314ZM201.503 113.48C201.69 113.375 201.924 113.317 202.158 113.317C202.31 113.317 202.462 113.34 202.591 113.41C203.281 113.679 203.748 114.381 204.111 115.036C204.24 115.246 204.356 115.468 204.462 115.691C203.994 115.737 203.409 115.667 202.708 115.457C202.064 115.258 201.012 114.743 201.117 114.007C201.152 113.738 201.351 113.574 201.503 113.48Z" fill="#1A1A1A"/>
<path d="M24.0551 33.1179L25.9261 37.7956L32.8257 34.2873L30.9546 31.1299L24.0551 33.1179Z" fill="#1A1A1A"/>
<path d="M143.184 103.681L145.991 106.487L150.2 102.511L147.745 99.7046L143.184 103.681Z" fill="white"/>
<path fill-rule="evenodd" clip-rule="evenodd" d="M145.745 106.733C145.815 106.803 145.897 106.838 145.991 106.838C146.084 106.838 146.166 106.815 146.224 106.744L150.434 102.768C150.575 102.628 150.586 102.418 150.458 102.277L148.002 99.4707C147.873 99.3187 147.651 99.307 147.511 99.4356L142.95 103.412C142.88 103.482 142.833 103.575 142.833 103.669C142.833 103.762 142.868 103.856 142.938 103.926L145.745 106.733ZM146.002 106.008L143.699 103.704L147.721 100.207L149.721 102.499L146.002 106.008Z" fill="#1A1A1A"/>
<path d="M32.0538 64.7152L34.264 65.183L35.2113 61.9554L32.2877 60.9263L32.0538 64.7152Z" fill="white"/>
<path fill-rule="evenodd" clip-rule="evenodd" d="M34.1938 65.5221C34.2172 65.5338 34.2406 65.5338 34.264 65.5338C34.416 65.5338 34.5563 65.4402 34.6031 65.2999L35.5504 62.0606C35.5971 61.8735 35.5036 61.6864 35.3282 61.6279L32.4046 60.5988C32.2994 60.5638 32.1824 60.5754 32.0889 60.6339C32.007 60.6924 31.9485 60.7976 31.9368 60.9029L31.703 64.6918C31.6913 64.8672 31.8082 65.0193 31.9836 65.0543L34.1938 65.5221ZM34.0184 64.7737L32.428 64.4345L32.6151 61.4057L34.7785 62.1659L34.0184 64.7737Z" fill="#1A1A1A"/>
<path d="M56.7638 52.6938L59.1026 54.6819L57.2315 59.0087L55.0096 57.7224L56.7638 52.6938Z" fill="#1A1A1A"/>
<path d="M161.895 96.6642L157.451 87.0749L155.323 88.1975L152.306 81.3447L149.616 82.9819L154.41 92.5712L156.539 91.238L160.024 97.7166L161.895 96.6642Z" fill="#1A1A1A"/>
<path d="M198.205 22.0903L200.088 22.3008L197.656 29.0367L194.288 28.0193L198.205 22.0903Z" fill="#1A1A1A"/>
<path d="M169.917 8.36133L173.063 9.67108L172.782 13.2261L168.011 12.6648L169.917 8.36133Z" fill="#1A1A1A"/>
<path d="M101.237 77.7898L104.16 76.0356L108.487 82.1166L105.447 82.8183L101.237 77.7898Z" fill="#1A1A1A"/>
<path d="M213.583 63.0199L211.385 58.997L210.625 59.6285L207.853 56.1904L205.631 58.997L209.607 63.207L210.344 62.4351L211.7 64.4933L213.583 63.0199Z" fill="#1A1A1A"/>
<path d="M182.301 83.5318C182.301 83.5318 183.95 74.0478 184.476 70.5396C185.003 67.0313 185.646 61.2427 184.535 61.7689C183.424 62.2951 179.916 71.3582 179.916 71.3582L170.911 71.2997L172.022 81.4736C172.022 81.4736 176.454 80.4679 178.863 81.4736C180.781 82.2221 182.301 83.5318 182.301 83.5318Z" fill="#E9856F"/>
<path fill-rule="evenodd" clip-rule="evenodd" d="M185.213 61.4178C185.073 61.219 184.85 61.1255 184.628 61.1606C184.125 61.2424 183.354 61.9324 181.447 66.5048C180.611 68.5018 179.879 70.4988 179.617 71.214L179.611 71.2293L170.911 70.9252C170.806 70.9252 170.712 70.972 170.642 71.0422C170.572 71.124 170.537 71.2176 170.548 71.3228V71.3345L171.414 81.5553V81.5904C171.414 81.6839 171.005 90.5247 166.339 106.593C164.491 112.978 160.141 118.299 153.416 122.438C147.745 125.923 141.523 127.899 137.395 129.209L137.216 129.266C136.545 129.479 135.907 129.682 135.349 129.864C127.97 132.32 122.778 139.032 122.731 139.103C122.614 139.255 122.649 139.477 122.801 139.594C122.859 139.64 122.941 139.664 123.011 139.664C123.117 139.664 123.222 139.617 123.28 139.524L123.292 139.509C123.572 139.156 128.556 132.861 135.571 130.519C136.135 130.331 136.794 130.122 137.487 129.902L137.489 129.901L137.606 129.864L137.774 129.81C141.653 128.572 147.308 126.767 152.656 123.69C152.68 124.59 152.867 126.859 154.177 126.952C154.632 126.985 155.132 126.945 155.625 126.906H155.625H155.626H155.626C156.905 126.804 158.133 126.706 158.386 127.888C158.439 128.131 158.494 128.526 158.562 129.018C158.955 131.828 159.789 137.808 163.064 136.892C165.25 136.28 164.494 132.267 163.631 127.69C163.34 126.147 163.037 124.539 162.83 122.976C162.292 118.942 162.503 116.451 162.713 115.2C164.69 112.639 166.128 109.832 167.017 106.78C168.081 103.108 168.923 99.8216 169.59 96.9215C170.256 95.1557 172.267 91.2849 177.156 91.6942L177.144 91.6825C178.723 92.1268 180.524 93.0039 182.348 94.6294C182.313 96.7928 182.196 99.2135 181.985 101.845C181.471 108.218 180.43 114.533 178.898 120.602C176.98 128.192 174.302 135.442 170.911 142.131C168.864 146.178 166.643 149.99 164.245 153.568C160.339 152.153 153.685 155.393 148.365 161.579C143.944 166.736 141.675 172.49 142.19 176.395C137.138 179.927 131.607 182.897 125.713 185.248C119.655 187.669 113.06 189.505 106.09 190.697C105.903 190.732 105.774 190.92 105.809 191.107C105.844 191.282 105.996 191.399 106.16 191.399C106.183 191.399 106.195 191.399 106.207 191.376C113.223 190.171 119.877 188.312 125.97 185.879C132.308 183.342 138.249 180.091 143.628 176.208C149.206 172.185 154.34 167.367 158.913 161.883C163.625 156.223 167.882 149.674 171.542 142.435C174.957 135.7 177.659 128.402 179.588 120.754C181.132 114.638 182.172 108.288 182.699 101.88C182.909 99.2603 183.014 96.8396 183.061 94.6645C183.096 94.5709 183.108 94.4774 183.061 94.3838C183.155 88.3028 182.722 84.3034 182.64 83.5901C182.651 83.5199 182.691 83.288 182.754 82.9241L182.755 82.9232L182.755 82.9232C183.028 81.3462 183.73 77.2931 184.348 73.1705C185.774 63.6397 185.564 61.8856 185.213 61.4178ZM172.104 81.871C172.56 81.7424 173.694 81.4734 175.109 81.4149L173.788 90.5715C172.455 90.6183 171.426 90.8873 170.817 91.0861C171.788 85.9055 172.045 82.7715 172.104 81.871ZM175.811 81.4149L174.489 90.5715C175.671 90.6066 177.144 90.8405 178.746 91.5071L179.272 82.0464C178.091 81.6021 176.898 81.4383 175.811 81.4149ZM179.436 91.8228L179.962 82.3388C180.652 82.6662 181.331 83.1106 181.95 83.6953C182.032 84.4087 182.43 88.104 182.371 93.729C181.377 92.8987 180.383 92.2789 179.436 91.8228ZM175.612 80.7133C178.161 80.725 180.372 81.4617 182.067 82.8767C182.336 81.3682 183.038 77.2752 183.658 73.1004C185.014 64.0139 184.815 62.2247 184.675 61.8739C184.465 62.0142 183.74 62.7744 182.056 66.8323C181.174 68.95 180.415 71.0589 180.221 71.5996C180.191 71.6829 180.174 71.729 180.173 71.7321C180.114 71.8959 179.951 71.9894 179.799 71.966L171.426 73.5447L172.069 81.1577C172.688 80.994 173.905 80.725 175.402 80.7133C175.406 80.7123 175.411 80.7113 175.416 80.7103C175.468 80.6998 175.512 80.6909 175.565 80.7016C175.571 80.7016 175.58 80.7045 175.589 80.7074C175.597 80.7104 175.606 80.7133 175.612 80.7133Z" fill="#1A1A1A"/>
</svg>
