<svg width="227" height="247" viewBox="0 0 227 247" fill="none" xmlns="http://www.w3.org/2000/svg">
<mask id="mask0" mask-type="alpha" maskUnits="userSpaceOnUse" x="0" y="105" width="188" height="142">
<rect y="105.662" width="187.184" height="140.345" fill="white"/>
</mask>
<g mask="url(#mask0)">
<path d="M72.8998 184.574C72.8998 184.574 79.1301 185.192 82.2215 186.712C85.3129 188.232 86.1214 188.945 86.1214 188.945L92.316 186.118L98.8675 146.045C98.8675 146.045 103.362 142.648 102.862 138.824C102.363 135 99.8662 135.688 99.8662 135.688C98.8962 138.127 96.5708 139.76 93.9448 139.845C92.9174 141.095 91.9873 142.421 91.1628 143.812L78.7496 171.699L72.8998 184.574Z" fill="#E9856F"/>
<path d="M67.6454 137.348C67.6454 137.348 68.7868 144.858 71.4977 147.043C74.2086 149.228 76.5676 151.461 80.8933 151.129L87.4375 137.779C87.4375 137.779 93.0549 142.206 97.5716 138.625C100.037 136.67 101.059 131.856 101.059 131.856C101.059 131.856 103.545 131.001 104.908 128.848C104.908 128.848 104.876 127.976 101.547 126.67C101.135 124.223 100.691 118.46 99.4861 117.51C99.4861 117.51 94.0114 123.883 91.4961 123.401C88.9807 122.919 91.1761 120.836 87.8325 121.311C84.4888 121.786 85.854 125.998 85.854 125.998C85.854 125.998 87.6928 128.136 86.0518 129.585C84.4108 131.034 83.3287 132.532 79.3459 131.414C77.2296 130.82 76.2545 129.775 76.2545 129.775L67.6454 137.348Z" fill="#E9856F"/>
<path d="M60.6145 177.273C57.0172 172.002 51.5183 168.325 45.2687 167.012C34.8698 164.907 30.7298 164.845 28.0433 166.531C26.0545 170.306 20.0247 182.658 21.3274 192.159C22.6302 201.661 24.6326 204.746 32.2057 208.692C39.7787 212.638 51.7368 208.122 54.1464 206.918C56.556 205.715 69.1753 197.417 71.2679 196.467C73.3606 195.516 86.5929 189.047 86.5929 189.047C86.5929 189.047 79.2919 184.88 75.4985 184.875C71.7051 184.869 57.6978 182.531 57.6978 182.531L60.6145 177.273Z" fill="#E9856F"/>
<path d="M25.0991 203.434C27.6989 199.869 29.392 194.134 29.392 187.679C29.392 181.304 27.7472 175.635 25.1976 172.07C22.6269 177.369 21.3047 183.185 21.3323 189.074C21.4971 198.521 25.0991 203.434 25.0991 203.434Z" fill="white"/>
<path d="M101.059 143.199C98.4954 143.756 96.5172 145.797 96.0428 148.375L88.7228 187.679L92.5063 185.987L99.0364 145.896L101.059 143.199Z" fill="white"/>
<path d="M21.2502 218.649C26.4627 215.971 41.2025 210.072 41.2025 210.072L36.4982 209.695C25.8559 207.608 21.1512 202.35 20.9211 189.649C20.7072 176.948 28.0432 166.531 28.0432 166.531C34.6491 164.93 41.5887 165.407 47.9134 167.895C57.4208 171.723 61.154 172.955 63.9677 178.46C64.6906 177.836 63.0134 181.171 58.6383 180.711L57.6019 183.012C57.6019 183.012 69.3629 184.31 69.2803 183.981C69.1977 183.652 72.6852 184.392 72.6852 184.392L76.2549 175.897L79.2485 170.261L80.8933 151.366C80.8933 151.366 73.8544 151.202 70.9419 146.65C69.1786 143.873 67.9512 140.792 67.3231 137.564C67.3231 137.564 57.9964 138.139 51.6474 141.179C45.2816 144.219 41.4506 146.601 35.5767 150.495C29.7029 154.389 24.0627 161.669 18.6835 168.733C13.3042 175.798 7.77817 189.65 6.4621 194.201C5.14602 198.752 1.52805 211.831 0.623269 223.496C0.623269 223.496 -0.0345794 232.369 0.294154 233.93C0.277794 233.93 7.92656 225.468 21.2502 218.649Z" fill="white"/>
<path d="M76.3039 165.94C76.2172 165.941 76.1318 165.919 76.0574 165.874C74.1879 164.783 73.06 162.762 73.1129 160.6C73.2147 157.34 75.9366 154.776 79.2005 154.866C79.3331 154.865 79.46 154.919 79.5505 155.016C79.6411 155.113 79.6872 155.243 79.6776 155.375C79.6698 155.642 79.4502 155.853 79.183 155.851H79.1667C77.856 155.817 76.5848 156.301 75.6301 157.199C74.6721 158.095 74.115 159.339 74.0838 160.649C74.0354 162.454 74.9748 164.142 76.5349 165.053C76.7665 165.192 76.8463 165.49 76.7156 165.726C76.6233 165.862 76.4685 165.943 76.3039 165.94Z" fill="#E9856F"/>
<path d="M55.8418 152.055C50.9196 152.055 46.8581 148.207 46.5962 143.298C46.5818 143.028 46.7872 142.796 47.0572 142.778C47.3271 142.76 47.5615 142.962 47.5831 143.232C47.8324 147.687 51.5814 151.138 56.047 151.022C60.5127 150.907 64.0779 147.267 64.0959 142.805C64.0945 141.134 63.5908 139.503 62.6501 138.122C62.4956 137.895 62.5546 137.586 62.7817 137.432C63.0089 137.277 63.3182 137.336 63.4727 137.563C64.5393 139.103 65.1076 140.932 65.1011 142.805C65.0842 147.906 60.9488 152.038 55.8418 152.055Z" fill="#E9856F"/>
<path d="M51.5168 169.308C51.3848 169.311 51.2574 169.259 51.1641 169.166C51.0707 169.073 51.0195 168.946 51.0222 168.814C51.0228 164.418 54.2439 160.684 58.5966 160.034C62.9492 159.384 67.1226 162.014 68.4101 166.218C68.4648 166.386 68.4238 166.571 68.3028 166.701C68.1819 166.831 68 166.885 67.8276 166.843C67.6552 166.8 67.5193 166.668 67.4726 166.497C66.3326 162.76 62.6252 160.42 58.757 160.996C54.8888 161.572 52.0261 164.891 52.027 168.797C52.0206 169.076 51.796 169.301 51.5168 169.308Z" fill="#E9856F"/>
<path d="M46.3507 167.714C46.3064 167.716 46.2619 167.711 46.2195 167.697C45.9568 167.624 45.8027 167.352 45.874 167.089C46.0187 166.565 46.0907 166.023 46.0878 165.479C46.0878 162.149 43.3851 159.449 40.0512 159.449C36.7172 159.449 34.0145 162.149 34.0145 165.479C34.027 165.663 33.9358 165.839 33.7779 165.935C33.6201 166.03 33.4219 166.03 33.264 165.935C33.1062 165.839 33.015 165.663 33.0275 165.479C33.0275 161.604 36.1721 158.463 40.0512 158.463C43.9302 158.463 47.0748 161.604 47.0748 165.479C47.0758 166.111 46.9927 166.741 46.8279 167.352C46.7702 167.567 46.5738 167.716 46.3507 167.714Z" fill="#E9856F"/>
<path d="M24.2274 211.452C20.4628 211.454 17.219 208.804 16.4722 205.118C15.7254 201.433 17.6825 197.732 21.1512 196.27C21.4001 196.17 21.6834 196.289 21.7869 196.536C21.8905 196.783 21.7759 197.068 21.5298 197.174C18.8028 198.326 17.1101 201.082 17.3176 204.032C17.5251 206.982 19.5869 209.475 22.4484 210.234C25.3099 210.994 28.3382 209.852 29.9844 207.394C30.0829 207.244 30.2548 207.158 30.4342 207.171C30.6136 207.183 30.7724 207.291 30.8496 207.453C30.9268 207.615 30.9104 207.806 30.8066 207.953C29.3303 210.137 26.8658 211.448 24.2274 211.452Z" fill="#E9856F"/>
<path d="M13.7494 223.53C13.5594 223.531 13.3858 223.422 13.3054 223.25C11.3797 219.259 7.34456 216.715 2.90955 216.694C2.49199 216.691 2.07464 216.713 1.65968 216.76C1.48337 216.778 1.31103 216.7 1.20758 216.556C1.10412 216.413 1.08527 216.225 1.15812 216.063C1.23096 215.902 1.38445 215.792 1.56075 215.774C2.01439 215.727 2.47025 215.705 2.92629 215.708C7.7419 215.723 12.1251 218.487 14.2102 222.823C14.3279 223.068 14.2248 223.363 13.9796 223.481C13.9096 223.521 13.8293 223.537 13.7494 223.53Z" fill="#E9856F"/>
<path d="M6.3639 200.362C5.93535 200.365 5.50698 200.343 5.08092 200.297C4.81206 200.263 4.61694 200.025 4.6369 199.755C4.67601 199.489 4.9111 199.297 5.17946 199.311C5.5744 199.344 5.96896 199.377 6.3639 199.377C11.3536 199.377 15.7581 196.122 17.2175 191.355C18.677 186.589 16.8489 181.43 12.7129 178.642C12.4858 178.487 12.4269 178.178 12.5813 177.951C12.7357 177.725 13.0451 177.666 13.2723 177.82C17.7738 180.849 19.7641 186.462 18.1753 191.646C16.5864 196.831 11.7918 200.369 6.3639 200.362Z" fill="#E9856F"/>
<path d="M171.674 231.712L167.809 230.956L90.417 220.048C90.417 220.048 91.8974 218.093 80.5314 228.937C69.1653 239.781 60.6943 242.18 60.6943 242.18L169.453 242.542C172.118 240.207 171.954 234.047 171.674 231.712Z" fill="#E9856F"/>
<path d="M85.8771 224.187L172.167 233.7L171.672 231.728L90.4169 220.062C89.4958 220.917 86.8971 223.431 85.8771 224.187Z" fill="white"/>
<path fill-rule="evenodd" clip-rule="evenodd" d="M186.955 219.8C185.327 218.797 182.267 220.44 177.595 224.827C176.855 225.518 176.148 226.224 175.473 226.914L175.51 226.824C175.612 226.575 175.714 226.326 175.802 226.078C176.525 224.007 176.674 222.036 176.183 220.935C175.928 220.217 175.188 219.792 174.439 219.933C173.452 220.097 172.712 221.099 172.202 222.989C171.822 220.951 171.116 219.358 170.148 218.799C169.753 218.571 168.963 218.322 168.075 219.16C165.739 221.346 169.111 228.378 170.526 231.073L149.882 228.115H149.768L90.4867 219.571C90.2197 219.535 89.9721 219.717 89.9274 219.982C89.9158 220.059 89.9215 220.137 89.9441 220.212C88.8662 221.504 87.3336 222.885 85.9099 224.169L85.9099 224.169L85.9098 224.169C85.052 224.942 84.2338 225.68 83.5783 226.34C73.1151 236.84 62.7212 241.112 60.1716 242.065H58.5763C58.3167 242.082 58.1152 242.298 58.1152 242.558C58.1152 242.818 58.3167 243.033 58.5763 243.051H169.437L179.471 243.133C179.689 243.135 179.882 242.995 179.948 242.788L187.152 220.36C187.236 220.15 187.152 219.911 186.955 219.8ZM168.763 219.849C168.918 219.67 169.136 219.558 169.371 219.537C169.475 219.539 169.577 219.568 169.667 219.619C170.999 220.391 172.118 225.288 171.214 230.2C169.272 226.47 167.299 221.229 168.763 219.849ZM86.5845 228.393C87.0121 233.388 93.4601 236.311 96.7501 236.805C105.205 238.087 108.855 239.533 108.513 242.063H165.62C167.758 237.561 167.429 232.681 167.314 231.597L153.514 229.625H153.4L90.3348 220.539C90.2663 220.519 90.2001 220.491 90.1374 220.457C89.1504 221.131 86.1899 223.578 86.5845 228.393ZM169.24 242.063H166.74C168.68 237.693 168.483 233.223 168.351 231.728L171.148 232.123L171.296 232.221C171.641 233.602 172.562 238.58 169.24 242.063ZM172.472 227.998C172.468 228.044 172.464 228.089 172.464 228.13C172.416 228.72 172.399 229.325 172.383 229.885L172.381 229.937C174.964 227.308 175.934 222.806 175.276 221.295C175.128 220.95 174.947 220.867 174.75 220.867C174.725 220.867 174.701 220.872 174.676 220.876C174.651 220.88 174.627 220.884 174.602 220.884C173.385 221.081 172.727 224.466 172.48 227.867C172.48 227.908 172.476 227.953 172.472 227.998Z" fill="#1A1A1A"/>
<path d="M137.329 230.792L141.457 234.997C141.787 235.194 144.336 236.591 148.465 235.342C151.886 234.307 152.593 233.042 152.741 232.598C152.001 231.809 148.958 228.507 144.813 224.021C142.698 226.665 140.171 228.951 137.329 230.792Z" fill="#FECE2F"/>
<path d="M149.814 228.557L148.152 226.865L127.97 205.143C127.97 205.143 110.09 183.34 103.181 183.67C96.2726 184 92.1113 186.413 92.1113 186.413L70.5142 196.928L58.1281 204.486C58.1281 204.486 50.3313 209.646 41.449 209.892C41.449 209.892 30.8717 214.115 19.9341 219.619C8.99647 225.124 5.6239 228.82 5.6239 228.82C6.52078 232.097 7.85979 235.236 9.60409 238.152C11.4696 241.134 14.4572 243.242 17.8947 244.001C21.612 244.823 27.3854 245.792 33.2577 245.595C39.9483 245.404 46.6246 244.866 53.2595 243.985L63.392 241.06L74.2151 234.931L98.3618 212.242L127.739 234.144L137.132 231.154L141.393 235.606L147.775 236.559L153.598 232.797L149.814 228.557Z" fill="#E9856F"/>
<path d="M109.679 186.691C107.162 184.801 104.859 183.602 103.198 183.684C101.6 183.759 100.011 183.957 98.444 184.276C97.3535 184.272 96.2813 184.555 95.3355 185.097C94.2263 185.438 93.1522 185.883 92.1276 186.427L70.5305 196.943C73.0776 197.979 75.9436 197.895 78.4258 196.713C83.1305 194.495 91.1243 190.732 96.7828 188.071C100.686 186.235 105.326 187.08 108.33 190.174L142.905 225.845L145.076 223.676C145.06 223.693 116.521 191.965 109.679 186.691Z" fill="white"/>
<path d="M33.9007 212.882C33.8547 212.757 33.7596 212.656 33.6374 212.603C33.5162 212.554 33.3804 212.554 33.2592 212.603L32.2886 213.013C32.0786 213.107 31.9573 213.329 31.9926 213.556C32.0257 213.687 34.4927 227.522 28.2585 230.659C28.0808 230.739 27.9748 230.925 27.9956 231.119C28.003 231.315 28.1254 231.489 28.308 231.562L31.5485 232.877C31.6074 232.894 31.668 232.905 31.7293 232.91C31.8599 232.91 31.9849 232.857 32.0748 232.762C34.361 230.494 35.5786 227.323 35.7098 223.363C35.8731 217.992 33.9813 213.096 33.9007 212.882Z" fill="#1A1A1A"/>
<path d="M134.763 231.761L102.49 197.306C100.168 194.857 96.3606 194.579 93.7071 196.665C88.0813 201.134 77.028 209.777 66.2703 217.45C53.258 226.734 44.5252 231.86 40.3472 232.714C37.7592 233.194 35.0928 233.031 32.5831 232.238C34.5407 230.02 35.5935 227.046 35.7084 223.398C35.8895 218.009 33.9962 213.112 33.9156 212.899C33.8156 212.645 33.5284 212.52 33.2741 212.62C33.0197 212.719 32.8945 213.006 32.9944 213.26C33.0108 213.31 34.9025 218.189 34.7214 223.365C34.6073 226.964 33.5374 229.839 31.5471 231.909C28.9485 230.949 26.4961 229.633 24.2601 227.999C21.5916 226.076 19.1474 223.861 16.9732 221.394C16.8616 221.259 16.6864 221.193 16.5136 221.223C16.3408 221.252 16.1966 221.371 16.1354 221.535C16.0742 221.699 16.1052 221.883 16.2168 222.018C18.4284 224.551 20.9291 226.818 23.6681 228.771C28.4709 232.205 33.2083 233.978 37.5507 233.978C38.556 233.98 39.5591 233.881 40.5446 233.682C50.4139 231.678 81.4526 207.672 94.3318 197.452C96.5828 195.683 99.8127 195.918 101.783 197.995L134.056 232.451C134.143 232.548 134.267 232.604 134.398 232.607C134.528 232.61 134.654 232.56 134.747 232.468C134.932 232.271 134.939 231.966 134.763 231.761Z" fill="white"/>
<path d="M145.06 223.693C145.06 223.693 142.56 230.019 138.283 232.27L137.148 231.168C137.132 231.186 142.905 227.653 145.06 223.693Z" fill="#1A1A1A"/>
<path d="M178.237 231.942C178.01 231.552 177.509 231.419 177.119 231.646C176.728 231.873 176.595 232.373 176.823 232.763C177.826 234.456 178.977 236.412 180.277 238.596L180.951 236.51C179.948 234.85 179.043 233.306 178.237 231.942Z" fill="#E9856F"/>
<path d="M181.609 230.348C180.886 229.181 180.194 228.081 179.569 226.881C179.356 226.477 178.855 226.323 178.451 226.536C178.047 226.75 177.892 227.25 178.106 227.654C178.763 228.902 179.504 230.086 180.211 231.219C180.737 232.073 181.28 232.944 181.79 233.848L182.464 231.745C182.185 231.268 181.907 230.808 181.609 230.348Z" fill="#E9856F"/>
<ellipse cx="97.2513" cy="125.704" rx="1.44734" ry="2.79308" transform="rotate(-84.574 97.2513 125.704)" fill="white"/>
<path fill-rule="evenodd" clip-rule="evenodd" d="M97.4243 123.778C98.1862 123.827 98.9252 124.058 99.5789 124.452C100.237 124.879 100.582 125.438 100.517 125.996C100.434 126.982 99.2334 127.639 97.6381 127.639C97.4574 127.639 97.2607 127.623 97.0637 127.607L97.0624 127.607C96.3005 127.558 95.5614 127.327 94.9078 126.933C94.2495 126.522 93.9208 125.963 93.9699 125.388C94.0688 124.288 95.5493 123.597 97.4243 123.778ZM95.4488 126.111C95.975 126.408 96.559 126.587 97.161 126.637C97.2488 126.645 97.3328 126.649 97.4144 126.653C97.501 126.657 97.5849 126.661 97.6681 126.67C97.1583 126.358 96.8623 125.963 96.8954 125.553C96.953 125.218 97.1669 124.931 97.4711 124.78C97.4463 124.78 97.4258 124.776 97.4052 124.772C97.3847 124.768 97.3641 124.764 97.3394 124.764C97.1808 124.75 97.0215 124.745 96.8623 124.747C95.7273 124.747 94.9873 125.142 94.9542 125.487C94.939 125.668 95.1201 125.898 95.4488 126.111Z" fill="#1A1A1A"/>
<path d="M89.0849 125.372L88.6242 123.63C88.696 123.55 88.7723 123.473 88.8525 123.4C89.0432 123.21 89.0432 122.901 88.8525 122.71C88.6618 122.52 88.3526 122.52 88.1619 122.71C86.6647 124.205 86.632 124.304 86.5825 124.435C86.5401 124.56 86.5494 124.696 86.6081 124.813C86.6669 124.93 86.7704 125.019 86.8953 125.06C86.9426 125.078 86.9925 125.089 87.0433 125.092C87.2175 125.085 87.3771 124.993 87.4709 124.846C87.5204 124.78 87.6517 124.649 87.8164 124.468L88.1288 125.635C88.1925 125.846 88.3852 125.992 88.6059 125.996C88.6504 125.999 88.6951 125.993 88.7376 125.98C88.8659 125.948 88.9755 125.865 89.0411 125.75C89.1067 125.635 89.1225 125.499 89.0849 125.372Z" fill="#1A1A1A"/>
<path fill-rule="evenodd" clip-rule="evenodd" d="M156.36 232.993C158.071 233.65 160.522 234.669 163.729 236.23C169.216 238.894 169.876 241.929 169.981 242.411L169.981 242.411C169.989 242.447 169.993 242.468 169.997 242.475C170.014 242.614 169.966 242.754 169.865 242.853C169.775 242.959 169.642 243.019 169.503 243.017H139.319C139.164 243.018 139.017 242.944 138.925 242.82C138.84 242.695 138.81 242.54 138.842 242.393L140.635 235.492L136.835 231.63C133.997 233.183 130.887 234.176 127.673 234.555C127.557 234.555 127.442 234.521 127.345 234.457L110.6 221.953C110.557 221.94 110.518 221.918 110.486 221.887L98.4626 212.883C97.2618 214.033 92.327 218.716 82.5399 227.933C81.142 229.247 79.7438 230.512 78.3786 231.729C74.0643 235.545 69.1728 238.656 63.8854 240.946C58.5993 243.231 52.9884 244.678 47.2555 245.234C42.7822 245.678 37.7317 246.007 32.8136 246.007C25.2801 246.007 18.059 245.218 13.6999 242.803C11.5954 241.636 9.65501 239.516 7.94285 236.51C7.38393 236.871 6.26532 237.38 4.38994 237.446C4.23686 237.46 4.0832 237.465 3.92956 237.463C2.61501 237.463 1.5938 237.134 0.902851 236.444C0.344611 235.885 0.0261303 235.13 0.0148128 234.341C-0.239038 218.604 2.57021 202.968 8.28642 188.302C13.7474 174.45 21.5602 162.589 30.92 153.961C40.559 145.072 50.0006 140.899 56.2348 138.976C62.3053 137.103 66.4833 136.923 67.4208 136.906L75.6122 129.659C75.4599 129.492 75.3171 129.316 75.1845 129.133C74.005 127.604 73.1995 125.821 72.8324 123.926C72.3716 121.264 72.9473 118.389 74.5267 115.365C75.0142 114.438 75.5874 113.558 76.2388 112.736L75.1529 112.671C74.8811 112.651 74.6758 112.417 74.6926 112.145C74.7171 111.876 74.9486 111.674 75.2188 111.685L77.0451 111.799C77.2262 111.618 77.3905 111.454 77.5713 111.29L76.1897 109.351C76.0308 109.129 76.0823 108.82 76.3048 108.661C76.5274 108.502 76.8366 108.554 76.9956 108.776L78.3273 110.633C79.1757 109.949 80.1244 109.401 81.1401 109.006C82.9084 108.339 84.8284 108.18 86.6826 108.547L84.4617 110.14C84.3528 110.215 84.2792 110.331 84.2576 110.461C84.2361 110.591 84.2686 110.725 84.3476 110.83C84.4176 110.94 84.5309 111.015 84.6594 111.037C84.7878 111.059 84.9195 111.025 85.0218 110.945L88.2254 108.645L88.308 108.563C89.4831 107.773 90.7337 107.102 92.0416 106.559C95.3807 105.228 98.2278 105.375 100.282 107.018C101.862 108.284 102.585 110.091 102.388 112.26C102.15 114.161 101.444 115.973 100.333 117.534C101.228 120.308 101.759 123.185 101.912 126.095C102.02 126.293 102.725 126.621 103.221 126.851L103.327 126.9C104.33 127.36 105.285 127.803 105.498 128.51C105.586 128.8 105.537 129.114 105.367 129.364C104.742 130.35 103.59 131.04 102.669 131.583C102.309 131.767 101.973 131.993 101.666 132.256C101.436 133.278 101.106 134.274 100.679 135.23C101.471 135.423 102.17 135.889 102.653 136.545C103.689 137.845 103.738 139.568 102.85 141.835C102.131 143.647 100.779 144.924 99.874 145.778L99.8563 145.795C99.6803 145.955 99.5353 146.1 99.4063 146.228L99.3959 146.239L92.8326 185.459C92.9192 185.416 93.0056 185.378 93.0872 185.341C93.161 185.308 93.2309 185.277 93.2934 185.246C100.416 181.994 106.897 182.879 112.013 187.809C118.187 193.749 147.509 225.463 152.822 231.209L153.12 231.531C154.189 228.968 157.66 221.377 160.949 221.821C162.15 221.984 162.463 222.757 162.528 223.201C162.693 224.302 161.92 225.863 160.571 227.44C162.364 226.651 163.614 226.586 164.354 227.243C164.928 227.735 165.06 228.569 164.667 229.214C164.108 230.282 162.478 231.416 160.423 232.172C159.121 232.659 157.749 232.936 156.36 232.993ZM101.882 141.49C102.655 139.551 102.639 138.187 101.832 137.169C101.436 136.601 100.812 136.235 100.123 136.165C99.8868 136.593 99.6231 137.005 99.3335 137.398C99.337 137.453 99.3315 137.509 99.3171 137.562C98.7742 139.288 99.0044 140.257 99.136 140.618C99.4891 139.808 99.7645 138.967 99.9586 138.105C99.9916 137.957 100.024 137.825 100.057 137.71C100.13 137.447 100.402 137.292 100.666 137.365C100.929 137.438 101.084 137.71 101.011 137.973C100.978 138.071 100.946 138.203 100.912 138.351C100.338 140.536 99.9423 141.604 99.235 141.752C99.1868 141.765 99.1368 141.771 99.087 141.768C98.8076 141.767 98.5477 141.625 98.396 141.391C98.251 141.163 98.1453 140.914 98.0833 140.651C97.6392 141.801 97.2774 142.13 96.8992 142.212C96.8569 142.227 96.8121 142.232 96.7676 142.229C96.5159 142.22 96.2836 142.092 96.1424 141.884C96.1081 141.821 96.0806 141.755 96.0602 141.686C96.0123 141.425 95.9793 141.162 95.9613 140.898C95.8194 141.211 95.5401 141.442 95.2049 141.522H95.106C94.8545 141.514 94.6222 141.385 94.4813 141.177C94.4468 141.114 94.4192 141.048 94.3987 140.98C94.3597 140.79 94.3322 140.598 94.3165 140.405H94.1685C93.8524 140.932 93.4329 141.391 92.935 141.752C92.107 142.564 86.2799 155.907 83.0445 163.315L82.9177 163.606L82.4903 164.582L82.4897 164.584C81.7617 166.247 81.1214 167.711 80.5968 168.897C80.4094 169.317 80.2168 169.76 80.0188 170.214L80.0187 170.214C79.869 170.558 79.7162 170.909 79.5604 171.262C75.7115 179.971 74.2969 183.027 73.6226 184.112C74.8398 184.259 75.9417 184.424 76.8301 184.571C80.2634 185.167 83.5313 186.483 86.4182 188.433C86.4521 188.445 86.481 188.468 86.5003 188.499C87.3347 188.095 88.1333 187.709 88.8769 187.348L88.8796 187.347L88.884 187.345L88.8856 187.344L88.8938 187.34C89.9614 186.823 90.9152 186.361 91.6981 185.985L98.3945 145.943C98.4149 145.85 98.4604 145.765 98.5261 145.696C98.6205 145.593 98.7309 145.489 98.8512 145.377L98.8515 145.376L98.8516 145.376L98.8519 145.376C98.9416 145.292 99.0367 145.203 99.1349 145.105C99.9738 144.316 101.24 143.116 101.882 141.49ZM54.2296 189.846V189.895C54.2296 189.911 54.2296 189.911 54.2464 189.928C54.2464 189.936 54.2505 189.944 54.2546 189.952L54.2549 189.953C54.2589 189.961 54.2627 189.969 54.2627 189.977C54.2627 189.98 54.2635 189.983 54.2647 189.985L54.2659 189.987L54.2667 189.989L54.2685 189.991L54.2709 189.993C54.275 189.997 54.2791 190.002 54.2791 190.01C54.2791 190.018 54.2831 190.026 54.2872 190.034C54.2913 190.042 54.2955 190.051 54.2955 190.059C54.2955 190.068 54.2997 190.072 54.3039 190.076L54.307 190.079L54.3091 190.081L54.3103 190.083L54.3111 190.085C54.3118 190.087 54.3122 190.089 54.3122 190.092C54.3204 190.1 54.3245 190.108 54.3286 190.117L54.3287 190.117C54.3308 190.121 54.333 190.125 54.3358 190.13C54.3382 190.134 54.3411 190.137 54.3449 190.141L54.3776 190.174C54.3839 190.18 54.3902 190.184 54.3955 190.187L54.4005 190.19C54.4019 190.191 54.4032 190.192 54.4044 190.193C54.4056 190.194 54.4067 190.195 54.4076 190.197C54.4096 190.199 54.4107 190.203 54.4107 190.207C54.4271 190.223 54.4271 190.223 54.4435 190.223L54.4602 190.24L54.4626 190.24C54.4641 190.24 54.4656 190.24 54.4669 190.241C54.4688 190.242 54.4704 190.243 54.4719 190.244C54.4727 190.245 54.4734 190.246 54.474 190.247L54.4752 190.249C54.4761 190.251 54.4766 190.254 54.4766 190.256C54.4847 190.256 54.4888 190.26 54.4929 190.264C54.497 190.269 54.5011 190.273 54.5093 190.273C54.5175 190.273 54.5257 190.277 54.534 190.281C54.5423 190.285 54.5506 190.289 54.5587 190.289C54.5751 190.289 54.5751 190.289 54.5915 190.305C54.628 190.319 54.6668 190.324 54.7056 190.322C54.7393 190.324 54.7731 190.319 54.8042 190.305H54.8209C54.8558 190.302 54.8894 190.291 54.9194 190.273H54.9358L54.9451 190.268L54.9554 190.262C54.9631 190.257 54.97 190.253 54.9768 190.248C54.9839 190.243 54.9909 190.239 54.9986 190.234C55.0045 190.23 55.0109 190.227 55.018 190.223C55.0224 190.223 55.0266 190.222 55.0298 190.219C55.033 190.216 55.0347 190.211 55.0347 190.207C55.0575 190.195 55.0723 190.176 55.0847 190.16C55.0902 190.153 55.0952 190.146 55.1002 190.141C55.1017 190.14 55.1078 190.133 55.1182 190.12C55.4375 189.744 59.8698 184.515 66.8775 184.308C70.4962 184.703 74.3456 185.179 76.6813 185.557C79.8222 186.114 82.8198 187.293 85.4978 189.024C81.3485 191.051 76.5799 193.408 73.5033 194.93C71.5914 195.875 70.3329 196.498 70.2824 196.516H70.2661L70.2578 196.517L70.2554 196.517C70.254 196.517 70.2528 196.517 70.2515 196.518C70.2467 196.519 70.2427 196.523 70.2333 196.533L59.344 203.187C57.6992 204.156 56.0871 205.06 54.6892 205.783C51.2727 207.317 47.6906 208.453 44.0138 209.168C40.6911 209.612 36.8752 209.579 33.1248 208.314C30.7199 207.437 28.5079 206.104 26.611 204.387C26.5669 204.339 26.5098 204.304 26.4467 204.288C23.6833 201.429 22.0548 197.305 21.7257 192.164C21.2817 185.509 23.0574 177.738 26.8412 169.687C27.2525 168.816 27.6638 167.976 28.0751 167.156L28.0812 167.153C28.2924 167.042 33.5366 164.279 44.8855 167.551L45.4779 167.748C52.2218 170.098 56.3999 173.269 59.4414 177.706L57.2864 182.651C57.2106 182.704 57.1531 182.778 57.122 182.865L54.2433 189.651C54.2385 189.661 54.2351 189.67 54.2323 189.68L54.2285 189.693C54.2266 189.7 54.2248 189.706 54.2227 189.712C54.2197 189.72 54.2161 189.728 54.2106 189.733V189.832C54.2296 189.813 54.2296 189.83 54.2296 189.846ZM81.6169 151.33L80.1532 167.483V167.484C80.572 166.533 81.04 165.454 81.557 164.263L82.0282 163.177C88.246 148.964 91.5519 141.62 92.3251 140.963C92.578 140.763 92.8146 140.543 93.0324 140.306C91.182 140.006 89.393 139.407 87.7361 138.531L84.2981 145.744C84.2924 145.755 84.2867 145.765 84.281 145.774L84.2731 145.786L84.2731 145.786L84.2731 145.786C84.2677 145.794 84.2623 145.802 84.2569 145.811L84.2527 145.819L84.2487 145.826L81.6169 151.33ZM96.9639 139.601C97.1764 139.485 97.3799 139.353 97.5726 139.207C97.4176 139.753 97.2197 140.286 96.9806 140.801C96.9639 140.488 96.946 140.077 96.9639 139.601ZM81.1249 132.239C79.3292 132.218 77.6008 131.553 76.2548 130.366L68.1141 137.58C68.2784 138.845 69.1832 144.842 73.246 147.915C74.8881 149.234 76.8136 150.157 78.8717 150.609C79.5204 150.744 80.1845 150.788 80.8453 150.741L83.5086 145.187C85.4662 140.225 84.2654 136.348 84.2487 136.314C84.2361 136.301 84.2301 136.283 84.2323 136.265V136.052C84.2323 136.044 84.2364 136.035 84.2405 136.027C84.2446 136.019 84.2487 136.011 84.2487 136.002C84.2531 135.998 84.2564 135.995 84.2588 135.992C84.2616 135.989 84.2632 135.987 84.2641 135.984C84.2645 135.983 84.2648 135.982 84.2649 135.981C84.2652 135.979 84.2653 135.977 84.2654 135.975L84.2654 135.97C84.278 135.94 84.2945 135.912 84.3145 135.887C84.3171 135.885 84.3196 135.882 84.3222 135.879L84.3263 135.873C84.3309 135.867 84.3355 135.86 84.3401 135.853C84.3481 135.842 84.356 135.83 84.3639 135.822L84.3803 135.805C84.3802 135.803 84.3806 135.801 84.3813 135.799C84.3821 135.797 84.3834 135.795 84.385 135.794C84.3881 135.79 84.3923 135.789 84.3967 135.789L84.4134 135.772C84.4216 135.772 84.4257 135.768 84.4298 135.764C84.432 135.762 84.4343 135.76 84.4373 135.758C84.4397 135.757 84.4425 135.756 84.4461 135.756C84.456 135.751 84.4644 135.748 84.4718 135.745L84.4779 135.742C84.4919 135.737 84.5019 135.733 84.5119 135.723C84.5119 135.721 84.5123 135.719 84.5131 135.717C84.5139 135.715 84.5151 135.713 84.5166 135.711C84.5197 135.708 84.5239 135.707 84.5283 135.707C84.5449 135.707 84.5573 135.703 84.5696 135.699C84.5819 135.694 84.5942 135.69 84.6105 135.69H84.8243C84.8475 135.688 84.8708 135.694 84.8901 135.707H84.9069C84.9315 135.711 84.9543 135.722 84.9723 135.739L85.8935 136.331C87.6383 137.416 91.5862 139.585 94.5303 139.354C96.6195 139.19 98.5109 137.547 99.7117 134.951L96.3726 135.493H96.2904C96.0448 135.502 95.8317 135.325 95.7958 135.082C95.7644 134.817 95.9442 134.573 96.2071 134.524L100.158 133.879C100.378 133.267 100.559 132.641 100.701 132.006C100.798 131.53 101.341 131.201 102.146 130.725C102.985 130.232 104.021 129.607 104.515 128.819C104.524 128.804 104.53 128.787 104.532 128.769C104.482 128.506 103.364 127.981 102.887 127.767C101.834 127.291 100.929 126.863 100.897 126.141C100.752 123.551 100.305 120.987 99.5648 118.501C97.7291 120.806 95.4322 122.703 92.8208 124.071C92.2767 124.33 91.6474 124.342 91.0938 124.104C90.4215 123.84 89.9067 123.283 89.6956 122.593C89.5769 122.201 89.3036 121.875 88.9388 121.689C88.4532 121.488 87.9068 121.494 87.4257 121.705C86.7282 122.035 86.2196 122.665 86.0441 123.416C85.7355 124.485 85.9687 125.638 86.6689 126.504C87.5256 127.629 87.3755 129.223 86.3238 130.168C85.6721 130.725 84.9469 131.189 84.1688 131.548C83.2172 131.999 82.178 132.235 81.1249 132.239ZM45.7587 144.496C45.775 144.488 45.7915 144.476 45.8079 144.463C45.8244 144.451 45.8408 144.439 45.8572 144.43C49.2349 142.597 52.7826 141.095 56.4505 139.946C61.8948 138.253 65.859 137.957 67.1419 137.908C67.3558 139.618 68.3922 145.515 72.6361 148.719C76.1231 151.365 78.936 151.76 80.3339 151.76H80.4656L70.2508 183.668C69.71 183.603 69.1649 183.542 68.62 183.48L68.6198 183.48L68.6195 183.48L68.6193 183.48L68.6191 183.48L68.6189 183.48C68.0706 183.418 67.5224 183.357 66.9787 183.291C63.2942 182.88 59.8565 182.535 58.5241 182.403L59.1819 180.892C59.3467 180.908 59.6096 180.908 59.9387 180.908C60.1914 180.908 60.4707 180.895 60.777 180.88L60.8762 180.875C62.2908 180.761 63.2778 180.366 63.8207 179.709C63.9818 179.507 64.0943 179.271 64.1495 179.019C64.1754 178.986 64.1924 178.946 64.1989 178.905L71.1404 159.829C71.2312 159.574 71.0986 159.295 70.8442 159.204C70.5898 159.114 70.31 159.246 70.2193 159.5L63.8192 177.113C62.9475 175.372 60.0692 172.135 50.6927 168.421C38.4382 163.574 31.4804 164.872 28.865 165.761C33.0758 157.661 37.1214 152.535 39.9187 149.527C43.3571 145.811 45.7259 144.497 45.7587 144.497V144.496ZM0.935572 232.747C2.14527 231.288 3.49505 229.951 4.9656 228.754C4.97785 228.753 4.98931 228.748 4.99794 228.739C7.22759 226.896 9.57922 225.205 12.0368 223.678C18.8238 219.372 25.9536 215.629 33.3543 212.489C33.9756 212.229 34.5716 211.995 35.1311 211.775L35.3613 211.684C33.4732 211.042 31.6888 210.129 30.0647 208.973C28.5552 207.921 27.209 206.653 26.0696 205.21C19.0292 198.326 18.8812 184.359 26.0038 169.227C30.9713 158.694 35.9221 152.303 39.2121 148.803C39.35 148.657 39.4878 148.516 39.6236 148.376C39.7634 148.232 39.901 148.091 40.0343 147.949C37.0427 149.982 34.2058 152.234 31.547 154.686C22.3029 163.212 14.5719 174.96 9.16 188.663C3.6858 202.716 0.89618 217.668 0.935572 232.747ZM136.655 230.626C133.896 232.164 130.871 233.168 127.739 233.584L111.504 221.458L112.227 220.751C112.559 220.435 112.739 219.992 112.722 219.535C112.71 219.08 112.507 218.651 112.162 218.352L108.922 215.592C108.787 215.477 108.709 215.309 108.708 215.132C108.708 214.956 108.772 214.786 108.889 214.655C109.212 214.336 109.385 213.895 109.366 213.442C109.347 212.989 109.138 212.564 108.79 212.273L103.92 208.198C103.286 207.671 102.357 207.706 101.765 208.28L98.0315 211.878C98.003 211.902 97.5855 212.298 96.7357 213.104L96.7274 213.112L96.7209 213.118L96.7171 213.122L96.7165 213.122L96.7089 213.129L96.7068 213.131C94.5876 215.141 89.8382 219.646 81.8128 227.208C80.4313 228.506 79.0331 229.788 77.6842 230.987C73.4468 234.729 68.6444 237.779 63.4543 240.024C58.2621 242.27 52.7515 243.695 47.1204 244.247C26.8409 246.202 17.9898 244.066 14.1409 241.929C11.3774 240.384 9.28823 237.196 7.89035 234.371C7.33104 233.089 6.47572 231.019 5.86696 229.278C7.99609 227.54 10.2327 225.937 12.5634 224.48C23.0266 217.891 31.7429 214.079 36.9076 212.108C38.6706 212.557 40.4832 212.783 42.3028 212.781H42.6482C47.3198 212.715 53.4881 210.07 60.9873 204.944C64.4049 202.601 67.6786 200.055 70.7907 197.32C70.9317 197.25 71.3048 197.066 71.8595 196.792L71.8604 196.791C76.0314 194.729 90.4608 187.595 93.6545 186.13C100.382 183.058 106.485 183.879 111.287 188.497C115.926 192.966 133.691 212.042 144.448 223.642C143.678 224.679 140.701 228.36 136.655 230.626ZM148.448 235.342C149.385 235.082 150.286 234.707 151.13 234.225V234.226C151.746 233.768 152.265 233.193 152.659 232.534C152.475 232.335 152.189 232.025 151.811 231.615L151.805 231.609L151.803 231.607C150.518 230.214 148.182 227.682 145.239 224.515C144.785 225.505 144.269 226.465 143.693 227.39C142.246 229.739 140.65 231.432 138.956 232.451L141.456 234.997C141.462 235 141.471 235.005 141.481 235.01C141.511 235.025 141.557 235.048 141.61 235.077C141.626 235.085 141.642 235.094 141.658 235.103C141.673 235.111 141.688 235.119 141.703 235.128C142.28 235.391 143.91 235.934 147.182 235.654H147.215C147.611 235.572 148.021 235.473 148.448 235.342ZM160.62 222.789C160.676 222.786 160.731 222.792 160.785 222.805C161.459 222.904 161.508 223.232 161.525 223.364C161.772 224.892 158.663 228.837 154.288 231.251C155.932 227.489 158.647 222.79 160.62 222.79V222.789ZM156.722 230.888C156.212 231.251 155.719 231.612 155.242 231.99V231.991C158.926 232.32 163.022 230.217 163.779 228.768C163.992 228.341 163.861 228.144 163.68 227.979C162.759 227.174 159.699 228.785 156.903 230.756C156.836 230.805 156.788 230.838 156.722 230.888Z" fill="#1A1A1A"/>
<path d="M148.662 242.063L152.496 238.235C152.818 237.913 152.818 237.39 152.496 237.068C152.174 236.746 151.651 236.746 151.328 237.068C149.881 238.512 148.186 240.19 146.328 242.063H148.662Z" fill="#E9856F"/>
<path d="M151.64 242.063H153.96C154.273 241.735 154.585 241.423 154.898 241.094C155.852 240.092 156.757 239.155 157.76 238.251C157.98 238.054 158.079 237.755 158.018 237.466C157.958 237.177 157.747 236.942 157.466 236.85C157.186 236.758 156.877 236.822 156.657 237.019C155.62 237.956 154.649 238.975 153.712 239.944C153.038 240.667 152.363 241.373 151.64 242.063Z" fill="#E9856F"/>
</g>
<mask id="mask1" mask-type="alpha" maskUnits="userSpaceOnUse" x="107" y="0" width="120" height="114">
<rect x="107.871" y="0.979492" width="118.33" height="112.586" fill="white"/>
</mask>
<g mask="url(#mask1)">
<path d="M219.824 54.247C219.827 48.222 216.807 42.5984 211.786 39.2794C214.358 32.5311 212.639 24.8964 207.425 19.906C202.21 14.9155 194.517 13.5421 187.901 16.4208C185.25 10.1981 179.33 5.99768 172.588 5.55684C165.847 5.116 159.431 8.50969 155.994 14.3342C150.762 10.6856 143.988 10.0964 138.207 12.7873C132.425 15.4781 128.507 21.0434 127.919 27.4008C120.783 29.1447 115.433 35.0738 114.421 42.3595C113.408 49.6453 116.939 56.8119 123.329 60.4404C121.563 67.2886 123.979 74.5366 129.498 78.95C135.017 83.3634 142.609 84.1191 148.888 80.8799C151.547 85.6863 156.26 89.0072 161.675 89.8913C167.091 90.7754 172.613 89.1253 176.659 85.4136C181.934 88.9697 188.697 89.4589 194.428 86.6988C200.159 83.9387 203.999 78.3432 204.519 71.996C213.31 70.6988 219.823 63.1454 219.824 54.247Z" fill="#6B845F" stroke="#1A1A1A" stroke-linecap="round" stroke-linejoin="round"/>
<path d="M148.889 41.0877L145.947 39.778L145.289 41.2579L149.82 43.2753L149.267 44.5178L144.735 42.5004L143.767 44.6746L142.086 43.9262L143.054 41.752L141.501 41.0605L142.055 39.8181L143.608 40.5095L144.267 39.0296L142.713 38.3381L143.397 36.8034L144.95 37.4948L147.781 31.1366L152.403 33.1946C153.512 33.6882 154.282 34.4982 154.715 35.6249C155.153 36.7393 155.127 37.8447 154.639 38.9409C154.151 40.0372 153.347 40.7955 152.225 41.2158C151.122 41.6293 150.01 41.5866 148.889 41.0877ZM148.754 33.4745L146.631 38.2432L149.572 39.5529C150.206 39.8349 150.851 39.8448 151.508 39.5826C152.182 39.3137 152.666 38.8503 152.958 38.1925C153.251 37.5348 153.275 36.8742 153.031 36.2106C152.786 35.5471 152.341 35.0716 151.696 34.7842L148.754 33.4745Z" fill="white"/>
<path d="M177.057 31.2615L173.869 31.7096L174.094 33.3138L179.006 32.6235L179.195 33.9703L174.284 34.6606L174.615 37.0174L172.793 37.2735L172.461 34.9167L170.778 35.1533L170.589 33.8065L172.272 33.5699L172.047 31.9657L170.363 32.2023L170.129 30.5386L171.813 30.302L170.844 23.4098L175.855 22.7055C177.056 22.5367 178.139 22.8154 179.103 23.5417C180.065 24.2547 180.629 25.2054 180.796 26.3937C180.963 27.5821 180.683 28.6515 179.955 29.6021C179.238 30.5376 178.272 31.0907 177.057 31.2615ZM172.908 24.8767L173.635 30.0459L176.824 29.5978C177.51 29.5013 178.063 29.1679 178.481 28.5975C178.91 28.012 179.074 27.3628 178.974 26.6498C178.874 25.9368 178.544 25.3638 177.985 24.9307C177.426 24.4976 176.797 24.3303 176.097 24.4286L172.908 24.8767Z" fill="white"/>
<path d="M177.942 60.4892L175.705 62.8055L176.87 63.9308L180.316 60.3629L181.294 61.3076L177.849 64.8755L179.561 66.5288L178.282 67.8524L176.57 66.1991L175.389 67.422L174.411 66.4773L175.592 65.2544L174.427 64.129L173.246 65.3519L172.037 64.1849L173.218 62.962L168.212 58.1272L171.727 54.4873C172.569 53.6145 173.594 53.1676 174.801 53.1465C175.998 53.1162 177.028 53.5179 177.891 54.3514C178.754 55.185 179.192 56.2005 179.203 57.3979C179.214 58.5763 178.794 59.6068 177.942 60.4892ZM170.741 58.0123L174.496 61.6384L176.733 59.3222C177.215 58.8234 177.445 58.2206 177.423 57.5138C177.401 56.7881 177.131 56.1752 176.613 55.675C176.095 55.1749 175.483 54.9263 174.775 54.9292C174.068 54.9321 173.469 55.1877 172.978 55.696L170.741 58.0123Z" fill="white"/>
<ellipse cx="130.066" cy="94.5992" rx="7.30508" ry="7.31555" fill="#6B845F" stroke="#1A1A1A" stroke-linecap="round" stroke-linejoin="round"/>
<ellipse cx="118.442" cy="106.1" rx="2.92203" ry="2.92622" fill="#6B845F" stroke="#1A1A1A" stroke-linecap="round" stroke-linejoin="round"/>
</g>
</svg>
